<svg width="130" height="130" viewBox="0 0 130 130" fill="none" xmlns="http://www.w3.org/2000/svg">
<g id="Clip path group">
<mask id="mask0_165_283" style="mask-type:luminance" maskUnits="userSpaceOnUse" x="0" y="0" width="130" height="130">
<g id="clip0_656_2730">
<path id="Vector" d="M130 0H0V130H130V0Z" fill="white"/>
</g>
</mask>
<g mask="url(#mask0_165_283)">
<g id="Group">
<path id="Vector_2" d="M65.745 128.354H64.917V126.873H65.745V128.354ZM65.745 125.228H64.917V123.582H65.745V125.228ZM65.745 121.937H64.917V120.291H65.745V121.937ZM65.745 118.646H64.917V117H65.745V118.646ZM65.745 115.354H64.917V113.709H65.745V115.354ZM65.745 112.063H64.917V110.418H65.745V112.063ZM65.745 108.772H64.917V107.127H65.745V108.772ZM65.745 105.481H64.917V103.835H65.745V105.481ZM65.745 102.19H64.917V100.544H65.745V102.19ZM65.745 98.8987H64.917V97.2532H65.745V98.8987ZM65.745 95.6076H64.917V93.962H65.745V95.6076ZM65.745 92.3164H64.917V90.6709H65.745V92.3164ZM65.745 89.0253H64.917V87.3797H65.745V89.0253ZM65.745 85.7342H64.917V84.0886H65.745V85.7342ZM65.745 82.443H64.917V80.7976H65.745V82.443ZM65.745 79.1521H64.917V77.5065H65.745V79.1521ZM65.745 75.8609H64.917V74.2153H65.745V75.8609ZM65.745 72.5698H64.917V70.9242H65.745V72.5698ZM65.745 69.2786H64.917V67.6331H65.745V69.2786ZM65.745 65.9875H64.917V64.3419H65.745V65.9875ZM65.745 62.6964H64.917V61.0508H65.745V62.6964ZM65.745 59.4052H64.917V57.7597H65.745V59.4052ZM65.745 56.1141H64.917V54.4685H65.745V56.1141ZM65.745 52.8229H64.917V51.1774H65.745V52.8229ZM65.745 49.5318H64.917V47.8862H65.745V49.5318ZM65.745 46.2407H64.917V44.5951H65.745V46.2407ZM65.745 42.9495H64.917V41.304H65.745V42.9495ZM65.745 39.6584H64.917V38.0128H65.745V39.6584ZM65.745 36.3672H64.917V34.7217H65.745V36.3672ZM65.745 33.0761H64.917V31.4305H65.745V33.0761ZM65.745 29.785H64.917V28.1394H65.745V29.785ZM65.745 26.4938H64.917V24.8483H65.745V26.4938ZM65.745 23.2027H64.917V21.5571H65.745V23.2027ZM65.745 19.9116H64.917V18.266H65.745V19.9116ZM65.745 16.6204H64.917V14.9748H65.745V16.6204ZM65.745 13.3293H64.917V11.6837H65.745V13.3293ZM65.745 10.0381H64.917V8.39257H65.745V10.0381ZM65.745 6.747H64.917V5.10143H65.745V6.747ZM65.745 3.45586H64.917V1.81029H65.745V3.45586Z" fill="#02426D"/>
<path id="Vector_3" d="M65.1655 129.589V128.766C65.7451 128.766 66.2419 128.766 66.8215 128.766V129.589C66.3247 129.589 65.7451 129.589 65.1655 129.589ZM63.5094 129.589C62.9298 129.589 62.433 129.589 61.8534 129.506V128.683C62.433 128.683 62.9298 128.766 63.5094 128.766V129.589ZM68.5604 129.506L68.4776 128.683C69.0572 128.683 69.554 128.601 70.1336 128.601L70.2164 129.424C69.6368 129.424 69.0572 129.506 68.5604 129.506ZM60.1973 129.424C59.6177 129.424 59.1209 129.342 58.5413 129.259L58.6241 128.437C59.2037 128.519 59.7005 128.519 60.2801 128.601L60.1973 129.424ZM71.8725 129.259L71.7897 128.437C72.3693 128.354 72.8661 128.354 73.4457 128.272L73.5285 129.095C72.9489 129.095 72.3693 129.177 71.8725 129.259ZM56.8852 129.095C56.3056 129.013 55.8088 128.93 55.2292 128.848L55.3948 128.025C55.9744 128.108 56.4712 128.19 57.0508 128.272L56.8852 129.095ZM75.1846 128.766L75.019 127.943C75.5986 127.861 76.0954 127.778 76.675 127.696L76.8406 128.519C76.261 128.601 75.6814 128.683 75.1846 128.766ZM53.5731 128.601C52.9935 128.519 52.4967 128.437 51.9171 128.272L52.0827 127.449C52.5795 127.532 53.1591 127.696 53.7387 127.778L53.5731 128.601ZM78.4139 128.19L78.2483 127.367C78.7451 127.285 79.3247 127.12 79.8215 127.038L79.9871 127.861C79.4903 127.943 78.9935 128.108 78.4139 128.19ZM50.3438 127.943C49.7642 127.778 49.2674 127.696 48.6878 127.532L48.9362 126.709C49.433 126.873 50.0126 126.956 50.5094 127.12L50.3438 127.943ZM81.6432 127.449L81.3948 126.626C81.8916 126.462 82.4709 126.297 82.9677 126.215L83.2161 127.038C82.7193 127.12 82.2228 127.285 81.6432 127.449ZM47.1145 127.12C46.6177 126.956 46.0381 126.791 45.5413 126.626L45.7897 125.804C46.2865 125.968 46.8661 126.133 47.3629 126.297L47.1145 127.12ZM84.8721 126.462L84.6237 125.639C85.1205 125.475 85.7002 125.31 86.197 125.145L86.4454 125.886C85.9486 126.133 85.3689 126.297 84.8721 126.462ZM43.8852 126.051C43.3884 125.886 42.8088 125.721 42.312 125.475L42.6432 124.734C43.14 124.899 43.6368 125.145 44.2164 125.31L43.8852 126.051ZM88.0186 125.392L87.6874 124.652C88.1842 124.487 88.6811 124.24 89.1779 124.076L89.5091 124.816C89.0123 124.981 88.5154 125.145 88.0186 125.392ZM40.8215 124.899C40.3247 124.652 39.8279 124.487 39.2483 124.24L39.5795 123.5C40.0763 123.747 40.5731 123.911 41.0699 124.158L40.8215 124.899ZM91.0823 124.158L90.7511 123.418C91.2479 123.171 91.7448 123.006 92.2416 122.759L92.5728 123.5C92.076 123.664 91.5791 123.911 91.0823 124.158ZM37.7578 123.582C37.261 123.335 36.7642 123.089 36.2674 122.842L36.5986 122.101C37.0954 122.348 37.5922 122.595 38.089 122.842L37.7578 123.582ZM94.0632 122.677L93.6492 121.937C94.146 121.69 94.6428 121.443 95.1397 121.196L95.5537 121.937C95.0569 122.183 94.56 122.43 94.0632 122.677ZM34.7769 122.101C34.2801 121.854 33.7833 121.607 33.2865 121.278L33.7005 120.538C34.1973 120.785 34.6941 121.032 35.1081 121.361L34.7769 122.101ZM97.0441 121.114L96.6301 120.373C97.1269 120.126 97.5409 119.797 98.0377 119.551L98.4518 120.291C97.9549 120.62 97.4581 120.867 97.0441 121.114ZM31.8788 120.456C31.382 120.209 30.968 119.88 30.4712 119.551L30.8852 118.892C31.382 119.221 31.796 119.468 32.2928 119.715L31.8788 120.456ZM99.8594 119.386L99.4454 118.728C99.9422 118.399 100.356 118.152 100.853 117.823L101.35 118.481C100.77 118.81 100.356 119.139 99.8594 119.386ZM29.0635 118.645C28.5667 118.316 28.1527 117.987 27.6559 117.74L28.1527 117.082C28.5667 117.411 29.0635 117.74 29.4776 117.987L29.0635 118.645ZM102.592 117.576L102.095 116.918C102.509 116.589 103.006 116.259 103.42 115.93L103.917 116.589C103.503 116.918 103.089 117.247 102.592 117.576ZM26.3311 116.753C25.9171 116.424 25.4202 116.095 25.0062 115.766L25.503 115.107C25.9171 115.437 26.3311 115.766 26.8279 116.095L26.3311 116.753ZM105.242 115.519L104.745 114.861C105.159 114.532 105.573 114.202 105.987 113.791L106.484 114.449C106.152 114.861 105.656 115.19 105.242 115.519ZM23.6814 114.696C23.2674 114.367 22.8534 113.956 22.4393 113.626L23.019 112.968C23.433 113.297 23.847 113.709 24.261 114.038L23.6814 114.696ZM107.808 113.462L107.229 112.886C107.643 112.557 108.057 112.145 108.471 111.816L109.05 112.392C108.636 112.721 108.222 113.051 107.808 113.462ZM21.1973 112.475C20.7833 112.063 20.3693 111.734 19.9553 111.323L20.5349 110.747C20.9489 111.158 21.3629 111.487 21.6941 111.899L21.1973 112.475ZM110.21 111.158L109.63 110.582C110.044 110.171 110.375 109.842 110.789 109.43L111.369 110.006C111.038 110.418 110.624 110.747 110.21 111.158ZM18.796 110.171C18.382 109.759 18.0508 109.348 17.6368 108.937L18.2164 108.361C18.6304 108.772 18.9616 109.183 19.3757 109.513L18.796 110.171ZM112.528 108.772L111.949 108.196C112.28 107.785 112.694 107.373 113.025 106.962L113.687 107.538C113.273 107.949 112.942 108.361 112.528 108.772ZM16.5604 107.785C16.2292 107.373 15.8151 106.962 15.4839 106.551L16.1463 106.057C16.4776 106.468 16.8916 106.88 17.2228 107.291L16.5604 107.785ZM114.764 106.304L114.101 105.81C114.433 105.399 114.764 104.987 115.095 104.576L115.757 105.07C115.426 105.399 115.095 105.892 114.764 106.304ZM14.4075 105.234C14.0763 104.823 13.7451 104.329 13.4139 103.918L14.0763 103.424C14.4075 103.835 14.7387 104.329 15.0699 104.74L14.4075 105.234ZM116.834 103.671L116.172 103.177C116.503 102.766 116.834 102.272 117.165 101.861L117.828 102.354C117.414 102.766 117.165 103.259 116.834 103.671ZM12.4202 102.601C12.089 102.19 11.7578 101.696 11.5094 101.202L12.1718 100.709C12.503 101.12 12.7514 101.614 13.0827 102.025L12.4202 102.601ZM118.738 100.956L118.076 100.462C118.407 99.9683 118.656 99.5569 118.987 99.0632L119.649 99.4746C119.318 100.051 119.07 100.544 118.738 100.956ZM10.5158 99.886C10.1846 99.3923 9.93616 98.9809 9.60495 98.4872L10.3502 98.0758C10.5986 98.5695 10.9298 98.9809 11.1782 99.4746L10.5158 99.886ZM120.477 98.1581L119.732 97.7467C119.98 97.2531 120.312 96.8417 120.56 96.348L121.305 96.7594C121.057 97.1708 120.808 97.6645 120.477 98.1581ZM8.85973 97.0062C8.61132 96.5126 8.28011 96.0189 8.0317 95.5252L8.77692 95.1138C9.02533 95.6075 9.27374 96.1012 9.60495 96.5126L8.85973 97.0062ZM122.133 95.2784L121.388 94.867C121.636 94.3733 121.885 93.8797 122.133 93.386L122.879 93.7151C122.63 94.291 122.382 94.7847 122.133 95.2784ZM7.28647 94.1265C7.03806 93.6328 6.78965 93.1391 6.54124 92.6455L7.28647 92.3163C7.53488 92.81 7.78328 93.3037 8.0317 93.7974L7.28647 94.1265ZM123.624 92.3163L122.879 91.9872C123.127 91.4936 123.375 90.9999 123.541 90.5062L124.286 90.8353C124.121 91.329 123.872 91.8227 123.624 92.3163ZM5.87882 91.1645C5.63042 90.6708 5.46481 90.1771 5.2164 89.6834L5.96163 89.3543C6.21003 89.848 6.37564 90.3417 6.62405 90.8353L5.87882 91.1645ZM124.949 89.2721L124.203 88.9429C124.369 88.4493 124.617 87.9556 124.783 87.3796L125.528 87.6265C125.363 88.2024 125.197 88.7784 124.949 89.2721ZM4.55398 88.0379C4.38838 87.5442 4.13997 86.9683 3.97437 86.4746L4.71959 86.2277C4.88519 86.7214 5.0508 87.2151 5.29921 87.791L4.55398 88.0379ZM126.108 86.1455L125.363 85.8986C125.528 85.405 125.694 84.829 125.859 84.3353L126.687 84.5822C126.439 85.0758 126.273 85.6518 126.108 86.1455ZM3.47755 84.9113C3.31195 84.4176 3.14634 83.8417 2.98074 83.348L3.80876 83.1012C3.97437 83.5948 4.13997 84.1708 4.30558 84.6645L3.47755 84.9113ZM127.101 82.9366L126.273 82.6898C126.439 82.1961 126.605 81.6202 126.687 81.1265L127.515 81.3733C127.433 81.9493 127.267 82.4429 127.101 82.9366ZM2.56672 81.7847C2.40112 81.291 2.31832 80.7151 2.15271 80.1391L2.98074 79.9746C3.14634 80.4683 3.22914 81.0442 3.39475 81.5379L2.56672 81.7847ZM127.929 79.81L127.101 79.6455C127.267 79.1518 127.35 78.5758 127.433 78.0822L128.261 78.2467C128.178 78.6581 128.095 79.2341 127.929 79.81ZM1.7387 78.5758C1.65589 77.9999 1.49029 77.5062 1.40749 76.9303L2.23551 76.7657C2.31832 77.3417 2.48392 77.8353 2.56672 78.4113L1.7387 78.5758ZM128.675 76.5189L127.847 76.3543C127.929 75.7784 128.012 75.2847 128.095 74.7088L128.923 74.8733C128.84 75.4493 128.757 76.0252 128.675 76.5189ZM1.15908 75.2847C1.07628 74.7088 0.993474 74.2151 0.910672 73.6391L1.7387 73.5569C1.8215 74.1328 1.9043 74.6265 1.9871 75.2024L1.15908 75.2847ZM129.172 73.2277L128.343 73.1455C128.426 72.5695 128.509 72.0758 128.509 71.4999L129.337 71.5822C129.254 72.1581 129.172 72.7341 129.172 73.2277ZM0.745067 71.9936C0.662264 71.4176 0.662264 70.9239 0.579462 70.348L1.40749 70.2657C1.49029 70.8417 1.49029 71.3353 1.57309 71.9113L0.745067 71.9936ZM129.503 69.9366L128.675 69.8543C128.757 69.2784 128.757 68.7847 128.757 68.2088H129.586C129.586 68.867 129.503 69.4429 129.503 69.9366ZM0.413856 68.7024C0.413856 68.1265 0.331055 67.6328 0.331055 67.0569H1.15908C1.15908 67.6328 1.15908 68.1265 1.24188 68.7024H0.413856ZM129.668 66.6455H128.84C128.84 66.0695 128.84 65.5758 128.84 64.9999C128.84 64.7531 128.84 64.4239 128.84 64.1771H129.668C129.668 64.4239 129.668 64.7531 129.668 64.9999C129.668 65.5758 129.668 66.0695 129.668 66.6455ZM0.331055 65.4113V64.9999C0.331055 64.5885 0.331055 64.1771 0.331055 63.7657H1.15908C1.15908 64.1771 1.15908 64.5885 1.15908 64.9999V65.4113H0.331055ZM128.757 62.5315C128.757 61.9556 128.675 61.4619 128.675 60.886L129.503 60.8037C129.503 61.3796 129.586 61.8733 129.586 62.4493L128.757 62.5315ZM1.24188 62.1201H0.413856C0.413856 61.5442 0.496659 61.0505 0.496659 60.4746L1.32468 60.5569C1.24188 61.0505 1.24188 61.5442 1.24188 62.1201ZM128.592 59.3227C128.509 58.7467 128.509 58.2531 128.426 57.6771L129.254 57.5948C129.337 58.1708 129.337 58.6645 129.42 59.2404L128.592 59.3227ZM1.49029 58.829L0.662264 58.7467C0.745067 58.1708 0.745067 57.6771 0.827869 57.1012L1.65589 57.1834C1.57309 57.7594 1.49029 58.3353 1.49029 58.829ZM128.178 56.0315C128.095 55.4556 128.012 54.9619 127.929 54.386L128.757 54.2214C128.84 54.7974 128.923 55.291 129.006 55.867L128.178 56.0315ZM1.8215 55.6201L0.993474 55.5379C1.07628 54.9619 1.15908 54.4683 1.24188 53.8923L2.06991 54.0569C1.9871 54.5505 1.9043 55.0442 1.8215 55.6201ZM127.681 52.8227C127.598 52.2467 127.433 51.7531 127.35 51.2594L128.178 51.0948C128.261 51.6708 128.426 52.1645 128.509 52.7404L127.681 52.8227ZM2.40112 52.4113L1.57309 52.2467C1.65589 51.6708 1.8215 51.1771 1.9043 50.6012L2.73233 50.7657C2.64953 51.3417 2.48392 51.8353 2.40112 52.4113ZM126.936 49.6138C126.77 49.1201 126.687 48.5442 126.522 48.0505L127.35 47.8037C127.515 48.2974 127.598 48.8733 127.764 49.367L126.936 49.6138ZM3.14634 49.2024L2.31832 49.0379C2.48392 48.4619 2.56672 47.9683 2.73233 47.4746L3.56035 47.7214C3.39475 48.1328 3.22914 48.7088 3.14634 49.2024ZM126.108 46.4872C125.942 45.9936 125.777 45.4176 125.611 44.9239L126.356 44.6771C126.522 45.1708 126.687 45.7467 126.853 46.2404L126.108 46.4872ZM4.05717 46.0758L3.22914 45.829C3.39475 45.3353 3.56035 44.7594 3.72596 44.2657L4.47118 44.5126C4.38838 45.0062 4.22277 45.5822 4.05717 46.0758ZM125.031 43.3607C124.866 42.867 124.617 42.3733 124.452 41.7974L125.197 41.4683C125.363 41.9619 125.611 42.5379 125.777 43.0315L125.031 43.3607ZM5.0508 42.9493L4.30558 42.7024C4.47118 42.2088 4.71959 41.6328 4.88519 41.1391L5.63042 41.4683C5.46481 41.9619 5.29921 42.4556 5.0508 42.9493ZM123.872 40.3163C123.624 39.8227 123.458 39.329 123.21 38.8353L123.955 38.5062C124.203 38.9999 124.369 39.4936 124.617 39.9872L123.872 40.3163ZM6.29284 39.905L5.54761 39.5758C5.79602 39.0822 5.96163 38.5885 6.21003 38.0948L6.95526 38.4239C6.70685 38.9176 6.54125 39.4113 6.29284 39.905ZM122.547 37.3543C122.299 36.8607 122.05 36.367 121.802 35.8733L122.547 35.4619C122.796 35.9556 123.044 36.4493 123.293 36.9429L122.547 37.3543ZM7.70048 36.9429L6.95526 36.6138C7.20367 36.1201 7.45207 35.6265 7.70048 35.1328L8.44571 35.5442C8.1145 35.9556 7.8661 36.4493 7.70048 36.9429ZM121.057 34.4746C120.808 33.9809 120.56 33.4872 120.229 33.0758L120.974 32.6645C121.222 33.1581 121.554 33.6518 121.802 34.1455L121.057 34.4746ZM9.19094 34.0632L8.44571 33.6518C8.69412 33.1581 9.02533 32.6644 9.27374 32.1708L10.019 32.5822C9.68775 33.0758 9.43934 33.5695 9.19094 34.0632ZM119.401 31.5948C119.152 31.1012 118.821 30.6898 118.49 30.1961L119.152 29.7847C119.484 30.2784 119.732 30.6898 120.063 31.1834L119.401 31.5948ZM10.847 31.1834L10.1846 30.772C10.5158 30.2784 10.7642 29.867 11.0954 29.3733L11.7578 29.867C11.4266 30.2784 11.1782 30.772 10.847 31.1834ZM117.662 28.8796C117.331 28.4682 117 27.9746 116.751 27.5632L117.414 27.0695C117.745 27.4809 118.076 27.9746 118.407 28.386L117.662 28.8796ZM12.6686 28.4682L12.0062 27.9746C12.3374 27.4809 12.6686 27.0695 12.9999 26.6581L13.6623 27.1518C13.3311 27.5632 12.9999 28.0569 12.6686 28.4682ZM115.675 26.2467C115.343 25.8353 115.012 25.4239 114.681 24.9303L115.343 24.4366C115.675 24.848 116.006 25.2594 116.337 25.7531L115.675 26.2467ZM14.6559 25.8353L13.9935 25.3417C14.3247 24.9303 14.6559 24.4366 15.0699 24.0252L15.7323 24.5189C15.3183 25.0126 14.9871 25.4239 14.6559 25.8353ZM113.605 23.6961C113.273 23.2847 112.859 22.8733 112.528 22.4619L113.108 21.886C113.439 22.2974 113.853 22.7088 114.184 23.1201L113.605 23.6961ZM16.726 23.2847L16.0635 22.7088C16.3948 22.2974 16.8088 21.886 17.14 21.4746L17.7196 22.0505C17.3884 22.4619 17.0572 22.8733 16.726 23.2847ZM111.452 21.2277C111.038 20.8163 110.707 20.405 110.293 20.0758L110.872 19.4999C111.286 19.9113 111.617 20.3227 112.031 20.6518L111.452 21.2277ZM18.8788 20.8986L18.2992 20.3227C18.7132 19.9113 19.0444 19.4999 19.4585 19.1708L20.0381 19.7467C19.7069 20.0758 19.2928 20.4872 18.8788 20.8986ZM109.133 18.9239C108.719 18.5126 108.305 18.1834 107.974 17.772L108.554 17.1961C108.968 17.6075 109.382 17.9366 109.796 18.348L109.133 18.9239ZM21.2801 18.5948L20.7005 17.9366C21.1145 17.5252 21.5285 17.1961 21.9425 16.7847L22.5221 17.3607C22.0253 17.8543 21.6113 18.1834 21.2801 18.5948ZM106.732 16.7024C106.318 16.3733 105.904 15.9619 105.49 15.6328L105.987 14.9746C106.401 15.3037 106.815 15.7151 107.229 16.0442L106.732 16.7024ZM23.6814 16.3733L23.1846 15.7974C23.5986 15.4682 24.0126 15.0569 24.4266 14.7277L24.9234 15.386C24.5094 15.7151 24.0954 16.0442 23.6814 16.3733ZM104.165 14.6455C103.751 14.3163 103.337 13.9872 102.84 13.6581L103.337 12.9999C103.751 13.329 104.248 13.6581 104.662 13.9872L104.165 14.6455ZM26.2483 14.3163L25.7514 13.6581C26.1655 13.329 26.6623 12.9999 27.0763 12.6708L27.5731 13.329C27.0763 13.6581 26.6623 13.9872 26.2483 14.3163ZM101.515 12.6708C101.101 12.3417 100.605 12.0125 100.191 11.7657L100.687 11.1075C101.184 11.4366 101.598 11.7657 102.095 12.0125L101.515 12.6708ZM28.8979 12.4239L28.4011 11.7657C28.8979 11.4366 29.312 11.1075 29.8088 10.8607L30.2228 11.5189C29.8088 11.7657 29.312 12.0948 28.8979 12.4239ZM98.783 10.8607C98.2862 10.5315 97.8721 10.2847 97.3753 10.0379L97.7893 9.29736C98.2861 9.54419 98.783 9.87331 99.197 10.2024L98.783 10.8607ZM31.6304 10.6138L31.2164 9.87331C31.7132 9.54419 32.1272 9.29736 32.6241 9.05052L33.0381 9.79103C32.5413 10.0379 32.1272 10.367 31.6304 10.6138ZM95.9677 9.21508C95.4709 8.96824 94.974 8.72141 94.56 8.47457L94.974 7.73407C95.4709 7.9809 95.9677 8.22774 96.4645 8.55685L95.9677 9.21508ZM34.4457 8.96824L34.1145 8.22774C34.6113 7.9809 35.1081 7.73407 35.6049 7.48723L36.019 8.22774C35.4393 8.47457 34.9425 8.72141 34.4457 8.96824ZM93.0696 7.73407C92.5728 7.48723 92.076 7.2404 91.5791 6.99356L91.9104 6.25305C92.4072 6.49989 92.904 6.74673 93.4008 6.99356L93.0696 7.73407ZM37.4266 7.48723L37.0954 6.74673C37.5922 6.49989 38.089 6.25305 38.5858 6.0885L38.9171 6.829C38.4202 6.99356 37.9234 7.2404 37.4266 7.48723ZM90.0059 6.33533C89.5091 6.0885 89.0123 5.92394 88.5154 5.6771L88.8467 4.9366C89.3435 5.10116 89.8403 5.34799 90.4199 5.59483L90.0059 6.33533ZM40.4075 6.17078L40.0763 5.43027C40.5731 5.18343 41.0699 4.9366 41.5667 4.77204L41.8979 5.51255C41.4011 5.75938 40.9043 5.92394 40.4075 6.17078ZM86.9422 5.10116C86.4454 4.9366 85.9486 4.68976 85.3689 4.52521L85.6174 3.7847C86.1142 3.94926 86.6938 4.11381 87.1906 4.36065L86.9422 5.10116ZM43.4712 4.9366L43.2228 4.19609C43.7196 4.03154 44.2992 3.86698 44.796 3.62014L45.0444 4.36065C44.4648 4.60748 43.968 4.77204 43.4712 4.9366ZM83.8785 4.03154C83.3817 3.86698 82.8021 3.70242 82.3056 3.53786L82.5537 2.71508C83.0505 2.87964 83.6301 3.04419 84.1269 3.20875L83.8785 4.03154ZM46.5349 3.94926L46.2865 3.12647C46.7833 2.96192 47.3629 2.79736 47.8597 2.6328L48.1081 3.45559C47.6113 3.62014 47.1145 3.7847 46.5349 3.94926ZM80.6495 3.20875C80.1527 3.04419 79.5731 2.96191 79.0763 2.79736L79.2419 1.97457C79.8215 2.05685 80.3183 2.22141 80.8979 2.38597L80.6495 3.20875ZM49.7642 3.04419L49.5986 2.22141C50.1782 2.05685 50.675 1.97457 51.2546 1.81002L51.4202 2.6328C50.8406 2.79736 50.261 2.96191 49.7642 3.04419ZM77.503 2.46824C77.0062 2.38597 76.4266 2.30369 75.847 2.13913L76.0126 1.31634C76.5922 1.39862 77.089 1.4809 77.6686 1.64546L77.503 2.46824ZM52.9935 2.38597L52.8279 1.56318C53.4075 1.4809 53.9043 1.39862 54.4839 1.23407L54.6495 2.05685C54.0699 2.13913 53.4903 2.22141 52.9935 2.38597ZM74.2737 1.89229C73.6941 1.81002 73.1973 1.72774 72.6177 1.64546L72.7005 0.822674C73.2801 0.904953 73.7769 0.987231 74.3565 1.06951L74.2737 1.89229ZM56.2228 1.81002L56.14 0.987231C56.7196 0.904953 57.2164 0.822674 57.796 0.740396L57.8788 1.56318C57.2992 1.72774 56.7196 1.72774 56.2228 1.81002ZM70.9616 1.4809C70.382 1.39862 69.8852 1.39862 69.3056 1.31634L69.3884 0.49356C69.968 0.49356 70.4648 0.575839 71.0444 0.658117L70.9616 1.4809ZM59.4521 1.4809L59.3693 0.658117C59.9489 0.575839 60.4457 0.575839 61.0253 0.575839L61.1081 1.39862C60.5285 1.39862 60.0317 1.39862 59.4521 1.4809ZM67.6495 1.31634C67.0699 1.31634 66.5731 1.31634 65.9935 1.23407V0.411282C66.5731 0.411282 67.0699 0.411282 67.6495 0.49356V1.31634ZM62.7642 1.23407V0.411282C63.3438 0.411282 63.8406 0.411282 64.4202 0.411282V1.23407C63.8406 1.23407 63.261 1.23407 62.7642 1.23407Z" fill="#02426D"/>
<path id="Vector_4" d="M64.9992 129.424H64.8336V128.601H64.9992C65.4961 128.601 65.9929 128.601 66.4897 128.601L66.5725 129.424C65.9929 129.342 65.4961 129.424 64.9992 129.424ZM63.1776 129.342C62.598 129.342 62.0183 129.259 61.5215 129.177L61.6043 128.354C62.1012 128.437 62.6808 128.437 63.2604 128.519L63.1776 129.342ZM68.1457 129.177L68.0629 128.354C68.6426 128.272 69.1394 128.19 69.6362 128.108L69.8018 128.93C69.305 129.095 68.7254 129.177 68.1457 129.177ZM59.7827 128.93C59.2031 128.848 58.7062 128.684 58.1266 128.601L58.2922 127.778C58.7891 127.943 59.3687 128.025 59.8655 128.108L59.7827 128.93ZM71.4578 128.601L71.2922 127.778C71.789 127.614 72.3687 127.532 72.8655 127.367L73.1139 128.19C72.5343 128.354 72.0375 128.519 71.4578 128.601ZM56.5534 128.108C56.0566 127.943 55.4769 127.778 54.9801 127.532L55.3113 126.791C55.8082 126.956 56.305 127.12 56.8846 127.285L56.5534 128.108ZM74.6871 127.696L74.4387 126.956C74.9355 126.791 75.4324 126.544 75.9292 126.38L76.2604 127.12C75.7636 127.285 75.2668 127.449 74.6871 127.696ZM53.4069 126.956C52.9101 126.709 52.4133 126.462 51.9164 126.215L52.2477 125.475C52.7445 125.722 53.2413 125.968 53.7381 126.133L53.4069 126.956ZM77.7508 126.38L77.4196 125.639C77.9164 125.392 78.4133 125.146 78.9101 124.899L79.3241 125.639C78.7445 125.886 78.2476 126.133 77.7508 126.38ZM50.426 125.475C49.9292 125.228 49.4324 124.899 49.0183 124.652L49.4324 123.994C49.9292 124.323 50.3432 124.57 50.84 124.816L50.426 125.475ZM80.7317 124.734L80.3177 124.076C80.8145 123.829 81.2285 123.5 81.7254 123.171L82.2222 123.829C81.6426 124.158 81.2285 124.487 80.7317 124.734ZM47.6107 123.665C47.1967 123.335 46.6999 123.006 46.2859 122.677L46.7827 122.019C47.1967 122.348 47.6935 122.677 48.1075 123.006L47.6107 123.665ZM83.4641 122.842L82.9672 122.184C83.3812 121.854 83.7953 121.525 84.2921 121.196L84.7889 121.854C84.3749 122.184 83.9609 122.513 83.4641 122.842ZM44.961 121.608C44.547 121.278 44.133 120.867 43.719 120.538L44.2986 119.962C44.7126 120.291 45.1266 120.703 45.5406 121.032L44.961 121.608ZM86.0309 120.785L85.4513 120.209C85.8653 119.88 86.2793 119.468 86.6933 119.139L87.273 119.715C86.8589 120.044 86.4449 120.373 86.0309 120.785ZM42.4769 119.386C42.0629 118.975 41.6489 118.646 41.3177 118.234L41.8973 117.658C42.3113 118.07 42.6426 118.481 43.0566 118.81L42.4769 119.386ZM88.4322 118.481L87.8526 117.905C88.2666 117.494 88.5978 117.082 89.0118 116.671L89.5914 117.247C89.2602 117.658 88.8462 118.07 88.4322 118.481ZM40.1585 117C39.8273 116.589 39.4133 116.177 39.082 115.766L39.7445 115.19C40.0757 115.601 40.4897 116.013 40.8209 116.424L40.1585 117ZM90.7507 116.013L90.0882 115.519C90.4195 115.108 90.7507 114.696 91.1647 114.285L91.8271 114.778C91.4131 115.19 91.0819 115.601 90.7507 116.013ZM38.0056 114.449C37.6744 114.038 37.3432 113.544 37.012 113.133L37.6744 112.639C38.0056 113.051 38.3368 113.544 38.668 113.956L38.0056 114.449ZM92.7379 113.38L92.0755 112.886C92.4067 112.475 92.7379 111.981 93.0691 111.57L93.7316 112.063C93.4004 112.475 93.0691 112.968 92.7379 113.38ZM36.1012 111.816C35.7699 111.405 35.4387 110.911 35.1903 110.418L35.8527 110.006C36.184 110.5 36.4324 110.911 36.7636 111.405L36.1012 111.816ZM94.6424 110.665L93.98 110.253C94.3112 109.759 94.5596 109.348 94.8908 108.854L95.636 109.266C95.3048 109.759 94.9736 110.253 94.6424 110.665ZM34.2795 109.019C34.0311 108.525 33.6999 108.114 33.4515 107.62L34.1967 107.209C34.4451 107.703 34.7763 108.114 35.0247 108.608L34.2795 109.019ZM96.464 107.867L95.7188 107.456C95.9672 106.962 96.2984 106.551 96.5468 106.057L97.2921 106.468C96.9609 106.88 96.7125 107.373 96.464 107.867ZM32.6234 106.139C32.375 105.646 32.1266 105.152 31.8782 104.658L32.6234 104.247C32.8719 104.74 33.1203 105.234 33.3687 105.728L32.6234 106.139ZM98.0373 104.987L97.2921 104.576C97.5405 104.082 97.7889 103.589 98.0373 103.095L98.7825 103.424C98.5341 104 98.2857 104.494 98.0373 104.987ZM31.0502 103.177C30.8018 102.684 30.5534 102.19 30.3878 101.696L31.133 101.367C31.3814 101.861 31.6298 102.354 31.7954 102.848L31.0502 103.177ZM99.4449 101.943L98.6997 101.614C98.9481 101.12 99.1137 100.627 99.3621 100.133L100.107 100.462C99.9417 100.956 99.6933 101.449 99.4449 101.943ZM29.7254 100.133C29.4769 99.6392 29.3113 99.1456 29.0629 98.5696L29.8082 98.2405C29.9738 98.7342 30.2222 99.2278 30.4706 99.7215L29.7254 100.133ZM100.77 98.8987L100.025 98.5696C100.19 98.0759 100.439 97.5823 100.604 97.0063L101.349 97.3354C101.184 97.9114 101.018 98.4051 100.77 98.8987ZM28.4833 97.0886C28.3177 96.5949 28.0693 96.019 27.9037 95.5253L28.6489 95.2785C28.8145 95.7721 28.9801 96.3481 29.2285 96.8418L28.4833 97.0886ZM101.929 95.8544L101.184 95.6076C101.349 95.1139 101.515 94.6202 101.681 94.0443L102.426 94.2911C102.343 94.7848 102.177 95.3608 101.929 95.8544ZM27.4069 93.962C27.2413 93.4683 27.0757 92.8924 26.9101 92.3987L27.7381 92.1519C27.9037 92.6456 28.0693 93.2215 28.2349 93.7152L27.4069 93.962ZM103.005 92.7278L102.177 92.481C102.343 91.9873 102.509 91.4114 102.674 90.9177L103.502 91.1646C103.337 91.6582 103.171 92.1519 103.005 92.7278ZM26.4133 90.8354C26.2476 90.3418 26.082 89.7658 25.9992 89.2721L26.8273 89.0253C26.9929 89.519 27.0757 90.0949 27.2413 90.5886L26.4133 90.8354ZM103.916 89.519L103.088 89.2721C103.254 88.7785 103.337 88.2025 103.502 87.7089L104.33 87.8734C104.247 88.4494 104.082 89.0253 103.916 89.519ZM25.5852 87.6266C25.4196 87.1329 25.3368 86.557 25.1712 85.981L25.9992 85.8165C26.082 86.3924 26.2476 86.8861 26.4133 87.3797L25.5852 87.6266ZM104.744 86.3101L103.916 86.1456C103.999 85.6519 104.165 85.0759 104.247 84.5823L105.076 84.7468C104.993 85.2405 104.827 85.8165 104.744 86.3101ZM24.84 84.3354C24.7572 83.7595 24.5916 83.2658 24.5088 82.6899L25.3368 82.5253C25.4196 83.1013 25.5024 83.5949 25.668 84.1709L24.84 84.3354ZM105.407 83.1013L104.579 82.9367C104.661 82.443 104.744 81.8669 104.91 81.291L105.738 81.4555C105.655 82.0316 105.49 82.5253 105.407 83.1013ZM24.2604 81.1264C24.1776 80.5505 24.0948 80.0568 24.012 79.4808L24.84 79.3986C24.9228 79.9745 25.0056 80.4682 25.0884 81.0441L24.2604 81.1264ZM105.986 79.81L105.158 79.6454C105.241 79.0694 105.324 78.5758 105.407 77.9998L106.235 78.0821C106.152 78.7403 106.069 79.3163 105.986 79.81ZM23.7636 77.8353C23.6808 77.2593 23.598 76.7657 23.598 76.1897L24.426 76.1074C24.5088 76.6834 24.5916 77.177 24.5916 77.753L23.7636 77.8353ZM106.4 76.5188L105.572 76.4365C105.655 75.8606 105.655 75.3669 105.738 74.791L106.566 74.8733C106.566 75.4492 106.483 76.0251 106.4 76.5188ZM23.3496 74.5441C23.2668 73.9682 23.2668 73.4745 23.184 72.8986L24.012 72.8163C24.0948 73.3922 24.0948 73.8859 24.1776 74.4619L23.3496 74.5441ZM106.732 73.2277L105.904 73.1454C105.986 72.5695 105.986 72.0758 105.986 71.4998L106.814 71.5821C106.814 72.1581 106.814 72.734 106.732 73.2277ZM23.1012 71.253C23.1012 70.677 23.0183 70.1834 23.0183 69.6074H23.8464C23.8464 70.1834 23.9292 70.677 23.9292 71.253H23.1012ZM106.98 69.9365L106.152 69.8543C106.152 69.2783 106.235 68.7846 106.235 68.2087H107.063C107.063 68.8669 106.98 69.4429 106.98 69.9365ZM22.9355 67.9619C22.9355 67.3859 22.9355 66.8922 22.9355 66.3163H23.7636C23.7636 66.8922 23.7636 67.3859 23.7636 67.9619H22.9355ZM107.063 66.6454H106.235C106.235 66.0695 106.235 65.5758 106.235 64.9998H107.063C107.063 65.5758 107.063 66.0695 107.063 66.6454ZM23.7636 64.6707H22.9355C22.9355 64.0948 22.9355 63.6011 22.9355 63.0251H23.7636C23.7636 63.6011 23.7636 64.0948 23.7636 64.6707ZM106.235 64.0125C106.235 63.4365 106.235 62.9429 106.235 62.3669H107.063C107.063 62.9429 107.063 63.4365 107.063 64.0125H106.235ZM23.7636 61.3796H22.9355C22.9355 60.8036 23.0183 60.31 23.0183 59.734L23.8464 59.8163C23.8464 60.31 23.8464 60.8859 23.7636 61.3796ZM106.152 60.7213C106.152 60.1454 106.069 59.6517 106.069 59.0758L106.897 58.9935C106.897 59.5695 106.98 60.0631 106.98 60.6391L106.152 60.7213ZM23.9292 58.0884L23.1012 58.0062C23.1012 57.4302 23.184 56.9365 23.2668 56.3606L24.0948 56.4429C24.012 57.0188 24.012 57.5948 23.9292 58.0884ZM105.986 57.4302C105.986 56.8543 105.904 56.3606 105.821 55.7846L106.649 55.7024C106.732 56.2783 106.732 56.772 106.814 57.3479L105.986 57.4302ZM24.2604 54.8796L23.4324 54.7973C23.5152 54.2214 23.5152 53.7277 23.598 53.1517L24.426 53.234C24.3432 53.81 24.3432 54.3036 24.2604 54.8796ZM105.655 54.2214C105.572 53.6454 105.49 53.1517 105.49 52.5758L106.318 52.4935C106.4 53.0694 106.483 53.5631 106.483 54.1391L105.655 54.2214ZM24.6744 51.5884L23.8464 51.5062C23.9292 50.9302 24.012 50.4365 24.0948 49.8606L24.9228 50.0251C24.84 50.5188 24.7572 51.0948 24.6744 51.5884ZM105.241 50.9302C105.158 50.3543 105.076 49.8606 104.993 49.2846L105.821 49.1201C105.904 49.696 105.986 50.1897 106.069 50.7656L105.241 50.9302ZM25.1712 48.3796L24.3432 48.215C24.426 47.6391 24.5088 47.1454 24.6744 46.5695L25.5024 46.734C25.3368 47.31 25.254 47.8036 25.1712 48.3796ZM104.744 47.7213C104.661 47.1454 104.579 46.6517 104.413 46.0758L105.241 45.9112C105.324 46.4872 105.49 46.9808 105.572 47.5568L104.744 47.7213ZM25.7508 45.1707L24.9228 45.0062C25.0056 44.4302 25.1712 43.9365 25.254 43.3606L26.082 43.5251C25.9992 44.1011 25.9164 44.5948 25.7508 45.1707ZM104.082 44.5125C103.999 43.9365 103.833 43.4429 103.751 42.9492L104.579 42.7846C104.744 43.2783 104.827 43.8543 104.91 44.4302L104.082 44.5125ZM26.4961 41.9619L25.668 41.7973C25.8336 41.2213 25.9164 40.7277 26.082 40.234L26.9101 40.4808C26.8273 40.8922 26.6617 41.4682 26.4961 41.9619ZM103.337 41.3036C103.171 40.81 103.088 40.234 102.923 39.7403L103.751 39.4935C103.916 39.9872 104.082 40.5631 104.165 41.0568L103.337 41.3036ZM27.4069 38.8353L26.5789 38.5884C26.7445 38.0948 26.9101 37.5188 27.0757 37.0251L27.9037 37.272C27.7381 37.7657 27.5725 38.2593 27.4069 38.8353ZM102.426 38.177C102.26 37.6834 102.095 37.1074 101.929 36.6138L102.757 36.3669C102.923 36.8606 103.088 37.4365 103.254 37.9302L102.426 38.177ZM28.4005 35.7087L27.5725 35.3796C27.7381 34.8859 27.9037 34.31 28.1521 33.8163L28.8973 34.0631C28.7317 34.6391 28.5661 35.1327 28.4005 35.7087ZM101.432 35.0505C101.267 34.5568 101.101 33.9808 100.853 33.4872L101.598 33.2403C101.763 33.734 102.012 34.31 102.177 34.8036L101.432 35.0505ZM29.4769 32.5821L28.7317 32.253C28.8973 31.7593 29.1457 31.1834 29.3113 30.6897L30.0566 31.0188C29.891 31.5948 29.7254 32.0884 29.4769 32.5821ZM100.273 32.0062C100.107 31.5125 99.8589 31.0188 99.6933 30.5251L100.439 30.196C100.687 30.6897 100.853 31.1834 101.101 31.7593L100.273 32.0062ZM30.719 29.5378L29.9738 29.2087C30.2222 28.715 30.3878 28.2213 30.6362 27.7277L31.3814 28.0568C31.2158 28.5505 30.9674 29.0441 30.719 29.5378ZM99.0309 28.9619C98.7825 28.4682 98.6169 27.9745 98.3685 27.4808L99.1137 27.1517C99.3621 27.6454 99.6105 28.1391 99.7761 28.6327L99.0309 28.9619ZM32.1266 26.5758L31.3814 26.2467C31.6298 25.753 31.8782 25.2593 32.1266 24.7657L32.8719 25.177C32.6234 25.5884 32.375 26.0821 32.1266 26.5758ZM97.6233 25.9998C97.3749 25.5062 97.1265 25.0125 96.8781 24.5188L97.6233 24.1074C97.8717 24.6011 98.1201 25.0948 98.3685 25.5884L97.6233 25.9998ZM33.6171 23.696L32.8719 23.2846C33.1203 22.791 33.4515 22.2973 33.6999 21.8859L34.4451 22.2973C34.1967 22.7087 33.8655 23.2024 33.6171 23.696ZM96.05 23.1201C95.8016 22.6264 95.4704 22.1327 95.222 21.7214L95.9672 21.31C96.2156 21.8036 96.5468 22.2973 96.7952 22.7087L96.05 23.1201ZM35.2731 20.8986L34.6107 20.4872C34.9419 19.9935 35.1903 19.5821 35.5215 19.0884L36.184 19.5821C35.8527 19.9112 35.6043 20.4049 35.2731 20.8986ZM94.3112 20.3226C93.98 19.8289 93.7316 19.4176 93.4004 18.9239L94.0628 18.4302C94.394 18.9239 94.6424 19.3353 94.9736 19.8289L94.3112 20.3226ZM37.0948 18.1834L36.4324 17.6897C36.7636 17.196 37.0948 16.7846 37.426 16.3733L38.0884 16.8669C37.7572 17.2783 37.426 17.6897 37.0948 18.1834ZM92.4895 17.6074C92.1583 17.196 91.8271 16.7024 91.4959 16.291L92.1583 15.7973C92.4895 16.2087 92.8207 16.7024 93.1519 17.1138L92.4895 17.6074ZM39.082 15.5505L38.4196 15.0568C38.7508 14.6454 39.1648 14.234 39.4961 13.7403L40.1585 14.234C39.7445 14.6454 39.4133 15.1391 39.082 15.5505ZM90.5023 15.0568C90.1711 14.6454 89.8398 14.234 89.4258 13.8226L90.0882 13.2467C90.4195 13.6581 90.8335 14.0695 91.1647 14.4808L90.5023 15.0568ZM41.2349 13.0821L40.5725 12.5062C40.9865 12.0948 41.3177 11.6834 41.7317 11.272L42.3113 11.8479C41.9801 12.2593 41.5661 12.6707 41.2349 13.0821ZM88.3494 12.5884C87.9354 12.177 87.6042 11.7657 87.1902 11.4365L87.7698 10.8606C88.1838 11.272 88.515 11.6834 88.929 12.0125L88.3494 12.5884ZM43.5534 10.696L42.9738 10.1201C43.3878 9.7087 43.8018 9.37958 44.2158 8.96819L44.7954 9.62642C44.2986 9.95553 43.8846 10.3669 43.5534 10.696ZM86.0309 10.2846C85.6169 9.95553 85.2029 9.54414 84.7889 9.21502L85.2857 8.5568C85.6997 8.88591 86.1137 9.2973 86.5277 9.62642L86.0309 10.2846ZM45.9547 8.5568L45.4578 7.89857C45.8719 7.56946 46.3687 7.24034 46.7827 6.91123L47.2795 7.56946C46.8655 7.89857 46.3687 8.22768 45.9547 8.5568ZM83.4641 8.14541C83.05 7.81629 82.5532 7.48718 82.1394 7.15806L82.636 6.49984C83.05 6.82895 83.5468 7.15806 83.9609 7.48718L83.4641 8.14541ZM48.6043 6.66439L48.1075 6.00616C48.6043 5.67705 49.0183 5.43022 49.5152 5.1011L50.012 5.75933C49.5152 6.08844 49.1012 6.33528 48.6043 6.66439ZM80.8145 6.253C80.3177 5.92389 79.9037 5.67705 79.4069 5.43022L79.8209 4.68971C80.3177 4.93654 80.8145 5.26566 81.2285 5.59477L80.8145 6.253ZM51.4196 4.93654L51.0056 4.19604C51.5024 3.9492 51.9992 3.70237 52.4961 3.45553L52.8273 4.19604C52.4133 4.44287 51.9164 4.68971 51.4196 4.93654ZM77.9992 4.68971C77.5024 4.44287 77.0056 4.19604 76.5088 3.9492L76.84 3.2087C77.3368 3.45553 77.8336 3.70237 78.3304 3.9492L77.9992 4.68971ZM54.3177 3.53781L53.9865 2.7973C54.4833 2.55047 55.0629 2.38591 55.5597 2.22135L55.8082 2.96186C55.3941 3.2087 54.8973 3.37325 54.3177 3.53781ZM75.0183 3.29098C74.5215 3.12642 74.0247 2.87958 73.4451 2.71503L73.6935 1.89224C74.1903 2.0568 74.7699 2.22135 75.2668 2.46819L75.0183 3.29098ZM57.4642 2.46819L57.2158 1.64541C57.7126 1.48085 58.2922 1.31629 58.8718 1.23401L59.0375 2.0568C58.4578 2.22135 57.961 2.38591 57.4642 2.46819ZM71.9547 2.30363C71.4578 2.13908 70.8782 2.0568 70.3814 1.97452L70.547 1.15173C71.1266 1.23401 71.6234 1.39857 72.2031 1.56313L71.9547 2.30363ZM60.6107 1.80996L60.4451 0.987178C61.0247 0.904899 61.5215 0.822621 62.1012 0.740342L62.184 1.56313C61.6871 1.64541 61.1903 1.72768 60.6107 1.80996ZM68.7254 1.72768C68.2285 1.64541 67.6489 1.56313 67.0693 1.56313L67.1521 0.740342C67.7317 0.822621 68.2285 0.822621 68.8082 0.904899L68.7254 1.72768ZM63.84 1.48085V0.658064C64.4196 0.658064 64.9992 0.658064 65.4961 0.658064V1.48085C64.9164 1.39857 64.4196 1.39857 63.84 1.48085Z" fill="#02426D"/>
<path id="Vector_5" d="M65.3298 129.589V128.766C65.8267 128.766 66.3235 128.684 66.8203 128.519L67.0687 129.342C66.4891 129.424 65.9095 129.589 65.3298 129.589ZM63.591 129.424C63.0114 129.342 62.5146 129.177 61.9349 128.93L62.2662 128.19C62.763 128.437 63.2598 128.519 63.7566 128.684L63.591 129.424ZM68.642 128.601L68.2279 127.861C68.642 127.614 69.1388 127.367 69.5528 127.038L70.0496 127.696C69.6356 128.108 69.1388 128.354 68.642 128.601ZM60.4445 128.108C60.0305 127.778 59.5337 127.449 59.1197 127.038L59.6993 126.38C60.1133 126.709 60.5273 127.038 60.9413 127.367L60.4445 128.108ZM71.3744 126.627L70.7948 126.051C71.126 125.722 71.54 125.31 71.8713 124.899L72.5337 125.475C72.2025 125.804 71.7885 126.215 71.3744 126.627ZM57.8776 125.886C57.5464 125.475 57.1324 125.063 56.8012 124.57L57.4636 124.076C57.7948 124.487 58.126 124.899 58.54 125.31L57.8776 125.886ZM73.6101 124.076L72.9477 123.582C73.2789 123.171 73.5273 122.677 73.8585 122.266L74.5209 122.677C74.1897 123.171 73.9413 123.665 73.6101 124.076ZM55.8076 123.253C55.4763 122.842 55.2279 122.348 54.8967 121.854L55.642 121.443C55.8904 121.937 56.2216 122.348 56.5528 122.842L55.8076 123.253ZM75.4318 121.278L74.6865 120.867C74.9349 120.373 75.1834 119.962 75.4318 119.468L76.177 119.88C75.9286 120.291 75.6802 120.785 75.4318 121.278ZM54.0687 120.373C53.8203 119.88 53.5719 119.386 53.3235 118.892L54.0687 118.563C54.3171 119.057 54.5655 119.551 54.8139 120.044L54.0687 120.373ZM76.9222 118.316L76.177 117.987C76.4254 117.494 76.591 117 76.8394 116.506L77.5846 116.835C77.419 117.329 77.1706 117.823 76.9222 118.316ZM52.6611 117.411C52.4127 116.918 52.247 116.424 51.9986 115.848L52.7439 115.519C52.9923 116.013 53.1579 116.506 53.4063 117L52.6611 117.411ZM78.2471 115.272L77.5018 114.943C77.6674 114.449 77.9158 113.956 78.0814 113.38L78.8267 113.627C78.6611 114.285 78.4955 114.778 78.2471 115.272ZM51.3362 114.367C51.1706 113.873 50.9222 113.38 50.7566 112.804L51.5018 112.557C51.6674 113.051 51.9158 113.627 52.0814 114.12L51.3362 114.367ZM79.4063 112.146L78.6611 111.899C78.8267 111.405 78.9923 110.911 79.1579 110.335L79.9859 110.582C79.8203 111.158 79.5719 111.652 79.4063 112.146ZM50.2598 111.241C50.0942 110.747 49.9286 110.171 49.763 109.677L50.591 109.43C50.7566 109.924 50.9222 110.5 51.0878 110.994L50.2598 111.241ZM80.4827 109.019L79.6547 108.772C79.8203 108.278 79.9859 107.703 80.1515 107.209L80.9795 107.456C80.7311 107.949 80.6483 108.525 80.4827 109.019ZM49.2662 108.114C49.1006 107.62 48.9349 107.044 48.8521 106.551L49.6802 106.304C49.8458 106.797 50.0114 107.373 50.0942 107.867L49.2662 108.114ZM81.3107 105.81L80.4827 105.563C80.6483 105.07 80.7311 104.494 80.8967 104L81.7248 104.165C81.642 104.823 81.4763 105.316 81.3107 105.81ZM48.3553 104.905C48.1897 104.411 48.1069 103.835 47.9413 103.259L48.7693 103.095C48.9349 103.671 49.0178 104.165 49.1834 104.658L48.3553 104.905ZM82.1388 102.601L81.3107 102.437C81.3935 101.943 81.5592 101.367 81.642 100.873L82.4703 101.038C82.3872 101.532 82.3044 102.108 82.1388 102.601ZM47.6101 101.696C47.5273 101.203 47.3617 100.627 47.2789 100.051L48.1069 99.8861C48.1897 100.462 48.3553 100.956 48.4381 101.449L47.6101 101.696ZM82.8843 99.3924L82.056 99.2278C82.1388 98.7342 82.3044 98.1582 82.3872 97.5823L83.2155 97.7468C83.0499 98.3228 82.9671 98.8987 82.8843 99.3924ZM46.9477 98.4051C46.8649 97.8291 46.6993 97.3354 46.6165 96.7595L47.4445 96.5949C47.5273 97.1709 47.6101 97.6646 47.7757 98.2405L46.9477 98.4051ZM83.4639 96.1835L82.6359 96.019C82.7187 95.5253 82.8015 94.9494 82.8843 94.3734L83.7123 94.538C83.6295 95.1139 83.5467 95.6076 83.4639 96.1835ZM46.3681 95.1962C46.2853 94.6203 46.2025 94.1266 46.1197 93.5506L46.9477 93.3861C47.0305 93.962 47.1133 94.4557 47.1961 95.0316L46.3681 95.1962ZM84.0436 92.8924L83.2155 92.7278C83.2983 92.1519 83.3811 91.6582 83.4639 91.0823L84.292 91.1646C84.2092 91.8228 84.1264 92.3987 84.0436 92.8924ZM45.8713 91.9051C45.7885 91.3291 45.7057 90.8354 45.6228 90.2595L46.4509 90.1772C46.5337 90.7532 46.6165 91.2468 46.6993 91.8228L45.8713 91.9051ZM84.4576 89.6013L83.6295 89.519C83.7123 88.943 83.7952 88.4494 83.878 87.8734L84.706 87.9557C84.6232 88.5317 84.5404 89.1076 84.4576 89.6013ZM45.3744 88.6139C45.2916 88.038 45.2088 87.5443 45.2088 86.9683L46.0369 86.8861C46.1197 87.462 46.2025 87.9557 46.2025 88.5316L45.3744 88.6139ZM84.8716 86.3924L84.0436 86.3101C84.1264 85.7342 84.1264 85.2405 84.2092 84.6646L85.0372 84.7468C85.0372 85.2405 84.9544 85.8165 84.8716 86.3924ZM44.9604 85.4051C44.8776 84.8291 44.8776 84.3354 44.7948 83.7595L45.6228 83.6772C45.7057 84.2532 45.7056 84.7468 45.7885 85.3228L44.9604 85.4051ZM85.2028 83.1013L84.3748 83.019C84.4576 82.443 84.4576 81.9494 84.5404 81.3733L85.3684 81.4556C85.3684 81.9494 85.2856 82.5253 85.2028 83.1013ZM44.712 82.1139C44.6292 81.5379 44.6292 81.0442 44.5464 80.4683L45.3744 80.386C45.4572 80.9619 45.4572 81.4556 45.54 82.0316L44.712 82.1139ZM85.534 79.81L84.706 79.7278C84.706 79.1518 84.7888 78.6581 84.7888 78.0822L85.6168 78.1645C85.6168 78.7404 85.534 79.2341 85.534 79.81ZM44.3808 78.8227C44.3808 78.2468 44.298 77.7531 44.298 77.1771L45.126 77.0949C45.126 77.6708 45.2088 78.1645 45.2088 78.7404L44.3808 78.8227ZM85.6996 76.5189L84.8716 76.4366C84.8716 75.8607 84.9544 75.367 84.9544 74.7911H85.7824C85.7824 75.367 85.7824 75.943 85.6996 76.5189ZM44.2152 75.5316C44.2152 74.9556 44.1324 74.4619 44.1324 73.886H44.9604C44.9604 74.4619 45.0432 74.9556 45.0432 75.5316H44.2152ZM85.8652 73.2278H85.0372C85.0372 72.6518 85.12 72.1581 85.12 71.5822H85.948C85.948 72.0759 85.948 72.6518 85.8652 73.2278ZM44.0496 72.2404C44.0496 71.6645 44.0496 71.1708 43.9668 70.5949H44.7948C44.7948 71.1708 44.7948 71.6645 44.8776 72.2404H44.0496ZM86.0308 69.9366H85.2028C85.2028 69.3607 85.2028 68.867 85.2028 68.2911H86.0308C86.0308 68.7847 86.0308 69.3607 86.0308 69.9366ZM43.9668 68.9493C43.9668 68.3733 43.9668 67.8797 43.9668 67.3037H44.7948C44.7948 67.8797 44.7948 68.3733 44.7948 68.9493H43.9668ZM86.0308 66.6455H85.2028C85.2028 66.0695 85.2028 65.5759 85.2028 64.9999C85.2028 64.5885 85.2028 64.0949 85.2028 63.6835H86.0308C86.0308 64.0949 86.0308 64.5885 86.0308 64.9999C86.0308 65.4936 86.0308 66.0695 86.0308 66.6455ZM43.9668 65.6581V64.9999V64.0126H44.7948V64.9999V65.6581H43.9668ZM44.7948 62.367H43.9668C43.9668 61.7911 43.9668 61.2974 43.9668 60.7214H44.7948C44.7948 61.2151 44.7948 61.7911 44.7948 62.367ZM85.2028 62.0379C85.2028 61.4619 85.2028 60.9683 85.2028 60.3923H86.0308C86.0308 60.9683 86.0308 61.4619 86.0308 62.0379H85.2028ZM44.8776 59.0759H44.0496C44.0496 58.4999 44.0496 58.0062 44.1324 57.4303H44.9604C44.8776 57.924 44.8776 58.4999 44.8776 59.0759ZM85.12 58.7468C85.12 58.1708 85.12 57.6771 85.0372 57.1012H85.8652C85.8652 57.6771 85.8652 58.1708 85.948 58.7468H85.12ZM44.9604 55.7847H44.1324C44.1324 55.2088 44.2152 54.7151 44.2152 54.1392L45.0432 54.2214C45.0432 54.6328 44.9604 55.2088 44.9604 55.7847ZM85.0372 55.4556C85.0372 54.8797 84.9544 54.386 84.9544 53.81L85.7824 53.7278C85.7824 54.3037 85.8652 54.7974 85.8652 55.3733L85.0372 55.4556ZM45.126 52.4936L44.298 52.4113C44.298 51.8354 44.3808 51.3417 44.3808 50.7657L45.2088 50.848C45.2088 51.424 45.2088 51.9176 45.126 52.4936ZM84.7888 52.1645C84.7888 51.5885 84.706 51.0949 84.706 50.5189L85.534 50.4366C85.534 51.0126 85.6168 51.5062 85.6168 52.0822L84.7888 52.1645ZM45.3744 49.2024L44.5464 49.1202C44.6292 48.5442 44.6292 48.0506 44.712 47.4746L45.54 47.5569C45.4572 48.1328 45.4572 48.6265 45.3744 49.2024ZM84.5404 48.8733C84.4576 48.2974 84.4576 47.8037 84.3748 47.2278L85.2028 47.1455C85.2856 47.7214 85.2856 48.2151 85.3684 48.7911L84.5404 48.8733ZM45.7056 45.9113L44.8776 45.829C44.9604 45.2531 44.9604 44.7594 45.0432 44.1835L45.8713 44.2657C45.7885 44.8417 45.7056 45.4176 45.7056 45.9113ZM84.292 45.5822C84.2092 45.0062 84.2092 44.5126 84.1264 43.9366L84.9544 43.8544C85.0372 44.4303 85.0372 44.924 85.12 45.4999L84.292 45.5822ZM46.0369 42.7024L45.2088 42.6202C45.2916 42.0442 45.3744 41.5506 45.3744 40.9746L46.2025 41.0569C46.2025 41.5506 46.1197 42.1265 46.0369 42.7024ZM83.878 42.3733C83.7952 41.7974 83.7123 41.3037 83.7123 40.7278L84.5404 40.6455C84.6232 41.2214 84.706 41.7151 84.706 42.2911L83.878 42.3733ZM46.4509 39.4113L45.6228 39.329C45.7057 38.7531 45.7885 38.2594 45.8713 37.6835L46.6993 37.7657C46.6165 38.3417 46.5337 38.8354 46.4509 39.4113ZM83.4639 39.0822C83.3811 38.5062 83.2983 38.0126 83.2155 37.4366L84.0436 37.2721C84.1264 37.848 84.2092 38.3417 84.292 38.9176L83.4639 39.0822ZM46.9477 36.2025L46.1197 36.0379C46.2025 35.4619 46.2853 34.9683 46.3681 34.3923L47.1961 34.5569C47.1133 35.0506 47.0305 35.6265 46.9477 36.2025ZM82.9671 35.8733C82.8843 35.2974 82.8015 34.8037 82.7187 34.2278L83.5467 34.0632C83.6295 34.6392 83.7123 35.1328 83.7951 35.7088L82.9671 35.8733ZM47.5273 32.9113L46.6993 32.7468C46.7821 32.1708 46.8649 31.6771 47.0305 31.1012L47.8585 31.2657C47.6929 31.8417 47.6101 32.4176 47.5273 32.9113ZM82.3872 32.6645C82.3044 32.0885 82.2216 31.5949 82.056 31.0189L82.8843 30.8544C82.9671 31.4303 83.1327 31.924 83.2155 32.4999L82.3872 32.6645ZM48.1897 29.7025L47.3617 29.5379C47.4445 28.9619 47.6101 28.4683 47.6929 27.8923L48.5209 28.0569C48.3553 28.6328 48.2725 29.2088 48.1897 29.7025ZM81.8076 29.3733C81.7248 28.7974 81.5592 28.3037 81.4763 27.81L82.3044 27.6455C82.3872 28.1392 82.5531 28.7151 82.6359 29.2911L81.8076 29.3733ZM48.8521 26.4936L48.0241 26.329C48.1897 25.7531 48.2725 25.2594 48.4381 24.7657L49.2662 24.9303C49.1834 25.424 49.0178 25.9999 48.8521 26.4936ZM81.0623 26.2468C80.8967 25.6708 80.8139 25.1771 80.6483 24.6835L81.4763 24.4366C81.642 24.9303 81.7248 25.5062 81.8904 25.9999L81.0623 26.2468ZM49.6802 23.367L48.8521 23.1202C49.0178 22.5442 49.1834 22.0506 49.2662 21.5569L50.0942 21.8037C50.0114 22.2974 49.8458 22.7911 49.6802 23.367ZM80.2343 23.0379C80.0687 22.5442 79.9031 21.9683 79.8203 21.4746L80.6483 21.2278C80.8139 21.7214 80.9795 22.2974 81.1451 22.7911L80.2343 23.0379ZM50.591 20.1581L49.763 19.9113C49.9286 19.4176 50.0942 18.8417 50.2598 18.348L51.005 18.5949C50.9222 19.1708 50.7566 19.6645 50.591 20.1581ZM79.2407 19.9113C79.0751 19.4176 78.9095 18.8417 78.7439 18.348L79.4891 18.1012C79.6547 18.5949 79.8203 19.1708 79.9859 19.6645L79.2407 19.9113ZM51.6674 17.1138L50.9222 16.867C51.0878 16.3733 51.3362 15.7974 51.5018 15.3037L52.2471 15.6328C52.0814 16.0442 51.833 16.5379 51.6674 17.1138ZM78.2471 16.7847C78.0814 16.2911 77.833 15.7151 77.6674 15.2214L78.4127 14.8923C78.5783 15.386 78.8267 15.8797 78.9923 16.4556L78.2471 16.7847ZM52.8267 14.0695L52.0814 13.7404C52.3299 13.2468 52.4955 12.7531 52.7439 12.2594L53.4891 12.5885C53.3235 12.9999 53.0751 13.4936 52.8267 14.0695ZM77.005 13.7404C76.7566 13.2468 76.591 12.7531 76.3426 12.2594L77.0878 11.9303C77.3362 12.424 77.5018 12.9176 77.7502 13.4113L77.005 13.7404ZM54.2343 11.1075L53.4891 10.6961C53.7375 10.2025 53.9859 9.70878 54.2343 9.21511L54.9795 9.6265C54.7311 10.1202 54.4827 10.6138 54.2343 11.1075ZM75.5974 10.7784C75.349 10.2847 75.1005 9.79106 74.8521 9.37967L75.5974 8.96828C75.8458 9.46195 76.0942 9.95562 76.3426 10.4493L75.5974 10.7784ZM55.8076 8.22777L55.0623 7.81638C55.3935 7.32271 55.642 6.82903 55.9732 6.41764L56.6356 6.91131C56.3872 7.32271 56.1388 7.7341 55.8076 8.22777ZM74.0241 7.98093C73.6929 7.48726 73.4445 6.99359 73.1133 6.5822L73.7757 6.08853C74.1069 6.49992 74.4381 6.99359 74.6865 7.48726L74.0241 7.98093ZM57.6292 5.59486L56.9668 5.10119C57.298 4.68979 57.712 4.19612 58.0432 3.86701L58.6228 4.44296C58.3744 4.68979 58.0432 5.10119 57.6292 5.59486ZM72.1197 5.34802C71.7885 4.93663 71.3744 4.52524 71.0432 4.19612L71.6228 3.62017C72.0369 4.03157 72.3681 4.44296 72.7821 4.85435L72.1197 5.34802ZM59.8649 3.29106L59.3681 2.63283C59.7821 2.22144 60.2789 1.89233 60.7757 1.64549L61.1897 2.30372C60.7757 2.55055 60.2789 2.87967 59.8649 3.29106ZM69.884 3.04422C69.47 2.71511 69.056 2.386 68.5592 2.13916L68.9732 1.39866C69.47 1.64549 69.884 1.9746 70.3808 2.386L69.884 3.04422ZM62.5974 1.64549L62.2662 0.822706C62.8458 0.57587 63.3426 0.493592 63.9222 0.411315L64.005 1.2341C63.591 1.31638 63.0942 1.39866 62.5974 1.64549ZM67.1515 1.48093C66.6547 1.31638 66.1579 1.2341 65.6611 1.15182L65.7439 0.329037C66.3235 0.411315 66.9031 0.493592 67.3999 0.658149L67.1515 1.48093Z" fill="#02426D"/>
<path id="Vector_6" d="M108.886 18.5116H107.23V17.6899H108.886V18.5116ZM105.574 18.5116H103.918V17.6899H105.574V18.5116ZM102.262 18.5116H100.605V17.6899H102.262V18.5116ZM98.9494 18.5116H97.2934V17.6899H98.9494V18.5116ZM95.6373 18.5116H93.9813V17.6899H95.6373V18.5116ZM92.3252 18.5116H90.6692V17.6899H92.3252V18.5116ZM89.0131 18.5116H87.3571V17.6899H89.0131V18.5116ZM85.701 18.5116H84.045V17.6899H85.701V18.5116ZM82.3889 18.5116H80.7327V17.6899H82.3889V18.5116ZM79.0767 18.5116H77.4206V17.6899H79.0767V18.5116ZM75.7646 18.5116H74.1085V17.6899H75.7646V18.5116ZM72.4525 18.5116H70.7964V17.6899H72.4525V18.5116ZM69.1404 18.5116H67.4843V17.6899H69.1404V18.5116ZM65.8283 18.5116H64.1722V17.6899H65.8283V18.5116ZM62.5161 18.5116H60.8601V17.6899H62.5161V18.5116ZM59.204 18.5116H57.548V17.6899H59.204V18.5116ZM55.8919 18.5116H54.2359V17.6899H55.8919V18.5116ZM52.5798 18.5116H50.9238V17.6899H52.5798V18.5116ZM49.2677 18.5116H47.6117V17.6899H49.2677V18.5116ZM45.9556 18.5116H44.2996V17.6899H45.9556V18.5116ZM42.6435 18.5116H40.9875V17.6899H42.6435V18.5116ZM39.3314 18.5116H37.6754V17.6899H39.3314V18.5116ZM36.0193 18.5116H34.3633V17.6899H36.0193V18.5116ZM32.7072 18.5116H31.0512V17.6899H32.7072V18.5116ZM29.3951 18.5116H27.7391V17.6899H29.3951V18.5116ZM26.083 18.5116H24.427V17.6899H26.083V18.5116ZM22.7709 18.5116H21.3633V17.6899H22.7709V18.5116Z" fill="#02426D"/>
<path id="Vector_7" d="M127.35 49.2836H125.694V48.4619H127.35V49.2836ZM124.038 49.2836H122.382V48.4619H124.038V49.2836ZM120.726 49.2836H119.07V48.4619H120.726V49.2836ZM117.414 49.2836H115.758V48.4619H117.414V49.2836ZM114.102 49.2836H112.446V48.4619H114.102V49.2836ZM110.79 49.2836H109.134V48.4619H110.79V49.2836ZM107.478 49.2836H105.822V48.4619H107.478V49.2836ZM104.166 49.2836H102.51V48.4619H104.166V49.2836ZM100.854 49.2836H99.1976V48.4619H100.854V49.2836ZM97.5416 49.2836H95.8855V48.4619H97.5416V49.2836ZM94.2295 49.2836H92.5734V48.4619H94.2295V49.2836ZM90.9174 49.2836H89.2613V48.4619H90.9174V49.2836ZM87.6053 49.2836H85.9492V48.4619H87.6053V49.2836ZM84.2932 49.2836H82.6371V48.4619H84.2932V49.2836ZM80.9809 49.2836H79.3248V48.4619H80.9809V49.2836ZM77.6688 49.2836H76.0127V48.4619H77.6688V49.2836ZM74.3567 49.2836H72.7006V48.4619H74.3567V49.2836ZM71.0446 49.2836H69.3885V48.4619H71.0446V49.2836ZM67.7325 49.2836H66.0764V48.4619H67.7325V49.2836ZM64.4204 49.2836H62.7643V48.4619H64.4204V49.2836ZM61.1083 49.2836H59.4522V48.4619H61.1083V49.2836ZM57.7962 49.2836H56.1401V48.4619H57.7962V49.2836ZM54.4841 49.2836H52.828V48.4619H54.4841V49.2836ZM51.172 49.2836H49.5159V48.4619H51.172V49.2836ZM47.8599 49.2836H46.2038V48.4619H47.8599V49.2836ZM44.5478 49.2836H42.8917V48.4619H44.5478V49.2836ZM41.2357 49.2836H39.5796V48.4619H41.2357V49.2836ZM37.9236 49.2836H36.2675V48.4619H37.9236V49.2836ZM34.6115 49.2836H32.9554V48.4619H34.6115V49.2836ZM31.2994 49.2836H29.6433V48.4619H31.2994V49.2836ZM27.9873 49.2836H26.3312V48.4619H27.9873V49.2836ZM24.6752 49.2836H23.0191V48.4619H24.6752V49.2836ZM21.3631 49.2836H19.707V48.4619H21.3631V49.2836ZM18.051 49.2836H16.3949V48.4619H18.051V49.2836ZM14.7389 49.2836H13.0828V48.4619H14.7389V49.2836ZM11.4268 49.2836H9.77071V48.4619H11.4268V49.2836ZM8.11465 49.2836H6.45859V48.4619H8.11465V49.2836ZM4.80254 49.2836H3.14648V48.4619H4.80254V49.2836Z" fill="#02426D"/>
<path id="Vector_8" d="M127.598 80.3856H125.942V79.5631H127.598V80.3856ZM124.286 80.3856H122.63V79.5631H124.286V80.3856ZM120.974 80.3034H119.317V79.4808H120.974V80.3034ZM117.661 80.3034H116.005V79.4808H117.661V80.3034ZM114.349 80.3034H112.693V79.4808H114.349V80.3034ZM111.037 80.2211H109.381V79.3986H111.037V80.2211ZM107.725 80.2211H106.069V79.3986H107.725V80.2211ZM104.413 80.1389H102.757V79.3163H104.413V80.1389ZM101.101 80.1389H99.4448V79.3163H101.101V80.1389ZM97.7888 80.0566H96.1327V79.2341H97.7888V80.0566ZM94.4767 80.0566H92.8206V79.2341H94.4767V80.0566ZM91.1646 80.0566H89.5085V79.2341H91.1646V80.0566ZM87.8525 79.9744H86.1964V79.1518H87.8525V79.9744ZM84.5404 79.9744H82.8843V79.1518H84.5404V79.9744ZM81.228 79.8921H79.5719V79.0696H81.228V79.8921ZM77.9158 79.8921H76.2598V79.0696H77.9158V79.8921ZM74.6037 79.8921H72.9477V79.0696H74.6037V79.8921ZM71.2916 79.8098H69.6356V78.9873H71.2916V79.8098ZM67.9795 79.8098H66.3235V78.9873H67.9795V79.8098ZM64.6674 79.7276H63.0114V78.9051H64.6674V79.7276ZM61.3553 79.7276H59.6993V78.9051H61.3553V79.7276ZM58.0432 79.6453H56.3872V78.8228H58.0432V79.6453ZM54.7311 79.6453H53.0751V78.8228H54.7311V79.6453ZM51.419 79.6453H49.763V78.8228H51.419V79.6453ZM48.1069 79.5631H46.4509V78.7405H48.1069V79.5631ZM44.7948 79.5631H43.1388V78.7405H44.7948V79.5631ZM41.4827 79.4808H39.8267V78.6583H41.4827V79.4808ZM38.1706 79.4808H36.5146V78.6583H38.1706V79.4808ZM34.8585 79.3986H33.2025V78.576H34.8585V79.3986ZM31.5464 79.3986H29.8904V78.576H31.5464V79.3986ZM28.2343 79.3986H26.5783V78.576H28.2343V79.3986ZM24.9222 79.3163H23.2662V78.4938H24.9222V79.3163ZM21.6101 79.3163H19.9541V78.4938H21.6101V79.3163ZM18.298 79.2341H16.642V78.4115H18.298V79.2341ZM14.9859 79.2341H13.3299V78.4115H14.9859V79.2341ZM11.6738 79.1518H10.0178V78.3293H11.6738V79.1518ZM8.3617 79.1518H6.70566V78.3293H8.3617V79.1518ZM5.04961 79.1518H3.39355V78.3293H5.04961V79.1518Z" fill="#02426D"/>
<path id="Vector_9" d="M107.974 112.967H106.318V112.146H107.974V112.967ZM104.662 112.967H103.006V112.146H104.662V112.967ZM101.35 112.967H99.6936V112.146H101.35V112.967ZM98.0376 112.967H96.3815V112.146H98.0376V112.967ZM94.7255 112.967H93.0694V112.146H94.7255V112.967ZM91.4134 112.967H89.7573V112.146H91.4134V112.967ZM88.1013 112.967H86.4452V112.146H88.1013V112.967ZM84.7892 112.967H83.1331V112.146H84.7892V112.967ZM81.4774 112.967H79.8214V112.146H81.4774V112.967ZM78.1653 112.967H76.5093V112.146H78.1653V112.967ZM74.8532 112.967H73.1972V112.146H74.8532V112.967ZM71.5411 112.967H69.8851V112.146H71.5411V112.967ZM68.229 112.967H66.573V112.146H68.229V112.967ZM64.9169 112.967H63.2608V112.146H64.9169V112.967ZM61.6048 112.967H59.9487V112.146H61.6048V112.967ZM58.2927 112.967H56.6366V112.146H58.2927V112.967ZM54.9806 112.967H53.3245V112.146H54.9806V112.967ZM51.6685 112.967H50.0124V112.146H51.6685V112.967ZM48.3564 112.967H46.7003V112.146H48.3564V112.967ZM45.0443 112.967H43.3882V112.146H45.0443V112.967ZM41.7322 112.967H40.0761V112.146H41.7322V112.967ZM38.4201 112.967H36.764V112.146H38.4201V112.967ZM35.108 112.967H33.4519V112.146H35.108V112.967ZM31.7959 112.967H30.1398V112.146H31.7959V112.967ZM28.4838 112.967H26.8277V112.146H28.4838V112.967ZM25.1717 112.967H23.5156V112.146H25.1717V112.967Z" fill="#02426D"/>
</g>
</g>
</g>
</svg>
