<svg width="70" height="64" viewBox="0 0 70 64" fill="none" xmlns="http://www.w3.org/2000/svg">
<path id="Vector" fill-rule="evenodd" clip-rule="evenodd" d="M12.2738 41.4575L13.7232 39.0284L15.3409 36.457L13.2671 35.1612L12.2607 34.4942L11.2724 33.8103L10.1718 33.0149L10.248 34.0449L10.2971 34.5283L10.3523 34.9907L10.4124 35.433L10.4775 35.8562L10.5477 36.2604L10.6219 36.6465L10.7001 37.0156L10.7813 37.3686L10.9507 38.0275L11.1271 38.6283L11.3055 39.1779L11.526 39.7936L11.6383 40.0825L11.7535 40.3633L11.8738 40.6381L11.9991 40.9099L12.1314 41.1827L12.2718 41.4585L12.2738 41.4575ZM41.2657 16.8981L40.988 15.6806L42.6339 14.0629L43.7144 13.0519L45.7412 11.2427L46.2504 12.0621L46.6844 12.8112L47.0522 13.4992L47.2136 13.8222L47.362 14.1321L47.6236 14.7178L47.8461 15.2644L48.0385 15.7779L48.21 16.2673L47.5394 16.3977L46.8397 16.516L46.114 16.6213L45.3643 16.7116L44.5925 16.7858L43.8006 16.8429L42.9907 16.8811L42.1648 16.9001L41.2657 16.8981ZM41.7137 27.5922L41.8631 26.0437L41.9643 24.4581L42.0044 23.3148L42.0064 22.712L41.9904 22.0762L41.9533 21.3982L41.8901 20.6681L41.7969 19.8768L41.6696 19.0143L42.5928 19.0634L43.4949 19.0935L44.6005 19.1095L45.1608 19.1035L45.7341 19.0825L46.3265 19.0443L46.944 18.9852L47.5925 18.9019L48.2781 18.7906L48.9938 18.6502L49.2765 19.599L49.4017 20.0553L49.515 20.5006L49.6142 20.9288L49.7024 21.349L49.8538 22.1714L49.9781 22.9818L50.2187 24.8813L50.3319 26.0186L49.1652 26.3706L48.5788 26.5311L47.9904 26.6805L47.4001 26.8199L46.8067 26.9473L46.2113 27.0647L45.6129 27.171L44.6747 27.3144L43.7194 27.4317L42.7361 27.524L41.7157 27.5912L41.7137 27.5922ZM37.978 35.6586L35.0892 35.098L32.5282 34.5283L30.0654 33.9136L27.1386 33.0942L29.1513 30.1205L30.9114 27.6393L31.7434 27.9001L32.5904 28.1468L33.4464 28.3775L34.3044 28.5921L35.1564 28.7887L35.9963 28.9662L36.8163 29.1236L37.6091 29.26L38.7037 29.4195L39.7421 29.5358L39.6298 30.0714L39.4965 30.6491L39.3372 31.2799L39.1477 31.9769L38.6546 33.6147L37.978 35.6566V35.6586ZM39.8654 16.845L40.5259 16.877L40.4979 16.531L40.4638 16.2181L39.8654 16.845ZM35.1052 45.4992L34.6101 46.1732L34.143 46.7699L33.699 47.2985L33.276 47.7688L32.871 48.1901L32.4811 48.5732L31.7333 49.2602L30.9896 49.91L30.6137 50.225L30.2268 50.5369L29.8249 50.8478L29.4019 51.1597L28.9538 51.4756L28.4747 51.7975L29.3197 51.944L30.0975 52.0643L31.5128 52.2478L33.1437 52.4113L34.6662 52.5196L36.0996 52.5858L37.4628 52.6219L40.0258 52.633L41.2236 52.6019L42.3633 52.5417L43.4368 52.4504L44.4251 52.3401L46.0449 52.1225L47.1034 51.968L47.2988 51.9319L47.389 51.9129L47.4742 51.8938L47.5554 51.8728L47.6336 51.8507L47.7088 51.8266L47.7819 51.8015L47.8531 51.7745L47.9233 51.7454L47.9924 51.7133L48.0616 51.6782L48.1308 51.6411L48.2009 51.6L48.2731 51.5558L48.3473 51.5077L48.4244 51.4555L48.5046 51.3994L48.677 51.272L49.087 50.9541L49.52 50.6061L49.7586 50.4055L50.0082 50.1869L50.2638 49.9512L50.5204 49.6974L50.6487 49.564L50.776 49.4256L50.9013 49.2832L51.0245 49.1368L50.2708 49.0666L49.2574 48.9483L48.1859 48.7938L47.0422 48.5992L45.8113 48.3605L45.679 48.506L45.5367 48.6564L45.3843 48.8119L45.223 48.9703L44.8771 49.2933L44.5093 49.6152L44.3198 49.7726L44.1284 49.9271L43.9349 50.0765L43.7415 50.22L43.549 50.3563L43.3586 50.4837L43.1711 50.6021L43.0789 50.6572L42.9877 50.7094L43.6122 50.0394L44.1755 49.4006L44.6787 48.7928L44.9072 48.501L45.1207 48.2161L42.5286 47.6114L38.9903 46.6716L37.0749 46.112L35.1052 45.4992ZM40.0649 27.6473L40.1801 26.7838L40.2754 25.9454L40.4187 24.3137L40.541 22.1885L40.5931 19.8988L40.5921 18.927L39.682 18.8197L39.2129 18.7515L38.7327 18.6733L38.2616 18.588L36.702 20.3652L35.1103 22.2507L33.3401 24.432L31.3996 26.9724L32.448 27.1599L33.4855 27.3114L34.5078 27.4307L35.5112 27.521L36.4915 27.5852L37.4457 27.6263L39.257 27.6544L40.0649 27.6473ZM52.7035 25.1611L52.5621 24.1071L52.3958 23.1041L52.2143 22.1925L52.0119 21.322L51.7893 20.4845L51.5458 19.6732L51.2832 18.8819L51.0075 18.1197L51.6811 17.894L52.3717 17.6353L52.7225 17.4938L53.0773 17.3434L53.4352 17.1829L53.796 17.0134L54.19 17.5259L54.5709 18.0474L54.9397 18.585L55.2985 19.1456L55.5421 19.5528L55.7807 19.973L56.0142 20.4053L56.2418 20.8486L56.4633 21.3009L56.6778 21.7612L56.8843 22.2286L57.0837 22.702L56.4472 23.1332L55.8428 23.5224L55.2675 23.8714L54.7172 24.1853L54.189 24.4671L53.6798 24.7208L53.1866 24.9495L52.7055 25.1571L52.7035 25.1611ZM58.1182 36.9424L57.5378 37.0045L56.9284 37.0587L55.6143 37.1419L54.7773 37.175L53.8893 37.1931L52.948 37.1951L51.9507 37.1801L52.2414 35.793L52.486 34.4872L52.6814 33.2526L52.7596 32.6599L52.8248 32.0812L52.8749 31.5356L52.913 31.0021L52.94 30.4796L52.9561 29.9681L52.9611 28.9752L52.935 28.0184L53.5585 27.7837L54.1849 27.533L54.644 27.3405L55.1071 27.1359L55.5762 26.9142L56.0513 26.6725L56.2909 26.5421L56.5324 26.4057L56.776 26.2613L57.0206 26.1099L57.2672 25.9504L57.5168 25.7819L57.7673 25.6044L58.0209 25.4179L58.1232 25.82L58.2174 26.2352L58.3036 26.6645L58.3808 27.1098L58.4489 27.5741L58.5071 28.0595L58.5542 28.567L58.5913 29.0986L58.6253 29.925L58.6354 30.8035L58.6193 31.7302L58.5762 32.702L58.5061 33.713L58.4078 34.76L58.2805 35.8382L58.1232 36.9444L58.1182 36.9424ZM49.7125 37.0878L48.0816 36.9755L46.1551 36.8009L44.1133 36.5743L41.9944 36.2975L39.8373 35.9735L40.6242 33.2326L40.957 31.9248L41.1063 31.2749L41.2436 30.622L41.423 29.6482L41.9573 29.6632L42.4895 29.6682L43.5581 29.6532L44.2787 29.6251L45.0054 29.584L45.7341 29.5288L46.4599 29.4606L47.1795 29.3784L47.8892 29.2821L48.5838 29.1718L49.2604 29.0474L49.8668 28.92L50.4572 28.7806L50.4542 29.4827L50.4372 30.2168L50.4041 30.9871L50.354 31.7974L50.2588 32.9317L50.1244 34.1703L49.945 35.5453L49.7125 37.0878ZM22.7814 40.4857L21.4623 43.3239L20.498 45.5724L20.1221 46.5172L19.8024 47.3647L19.2902 48.8329L18.9845 49.7817L18.7279 50.6452L19.0035 50.8949L19.2792 51.1346L19.5568 51.3643L19.8345 51.5859L20.1121 51.7985L20.3898 52.0031L20.9441 52.3903L21.4954 52.7523L22.0426 53.0913L23.1162 53.7181L24.3691 54.4121L24.9835 54.7341L25.595 55.04L26.2074 55.3278L26.8238 55.5986L27.4483 55.8513L28.0848 56.085L28.7363 56.2996L29.4009 56.4952L30.0765 56.6727L30.7621 56.8312L31.4547 56.9706L32.1523 57.0909L32.852 57.1922L33.5526 57.2755L34.2512 57.3396L34.9469 57.3848L35.6375 57.4118L36.3221 57.4209L36.9987 57.4129L37.6662 57.3878L38.3228 57.3457L38.9673 57.2875L39.5988 57.2133L40.2192 57.123L40.8307 57.0177L41.4341 56.8974L42.0335 56.762L42.6299 56.6125L43.2263 56.448L43.8247 56.2695L44.4261 56.078L45.0285 55.8734L45.6289 55.6557L46.2243 55.4261L46.8127 55.1834L47.39 54.9296L47.9533 54.6639L48.5006 54.3881L49.0299 54.1012L49.5421 53.8044L50.0402 53.4965L50.5264 53.1785L51.0045 52.8496L51.4766 52.5106L52.4138 51.8005L53.2518 51.1326L54.0526 50.4606L54.4255 50.1327L54.7723 49.8158L55.0881 49.5129L55.2324 49.3675L55.3677 49.2271L54.1769 49.2551L53.5615 49.2541L52.93 49.2421L52.6433 49.5039L52.3607 49.7516L52.082 49.9873L51.8074 50.2109L51.5367 50.4245L51.2691 50.6271L50.7459 51.0042L50.2367 51.3472L49.7405 51.6621L49.2584 51.952L48.7883 52.2238L47.809 52.7623L47.3229 53.0121L46.8297 53.2518L46.3225 53.4824L45.7943 53.7071L45.238 53.9267L44.6456 54.1444L44.0131 54.36L43.3415 54.5706L42.6349 54.7732L41.8972 54.9637L41.1314 55.1392L40.3425 55.2947L39.5326 55.4271L39.1217 55.4832L38.7067 55.5324L40.542 54.9928L41.4481 54.709L42.3091 54.4222L43.097 54.1363L43.4538 53.9949L43.7816 53.8555L43.9339 53.7863L44.0773 53.7181L44.2116 53.6509L44.3359 53.5837L44.4511 53.5185L44.5043 53.4854L44.5544 53.4523L44.6025 53.4202L44.6476 53.3882L44.6907 53.3571L44.7308 53.326L43.9951 53.4463L43.2764 53.5476L42.5747 53.6309L41.8901 53.6981L41.2226 53.7492L40.5721 53.7853L39.9386 53.8084L39.3211 53.8184L38.7217 53.8174L38.1384 53.8054L37.0237 53.7552L35.9763 53.677L34.997 53.5777L34.0829 53.4654L33.2228 53.342L32.4019 53.2056L31.6061 53.0572L30.0324 52.7242L26.5893 51.9028L25.6531 51.6591L24.7099 51.3954L23.7727 51.1095L22.8535 50.7996L22.4055 50.6352L21.9665 50.4637L21.5385 50.2841L21.1235 50.0976L25.2451 51.1206L26.872 51.4796L28.2712 51.7574L28.7634 51.3352L29.1874 50.9451L29.5663 50.573L29.9211 50.2039L30.307 49.7847L30.7079 49.3314L31.6261 48.2412L32.1233 47.6254L32.3869 47.2794L32.6575 46.9043L32.9322 46.4971L33.0705 46.2805L33.2088 46.0548L33.3471 45.8202L33.4855 45.5755L33.6228 45.3197L33.7591 45.0529L31.1089 44.1112L28.9328 43.2597L26.8168 42.3641L24.765 41.4344L22.7814 40.4827V40.4857ZM17.9791 56.8171L18.8211 57.3346L19.6811 57.823L20.5572 58.2814L21.4482 58.7086L22.3544 59.1048L23.2735 59.4688L24.2047 59.8018L25.1469 60.1017L26.0991 60.3684L27.0594 60.6021L28.0277 60.8027L29.0019 60.9692L29.9812 61.1016L30.9645 61.1999L31.9509 61.264L32.9392 61.2941L33.9275 61.2901L34.9158 61.251L35.9011 61.1778L36.8834 61.0705L37.8617 60.9291L38.835 60.7536L39.8012 60.544L40.7595 60.3012L41.7087 60.0254L42.6479 59.7165L43.5761 59.3756L44.4912 59.0025L45.3934 58.5983L46.2804 58.163L47.1525 57.6967L48.0075 57.2002L48.8454 56.6747L49.6644 56.1211L50.4632 55.5384L51.2421 54.9286L51.9988 54.2918L52.7335 53.6289L53.4442 52.9419L54.1308 52.2298L54.7924 51.4947L55.4279 50.7365L56.0363 49.9572L56.6176 49.1569L57.1298 49.1137L57.632 49.0586L58.1242 48.9894L58.3667 48.9493L58.6063 48.9051L58.8439 48.856L59.0784 48.8018L59.31 48.7427L59.5395 48.6775L59.765 48.6073L59.9885 48.531L60.2091 48.4478L60.4266 48.3585L60.1198 48.4037L59.8111 48.4418L59.5004 48.4739L59.1877 48.5L58.5552 48.5361L57.9127 48.5521L57.2561 48.5511L56.5836 48.5351L55.1833 48.4649L53.6978 48.3575L52.1231 48.2041L50.4582 47.9925L48.7041 47.7107L46.8608 47.3476L44.9323 46.9003L42.9246 46.3688L40.8447 45.751L38.7037 45.0519L36.5406 44.2907L32.3348 42.677L28.4928 41.0573L24.8803 39.3885L23.0951 38.5099L21.327 37.5983L19.5949 36.6545L17.918 35.6797L16.3112 34.6758L14.7786 33.6528L13.3212 32.6218L11.94 31.5938L10.6359 30.5789L9.41907 29.58L8.29744 28.6001L7.77522 28.1187L7.28106 27.6433L6.81497 27.174L6.37694 26.7116L5.96598 26.2573L5.58108 25.81L5.22123 25.3717L4.88545 24.9415L4.57372 24.5203L4.28404 24.1091L4.01641 23.7079L3.77184 23.3168L3.65857 23.1252L3.55132 22.9367L3.45008 22.7501L3.35486 22.5656L3.26665 22.3841L3.18546 22.2055L3.11029 22.03L3.04213 21.8565L2.98098 21.686L2.92786 21.5185L2.9038 21.4353L2.88175 21.3531L2.8617 21.2718L2.84266 21.1916L2.82662 21.1114L2.81159 21.0321L2.79856 20.9539L2.78753 20.8757L2.77851 20.7984L2.77149 20.7212L2.76648 20.645L2.76247 20.5688L2.76047 20.4936V20.4183L2.76147 20.3441L2.76448 20.2699L2.76949 20.1957L2.7755 20.1215L2.78352 20.0483L2.79354 19.975L2.80557 19.9018L2.8186 19.8296L2.83364 19.7564L2.84968 19.6842L2.86772 19.612L2.88676 19.5398L2.90781 19.4676L2.92986 19.3964L2.95392 19.3242L2.97898 19.253L3.03411 19.1085L3.09525 18.9641L3.16141 18.8197L3.23358 18.6743L3.27167 18.6011L3.31176 18.5278L3.35386 18.4546L3.39796 18.3814L3.44407 18.3082L3.49318 18.235L3.5443 18.1618L3.59743 18.0886L3.65356 18.0154L3.7127 17.9431L3.77484 17.8709L3.84 17.7987L3.90916 17.7265L3.98133 17.6553L4.05751 17.5841L4.13769 17.5129L4.22089 17.4427L4.30809 17.3725L4.40031 17.3033L4.49653 17.2341L4.59677 17.1659L4.70202 17.0977L4.81227 17.0305L4.92654 16.9633L5.04682 16.8971L5.17112 16.8319L5.30142 16.7677L5.43674 16.7035L5.57807 16.6404L5.72541 16.5782L5.70036 16.5752L5.67329 16.5722L5.64523 16.5702L5.61616 16.5681L5.55401 16.5661H5.48686L5.41569 16.5692L5.34051 16.5732L5.26133 16.5792L5.17813 16.5882L5.00172 16.6113L4.81227 16.6414L4.61281 16.6785L4.40532 16.7226L4.19082 16.7727L3.9713 16.8289L3.74979 16.8911L3.52726 16.9593L3.30574 17.0325L3.08723 17.1097L2.87373 17.192L2.66725 17.2782L2.46878 17.3685L2.27934 17.4617L2.09792 17.559L2.01071 17.6092L1.92551 17.6593L1.84232 17.7115L1.76113 17.7636L1.68194 17.8168L1.60476 17.8699L1.52958 17.9251L1.45641 17.9803L1.38525 18.0364L1.31608 18.0926L1.24893 18.1497L1.18377 18.2079L1.12063 18.2661L1.05948 18.3253L1.00034 18.3844L0.942208 18.4446L0.887078 18.5058L0.832952 18.567L0.780829 18.6291L0.730712 18.6913L0.681597 18.7535L0.634486 18.8167L0.590383 18.8799L0.547282 18.9441L0.506186 19.0082L0.466092 19.0734L0.428003 19.1386L0.391918 19.2038L0.357838 19.27L0.324761 19.3362L0.293688 19.4024L0.263618 19.4696L0.235552 19.5368L0.208488 19.604L0.184432 19.6722L0.161378 19.7404L0.140329 19.8096L0.120282 19.8788L0.10224 19.949L0.086202 20.0192L0.0711667 20.0894L0.0571339 20.1606L0.0451057 20.2318L0.0350822 20.304L0.0260611 20.3762L0.0180423 20.4494L0.0120282 20.5226L0.00701644 20.5969L0.00300705 20.6711L0.00100235 20.7463L0 20.8215L0.00100235 20.8977L0.00701644 21.0522L0.0180423 21.2086L0.0340798 21.3671L0.0551292 21.5276L0.0821926 21.691L0.114268 21.8565L0.151355 22.024L0.194456 22.1945L0.243571 22.367L0.297697 22.5425L0.357838 22.72L0.423993 22.8996L0.496162 23.0821L0.574346 23.2666L0.658543 23.4532L0.748754 23.6427L0.845982 23.8343L0.949224 24.0288L1.05948 24.2254L1.17676 24.424L1.30105 24.6256L1.43436 24.8312L1.57569 25.0408L1.72705 25.2544L1.88943 25.474L2.06283 25.6997L2.24827 25.9314L2.44773 26.1701L2.66023 26.4168L3.13134 26.9343L3.66659 27.4889L4.27401 28.0856L5.11097 28.8679L4.9927 29.8357L4.9075 30.8075L4.85538 31.7814L4.83633 32.7572L4.85137 33.732L4.89948 34.7069L4.98067 35.6787L5.09494 36.6475L5.24328 37.6123L5.42471 38.5711L5.63821 39.5229L5.88479 40.4666L6.16344 41.4013L6.47317 42.326L6.81396 43.2397L7.18684 44.1413L7.59078 45.0299L8.0238 45.9034L8.48688 46.7619L8.97904 47.6043L8.42073 48.7818L7.92958 49.8709L7.43342 51.0453L7.02245 52.1064L6.84704 52.5989L6.68967 53.0682L6.55035 53.5155L6.42806 53.9418L6.32181 54.3499L6.2306 54.7411L6.15342 55.1162L6.08927 55.4782L6.03815 55.8282L5.99805 56.1672L5.96899 56.4972L5.94894 56.8201L5.93791 57.1371L5.93491 57.448L5.93992 57.7528L5.95295 58.0517L5.97299 58.3426L6.00006 58.6264L6.03313 58.9032L6.07122 59.172L6.11533 59.4327L6.16444 59.6855L6.21757 59.9302L6.2757 60.1659L6.33685 60.3925L6.401 60.6101L6.46815 60.8177L6.53832 61.0163L6.61049 61.2039L6.68466 61.3824L6.76184 61.5519L6.80194 61.6331L6.84203 61.7124L6.88313 61.7896L6.92422 61.8638L6.96632 61.937L7.00942 62.0072L7.05353 62.0764L7.09863 62.1436L7.14474 62.2088L7.19185 62.272L7.23896 62.3342L7.28807 62.3943L7.33819 62.4525L7.38931 62.5097L7.44143 62.5648L7.49456 62.619L7.54869 62.6721L7.60382 62.7233L7.65995 62.7734L7.71808 62.8226L7.77722 62.8707L7.83736 62.9168L7.89951 62.962L7.96266 63.0061L8.02681 63.0492L8.09296 63.0924L8.16012 63.1335L8.22828 63.1746L8.29844 63.2147L8.36961 63.2538L8.51695 63.329L8.66931 63.4013L8.82768 63.4695L8.99107 63.5336L9.16046 63.5938L9.33387 63.65L9.51329 63.7021L9.69772 63.7513L9.88716 63.7954L10.0816 63.8355L10.2811 63.8716L10.4846 63.9037L10.6941 63.9318L10.9076 63.9549L11.1251 63.9739L11.3466 63.988L11.5701 63.997L11.7946 64L12.0182 63.997L12.2407 63.987L12.4602 63.9709L12.5684 63.9599L12.6757 63.9468L12.7819 63.9318L12.8862 63.9148L12.9894 63.8957L13.0907 63.8746L13.1899 63.8506L13.2871 63.8255L13.3824 63.7974L13.4756 63.7673L13.5658 63.7342L13.6099 63.7172L13.653 63.6991L13.6961 63.6801L13.7382 63.661L13.7793 63.642L13.8595 63.5998L13.8986 63.5778L13.9367 63.5557L13.9737 63.5326L14.0098 63.5086L14.0449 63.4845L14.08 63.4594L14.1131 63.4333L13.9818 63.4394L13.8525 63.4424L13.7262 63.4434L13.6029 63.4424L13.4826 63.4384L13.3643 63.4323L13.249 63.4233L13.1358 63.4133L13.0255 63.4003L12.9173 63.3852L12.811 63.3692L12.7068 63.3511L12.6055 63.33L12.5063 63.308L12.4091 63.2839L12.3138 63.2588L12.2206 63.2318L12.1304 63.2037L12.0412 63.1736L11.954 63.1425L11.8688 63.1104L11.7856 63.0773L11.7044 63.0432L11.6252 63.0071L11.5471 62.97L11.4709 62.9319L11.3235 62.8547L11.1822 62.7744L11.0469 62.6912L10.9166 62.6059L10.7923 62.5187L10.673 62.4294L10.6149 62.3833L10.5587 62.3372L10.5036 62.29L10.4495 62.2429L10.3964 62.1948L10.3442 62.1456L10.2941 62.0955L10.245 62.0453L10.1969 61.9942L10.1498 61.942L10.1037 61.8889L10.0586 61.8347L10.0145 61.7795L9.97136 61.7234L9.92926 61.6662L9.88917 61.608L9.84907 61.5489L9.81099 61.4897L9.7729 61.4285L9.73581 61.3663L9.69973 61.3032L9.66464 61.239L9.63056 61.1738L9.59748 61.1066L9.53334 60.9702L9.47219 60.8288L9.41406 60.6814L9.35993 60.5299L9.30881 60.3745L9.2607 60.214L9.21659 60.0495L9.1755 59.882L9.13741 59.7105L9.10333 59.535L9.07226 59.3565L9.04419 59.175L9.02013 58.9904L8.99908 58.8039L8.98104 58.6143L8.96701 58.4228L8.95699 58.2292L8.94997 58.0337L8.94596 57.8361L8.94897 57.4369L8.96601 57.0317L8.99708 56.6195L9.04118 56.2023L9.09932 55.7801L9.17049 55.3539L9.25569 54.9236L9.35492 54.4894L9.46718 54.0481L9.59448 53.5978L9.73481 53.1354L10.0586 52.1636L10.4395 51.1085L10.8835 49.9492L11.4067 48.6664L12.0332 47.2433L12.784 45.6617L13.64 43.9868L14.6724 42.1194L15.9243 40.0253L17.4409 37.6705L20.2033 39.1678L21.1155 39.6412L18.7279 44.6257L17.926 46.4069L17.5962 47.1861L17.3035 47.9173L17.0369 48.6323L16.7984 49.3173L16.5859 49.9742L16.3974 50.6041L16.231 51.2068L16.0837 51.7845L15.8361 52.8656L15.6396 53.8595L15.5595 54.3319L15.4903 54.7922L15.4322 55.2446L15.386 55.6929L15.351 56.1412L15.3269 56.5925L15.3139 57.0498L15.3129 57.5101L15.3259 57.9695L15.3379 58.1981L15.354 58.4248L15.374 58.6484L15.3991 58.8701L15.4291 59.0887L15.4632 59.3033L15.5023 59.514L15.5464 59.7206L15.5955 59.9211L15.6507 60.1167L15.6807 60.212L15.7118 60.3063L15.7449 60.3985L15.779 60.4898L15.8141 60.5791L15.8501 60.6673L15.8872 60.7536L15.9253 60.8388L15.9654 60.9231L16.0065 61.0053L16.0486 61.0865L16.0917 61.1658L16.1358 61.244L16.1809 61.3202L16.227 61.3954L16.2741 61.4696L16.3222 61.5419L16.3714 61.6131L16.4726 61.7515L16.5768 61.8839L16.6841 62.0112L16.7943 62.1336L16.9076 62.2499L17.0229 62.3612L17.1402 62.4675L17.2594 62.5688L17.3797 62.6661L17.503 62.7584L17.6273 62.8456L17.7536 62.9289L17.8809 63.0071L18.0102 63.0813L18.1415 63.1515L18.2738 63.2177L18.4081 63.2799L18.5434 63.3391L18.6808 63.3942L18.8201 63.4464L18.9604 63.4945L19.1028 63.5407L19.2461 63.5828L19.3904 63.6219L19.5368 63.659L19.6841 63.6931L19.8325 63.7242L19.9808 63.7523L20.1302 63.7773L20.2795 63.7994L20.4289 63.8195L20.5782 63.8365L20.7276 63.8506L20.8759 63.8626L21.0243 63.8716L21.1716 63.8776L21.3179 63.8807H21.4623L21.6056 63.8786L21.748 63.8736L21.8883 63.8656L22.0286 63.8556L22.1679 63.8425L22.3083 63.8265L22.4486 63.8084L22.7333 63.7643L23.0259 63.7092L23.3307 63.643L23.9892 63.4785L24.348 63.3802L24.7219 63.2699L25.1038 63.1465L25.2953 63.0793L25.4857 63.0081L25.6742 62.9329L25.8596 62.8527L26.041 62.7684L26.2184 62.6792L26.3046 62.633L26.3888 62.5859L26.472 62.5367L26.5532 62.4866L26.6324 62.4355L26.7096 62.3823L26.7848 62.3281L26.8579 62.273L25.9207 62.4746L25.4947 62.5548L25.0958 62.623L24.7219 62.6792L24.3711 62.7233L24.0423 62.7564L23.7336 62.7794L23.4439 62.7925L23.1713 62.7955L23.041 62.7935L22.9147 62.7895L22.7914 62.7835L22.6721 62.7754L22.5558 62.7654L22.4426 62.7534L22.3323 62.7393L22.2241 62.7233L22.1188 62.7052L22.0156 62.6862L21.9143 62.6651L21.8151 62.6431L21.7169 62.619L21.6207 62.5939L21.5254 62.5668L21.4322 62.5387L21.341 62.5087L21.2518 62.4776L21.1636 62.4455L21.0774 62.4114L20.9922 62.3763L20.909 62.3402L20.8268 62.3021L20.7456 62.263L20.6664 62.2228L20.5882 62.1817L20.5121 62.1386L20.4369 62.0945L20.3627 62.0493L20.2905 62.0032L20.2194 61.9561L20.1492 61.9069L20.081 61.8578L20.0139 61.8076L19.9487 61.7555L19.8846 61.7023L19.8214 61.6492L19.7593 61.594L19.6992 61.5378L19.64 61.4807L19.5819 61.4235L19.4696 61.3052L19.4145 61.245L19.3092 61.1216L19.208 60.9953L19.1118 60.8659L19.0196 60.7345L18.9324 60.6011L18.8492 60.4667L18.771 60.3313L18.6968 60.1949L18.6266 60.0585L18.5605 59.9221L18.4983 59.7868L18.4402 59.6514L18.3871 59.518L18.338 59.3866L18.2919 59.2572L18.2508 59.1308L18.2127 59.0075L18.1786 58.8861L18.1485 58.7658L18.1215 58.6464L18.0974 58.5271L18.0764 58.4067L18.0573 58.2854L18.0413 58.161L18.0282 58.0337L18.0162 57.9023L17.9982 57.6245L17.9771 56.9876L17.9741 56.8141L17.9791 56.8171ZM50.0001 15.812L49.6102 15.0768L49.1522 14.2655L48.7252 13.5434L48.4686 13.1422L48.1729 12.7099L48.0085 12.4823L47.8311 12.2466L47.6396 12.0019L47.4331 11.7481L47.2116 11.4854L46.9731 11.2126L46.7164 10.9298L46.4418 10.6369L46.7124 10.4052L47.8311 11.2106L48.7883 11.9327L49.6012 12.5806L50.2878 13.1633L50.5895 13.433L50.8672 13.6898L51.1228 13.9345L51.3583 14.1692L51.7783 14.6105L52.1462 15.0217L51.5849 15.2523L51.0436 15.4599L50.5164 15.6455L50.0001 15.812ZM67.3087 28.3574L67.4811 28.7465L67.5573 28.9321L67.6274 29.1116L67.6916 29.2851L67.7497 29.4526L67.8018 29.6141L67.848 29.7715L67.8891 29.923L67.9251 30.0694L67.9562 30.2118L67.9823 30.3482L68.0043 30.4806L68.0214 30.609L68.0344 30.7323L68.0434 30.8527L68.0494 30.968L68.0504 31.0803L68.0494 31.1886L68.0454 31.2939L68.0374 31.3952L68.0274 31.4935L68.0143 31.5888L67.9993 31.6811L67.9813 31.7713L67.9612 31.8586L67.9402 31.9428L67.9171 32.0261L67.8931 32.1063L67.868 32.1845L67.8139 32.336L67.7567 32.4824L67.6976 32.6228L67.6355 32.7582L67.5703 32.8886L67.5362 32.9518L67.5011 33.0139L67.4651 33.0751L67.428 33.1353L67.3909 33.1945L67.3528 33.2526L67.3127 33.3098L67.2716 33.366L67.2305 33.4211L67.1874 33.4763L67.1433 33.5304L67.0982 33.5836L67.0521 33.6358L67.005 33.6879L66.9559 33.7391L66.9058 33.7892L66.8546 33.8393L66.8015 33.8885L66.6923 33.9858L66.577 34.081L66.4557 34.1753L66.3284 34.2676L66.1951 34.3599L66.0568 34.4501L65.9124 34.5394L65.7641 34.6276L65.6107 34.7139L65.291 34.8844L64.9552 35.0499L64.6064 35.2113L64.2475 35.3678L63.8797 35.5202L63.3364 35.7318L62.7731 35.9334L62.1837 36.124L61.5602 36.3025L61.6645 35.3217L61.7346 34.3378L61.7707 33.3529L61.7717 32.3671L61.7396 31.3812L61.6735 30.3973L61.5733 29.4165L61.4389 28.4397L61.2715 27.4678L61.0701 26.503L60.8355 25.5452L60.5679 24.5965L60.2682 23.6578L59.9354 22.7301L59.5706 21.8144L59.1746 20.9118L58.7476 20.0232L58.2906 19.1497L57.8034 18.2932L57.2872 17.4537L56.7419 16.6323L56.1686 15.831L55.5682 15.0497L54.9407 14.2895L54.2872 13.5514L53.6086 12.8363L52.9059 12.1453L52.1792 11.4784L51.4305 10.8375L49.8217 9.84361L49.074 9.40834L48.3633 9.01219L49.6243 7.9832L50.799 7.07556L51.651 6.45075L52.5341 5.83295L53.4342 5.23722L53.8862 4.95239L54.3373 4.6796L55.2344 4.16811L58.043 2.66575L57.3423 2.90845L56.6958 3.15316L56.0964 3.39988L55.5361 3.64961L55.0069 3.90234L54.5027 4.15909L53.5344 4.68762L52.5822 5.23923L51.64 5.80988L50.7138 6.39559L49.8077 6.99132L48.9236 7.59507L48.0496 8.21588L47.1705 8.86476L45.3332 10.2979L44.3409 11.1163L43.2744 12.031L42.1147 13.064L40.8437 14.2384L39.4454 15.5863L37.9038 17.1408L36.2028 18.935L34.2964 21.0552L33.2118 22.3269L32.007 23.7992L29.1282 27.52L25.4516 32.5687L23.7256 31.985L21.9775 31.3421L26.2736 26.2724L29.8088 22.3349L32.885 19.1266L35.6004 16.4859L38.1394 14.1591L40.558 12.0651L42.8734 10.1726L43.9901 9.30504L45.0756 8.49469L46.1351 7.73749L47.2006 7.01338L48.3112 6.2973L49.506 5.56317L50.807 4.79594L52.1732 4.02369L53.5475 3.28555L54.8716 2.62162L55.498 2.32877L56.0994 2.063L56.6788 1.8223L57.2371 1.60567L57.7774 1.4121L58.3016 1.24061L58.8118 1.08917L59.31 0.956781L59.7991 0.841445L60.0407 0.7913L60.2822 0.745166L60.5228 0.704046L60.7634 0.667941L61.0039 0.636851L61.2455 0.611778L61.4881 0.59172L61.7316 0.577679L61.9772 0.568653L62.2258 0.565644L62.4774 0.568653L62.732 0.577679L62.9906 0.592723L63.2532 0.614787L63.1369 0.564641L63.0217 0.517504L62.9064 0.472373L62.7911 0.429247L62.6768 0.389131L62.5626 0.352023L62.4493 0.316921L62.337 0.283825L62.1135 0.224653L61.892 0.174507L61.6735 0.132385L61.458 0.0962798L61.2455 0.0671953L61.035 0.0451312L60.8285 0.0270787L60.625 0.0140408L60.2281 0.00100291L59.8452 0L59.4773 0.0070204L59.1175 0.023067L58.9391 0.035102L58.7607 0.0501457L58.5802 0.0692011L58.3988 0.0922682L58.2144 0.119347L58.027 0.150437L57.8345 0.186542L57.637 0.226659L57.4336 0.272793L57.2241 0.323941L56.781 0.443288L56.3019 0.587708L55.7857 0.757201L55.2334 0.952769L54.644 1.17542L53.353 1.69894L51.9126 2.33178L51.1348 2.69182L50.3129 3.09299L49.4398 3.54731L48.5097 4.06882L47.5143 4.67057L46.4478 5.36559L45.3031 6.16692L44.0743 7.0876L43.535 6.9151L43.0238 6.76767L42.5377 6.64331L42.0746 6.538L41.6325 6.44874L41.2076 6.37352L40.4027 6.24916L39.5547 6.13483L38.7458 6.04356L37.9629 5.97637L37.1921 5.93625L36.8062 5.92622L36.4173 5.92321L36.0244 5.92823L35.6255 5.94127L35.2175 5.96233L34.8005 5.99141L33.9295 6.07465L33.4714 6.12981L32.9963 6.19601L32.5032 6.27524L31.9899 6.36951L31.4557 6.48184L30.8994 6.61322L30.318 6.76667L29.7116 6.94318L29.0771 7.14677L28.4146 7.37844L27.7219 7.6402L26.9973 7.93406L26.2395 8.26301L25.4466 8.62908L24.6177 9.03426L23.7516 9.48055L25.4607 8.85172L26.9722 8.34726L27.6608 8.13765L28.3073 7.95311L28.9137 7.79265L29.4831 7.65424L30.0173 7.5369L30.5185 7.43762L30.9896 7.35437L31.4326 7.28617L31.8496 7.23101L32.2435 7.18689L32.9702 7.12571L33.6308 7.0896L34.2362 7.07356L34.7985 7.07757L35.3298 7.09863L35.84 7.13474L36.3411 7.18488L37.3625 7.31827L38.3809 7.47873L38.9252 7.58003L39.4935 7.70138L40.0869 7.8468L40.7074 8.02031L41.0281 8.1196L41.3559 8.22691L41.6907 8.34425L42.0325 8.47062L39.5196 10.4744L37.2944 12.3389L35.2506 14.1371L33.281 15.9423L32.6144 15.7718L31.9589 15.5843L30.5656 15.143L29.2916 14.7057L28.5629 14.4289L27.761 14.096L26.875 13.6938L25.8957 13.2104L24.8131 12.6317L23.6173 11.9457L24.4894 12.6568L25.3093 13.2806L25.7002 13.5624L26.0791 13.8252L26.8028 14.3006L27.4834 14.7148L28.1229 15.0768L28.7253 15.3967L29.2936 15.6826L30.0554 16.0486L30.7781 16.3736L31.4888 16.6684L32.2125 16.9422L30.0053 19.0855L27.3801 21.8084L24.0614 25.477L19.7733 30.4585L18.7138 30.0082L16.1659 28.8719L13.7342 27.7226L12.6747 27.196L11.7796 26.7297L11.4087 26.5261L11.095 26.3456L10.9617 26.2653L10.8454 26.1911L10.7462 26.1239L10.7031 26.0928L10.665 26.0647L10.7211 25.7338L10.7913 25.3808L10.8745 25.0067L10.9707 24.6145L11.1972 23.7871L11.4649 22.9166L11.7686 22.023L12.1014 21.1264L12.4572 20.2448L12.8301 19.3994L13.0205 18.9952L13.214 18.6051L13.4094 18.227L13.6079 17.8609L13.8094 17.5059L14.0128 17.1619L14.2183 16.8279L14.4258 16.504L14.8478 15.8832L15.2778 15.2934L15.7158 14.7318L16.1599 14.1922L16.6109 13.6707L17.069 13.1663L17.5371 12.6778L18.0162 12.2035L18.5084 11.7431L19.0156 11.2948L19.5388 10.8586L20.08 10.4323L20.6404 10.0161L21.2147 9.61193L21.7961 9.2208L22.3794 8.84571L23.5261 8.15069L24.6046 7.54292L25.1068 7.27615L25.593 7.03244L26.0791 6.80678L26.3257 6.69947L26.5783 6.59517L26.8369 6.49387L27.1045 6.39559L27.6728 6.20303L28.2963 6.01348L28.9899 5.82393L29.7687 5.63237L30.1968 5.53809L30.6548 5.44583L31.145 5.35757L31.6702 5.27533L32.2335 5.19911L32.8379 5.13091L33.4865 5.07074L34.1811 5.02159L34.9258 4.98348L35.7227 4.95841L36.5747 4.94638L37.4848 4.94938L39.4905 5.00655L38.5303 4.80998L37.564 4.6465L36.5927 4.51612L35.6185 4.41985L34.6412 4.35766L33.6619 4.32858L32.6826 4.33259L31.7033 4.3707L30.727 4.44291L29.7527 4.54822L28.7834 4.68762L27.8192 4.86012L26.8609 5.06572L25.9107 5.30341L24.9695 5.5742L24.0373 5.87708L23.1172 6.21205L22.208 6.57812L21.3129 6.97527L20.4319 7.40352L19.5658 7.86185L18.7158 8.34926L17.8839 8.86577L17.069 9.41035L16.2741 9.98301L15.4993 10.5828L14.7455 11.2086L14.0138 11.8605L13.3052 12.5374L12.6196 13.2375L11.959 13.9606L11.3235 14.7067L10.7141 15.474L10.1307 16.2623L9.57543 17.0696L9.0482 17.895L8.55003 18.7385L8.08093 19.599L7.6419 20.4755L7.23295 21.3661L6.85506 22.2697L6.50825 23.1864L7.10665 23.8854L7.71107 24.5443L8.31949 25.1641L8.93293 25.7478L9.55037 26.2964L10.1708 26.8129L10.7943 27.2983L11.4188 27.7557L12.0452 28.1869L12.6727 28.5941L13.2992 28.9782L13.9256 29.3423L14.5511 29.6883L15.1746 30.0182L16.4145 30.639L17.6413 31.2177L18.8512 31.7583L21.2087 32.7361L23.462 33.5886L25.5879 34.3308L27.5776 34.9797L29.4781 35.5553L31.3515 36.0799L33.2609 36.5743L35.2546 37.0557L37.3274 37.515L39.4615 37.9403L41.6386 38.3174L43.8407 38.6363L46.0489 38.894L48.245 39.0896L50.4091 39.222L52.5231 39.2912L54.5668 39.2982L56.5204 39.2451L57.4576 39.1959L58.3647 39.1327L59.2398 39.0555L60.0818 38.9642L60.8897 38.8599L61.6635 38.7436L62.4012 38.6152L63.1028 38.4758L63.7674 38.3264L64.3949 38.1679L64.9842 37.9994L65.5355 37.8229L65.7972 37.7307L66.0497 37.6374L66.2933 37.5411L66.5279 37.4428L66.7524 37.3425L66.9689 37.2402L67.1764 37.1359L67.3748 37.0296L67.5643 36.9213L67.7457 36.811L67.9181 36.6987L68.0825 36.5843L68.2389 36.469L68.3872 36.3516L68.5275 36.2323L68.5947 36.1721L68.6599 36.1109L68.723 36.0498L68.7841 35.9886L68.8443 35.9264L68.9024 35.8642L68.9586 35.802L69.0137 35.7399L69.0668 35.6767L69.1179 35.6125L69.167 35.5483L69.2152 35.4841L69.2613 35.4199L69.3054 35.3548L69.3485 35.2896L69.3896 35.2244L69.4297 35.1592L69.4688 35.093L69.5058 35.0268L69.5419 34.9606L69.6101 34.8272L69.6722 34.6938L69.7304 34.5594L69.7835 34.424L69.8075 34.3558L69.8306 34.2876L69.8526 34.2195L69.8737 34.1502L69.8928 34.08L69.9108 34.0098L69.9268 33.9386L69.9409 33.8674L69.9539 33.7952L69.9659 33.722L69.9759 33.6478L69.984 33.5736L69.991 33.4974L69.996 33.4211L69.999 33.3429L70 33.2647L69.999 33.1844L69.997 33.1032L69.993 33.021L69.987 32.9367L69.979 32.8515L69.9689 32.7642L69.9569 32.676L69.9429 32.5857L69.9268 32.4934L69.9088 32.4002L69.8887 32.3049L69.8667 32.2086L69.8146 32.01L69.7534 31.8034L69.6833 31.5898L69.6021 31.3702L69.558 31.2588L69.5109 31.1455L69.4607 31.0312L69.4076 30.9158L69.3515 30.8005L69.2924 30.6832L69.2292 30.5658L69.163 30.4475L69.0929 30.3291L69.0197 30.2108L68.9425 30.0915L68.8623 29.9731L68.7781 29.8548L68.6909 29.7364L68.5987 29.6181L68.5035 29.4997L68.4043 29.3824L68.3 29.2651L68.1918 29.1487L68.0795 29.0334L67.9632 28.919L67.8419 28.8057L67.7166 28.6934L67.5863 28.5821L67.451 28.4728L67.3117 28.3644L67.3087 28.3574Z" fill="white"/>
</svg>
