<svg width="185" height="57" viewBox="0 0 185 57" fill="none" xmlns="http://www.w3.org/2000/svg">
<g id="Vector">
<path fill-rule="evenodd" clip-rule="evenodd" d="M10.8834 36.9231L12.1686 34.7597L13.6031 32.4695L11.7642 31.3154L10.8718 30.7214L9.99549 30.1123L9.01958 29.4039L9.08713 30.3213L9.13068 30.7518L9.17956 31.1636L9.23289 31.5575L9.29066 31.9344L9.35288 32.2944L9.41865 32.6383L9.48798 32.967L9.55997 33.2814L9.71018 33.8683L9.86661 34.4033L10.0248 34.8928L10.2204 35.4412L10.3199 35.6985L10.4221 35.9486L10.5288 36.1933L10.6399 36.4354L10.7572 36.6783L10.8816 36.924L10.8834 36.9231ZM36.5912 15.0499L36.345 13.9655L37.8044 12.5247L38.7625 11.6244L40.5597 10.013L41.0112 10.7428L41.396 11.41L41.7222 12.0228L41.8653 12.3104L41.9969 12.5864L42.2288 13.108L42.4262 13.5948L42.5968 14.0521L42.7488 14.488L42.1542 14.6042L41.5338 14.7096L40.8903 14.8033L40.2255 14.8837L39.5411 14.9498L38.8389 15.0007L38.1208 15.0347L37.3884 15.0517L36.5912 15.049V15.0499ZM36.9884 24.5743L37.1209 23.1952L37.2107 21.783L37.2462 20.7647L37.248 20.2279L37.2338 19.6616L37.2009 19.0578L37.1449 18.4075L37.0622 17.7027L36.9493 16.9346L37.7679 16.9783L38.5679 17.0051L39.5482 17.0194L40.045 17.0141L40.5534 16.9953L41.0787 16.9614L41.6262 16.9087L42.2013 16.8345L42.8092 16.7354L43.4438 16.6103L43.6945 17.4553L43.8056 17.8617L43.906 18.2583L43.994 18.6397L44.0722 19.014L44.2064 19.7464L44.3166 20.4682L44.53 22.1599L44.6304 23.1728L43.5958 23.4863L43.0759 23.6293L42.5541 23.7624L42.0306 23.8865L41.5045 24L40.9765 24.1045L40.4459 24.1991L39.614 24.3269L38.7669 24.4314L37.895 24.5136L36.9902 24.5734L36.9884 24.5743ZM33.6759 31.7585L31.1143 31.2592L28.8435 30.7518L26.6597 30.2043L24.0644 29.4745L25.8491 26.8261L27.4098 24.6163L28.1475 24.8485L28.8986 25.0682L29.6576 25.2737L30.4184 25.4648L31.1739 25.6399L31.9187 25.798L32.6458 25.9382L33.3488 26.0597L34.3194 26.2017L35.2402 26.3054L35.1406 26.7823L35.0224 27.2968L34.8811 27.8587L34.7131 28.4795L34.2758 29.9381L33.6759 31.7567V31.7585ZM35.3495 15.0025L35.9352 15.0311L35.9103 14.723L35.8801 14.4443L35.3504 15.0025H35.3495ZM31.1286 40.5228L30.6895 41.123L30.2753 41.6545L29.8816 42.1252L29.5065 42.5441L29.1474 42.9193L28.8017 43.2605L28.1386 43.8723L27.4791 44.4511L27.1458 44.7316L26.8028 45.0094L26.4464 45.2863L26.0713 45.5641L25.674 45.8455L25.2491 46.1322L25.9984 46.2626L26.6881 46.3698L27.9431 46.5332L29.3892 46.6788L30.7393 46.7753L32.0103 46.8343L33.219 46.8664L35.4917 46.8762L36.5538 46.8485L37.5644 46.795L38.5163 46.7137L39.3927 46.6154L40.829 46.4216L41.7675 46.284L41.9409 46.2519L42.0209 46.2349L42.0964 46.2179L42.1684 46.1992L42.2377 46.1795L42.3044 46.1581L42.3693 46.1357L42.4324 46.1116L42.4946 46.0857L42.5559 46.0571L42.6172 46.0259L42.6786 45.9928L42.7408 45.9562L42.8048 45.9169L42.8706 45.874L42.939 45.8276L43.0101 45.7776L43.163 45.6641L43.5265 45.381L43.9105 45.071L44.122 44.8924L44.3433 44.6977L44.5699 44.4878L44.7975 44.2618L44.9112 44.143L45.0241 44.0197L45.1352 43.8929L45.2445 43.7625L44.5762 43.6999L43.6776 43.5945L42.7275 43.457L41.7133 43.2837L40.6219 43.0711L40.5046 43.2006L40.3783 43.3346L40.2433 43.4731L40.1002 43.6142L39.7935 43.9018L39.4673 44.1885L39.2993 44.3288L39.1296 44.4663L38.958 44.5994L38.7865 44.7271L38.6159 44.8486L38.447 44.9621L38.2808 45.0675L38.199 45.1166L38.1181 45.163L38.6718 44.5664L39.1714 43.9974L39.6175 43.4561L39.8202 43.1962L40.0095 42.9425L37.7111 42.4039L34.5736 41.5669L32.8751 41.0685L31.1286 40.5219V40.5228ZM35.5264 24.6234L35.6286 23.8544L35.713 23.1076L35.8401 21.6544L35.9486 19.7616L35.9948 17.7224L35.9939 16.8569L35.1868 16.7613L34.7709 16.7006L34.3451 16.6309L33.9274 16.555L32.5444 18.1377L31.133 19.817L29.5634 21.7598L27.8427 24.0223L28.7724 24.1893L29.6923 24.3242L30.5988 24.4305L31.4885 24.5109L32.3578 24.568L33.2039 24.6047L34.81 24.6297L35.5255 24.6234H35.5264ZM46.7333 22.4091L46.608 21.4704L46.4604 20.5771L46.2996 19.7652L46.12 18.9899L45.9227 18.244L45.7067 17.5214L45.4739 16.8167L45.2294 16.1378L45.8267 15.9368L46.4391 15.7064L46.7502 15.5805L47.0648 15.4465L47.3821 15.3036L47.7021 15.1526L48.0514 15.609L48.3891 16.0735L48.7162 16.5523L49.0344 17.0516L49.2504 17.4142L49.4619 17.7885L49.669 18.1735L49.8708 18.5683L50.0672 18.9711L50.2574 19.3811L50.4405 19.7973L50.6174 20.2189L50.053 20.603L49.517 20.9496L49.0069 21.2604L48.5189 21.54L48.0505 21.791L47.599 22.017L47.1617 22.2207L46.7351 22.4056L46.7333 22.4091ZM51.5346 32.9018L51.02 32.9572L50.4796 33.0054L49.3144 33.0795L48.5722 33.109L47.7847 33.1251L46.9502 33.1269L46.0658 33.1135L46.3236 31.8782L46.5404 30.7152L46.7137 29.6156L46.7831 29.0877L46.8408 28.5723L46.8853 28.0864L46.919 27.6112L46.9431 27.1459L46.9573 26.6903L46.9617 25.806L46.9386 24.9539L47.4914 24.7449L48.0469 24.5216L48.454 24.3501L48.8646 24.1679L49.2806 23.9705L49.7019 23.7552L49.9143 23.6391L50.1285 23.5176L50.3445 23.389L50.5614 23.2541L50.78 23.1121L51.0013 22.962L51.2235 22.8039L51.4484 22.6378L51.5391 22.996L51.6226 23.3658L51.699 23.7481L51.7675 24.1447L51.8279 24.5582L51.8795 24.9905L51.9212 25.4425L51.9541 25.9159L51.9843 26.6519L51.9932 27.4344L51.979 28.2597L51.9408 29.1253L51.8786 30.0256L51.7915 30.9581L51.6786 31.9184L51.5391 32.9036L51.5346 32.9018ZM44.0811 33.0313L42.635 32.9313L40.9267 32.7758L39.1162 32.574L37.2373 32.3274L35.3246 32.0389L36.0223 29.5978L36.3174 28.433L36.4498 27.8542L36.5716 27.2727L36.7307 26.4054L37.2044 26.4188L37.6764 26.4233L38.6238 26.4099L39.2629 26.3849L39.9073 26.3482L40.5534 26.2991L41.1969 26.2384L41.8351 26.1651L42.4644 26.0794L43.0803 25.9811L43.6803 25.8704L44.218 25.7569L44.7415 25.6328L44.7388 26.258L44.7237 26.9119L44.6944 27.5978L44.6499 28.3196L44.5655 29.3298L44.4464 30.4329L44.2873 31.6575L44.0811 33.0322V33.0313ZM20.2007 36.0575L19.0311 38.5854L18.176 40.588L17.8427 41.4294L17.5592 42.1841L17.105 43.4918L16.8339 44.3368L16.6064 45.1059L16.8508 45.3283L17.0952 45.5418L17.3414 45.7463L17.5876 45.9437L17.8338 46.1331L18.08 46.3153L18.5716 46.6601L19.0604 46.9825L19.5457 47.2844L20.4976 47.8427L21.6086 48.4608L22.1534 48.7475L22.6956 49.02L23.2387 49.2763L23.7853 49.5175L24.339 49.7426L24.9034 49.9507L25.4811 50.1418L26.0704 50.316L26.6694 50.4741L27.2774 50.6153L27.8915 50.7394L28.5102 50.8466L29.1305 50.9368L29.7518 51.011L30.3713 51.0681L30.9881 51.1083L31.6005 51.1324L32.2076 51.1405L32.8075 51.1333L33.3995 51.111L33.9816 51.0735L34.5531 51.0217L35.1131 50.9556L35.6632 50.8752L36.2054 50.7814L36.7405 50.6742L37.272 50.5536L37.8008 50.4205L38.3297 50.274L38.8603 50.115L39.3936 49.9444L39.9277 49.7622L40.4601 49.5684L40.9881 49.3639L41.5098 49.1477L42.0217 48.9217L42.5213 48.685L43.0065 48.4394L43.4758 48.1839L43.93 47.9195L44.3717 47.6453L44.8028 47.3621L45.2268 47.0692L45.6454 46.7673L46.4764 46.1349L47.2195 45.54L47.9296 44.9415L48.2603 44.6494L48.5678 44.3672L48.8478 44.0974L48.9757 43.9679L49.0957 43.8428L48.0398 43.8679L47.4941 43.867L46.9342 43.8563L46.68 44.0894L46.4293 44.31L46.1822 44.5199L45.9387 44.7191L45.6987 44.9094L45.4614 45.0898L44.9975 45.4256L44.5459 45.7311L44.106 46.0116L43.6785 46.2697L43.2616 46.5118L42.3933 46.9915L41.9622 47.2139L41.5249 47.4274L41.0752 47.6328L40.6068 47.8329L40.1135 48.0285L39.5882 48.2223L39.0274 48.4144L38.4319 48.6019L37.8053 48.7824L37.1511 48.9521L36.4721 49.1084L35.7726 49.2468L35.0544 49.3647L34.69 49.4148L34.322 49.4585L35.9494 48.978L36.7529 48.7252L37.5164 48.4697L38.215 48.2152L38.5314 48.0892L38.8221 47.9651L38.9571 47.9034L39.0843 47.8427L39.2034 47.7829L39.3136 47.723L39.4158 47.6649L39.4629 47.6355L39.5073 47.606L39.55 47.5774L39.59 47.5488L39.6282 47.5211L39.6637 47.4934L39.0114 47.6006L38.3741 47.6908L37.7519 47.765L37.1449 47.8248L36.5529 47.8704L35.9761 47.9025L35.4144 47.9231L34.8669 47.932L34.3354 47.9311L33.8181 47.9204L32.8297 47.8757L31.9009 47.8061L31.0326 47.7176L30.222 47.6176L29.4594 47.5077L28.7315 47.3863L28.0258 47.2541L26.6303 46.9575L23.5773 46.226L22.7472 46.0089L21.9108 45.774L21.0798 45.5194L20.2647 45.2434L19.8674 45.0969L19.4781 44.9442L19.0986 44.7843L18.7306 44.6182L22.3854 45.5293L23.8279 45.849L25.0687 46.0965L25.5051 45.7204L25.8811 45.3729L26.217 45.0416L26.5317 44.7129L26.8739 44.3395L27.2294 43.9357L28.0435 42.9648L28.4844 42.4164L28.7181 42.1082L28.9581 41.7742L29.2016 41.4115L29.3243 41.2186L29.447 41.0176L29.5696 40.8086L29.6923 40.5906L29.814 40.3629L29.9349 40.1253L27.5849 39.2865L25.6553 38.5282L23.7791 37.7305L21.9597 36.9025L20.2007 36.0549V36.0575ZM15.9425 50.6028L16.6891 51.0636L17.4517 51.4986L18.2285 51.9068L19.0186 52.2874L19.8221 52.6402L20.6371 52.9644L21.4628 53.261L22.2983 53.528L23.1427 53.7656L23.9941 53.9738L24.8527 54.1524L25.7166 54.3007L26.585 54.4186L27.4569 54.5061L28.3315 54.5633L29.2079 54.5901L30.0842 54.5865L30.9606 54.5517L31.8343 54.4865L32.7053 54.3909L33.5728 54.265L34.4358 54.1086L35.2926 53.922L36.1423 53.7058L36.984 53.4602L37.8168 53.185L38.6398 52.8814L39.4513 52.5491L40.2513 52.1891L41.0378 51.8015L41.8111 51.3861L42.5693 50.944L43.3123 50.4759L44.0384 49.9829L44.7468 49.4639L45.4374 48.9208L46.1085 48.3536L46.76 47.7632L47.3901 47.1513L47.9989 46.5172L48.5856 45.8624L49.1491 45.1872L49.6886 44.4931L50.2041 43.7803L50.6582 43.7419L51.1035 43.6928L51.5399 43.6312L51.755 43.5954L51.9675 43.5561L52.1781 43.5124L52.3861 43.4641L52.5914 43.4114L52.7949 43.3534L52.9949 43.2908L53.1931 43.223L53.3887 43.1488L53.5815 43.0693L53.3095 43.1095L53.0358 43.1435L52.7603 43.172L52.483 43.1953L51.9221 43.2274L51.3524 43.2417L50.7702 43.2408L50.1739 43.2265L48.9322 43.164L47.615 43.0684L46.2187 42.9318L44.7424 42.7433L43.187 42.4923L41.5525 42.169L39.8424 41.7706L38.0621 41.2972L36.2179 40.747L34.3194 40.1244L32.4013 39.4464L28.6719 38.0092L25.2651 36.5667L22.0619 35.0804L20.4789 34.2979L18.9111 33.486L17.3752 32.6454L15.8883 31.7772L14.4635 30.8831L13.1045 29.972L11.8122 29.0538L10.5874 28.1382L9.4311 27.2343L8.35209 26.3447L7.35752 25.472L6.89445 25.0432L6.45627 24.6198L6.04298 24.2018L5.65457 23.79L5.29016 23.3854L4.94886 22.987L4.62978 22.5967L4.33203 22.2135L4.05561 21.8384L3.79875 21.4721L3.56144 21.1148L3.34457 20.7665L3.24413 20.5959L3.14903 20.428L3.05926 20.2618L2.97483 20.0975L2.89661 19.9358L2.82462 19.7768L2.75796 19.6205L2.69752 19.466L2.6433 19.3141L2.5962 19.1649L2.57486 19.0908L2.55531 19.0176L2.53753 18.9452L2.52065 18.8738L2.50643 18.8023L2.49309 18.7317L2.48154 18.6621L2.47176 18.5924L2.46376 18.5236L2.45754 18.4548L2.4531 18.3869L2.44954 18.3191L2.44777 18.2521V18.1851L2.44865 18.119L2.45132 18.0529L2.45576 17.9868L2.4611 17.9207L2.46821 17.8555L2.4771 17.7903L2.48776 17.7251L2.49932 17.6608L2.51265 17.5956L2.52687 17.5312L2.54287 17.4669L2.55975 17.4026L2.57842 17.3383L2.59797 17.2749L2.6193 17.2106L2.64152 17.1472L2.69041 17.0185L2.74463 16.8899L2.80329 16.7613L2.86728 16.6318L2.90105 16.5666L2.93661 16.5014L2.97394 16.4362L3.01304 16.371L3.05393 16.3057L3.09748 16.2405L3.14281 16.1753L3.18992 16.1101L3.23969 16.0449L3.29213 15.9806L3.34723 15.9163L3.40501 15.852L3.46633 15.7877L3.53033 15.7243L3.59788 15.6608L3.66898 15.5974L3.74275 15.5349L3.82008 15.4724L3.90185 15.4107L3.98717 15.3491L4.07605 15.2884L4.16938 15.2276L4.26715 15.1678L4.36847 15.1079L4.47513 15.049L4.58534 14.9909L4.70088 14.9338L4.82087 14.8766L4.94619 14.8203L5.07685 14.7649L5.05463 14.7623L5.03063 14.7596L5.00574 14.7578L4.97997 14.756L4.92486 14.7542H4.86531L4.80221 14.7569L4.73555 14.7605L4.66533 14.7658L4.59156 14.7739L4.43513 14.7944L4.26715 14.8212L4.09027 14.8543L3.90629 14.8936L3.71609 14.9382L3.52144 14.9882L3.32501 15.0436L3.1277 15.1044L2.93127 15.1696L2.73752 15.2383L2.5482 15.3116L2.36511 15.3884L2.18912 15.4688L2.02114 15.5519L1.86027 15.6385L1.78294 15.6832L1.70739 15.7278L1.63362 15.7743L1.56163 15.8207L1.49141 15.8681L1.42297 15.9154L1.35631 15.9645L1.29143 16.0137L1.22833 16.0637L1.167 16.1137L1.10745 16.1646L1.04968 16.2164L0.993682 16.2682L0.939466 16.3209L0.887026 16.3736L0.835475 16.4272L0.786591 16.4817L0.738596 16.5362L0.692378 16.5916L0.647938 16.647L0.604386 16.7023L0.562613 16.7586L0.523505 16.8149L0.485287 16.872L0.448846 16.9292L0.413294 16.9873L0.379519 17.0453L0.347522 17.1034L0.317303 17.1623L0.287972 17.2213L0.260419 17.2802L0.233755 17.3401L0.208869 17.3999L0.184871 17.4598L0.16354 17.5205L0.143097 17.5813L0.124433 17.6429L0.106656 17.7045L0.090658 17.7671L0.0764371 17.8296L0.0631051 17.8921L0.0506618 17.9555L0.0399962 18.0189L0.0311081 18.0833L0.0231089 18.1476L0.0159985 18.2128L0.0106656 18.278L0.00622163 18.3441L0.00266641 18.4102L0.000888804 18.4772L0 18.5442L0.000888804 18.612L0.00622163 18.7496L0.0159985 18.8889L0.0302193 19.0301L0.0488842 19.173L0.0728819 19.3186L0.101324 19.466L0.134209 19.6151L0.172428 19.767L0.215979 19.9206L0.263975 20.0769L0.317303 20.235L0.375964 20.3949L0.439958 20.5575L0.509284 20.7218L0.583944 20.888L0.663936 21.0568L0.75015 21.2274L0.841697 21.4007L0.939466 21.5757L1.04346 21.7526L1.15367 21.9321L1.27188 22.1153L1.3972 22.3019L1.53141 22.4922L1.67539 22.6878L1.82916 22.8888L1.99359 23.0951L2.17046 23.3077L2.35888 23.5274L2.77662 23.9883L3.25124 24.4823L3.78986 25.0138L4.53201 25.7105L4.42713 26.5724L4.35158 27.438L4.30537 28.3053L4.28848 29.1744L4.30181 30.0426L4.34447 30.9108L4.41647 31.7763L4.51779 32.6392L4.64933 33.4985L4.81021 34.3524L4.99952 35.2L5.21817 36.0406L5.46525 36.8731L5.73989 37.6966L6.04209 38.5103L6.37272 39.3133L6.73091 40.1047L7.11487 40.8827L7.5255 41.6473L7.9619 42.3976L7.46684 43.4463L7.03133 44.4163L6.59137 45.4623L6.22696 46.4073L6.07142 46.8459L5.93188 47.2639L5.80833 47.6623L5.6999 48.0419L5.60568 48.4054L5.5248 48.7538L5.45637 49.0878L5.39948 49.4103L5.35415 49.722L5.3186 50.0239L5.29283 50.3178L5.27505 50.6054L5.26527 50.8877L5.26261 51.1646L5.26705 51.4361L5.2786 51.7023L5.29638 51.9613L5.32038 52.2141L5.34971 52.4606L5.38348 52.7L5.42259 52.9323L5.46614 53.1574L5.51325 53.3753L5.5648 53.5852L5.61902 53.7871L5.6759 53.9809L5.73545 54.1658L5.79767 54.3427L5.86166 54.5097L5.92743 54.6687L5.99587 54.8196L6.03142 54.892L6.06697 54.9626L6.10341 55.0313L6.13986 55.0974L6.17719 55.1626L6.2154 55.2252L6.25451 55.2868L6.29451 55.3466L6.33539 55.4047L6.37717 55.461L6.41894 55.5164L6.46249 55.57L6.50693 55.6218L6.55226 55.6727L6.59848 55.7218L6.64559 55.77L6.69358 55.8174L6.74246 55.8629L6.79224 55.9076L6.84379 55.9514L6.89623 55.9942L6.94956 56.0353L7.00466 56.0755L7.06066 56.1148L7.11754 56.1532L7.1762 56.1916L7.23575 56.2283L7.29619 56.2649L7.35841 56.3006L7.42151 56.3354L7.55216 56.4024L7.68726 56.4667L7.82769 56.5275L7.97257 56.5846L8.12278 56.6382L8.27654 56.6883L8.43564 56.7347L8.59918 56.7785L8.76716 56.8178L8.93959 56.8535L9.11646 56.8857L9.29689 56.9142L9.48265 56.9393L9.67196 56.9598L9.86483 56.9768L10.0613 56.9893L10.2595 56.9973L10.4586 57L10.6568 56.9973L10.8541 56.9884L11.0487 56.9741L11.1447 56.9643L11.2398 56.9527L11.334 56.9393L11.4265 56.9241L11.518 56.9071L11.6078 56.8883L11.6958 56.8669L11.782 56.8446L11.8664 56.8196L11.9491 56.7928L12.0291 56.7633L12.0682 56.7481L12.1064 56.732L12.1446 56.7151L12.1819 56.6981L12.2184 56.6811L12.2895 56.6436L12.3242 56.624L12.3579 56.6043L12.3908 56.5838L12.4228 56.5623L12.4539 56.5409L12.485 56.5186L12.5144 56.4953L12.3979 56.5007L12.2833 56.5034L12.1713 56.5043L12.062 56.5034L11.9553 56.4998L11.8504 56.4944L11.7482 56.4864L11.6478 56.4775L11.55 56.4659L11.454 56.4525L11.3598 56.4382L11.2674 56.4221L11.1776 56.4033L11.0896 56.3837L11.0034 56.3622L10.919 56.3399L10.8363 56.3158L10.7563 56.2908L10.6772 56.264L10.5999 56.2363L10.5243 56.2077L10.4506 56.1782L10.3786 56.1479L10.3083 56.1157L10.239 56.0827L10.1715 56.0487L10.0408 55.9799L9.91549 55.9085L9.7955 55.8343L9.67996 55.7584L9.56975 55.6807L9.46398 55.6012L9.41243 55.5601L9.36266 55.519L9.31377 55.4771L9.26578 55.4351L9.21867 55.3922L9.17245 55.3484L9.12801 55.3038L9.08446 55.2591L9.0418 55.2136L9.00003 55.1671L8.95914 55.1198L8.91914 55.0715L8.88004 55.0224L8.84182 54.9724L8.80449 54.9215L8.76894 54.8697L8.73338 54.817L8.69961 54.7643L8.66584 54.7098L8.63295 54.6544L8.60095 54.5981L8.56984 54.541L8.53963 54.4829L8.51029 54.4231L8.45341 54.3016L8.39919 54.1756L8.34764 54.0443L8.29965 53.9095L8.25432 53.771L8.21166 53.6281L8.17255 53.4816L8.13611 53.3324L8.10233 53.1797L8.07211 53.0234L8.04456 52.8644L8.01968 52.7027L7.99834 52.5384L7.97968 52.3722L7.96368 52.2034L7.95124 52.0328L7.94235 51.8604L7.93613 51.6862L7.93257 51.5103L7.93524 51.1548L7.95035 50.7939L7.9779 50.4268L8.01701 50.0552L8.06856 49.6792L8.13166 49.2995L8.20721 48.9164L8.2952 48.5296L8.39475 48.1366L8.50763 47.7355L8.63206 47.3237L8.91914 46.4582L9.25689 45.5185L9.65063 44.486L10.1146 43.3435L10.6701 42.0761L11.3358 40.6675L12.0948 39.1758L13.0103 37.5126L14.1204 35.6476L15.4652 33.5503L17.9147 34.8839L18.7235 35.3054L16.6064 39.7448L15.8954 41.3311L15.6029 42.0252L15.3434 42.6763L15.107 43.3132L14.8955 43.9232L14.707 44.5083L14.5399 45.0692L14.3924 45.6061L14.2617 46.1206L14.0422 47.0835L13.868 47.9686L13.7969 48.3893L13.7356 48.7993L13.684 49.2022L13.6431 49.6014L13.612 50.0007L13.5907 50.4027L13.5791 50.81L13.5783 51.22L13.5898 51.6291L13.6005 51.8327L13.6147 52.0346L13.6325 52.2338L13.6547 52.4312L13.6814 52.6259L13.7116 52.817L13.7462 53.0046L13.7853 53.1886L13.8289 53.3673L13.8778 53.5414L13.9044 53.6263L13.932 53.7103L13.9613 53.7924L13.9915 53.8737L14.0227 53.9532L14.0547 54.0318L14.0875 54.1086L14.1213 54.1846L14.1569 54.2596L14.1933 54.3328L14.2306 54.4052L14.2689 54.4758L14.308 54.5454L14.348 54.6133L14.3888 54.6803L14.4306 54.7464L14.4733 54.8107L14.5168 54.8741L14.6066 54.9974L14.699 55.1153L14.7941 55.2287L14.8919 55.3377L14.9923 55.4413L15.0946 55.5405L15.1985 55.6352L15.3043 55.7254L15.411 55.812L15.5203 55.8942L15.6305 55.9719L15.7425 56.046L15.8554 56.1157L15.97 56.1818L16.0865 56.2443L16.2038 56.3033L16.3229 56.3587L16.4429 56.4114L16.5646 56.4605L16.6882 56.5069L16.8126 56.5498L16.9388 56.5909L17.0659 56.6284L17.1939 56.6632L17.3237 56.6963L17.4543 56.7267L17.5859 56.7544L17.7174 56.7794L17.8498 56.8017L17.9823 56.8214L18.1147 56.8392L18.2471 56.8544L18.3796 56.8669L18.5111 56.8776L18.6427 56.8857L18.7733 56.891L18.9031 56.8937H19.0311L19.1582 56.8919L19.2844 56.8875L19.4088 56.8803L19.5332 56.8714L19.6568 56.8598L19.7812 56.8455L19.9056 56.8294L20.1581 56.7901L20.4176 56.741L20.6878 56.682L21.2717 56.5355L21.5899 56.448L21.9215 56.3497L22.2601 56.2399L22.4298 56.18L22.5987 56.1166L22.7658 56.0496L22.9302 55.9782L23.0911 55.9031L23.2484 55.8236L23.3249 55.7825L23.3995 55.7406L23.4733 55.6968L23.5453 55.6521L23.6155 55.6066L23.684 55.5592L23.7506 55.511L23.8155 55.4619L22.9845 55.6414L22.6067 55.7129L22.253 55.7736L21.9215 55.8236L21.6104 55.8629L21.3188 55.8924L21.0451 55.9129L20.7882 55.9246L20.5465 55.9272L20.4309 55.9254L20.3189 55.9219L20.2096 55.9165L20.1038 55.9094L20.0007 55.9004L19.9003 55.8897L19.8025 55.8772L19.7066 55.8629L19.6132 55.8468L19.5217 55.8299L19.4319 55.8111L19.3439 55.7915L19.2568 55.77L19.1715 55.7477L19.0871 55.7236L19.0044 55.6986L18.9235 55.6718L18.8444 55.6441L18.7662 55.6155L18.6898 55.5851L18.6142 55.5539L18.5404 55.5217L18.4676 55.4878L18.3956 55.4529L18.3254 55.4172L18.256 55.3806L18.1885 55.3422L18.1218 55.3029L18.056 55.2627L17.9921 55.2216L17.9289 55.1796L17.8667 55.1358L17.8063 55.0921L17.7467 55.0474L17.689 55.001L17.6321 54.9536L17.5761 54.9063L17.521 54.8572L17.4677 54.8071L17.4152 54.7562L17.3637 54.7053L17.2641 54.5999L17.2152 54.5463L17.1219 54.4365L17.0321 54.3239L16.9468 54.2087L16.865 54.0917L16.7877 53.9729L16.714 53.8532L16.6446 53.7326L16.5789 53.6111L16.5166 53.4896L16.458 53.3682L16.4029 53.2476L16.3513 53.127L16.3042 53.0082L16.2607 52.8912L16.2198 52.776L16.1833 52.6634L16.1496 52.5535L16.1193 52.4455L16.0927 52.3383L16.0687 52.232L16.0473 52.1257L16.0287 52.0185L16.0118 51.9104L15.9976 51.7997L15.986 51.6862L15.9754 51.5692L15.9594 51.3218L15.9407 50.7546L15.938 50.6001L15.9425 50.6028ZM44.3362 14.0825L43.9904 13.4278L43.5843 12.7052L43.2056 12.0621L42.9781 11.7048L42.7159 11.3198L42.5701 11.117L42.4128 10.9071L42.2431 10.6892L42.06 10.4632L41.8635 10.2292L41.652 9.98621L41.4245 9.73432L41.1809 9.4735L41.4209 9.26717L42.4128 9.98442L43.2616 10.6275L43.9824 11.2046L44.5913 11.7235L44.8588 11.9638L45.105 12.1925L45.3316 12.4104L45.5405 12.6194L45.9129 13.0124L46.2391 13.3787L45.7414 13.5841L45.2614 13.769L44.7939 13.9342L44.3362 14.0825ZM59.684 25.2558L59.8369 25.6024L59.9045 25.7676L59.9667 25.9275L60.0236 26.0821L60.0751 26.2312L60.1213 26.375L60.1622 26.5153L60.1987 26.6501L60.2307 26.7805L60.2582 26.9074L60.2813 27.0289L60.3009 27.1468L60.316 27.2611L60.3275 27.371L60.3355 27.4782L60.3409 27.5809L60.3418 27.6809L60.3409 27.7774L60.3373 27.8712L60.3302 27.9614L60.3213 28.0489L60.3098 28.1338L60.2964 28.216L60.2804 28.2963L60.2627 28.3741L60.244 28.4491L60.2236 28.5232L60.2022 28.5947L60.18 28.6644L60.132 28.7992L60.0813 28.9296L60.0289 29.0547L59.9738 29.1753L59.916 29.2914L59.8858 29.3477L59.8547 29.403L59.8227 29.4575L59.7898 29.5111L59.7569 29.5638L59.7232 29.6156L59.6876 29.6665L59.6512 29.7166L59.6147 29.7657L59.5765 29.8148L59.5374 29.8631L59.4974 29.9104L59.4565 29.9568L59.4147 30.0033L59.3712 30.0488L59.3268 30.0935L59.2814 30.1382L59.2343 30.1819L59.1374 30.2686L59.0352 30.3534L58.9277 30.4374L58.8148 30.5196L58.6966 30.6017L58.5739 30.6821L58.4459 30.7616L58.3144 30.8402L58.1784 30.9171L57.8949 31.0689L57.5971 31.2163L57.2878 31.3601L56.9696 31.4994L56.6435 31.6352L56.1617 31.8237L55.6622 32.0032L55.1396 32.1729L54.5868 32.3319L54.6792 31.4583L54.7414 30.5821L54.7734 29.705L54.7743 28.8269L54.7459 27.9489L54.6872 27.0726L54.5983 26.1991L54.4792 25.3291L54.3308 24.4635L54.1521 23.6043L53.9442 22.7512L53.7068 21.9062L53.4411 21.0702L53.146 20.244L52.8225 19.4284L52.4714 18.6245L52.0928 17.8332L51.6875 17.0552L51.2555 16.2923L50.7978 15.5447L50.3143 14.8132L49.8059 14.0995L49.2735 13.4037L48.7171 12.7266L48.1376 12.0692L47.5359 11.4323L46.9128 10.8169L46.2684 10.2229L45.6045 9.65215L44.178 8.76696L43.5149 8.3793L42.8848 8.02648L44.0029 7.11004L45.0446 6.30167L45.8 5.7452L46.5831 5.19497L47.3812 4.6644L47.7821 4.41072L48.182 4.16777L48.9775 3.71223L51.4679 2.37418L50.8467 2.59034L50.2734 2.80829L49.7419 3.02802L49.2451 3.25043L48.7758 3.47552L48.3287 3.70419L47.4701 4.17491L46.6257 4.66619L45.7903 5.17443L44.969 5.69607L44.1655 6.22664L43.3816 6.76436L42.6066 7.31727L41.8271 7.89518L40.1979 9.17159L39.318 9.90046L38.3723 10.7151L37.344 11.6351L36.217 12.6811L34.9771 13.8815L33.6101 15.266L32.1018 16.864L30.4113 18.7523L29.4496 19.8849L28.3813 21.1961L25.8286 24.51L22.5685 29.0065L21.038 28.4866L19.4879 27.914L23.2973 23.3988L26.4321 19.892L29.1599 17.0346L31.5676 14.6828L33.819 12.6105L35.9637 10.7454L38.0168 9.05994L39.0069 8.2873L39.9695 7.56558L40.909 6.8912L41.8538 6.24629L42.8386 5.60853L43.898 4.9547L45.0517 4.27138L46.2631 3.5836L47.4817 2.92619L48.6558 2.33488L49.2113 2.07406L49.7446 1.83736L50.2583 1.62298L50.7533 1.43005L51.2324 1.25766L51.6973 1.10491L52.1497 0.970038L52.5914 0.852133L53.0251 0.749412L53.2393 0.704751L53.4535 0.663663L53.6669 0.627041L53.8802 0.594885L54.0935 0.567195L54.3077 0.544865L54.5228 0.527L54.7387 0.514495L54.9565 0.506456L55.1769 0.503777L55.4 0.506456L55.6258 0.514495L55.8551 0.527894L56.088 0.547544L55.9848 0.502883L55.8826 0.460902L55.7804 0.420707L55.6782 0.382299L55.5769 0.34657L55.4756 0.313521L55.3751 0.282258L55.2756 0.252782L55.0774 0.200081L54.881 0.15542L54.6872 0.117905L54.4961 0.0857492L54.3077 0.0598458L54.121 0.0401949L53.9379 0.024117L53.7575 0.0125051L53.4055 0.000893221L53.066 0L52.7398 0.00625255L52.4207 0.0205441L52.2625 0.0312627L52.1043 0.044661L51.9444 0.0616322L51.7835 0.0821763L51.6199 0.106293L51.4537 0.133983L51.2831 0.166139L51.108 0.201868L50.9276 0.242956L50.7418 0.28851L50.3489 0.394804L49.9241 0.523427L49.4664 0.674382L48.9766 0.84856L48.454 1.04685L47.3092 1.51312L46.032 2.07674L45.3423 2.3974L44.6135 2.75469L43.8393 3.15932L43.0145 3.6238L42.132 4.15973L41.1863 4.77873L40.1713 5.49241L39.0816 6.31239L38.6034 6.15876L38.1501 6.02745L37.7191 5.9167L37.3084 5.82291L36.9165 5.74341L36.5396 5.67642L35.8259 5.56566L35.074 5.46383L34.3567 5.38255L33.6625 5.3227L32.9791 5.28697L32.6369 5.27804L32.292 5.27536L31.9436 5.27983L31.5899 5.29144L31.2281 5.3102L30.8584 5.3361L30.086 5.41024L29.6798 5.45937L29.2585 5.51832L28.8212 5.58888L28.3662 5.67285L27.8924 5.77289L27.3991 5.8899L26.8836 6.02656L26.3459 6.18377L25.7833 6.36509L25.1958 6.57143L24.5816 6.80456L23.939 7.06627L23.2671 7.35925L22.5641 7.68527L21.829 8.04613L21.0611 8.44362L22.5765 7.88357L23.9168 7.43428L24.5274 7.24759L25.1007 7.08324L25.6384 6.94033L26.1433 6.81706L26.617 6.71255L27.0614 6.62413L27.4791 6.54999L27.872 6.48925L28.2417 6.44012L28.591 6.40082L29.2354 6.34633L29.8211 6.31418L30.358 6.29989L30.8566 6.30346L31.3277 6.32222L31.7801 6.35437L32.2245 6.39903L33.1302 6.51783L34.0332 6.66075L34.5158 6.75096L35.0198 6.85904L35.5459 6.98856L36.0961 7.14309L36.3805 7.23152L36.6711 7.32709L36.968 7.4316L37.2711 7.54414L35.0429 9.3288L33.0697 10.9893L31.2574 12.5908L29.5109 14.1986L28.9199 14.0468L28.3386 13.8798L27.1032 13.4867L25.9735 13.0973L25.3273 12.8508L24.6163 12.5542L23.8306 12.196L22.9622 11.7655L22.0023 11.2501L20.942 10.6392L21.7153 11.2724L22.4423 11.828L22.7889 12.079L23.1249 12.313L23.7666 12.7364L24.3701 13.1053L24.9372 13.4278L25.4713 13.7127L25.9753 13.9673L26.6508 14.2933L27.2916 14.5827L27.9218 14.8453L28.5635 15.0892L26.6063 16.998L24.2786 19.4231L21.3357 22.6905L17.5334 27.1271L16.594 26.7261L14.3346 25.714L12.1784 24.6904L11.2389 24.2215L10.4452 23.8061L10.1164 23.6248L9.83817 23.464L9.71996 23.3926L9.61686 23.3265L9.52886 23.2666L9.49065 23.2389L9.45687 23.2139L9.50664 22.9192L9.56886 22.6047L9.64263 22.2716L9.72796 21.9223L9.92883 21.1854L10.1661 20.4101L10.4354 19.6142L10.7305 18.8157L11.0461 18.0306L11.3767 17.2776L11.5456 16.9176L11.7171 16.5701L11.8904 16.2334L12.0664 15.9074L12.245 15.5912L12.4255 15.2848L12.6077 14.9874L12.7917 14.6988L13.1658 14.1459L13.5471 13.6207L13.9356 13.1205L14.3293 12.64L14.7293 12.1755L15.1354 11.7262L15.5505 11.2912L15.9754 10.8687L16.4118 10.4587L16.8615 10.0595L17.3254 9.6709L17.8054 9.29128L18.3022 8.9206L18.8115 8.56063L19.327 8.21227L19.8443 7.87821L20.8611 7.25921L21.8175 6.71791L22.2628 6.48032L22.6938 6.26327L23.1249 6.06229L23.3435 5.96672L23.5675 5.87382L23.7968 5.78361L24.0341 5.69607L24.5381 5.52457L25.0909 5.35575L25.706 5.18693L26.3966 5.01633L26.7761 4.93237L27.1823 4.85019L27.6169 4.77159L28.0826 4.69834L28.5821 4.63046L29.1181 4.56972L29.6931 4.51612L30.3091 4.47236L30.9695 4.43841L31.6761 4.41608L32.4316 4.40537L33.2386 4.40804L35.0171 4.45896L34.1656 4.28389L33.3088 4.13829L32.4476 4.02217L31.5836 3.93642L30.7171 3.88104L29.8487 3.85514L28.9803 3.85871L28.112 3.89266L27.2463 3.95697L26.3824 4.05076L25.5229 4.17491L24.6679 4.32855L23.8182 4.51166L22.9756 4.72335L22.141 4.96452L21.3144 5.23427L20.4985 5.53261L19.6923 5.85864L18.8986 6.21235L18.1174 6.59376L17.3494 7.00196L16.5957 7.43606L15.858 7.89607L15.1354 8.38109L14.4306 8.89112L13.7436 9.42527L13.0752 9.98264L12.4264 10.5632L11.798 11.1662L11.19 11.7896L10.6043 12.4336L10.0408 13.0982L9.50042 13.7815L8.98314 14.4836L8.49074 15.2026L8.02323 15.9377L7.5815 16.6889L7.16553 17.4553L6.77624 18.236L6.41361 19.0292L6.07853 19.834L5.771 20.6504L6.30162 21.2729L6.83757 21.8598L7.37707 22.4118L7.92102 22.9317L8.46852 23.4203L9.01869 23.8803L9.57153 24.3126L10.1253 24.7199L10.6808 25.104L11.2371 25.4666L11.7926 25.8087L12.3481 26.133L12.9028 26.4411L13.4556 26.735L14.555 27.2879L15.6429 27.8033L16.7157 28.2847L18.8062 29.1556L20.8042 29.9149L22.6894 30.5758L24.4537 31.1538L26.1388 31.6665L27.8 32.1336L29.4932 32.574L31.261 33.0027L33.099 33.4118L34.9913 33.7905L36.9218 34.1264L38.8745 34.4104L40.8325 34.64L42.7799 34.8142L44.6988 34.9321L46.5733 34.9937L48.3856 35L50.1179 34.9526L50.9489 34.9089L51.7533 34.8526L52.5292 34.7838L53.2758 34.7025L53.9921 34.6096L54.6783 34.506L55.3325 34.3917L55.9546 34.2675L56.5439 34.1344L57.1003 33.9933L57.6229 33.8432L58.1118 33.686L58.3437 33.6039L58.5677 33.5208L58.7837 33.435L58.9917 33.3475L59.1908 33.2582L59.3827 33.1671L59.5667 33.0742L59.7427 32.9795L59.9107 32.883L60.0716 32.7848L60.2244 32.6847L60.3702 32.5829L60.5089 32.4802L60.6404 32.3757L60.7648 32.2694L60.8244 32.2158L60.8822 32.1613L60.9382 32.1068L60.9924 32.0523L61.0457 31.997L61.0972 31.9416L61.147 31.8862L61.1959 31.8308L61.243 31.7745L61.2883 31.7174L61.3319 31.6602L61.3746 31.603L61.4154 31.5459L61.4546 31.4878L61.4928 31.4298L61.5292 31.3717L61.5648 31.3136L61.5994 31.2547L61.6323 31.1957L61.6643 31.1368L61.7247 31.018L61.7799 30.8992L61.8314 30.7795L61.8785 30.6589L61.8998 30.5982L61.9203 30.5374L61.9398 30.4767L61.9585 30.4151L61.9754 30.3525L61.9914 30.29L62.0056 30.2266L62.0181 30.1632L62.0296 30.0989L62.0403 30.0337L62.0492 29.9676L62.0563 29.9015L62.0625 29.8336L62.0669 29.7657L62.0696 29.696L62.0705 29.6264L62.0696 29.5549L62.0678 29.4825L62.0643 29.4093L62.0589 29.3343L62.0518 29.2583L62.0429 29.1806L62.0323 29.102L62.0198 29.0216L62.0056 28.9395L61.9896 28.8564L61.9718 28.7715L61.9523 28.6858L61.9061 28.5089L61.8518 28.3249L61.7896 28.1347L61.7176 27.9391L61.6785 27.8399L61.6368 27.739L61.5923 27.6371L61.5452 27.5344L61.4954 27.4317L61.443 27.3272L61.387 27.2227L61.3283 27.1173L61.2661 27.0119L61.2012 26.9065L61.1328 26.8002L61.0617 26.6948L60.987 26.5894L60.9097 26.484L60.8279 26.3786L60.7435 26.2732L60.6555 26.1687L60.5631 26.0642L60.4671 25.9606L60.3675 25.8579L60.2644 25.756L60.1569 25.6551L60.0458 25.555L59.9302 25.4559L59.8103 25.3585L59.6867 25.2621L59.684 25.2558Z" fill="white"/>
<path d="M66.842 19.3893L73.9355 0.826694H76.5688L84.1285 19.3893H81.344L79.1895 13.7674H71.466L69.4375 19.3893H66.842ZM72.1716 11.7668H78.4336L76.5058 6.62594C75.9179 5.06428 75.4811 3.78119 75.1955 2.77666C74.9603 3.9669 74.6285 5.14869 74.2001 6.32205L72.1716 11.7668Z" fill="white"/>
<path d="M89.4455 19.3893L82.289 0.826694H84.9349L89.7353 14.3118C90.1217 15.3923 90.4451 16.4053 90.7055 17.3507C90.991 16.3378 91.3228 15.3248 91.7008 14.3118L96.6902 0.826694H99.1849L91.9528 19.3893H89.4455Z" fill="white"/>
<path d="M101.415 19.3893V0.826694H109.605C111.251 0.826694 112.503 0.995522 113.359 1.33318C114.216 1.66239 114.901 2.24907 115.413 3.09321C115.925 3.93735 116.182 4.87013 116.182 5.89154C116.182 7.2084 115.757 8.31844 114.909 9.22167C114.061 10.1249 112.75 10.6989 110.978 10.9437C111.625 11.256 112.116 11.5642 112.452 11.868C113.166 12.5265 113.842 13.3495 114.481 14.3372L117.694 19.3893H114.619L112.175 15.5274C111.461 14.4131 110.873 13.5605 110.411 12.9697C109.949 12.3788 109.533 11.9651 109.164 11.7288C108.803 11.4924 108.433 11.3278 108.055 11.2349C107.778 11.1759 107.324 11.1463 106.694 11.1463H103.859V19.3893H101.415ZM103.859 9.01908H109.113C110.23 9.01908 111.104 8.90512 111.734 8.6772C112.364 8.44084 112.843 8.06942 113.17 7.56293C113.498 7.04801 113.662 6.49088 113.662 5.89154C113.662 5.01363 113.343 4.29189 112.704 3.72632C112.074 3.16074 111.075 2.87796 109.705 2.87796H103.859V9.01908Z" fill="white"/>
<path d="M117.996 19.3893L125.089 0.826694H127.723L135.282 19.3893H132.498L130.343 13.7674H122.62L120.591 19.3893H117.996ZM123.326 11.7668H129.587L127.66 6.62594C127.072 5.06428 126.635 3.78119 126.349 2.77666C126.114 3.9669 125.782 5.14869 125.354 6.32205L123.326 11.7668Z" fill="white"/>
<path d="M136.404 13.4255L138.709 13.2229C138.819 14.1514 139.071 14.9154 139.465 15.5147C139.869 16.1056 140.49 16.5868 141.33 16.9582C142.17 17.3212 143.115 17.5027 144.165 17.5027C145.097 17.5027 145.921 17.3634 146.635 17.0848C147.349 16.8063 147.878 16.4264 148.222 15.9452C148.575 15.4556 148.751 14.9238 148.751 14.3498C148.751 13.7674 148.583 13.2609 148.247 12.8304C147.911 12.3914 147.357 12.0242 146.584 11.7288C146.089 11.5346 144.992 11.2349 143.296 10.8298C141.599 10.4161 140.41 10.0278 139.73 9.66484C138.848 9.20057 138.189 8.62655 137.752 7.9428C137.324 7.2506 137.109 6.47821 137.109 5.62563C137.109 4.68864 137.374 3.81495 137.903 3.00458C138.432 2.18576 139.205 1.56532 140.221 1.14325C141.238 0.721177 142.368 0.510142 143.611 0.510142C144.98 0.510142 146.185 0.733839 147.227 1.18123C148.277 1.62019 149.083 2.27017 149.646 3.1312C150.209 3.99222 150.511 4.9672 150.553 6.05614L148.21 6.23341C148.084 5.06006 147.655 4.17371 146.924 3.57437C146.202 2.97503 145.131 2.67536 143.711 2.67536C142.233 2.67536 141.154 2.94971 140.473 3.4984C139.801 4.03865 139.465 4.69286 139.465 5.46102C139.465 6.1279 139.705 6.67659 140.184 7.1071C140.654 7.53761 141.88 7.98078 143.863 8.43662C145.853 8.88401 147.218 9.27654 147.958 9.61419C149.033 10.1122 149.826 10.7453 150.339 11.5135C150.851 12.2732 151.107 13.1511 151.107 14.1472C151.107 15.1349 150.826 16.0676 150.263 16.9456C149.7 17.815 148.89 18.4946 147.832 18.9842C146.782 19.4653 145.597 19.7059 144.278 19.7059C142.607 19.7059 141.204 19.4611 140.07 18.9715C138.945 18.4819 138.059 17.7475 137.412 16.7683C136.773 15.7806 136.437 14.6664 136.404 13.4255Z" fill="white"/>
<path d="M159.65 19.3893V11.5262L152.531 0.826694H155.505L159.146 6.42334C159.818 7.47008 160.444 8.51681 161.023 9.56355C161.578 8.59278 162.25 7.49962 163.039 6.28406L166.617 0.826694H169.465L162.094 11.5262V19.3893H159.65Z" fill="white"/>
<path d="M167.714 19.3893L174.807 0.826694H177.44L185 19.3893H182.216L180.061 13.7674H172.338L170.309 19.3893H167.714ZM173.043 11.7668H179.305L177.377 6.62594C176.789 5.06428 176.353 3.78119 176.067 2.77666C175.832 3.9669 175.5 5.14869 175.072 6.32205L173.043 11.7668Z" fill="white"/>
<path d="M68.8903 52.1907V32.4356H76.2651C77.7669 32.4356 78.9693 32.6377 79.8721 33.042C80.7839 33.4373 81.4946 34.0526 82.0041 34.8881C82.5226 35.7146 82.7818 36.5815 82.7818 37.4889C82.7818 38.3334 82.5539 39.1284 82.098 39.8741C81.6421 40.6197 80.9538 41.2216 80.033 41.6798C81.2219 42.0301 82.1338 42.6275 82.7684 43.472C83.4121 44.3165 83.7339 45.3137 83.7339 46.4636C83.7339 47.3889 83.5372 48.2513 83.1439 49.0509C82.7595 49.8414 82.2812 50.4523 81.7091 50.8835C81.137 51.3148 80.4174 51.6427 79.5503 51.8673C78.6921 52.0829 77.6373 52.1907 76.3858 52.1907H68.8903ZM71.4916 40.7365H75.7422C76.8954 40.7365 77.7222 40.6601 78.2228 40.5074C78.8843 40.3098 79.3805 39.9819 79.7112 39.5237C80.0509 39.0655 80.2207 38.4906 80.2207 37.7988C80.2207 37.143 80.0643 36.5681 79.7514 36.074C79.4386 35.5709 78.9916 35.2295 78.4106 35.0498C77.8295 34.8612 76.8328 34.7668 75.4204 34.7668H71.4916V40.7365ZM71.4916 49.8594H76.3858C77.2261 49.8594 77.8161 49.828 78.1558 49.7651C78.7547 49.6573 79.2553 49.4776 79.6576 49.2261C80.0598 48.9745 80.3906 48.6107 80.6498 48.1345C80.9091 47.6494 81.0387 47.0924 81.0387 46.4636C81.0387 45.7269 80.851 45.0891 80.4755 44.5501C80.1001 44.0021 79.5771 43.6202 78.9067 43.4046C78.2452 43.18 77.2887 43.0677 76.0372 43.0677H71.4916V49.8594Z" fill="white"/>
<path d="M87.3677 52.1907V32.4356H101.581V34.7668H89.969V40.8173H100.844V43.1351H89.969V49.8594H102.037V52.1907H87.3677Z" fill="white"/>
<path d="M110.632 52.1907V34.7668H104.156V32.4356H119.737V34.7668H113.233V52.1907H110.632Z" fill="white"/>
<path d="M121.118 42.5692C121.118 39.2901 121.994 36.7253 123.746 34.8746C125.498 33.015 127.76 32.0852 130.531 32.0852C132.346 32.0852 133.981 32.5209 135.438 33.3923C136.896 34.2637 138.004 35.481 138.764 37.0442C139.533 38.5984 139.917 40.3637 139.917 42.3401C139.917 44.3434 139.515 46.1357 138.71 47.7168C137.906 49.2979 136.766 50.4972 135.291 51.3148C133.816 52.1233 132.225 52.5276 130.517 52.5276C128.667 52.5276 127.013 52.0784 125.556 51.18C124.099 50.2816 122.995 49.0554 122.244 47.5012C121.493 45.947 121.118 44.303 121.118 42.5692ZM123.8 42.6096C123.8 44.9903 124.434 46.8678 125.704 48.2423C126.982 49.6079 128.582 50.2906 130.504 50.2906C132.462 50.2906 134.071 49.5989 135.331 48.2154C136.601 46.8319 137.235 44.869 137.235 42.3266C137.235 40.7185 136.963 39.3171 136.417 38.1222C135.881 36.9184 135.09 35.9886 134.044 35.3328C133.007 34.668 131.84 34.3356 130.544 34.3356C128.703 34.3356 127.116 34.9735 125.784 36.2491C124.461 37.5158 123.8 39.636 123.8 42.6096Z" fill="white"/>
<path d="M143.256 52.1907V32.4356H145.924L156.249 47.9459V32.4356H158.743V52.1907H156.075L145.75 36.6669V52.1907H143.256Z" fill="white"/>
</g>
</svg>
