<svg width="240" height="43" viewBox="0 0 240 43" fill="none" xmlns="http://www.w3.org/2000/svg">
<g id="&#208;&#161;&#208;&#187;&#208;&#190;&#208;&#185;_x0020_1">
<g id="_2586354035808">
<path id="Vector" d="M107.903 9.68066H89.0029V13.788H96.2716V32.9589H100.629V13.788H107.903V9.68066Z" fill="#435C25"/>
<path id="1" d="M125.526 13.788V9.68066H110.471V32.9589H125.526V28.8516H114.828V23.358H123.604V19.2506H114.828V13.788H125.526Z" fill="#435C25"/>
<path id="2" d="M135.301 28.8206L146.994 13.819V9.68066H129.693V13.788H141.386L129.693 28.8206V32.9589H146.994V28.8206H135.301Z" fill="#435C25"/>
<path id="3" d="M174.93 9.68066H170.512L163.043 25.1323L155.58 9.68066H151.161V32.9589H155.58V19.0903L162.274 32.9589H163.812L170.512 19.0541V32.9589H174.93V9.68066Z" fill="#435C25"/>
<path id="4" d="M189.96 33.4452C193.163 33.4452 196.336 32.214 198.448 29.6276C200.34 27.2998 201.078 24.5529 201.14 21.3198C201.078 18.216 200.401 15.3709 198.448 12.9758C196.398 10.4566 193.292 9.19434 189.96 9.19434C186.628 9.19434 183.486 10.4255 181.471 12.9758C179.61 15.2416 178.78 18.216 178.78 21.3198C178.78 24.4235 179.61 27.3669 181.471 29.6276C183.455 32.1519 186.658 33.4452 189.96 33.4452ZM189.96 29.3068C187.971 29.3379 186.048 28.5309 184.931 26.979C183.742 25.4271 183.393 23.3579 183.357 21.3198C183.393 19.2817 183.742 17.1814 184.931 15.6606C186.048 14.1086 187.971 13.3017 189.96 13.3328C191.943 13.3017 193.835 14.1086 194.988 15.6606C196.142 17.1814 196.526 19.2817 196.526 21.3198C196.526 23.3579 196.142 25.4271 194.988 26.979C193.835 28.5309 191.943 29.3379 189.96 29.3068Z" fill="#435C25"/>
<path id="5" d="M208.988 32.9589H215.493L222.541 9.68066H218.056L212.192 28.8206L206.425 9.68066H201.94L208.988 32.9589Z" fill="#435C25"/>
<path id="6" d="M240 13.788V9.68066H224.945V32.9589H240V28.8516H229.302V23.358H238.078V19.2506H229.302V13.788H240Z" fill="#435C25"/>
<path id="Vector_2" d="M16.2268 24.4586C16.3361 24.4739 16.447 24.4739 16.5572 24.4814H22.7498C22.8597 24.4739 22.9707 24.4739 23.0801 24.4586C23.2993 24.4282 23.5133 24.3679 23.7162 24.2787C24.7707 23.8166 25.3474 22.6161 25.125 21.5352C24.9424 20.6487 24.2536 19.9161 23.4042 19.676C23.2979 19.6459 23.188 19.6306 23.0801 19.6079C22.97 19.6004 22.8597 19.5927 22.7498 19.5852H16.5572C16.2645 19.6053 16.1872 19.5955 15.9027 19.6759C15.6897 19.7361 15.4857 19.8255 15.2968 19.9415C14.4375 20.4688 13.9803 21.5514 14.182 22.5313C14.3881 23.5318 15.244 24.3222 16.2269 24.4586L16.2268 24.4586Z" fill="#435C25"/>
<path id="Vector_3" d="M2.09205 4.87354C2.20135 4.8887 2.31223 4.8887 2.42239 4.89624H8.61501C8.72497 4.8887 8.83598 4.8887 8.94529 4.87354C9.16443 4.8431 9.37852 4.78269 9.58133 4.69362C10.636 4.23141 11.2126 3.03086 10.9902 1.95015C10.8076 1.06344 10.1189 0.331057 9.26941 0.0909199C9.16318 0.0608118 9.05322 0.0455261 8.94529 0.0228292C8.83519 0.0151533 8.72497 0.00760974 8.61501 0H2.42239C2.12968 0.0202485 2.05244 0.0103228 1.76793 0.0908537C1.55489 0.15107 1.3509 0.240468 1.16198 0.356334C0.302739 0.883723 -0.154423 1.96629 0.0472739 2.94623C0.253299 3.94661 1.1092 4.73716 2.09211 4.87348L2.09205 4.87354Z" fill="#435C25"/>
<path id="Vector_4" d="M7.52725 19.676C7.42102 19.6459 7.31099 19.6306 7.20313 19.6079C7.09303 19.6004 6.98281 19.5927 6.87272 19.5852H3.52498C3.23233 19.6053 3.15496 19.5955 2.87045 19.6759C2.65734 19.7361 2.45348 19.8255 2.26444 19.9415C1.40532 20.4688 0.948029 21.5514 1.14986 22.5313C1.35595 23.5318 2.21185 24.3222 3.19463 24.4585C3.30407 24.4738 3.41495 24.4738 3.52504 24.4814H6.87278C6.98288 24.4738 7.09376 24.4738 7.20319 24.4585C7.42227 24.4282 7.63629 24.3678 7.83917 24.2786C8.89375 23.8166 9.47052 22.616 9.24797 21.5352C9.06542 20.6486 8.37666 19.9161 7.52731 19.6759L7.52725 19.676Z" fill="#435C25"/>
<path id="Vector_5" d="M19.6346 37.8342C19.5284 37.8042 19.4184 37.7888 19.3105 37.7662C19.2004 37.7586 19.0902 37.751 18.9802 37.7434H15.6324C15.3397 37.7637 15.2623 37.7537 14.978 37.8341C14.7647 37.8943 14.5609 37.9837 14.3719 38.0997C13.5127 38.6271 13.0555 39.7097 13.2572 40.6896C13.4633 41.69 14.3192 42.4806 15.3021 42.6169C15.4114 42.632 15.5223 42.632 15.6324 42.6396H18.9803C19.0903 42.632 19.2011 42.632 19.3106 42.6169C19.5296 42.5864 19.7438 42.526 19.9466 42.437C21.0011 41.9748 21.5779 40.7742 21.3553 39.6935C21.1728 38.8068 20.484 38.0743 19.6347 37.8341L19.6346 37.8342Z" fill="#435C25"/>
<path id="Vector_6" d="M78.4886 11.5669C78.4878 11.5469 78.4868 11.527 78.4854 11.507C78.4825 11.4464 78.4793 11.386 78.4701 11.3263C78.4138 10.9489 78.2435 10.5918 77.9864 10.3121C77.8535 10.1678 77.7862 10.1195 77.6666 10.0393C77.6386 10.0193 77.6099 10.0001 77.5809 9.98158C77.5696 9.97384 77.5578 9.96583 77.5455 9.95736L60.8856 0.250638C60.8007 0.209413 60.7185 0.161637 60.6309 0.126897C60.3958 0.0338593 60.3287 0.0378958 60.081 0.000244141C59.9962 0.000244141 59.9111 0.000839686 59.8266 0.00474381C59.805 0.00322187 59.7835 0.00176609 59.7619 0.000244141H18.9805C18.6878 0.0204927 18.6105 0.0105669 18.326 0.0910978C18.113 0.151314 17.9091 0.240712 17.7201 0.356579C16.8608 0.883967 16.4036 1.96654 16.6053 2.94647C16.8114 3.94685 17.6673 4.73741 18.6502 4.87372C18.7596 4.88887 18.8704 4.88887 18.9805 4.89642H30.2477C30.3593 4.90694 30.5404 4.92401 30.6521 4.93453C30.735 4.95008 30.8181 4.96444 30.8992 4.98734C31.7486 5.22748 32.4372 5.96 32.6199 6.84656C32.8425 7.92754 32.2657 9.12796 31.2111 9.59017C31.0082 9.67904 30.7942 9.73966 30.575 9.77009C30.4657 9.78525 30.3548 9.78525 30.2447 9.79292H2.42288C2.13017 9.81304 2.05293 9.80318 1.76842 9.88365C1.55538 9.94386 1.35138 10.0333 1.16247 10.1492C0.303228 10.6765 -0.153935 11.7591 0.0477622 12.739C0.253787 13.7395 1.10969 14.53 2.0926 14.6663C2.20191 14.6814 2.31279 14.6814 2.42295 14.6891H35.9184C36.03 14.6996 36.2111 14.7166 36.3227 14.7271C36.4056 14.7426 36.4888 14.757 36.5699 14.7799C37.4193 15.0202 38.108 15.7527 38.2906 16.6392C38.5133 17.7201 37.9364 18.9206 36.8819 19.3827C36.6789 19.4716 36.4649 19.5321 36.2457 19.5626C36.1364 19.5778 36.0256 19.5778 35.9155 19.5855H30.9391C30.6464 19.6056 30.5691 19.5957 30.2845 19.6762C30.0714 19.7364 29.8676 19.8258 29.6785 19.9417C28.8194 20.4691 28.3623 21.5516 28.564 22.5316C28.7701 23.5321 29.6259 24.3225 30.6088 24.4588C30.7181 24.4741 30.829 24.4741 30.9391 24.4816H43.2189C44.2976 24.4816 45.172 23.5992 45.172 22.5107V15.5596C45.172 15.2743 45.478 15.0961 45.7227 15.2388L54.318 20.2467C56.6262 21.5914 58.0481 24.0768 58.0481 26.7665V31.1474C58.0481 33.9371 55.0557 35.6805 52.6617 34.2857L45.6055 30.1655C45.3647 30.0249 45.1882 29.7903 45.1324 29.5155C44.9501 28.6192 44.1628 27.951 43.2189 27.951H12.5206C12.228 27.9712 12.1506 27.9613 11.8661 28.0417C11.6531 28.102 11.4492 28.1914 11.2602 28.3074C10.4011 28.8346 9.94377 29.9172 10.1456 30.8972C10.3516 31.8976 11.2075 32.6881 12.1903 32.8245C12.2997 32.8396 12.4106 32.8396 12.5207 32.8472H33.2303C33.3419 32.8577 33.5229 32.8747 33.6346 32.8852C33.7175 32.9008 33.8006 32.9151 33.8817 32.938C34.7311 33.1783 35.4198 33.9108 35.6024 34.7973C35.825 35.8782 35.2482 37.0787 34.1937 37.5408C33.9907 37.6298 33.7767 37.6904 33.5575 37.7207C33.4482 37.736 33.3373 37.736 33.2272 37.7436H27.1171C26.8244 37.7638 26.7471 37.7539 26.4626 37.8343C26.2496 37.8945 26.0456 37.9839 25.8567 38.0999C24.9974 38.6273 24.5402 39.7099 24.7419 40.6897C24.948 41.6902 25.804 42.4807 26.7868 42.6171C26.8961 42.6322 27.007 42.6322 27.1171 42.6397H59.8202C59.833 42.639 59.8459 42.6384 59.8587 42.6377C59.8876 42.6388 59.9167 42.6399 59.9457 42.6397C59.9909 42.64 60.0362 42.6382 60.0814 42.6349C60.1317 42.6311 60.1813 42.6252 60.2305 42.6172C60.3674 42.5957 60.502 42.5595 60.6314 42.5083C60.6782 42.4897 60.7233 42.4674 60.7682 42.4444C60.7743 42.4419 60.7806 42.4398 60.7867 42.4371C60.9327 42.3729 61.069 42.2941 61.1959 42.2039L77.546 32.6777C77.6238 32.6241 77.7059 32.5763 77.7796 32.517C78.0751 32.2792 78.2965 31.9516 78.4079 31.587C78.4823 31.3435 78.4732 31.2763 78.4919 31.0242V11.6109C78.4909 11.5962 78.4899 11.5817 78.4892 11.5669L78.4886 11.5669ZM60.5832 4.48384L72.3243 11.3247C72.5427 11.4518 72.5427 11.7699 72.3243 11.897L70.0205 13.2393C69.6262 13.4692 69.1403 13.4692 68.746 13.2393L57.0607 6.43107C56.8147 6.28774 56.8147 5.92936 57.0607 5.78603L59.2959 4.4839C59.6941 4.25184 60.185 4.25184 60.5832 4.4839V4.48384ZM59.3024 18.7416L47.6169 11.9333C47.3709 11.79 47.3709 11.4317 47.6169 11.2883L49.8522 9.98601C50.2506 9.75401 50.7413 9.75401 51.1395 9.98601L62.8806 16.8269C63.0989 16.9542 63.0989 17.2721 62.8806 17.3994L60.5767 18.7416C60.1824 18.9714 59.6966 18.9714 59.3024 18.7416V18.7416ZM74.7076 29.414C74.7076 29.7282 74.5414 30.0186 74.2719 30.1758L63.1388 36.6623C62.5578 37.0008 61.8316 36.5776 61.8316 35.9005V22.9277C61.8316 22.6134 61.9977 22.3231 62.2673 22.1659L65.2657 20.4188C65.2674 22.6689 65.2701 25.8747 65.2722 27.4814C65.2728 27.9278 65.7505 28.2062 66.1349 27.9852L70.8083 25.2989C71.097 25.133 71.2753 24.8236 71.2753 24.4882V16.9175L73.4003 15.6793C73.9813 15.3409 74.7075 15.764 74.7075 16.4411V29.414H74.7076Z" fill="#435C25"/>
</g>
</g>
</svg>
