<svg width="171" height="1940" viewBox="0 0 171 1940" fill="none" xmlns="http://www.w3.org/2000/svg">
<g opacity="0.04" clip-path="url(#clip0_55_1124)">
<path fill-rule="evenodd" clip-rule="evenodd" d="M0.666803 1851.07L11.0628 1833.06L20.6312 1816.49C22.6308 1813.01 22.6915 1812.69 27.4744 1812.69L46.3574 1812.69L65.8082 1812.69C70.7856 1812.69 70.244 1813.2 71.9838 1816.32L81.6514 1833.06L90.4113 1848.24C93.658 1853.86 93.4394 1853.27 91.0659 1857.51L81.6514 1873.82L72.2957 1890.02C69.5979 1894.69 68.9081 1894.07 64.6818 1894.19L46.3568 1894.19C40.0696 1894.19 33.7818 1894.19 27.494 1894.19C23.457 1893.86 22.8957 1893.53 20.7454 1890.58L11.0621 1873.82L0.834522 1856.1C-0.328415 1854.28 -0.173095 1852.52 0.666151 1851.07L0.666803 1851.07ZM42.2982 1866.93L42.2826 1866.96L48.2545 1856.61L84.9301 1856.61L76.661 1870.93L66.5594 1888.43L46.3561 1888.43L29.8838 1888.43L34.2693 1880.83L49.3888 1880.83C53.5419 1880.83 53.1954 1880.8 54.7284 1878.21L58.9938 1870.87C61.4247 1866.68 61.1278 1866.98 57.0758 1866.93L42.2976 1866.93L42.2982 1866.93ZM11.0588 1844.59L16.0525 1835.94L5.95092 1853.44L16.0525 1870.93L24.6819 1885.88L29.7898 1877.03L11.0595 1844.59L11.0588 1844.59ZM19.1035 1830.66L37.6184 1863.47L43.2491 1853.72L24.5187 1821.28L19.1041 1830.66L19.1035 1830.66ZM29.5568 1818.45L48.2545 1850.83L85.2584 1850.83L76.6616 1835.94L66.56 1818.45L46.3568 1818.45L29.5568 1818.45L29.5568 1818.45Z" fill="#314218"/>
<path fill-rule="evenodd" clip-rule="evenodd" d="M0.666804 1764.88L11.0628 1782.88L20.6312 1799.45C22.6308 1802.94 22.6915 1803.26 27.4744 1803.26L46.3574 1803.26L65.8089 1803.26C70.7856 1803.26 70.244 1802.75 71.9838 1799.63L81.6514 1782.88L90.4113 1767.71C93.658 1762.09 93.4394 1762.68 91.0659 1758.44L81.6514 1742.13L72.2957 1725.93C69.5979 1721.26 68.9081 1721.88 64.6818 1721.76L46.3568 1721.76C40.0696 1721.76 33.7818 1721.76 27.4946 1721.76C23.457 1722.09 22.8957 1722.42 20.7454 1725.36L11.0621 1742.13L0.834522 1759.85C-0.328415 1761.66 -0.173095 1763.43 0.666151 1764.88L0.666804 1764.88ZM42.2982 1749.02L42.2826 1748.99L48.2552 1759.33L84.9301 1759.33L76.6616 1745.01L66.5594 1727.52L46.3561 1727.52L29.8838 1727.52L34.2693 1735.12L49.3888 1735.12C53.5419 1735.12 53.1954 1735.14 54.7283 1737.73L58.9938 1745.08C61.4247 1749.27 61.1278 1748.97 57.0758 1749.02L42.2976 1749.02L42.2982 1749.02ZM11.0588 1771.35L16.0525 1780L5.95092 1762.51L16.0525 1745.02L24.6819 1730.07L29.7898 1738.92L11.0595 1771.36L11.0588 1771.35ZM19.1035 1785.29L37.6184 1752.47L43.2491 1762.23L24.5188 1794.66L19.1041 1785.29L19.1035 1785.29ZM29.5575 1797.5L48.2552 1765.11L85.2584 1765.11L76.6623 1780L66.56 1797.5L46.3568 1797.5L29.5575 1797.5L29.5575 1797.5Z" fill="#314218"/>
<path fill-rule="evenodd" clip-rule="evenodd" d="M0.666803 1669.96L11.0634 1651.95L20.6312 1635.38C22.6308 1631.9 22.6915 1631.58 27.475 1631.58L46.3574 1631.58L65.8089 1631.58C70.7856 1631.58 70.244 1632.09 71.9838 1635.21L81.6514 1651.95L90.4113 1667.12C93.658 1672.75 93.4394 1672.16 91.0659 1676.4L81.6514 1692.7L72.2964 1708.91C69.5979 1713.58 68.9081 1712.96 64.6818 1713.08L46.3568 1713.08C40.0696 1713.08 33.7818 1713.08 27.4946 1713.08C23.457 1712.74 22.8957 1712.42 20.7454 1709.47L11.0628 1692.7L0.834522 1674.99C-0.328415 1673.17 -0.173095 1671.41 0.666151 1669.96L0.666803 1669.96ZM42.2982 1685.82L42.2826 1685.84L48.2552 1675.5L84.9301 1675.5L76.6616 1689.82L66.5594 1707.32L46.3568 1707.32L29.8838 1707.32L34.2693 1699.72L49.3888 1699.72C53.5432 1699.72 53.1954 1699.69 54.7284 1697.1L58.9944 1689.75C61.4247 1685.57 61.1278 1685.87 57.0758 1685.82L42.2976 1685.82L42.2982 1685.82ZM11.0588 1663.48L16.0525 1654.83L5.95092 1672.33L16.0525 1689.82L24.6819 1704.76L29.7898 1695.92L11.0595 1663.48L11.0588 1663.48ZM19.1035 1649.55L37.6184 1682.36L43.2491 1672.61L24.5187 1640.17L19.1041 1649.55L19.1035 1649.55ZM29.5575 1637.34L48.2552 1669.72L85.2584 1669.72L76.6623 1654.83L66.56 1637.34L46.3574 1637.34L29.5575 1637.34L29.5575 1637.34Z" fill="#314218"/>
<path fill-rule="evenodd" clip-rule="evenodd" d="M0.667618 1583.77L11.0636 1601.77L20.632 1618.34C22.6309 1621.82 22.6916 1622.15 27.4752 1622.15L46.3582 1622.15L65.809 1622.15C70.7858 1622.15 70.2441 1621.64 71.984 1618.51L81.6523 1601.77L90.4115 1586.6C93.6582 1580.98 93.4396 1581.57 91.0661 1577.32L81.6523 1561.02L72.2966 1544.82C69.5987 1540.15 68.9083 1540.76 64.682 1540.65L46.3576 1540.65C40.0698 1540.65 33.7819 1540.65 27.4948 1540.65C23.4571 1540.98 22.8959 1541.31 20.7456 1544.25L11.0629 1561.02L0.834684 1578.73C-0.328253 1580.55 -0.172933 1582.31 0.666965 1583.77L0.667618 1583.77ZM42.2984 1567.91L42.2827 1567.88L48.2554 1578.22L84.9309 1578.22L76.6618 1563.9L66.5602 1546.41L46.3569 1546.41L29.884 1546.41L34.2694 1554L49.3896 1554C53.5427 1554 53.1955 1554.03 54.7285 1556.62L58.9946 1563.97C61.4249 1568.16 61.1286 1567.86 57.0766 1567.91L42.2978 1567.91L42.2984 1567.91ZM11.059 1590.24L16.0534 1598.89L5.95174 1581.4L16.0534 1563.9L24.6827 1548.96L29.79 1557.8L11.0597 1590.24L11.059 1590.24ZM19.1036 1604.17L37.6186 1571.36L43.2492 1581.11L24.5189 1613.55L19.1043 1604.17L19.1036 1604.17ZM29.5577 1616.39L48.2554 1584L85.2585 1584L76.6625 1598.89L66.5608 1616.38L46.3576 1616.38L29.5577 1616.38L29.5577 1616.39Z" fill="#314218"/>
<path fill-rule="evenodd" clip-rule="evenodd" d="M0.667618 1488.85L11.0636 1470.84L20.632 1454.27C22.6309 1450.79 22.6916 1450.47 27.4752 1450.47L46.3582 1450.47L65.809 1450.47C70.7858 1450.47 70.2441 1450.98 71.984 1454.1L81.6523 1470.84L90.4115 1486.01C93.6582 1491.63 93.4396 1491.05 91.0661 1495.29L81.6523 1511.59L72.2966 1527.79C69.5987 1532.47 68.9083 1531.85 64.682 1531.97L46.3576 1531.97C40.0698 1531.97 33.7819 1531.97 27.4948 1531.97C23.4571 1531.63 22.8959 1531.31 20.7462 1528.36L11.0629 1511.59L0.834684 1493.88C-0.328253 1492.06 -0.172934 1490.3 0.666965 1488.85L0.667618 1488.85ZM42.2984 1504.71L42.2827 1504.73L48.2554 1494.39L84.9309 1494.39L76.6618 1508.71L66.5602 1526.2L46.3569 1526.2L29.884 1526.2L34.2694 1518.61L49.3896 1518.61C53.5427 1518.61 53.1956 1518.58 54.7285 1515.99L58.9946 1508.64C61.4249 1504.46 61.1286 1504.76 57.0766 1504.71L42.2978 1504.71L42.2984 1504.71ZM11.059 1482.37L16.0534 1473.72L5.95174 1491.22L16.0534 1508.71L24.6827 1523.65L29.79 1514.81L11.0597 1482.37L11.059 1482.37ZM19.1036 1468.44L37.6186 1501.25L43.2492 1491.5L24.5189 1459.06L19.1043 1468.44L19.1036 1468.44ZM29.5577 1456.23L48.2554 1488.61L85.2585 1488.61L76.6625 1473.72L66.5608 1456.23L46.3576 1456.23L29.5577 1456.23L29.5577 1456.23Z" fill="#314218"/>
<path fill-rule="evenodd" clip-rule="evenodd" d="M0.667618 1402.65L11.0636 1420.66L20.632 1437.23C22.6309 1440.71 22.6916 1441.04 27.4752 1441.04L46.3582 1441.04L65.809 1441.04C70.7858 1441.04 70.2441 1440.53 71.984 1437.4L81.6523 1420.66L90.4115 1405.49C93.6582 1399.87 93.4396 1400.45 91.0661 1396.21L81.6523 1379.91L72.2966 1363.71C69.5987 1359.04 68.9083 1359.65 64.682 1359.53L46.3576 1359.53C40.0698 1359.53 33.7826 1359.53 27.4948 1359.53C23.4571 1359.87 22.8959 1360.2 20.7462 1363.14L11.0629 1379.91L0.834684 1397.62C-0.328253 1399.44 -0.172933 1401.2 0.666965 1402.65L0.667618 1402.65ZM42.2984 1386.79L42.2834 1386.77L48.2554 1397.11L84.9309 1397.11L76.6618 1382.79L66.5602 1365.3L46.3569 1365.3L29.884 1365.3L34.2694 1372.89L49.3896 1372.89C53.5427 1372.89 53.1955 1372.92 54.7285 1375.51L58.9946 1382.86C61.4249 1387.04 61.1286 1386.74 57.0766 1386.79L42.2978 1386.79L42.2984 1386.79ZM11.059 1409.13L16.0534 1417.78L5.95174 1400.29L16.0534 1382.79L24.6827 1367.85L29.79 1376.69L11.0597 1409.13L11.059 1409.13ZM19.1036 1423.06L37.6192 1390.25L43.2492 1400L24.5189 1432.44L19.1043 1423.06L19.1036 1423.06ZM29.5577 1435.27L48.2554 1402.89L85.2585 1402.89L76.6625 1417.78L66.5608 1435.27L46.3576 1435.27L29.5577 1435.27L29.5577 1435.27Z" fill="#314218"/>
<path fill-rule="evenodd" clip-rule="evenodd" d="M0.667616 1307.73L11.0636 1289.73L20.632 1273.16C22.6309 1269.68 22.6916 1269.35 27.4752 1269.35L46.3582 1269.35L65.809 1269.35C70.7858 1269.35 70.2441 1269.86 71.984 1272.99L81.6523 1289.73L90.4115 1304.9C93.6582 1310.52 93.4396 1309.94 91.066 1314.18L81.6523 1330.48L72.2966 1346.68C69.5987 1351.35 68.9082 1350.74 64.682 1350.86L46.3576 1350.86C40.0698 1350.86 33.7826 1350.86 27.4948 1350.86C23.4578 1350.52 22.8959 1350.2 20.7462 1347.25L11.0629 1330.48L0.834683 1312.77C-0.328254 1310.95 -0.172282 1309.19 0.666964 1307.74L0.667616 1307.73ZM42.2984 1323.59L42.2834 1323.62L48.2554 1313.28L84.9309 1313.28L76.6618 1327.6L66.5602 1345.09L46.3569 1345.09L29.884 1345.09L34.2701 1337.5L49.3896 1337.5C53.5427 1337.5 53.1955 1337.47 54.7285 1334.88L58.9946 1327.53C61.4249 1323.35 61.1286 1323.65 57.0766 1323.59L42.2978 1323.59L42.2984 1323.59ZM11.059 1301.26L16.0534 1292.61L5.95173 1310.1L16.0534 1327.6L24.6827 1342.54L29.79 1333.7L11.0596 1301.26L11.059 1301.26ZM19.1036 1287.33L37.6192 1320.14L43.2492 1310.39L24.5189 1277.95L19.1043 1287.33L19.1036 1287.33ZM29.5577 1275.12L48.2554 1307.5L85.2585 1307.5L76.6625 1292.61L66.5608 1275.12L46.3576 1275.12L29.5577 1275.12L29.5577 1275.12Z" fill="#314218"/>
<path fill-rule="evenodd" clip-rule="evenodd" d="M0.666884 1222.2L11.0628 1240.21L20.6313 1256.78C22.6309 1260.26 22.6916 1260.58 27.4745 1260.58L46.3575 1260.58L65.8083 1260.58C70.7857 1260.58 70.244 1260.07 71.9839 1256.95L81.6515 1240.21L90.4114 1225.04C93.6575 1219.41 93.4395 1220 91.066 1215.76L81.6515 1199.46L72.2958 1183.25C69.598 1178.58 68.9075 1179.2 64.6819 1179.08L46.3569 1179.08C40.069 1179.08 33.7819 1179.08 27.494 1179.08C23.457 1179.42 22.8958 1179.74 20.7455 1182.69L11.0622 1199.46L0.83395 1217.17C-0.328334 1218.99 -0.173014 1220.75 0.666232 1222.2L0.666884 1222.2ZM42.2983 1206.34L42.2827 1206.31L48.2546 1216.66L84.9302 1216.66L76.6611 1202.34L66.5595 1184.84L46.3562 1184.84L29.8839 1184.84L34.2694 1192.44L49.3888 1192.44C53.542 1192.44 53.1955 1192.47 54.7284 1195.06L58.9938 1202.4C61.4248 1206.59 61.1279 1206.29 57.0758 1206.34L42.2977 1206.34L42.2983 1206.34ZM11.0589 1228.68L16.0526 1237.33L5.951 1219.83L16.0526 1202.34L24.682 1187.39L29.7892 1196.24L11.0596 1228.68L11.0589 1228.68ZM19.1029 1242.61L37.6185 1209.8L43.2485 1219.55L24.5188 1251.99L19.1035 1242.61L19.1029 1242.61ZM29.5569 1254.82L48.2546 1222.44L85.2578 1222.44L76.6617 1237.33L66.5601 1254.82L46.3569 1254.82L29.5569 1254.82L29.5569 1254.82Z" fill="#314218"/>
<path fill-rule="evenodd" clip-rule="evenodd" d="M0.666803 1127.28L11.0628 1109.28L20.6312 1092.7C22.6308 1089.22 22.6915 1088.9 27.4744 1088.9L46.3574 1088.9L65.8082 1088.9C70.7856 1088.9 70.244 1089.41 71.9838 1092.53L81.6514 1109.28L90.4113 1124.45C93.658 1130.07 93.4394 1129.48 91.0659 1133.72L81.6514 1150.03L72.2957 1166.23C69.5979 1170.9 68.9081 1170.28 64.6818 1170.4L46.3568 1170.4C40.0696 1170.4 33.7818 1170.4 27.494 1170.4C23.457 1170.07 22.8957 1169.74 20.7454 1166.8L11.0621 1150.03L0.834522 1132.31C-0.328415 1130.49 -0.173095 1128.73 0.666151 1127.28L0.666803 1127.28ZM42.2982 1143.14L42.2826 1143.17L48.2545 1132.82L84.9301 1132.82L76.661 1147.15L66.5594 1164.64L46.3561 1164.64L29.8838 1164.64L34.2693 1157.04L49.3888 1157.04C53.5419 1157.04 53.1954 1157.01 54.7284 1154.42L58.9938 1147.08C61.4247 1142.89 61.1278 1143.19 57.0758 1143.14L42.2976 1143.14L42.2982 1143.14ZM11.0588 1120.81L16.0525 1112.16L5.95092 1129.65L16.0525 1147.14L24.6819 1162.09L29.7898 1153.24L11.0595 1120.8L11.0588 1120.81ZM19.1035 1106.87L37.6184 1139.68L43.2491 1129.93L24.5187 1097.49L19.1041 1106.87L19.1035 1106.87ZM29.5568 1094.66L48.2545 1127.04L85.2584 1127.04L76.6616 1112.16L66.56 1094.66L46.3568 1094.66L29.5568 1094.66L29.5568 1094.66Z" fill="#314218"/>
<path fill-rule="evenodd" clip-rule="evenodd" d="M0.666804 1041.09L11.0628 1059.09L20.6312 1075.67C22.6308 1079.15 22.6915 1079.47 27.4744 1079.47L46.3574 1079.47L65.8089 1079.47C70.7856 1079.47 70.244 1078.96 71.9838 1075.84L81.6514 1059.09L90.4113 1043.92C93.658 1038.3 93.4394 1038.89 91.0659 1034.65L81.6514 1018.34L72.2957 1002.14C69.5979 997.469 68.9081 998.087 64.6818 997.97L46.3568 997.97C40.0696 997.97 33.7818 997.97 27.4946 997.97C23.457 998.305 22.8957 998.629 20.7454 1001.57L11.0621 1018.34L0.834522 1036.06C-0.328415 1037.88 -0.173095 1039.64 0.666151 1041.09L0.666804 1041.09ZM42.2982 1025.23L42.2826 1025.2L48.2552 1035.55L84.9301 1035.55L76.6616 1021.23L66.5594 1003.73L46.3561 1003.73L29.8838 1003.73L34.2693 1011.33L49.3888 1011.33C53.5419 1011.33 53.1954 1011.36 54.7283 1013.95L58.9938 1021.29C61.4247 1025.48 61.1278 1025.18 57.0758 1025.23L42.2976 1025.23L42.2982 1025.23ZM11.0588 1047.56L16.0525 1056.21L5.95092 1038.72L16.0525 1021.23L24.6819 1006.28L29.7898 1015.13L11.0595 1047.57L11.0588 1047.56ZM19.1035 1061.5L37.6184 1028.68L43.2491 1038.44L24.5188 1070.88L19.1041 1061.5L19.1035 1061.5ZM29.5575 1073.71L48.2552 1041.33L85.2584 1041.33L76.6623 1056.21L66.56 1073.71L46.3568 1073.71L29.5575 1073.71L29.5575 1073.71Z" fill="#314218"/>
<path fill-rule="evenodd" clip-rule="evenodd" d="M0.666803 946.169L11.0634 928.164L20.6312 911.594C22.6308 908.112 22.6915 907.79 27.475 907.79L46.3574 907.79L65.8089 907.79C70.7856 907.79 70.244 908.299 71.9838 911.421L81.6514 928.164L90.4113 943.335C93.658 948.957 93.4394 948.37 91.0659 952.611L81.6514 968.914L72.2964 985.117C69.5979 989.789 68.9081 989.172 64.6818 989.29L46.3568 989.29C40.0696 989.29 33.7818 989.29 27.4946 989.29C23.457 988.954 22.8957 988.63 20.7454 985.685L11.0628 968.915L0.834522 951.201C-0.328415 949.384 -0.173095 947.622 0.666151 946.169L0.666803 946.169ZM42.2982 962.03L42.2826 962.056L48.2552 951.713L84.9301 951.713L76.6616 966.034L66.5594 983.528L46.3568 983.528L29.8838 983.528L34.2693 975.933L49.3888 975.933C53.5432 975.933 53.1954 975.902 54.7284 973.314L58.9944 965.966C61.4247 961.78 61.1278 962.08 57.0758 962.03L42.2976 962.03L42.2982 962.03ZM11.0588 939.693L16.0525 931.045L5.95092 948.539L16.0525 966.033L24.6819 980.977L29.7898 972.131L11.0595 939.692L11.0588 939.693ZM19.1035 925.762L37.6184 958.574L43.2491 948.822L24.5187 916.383L19.1041 925.762L19.1035 925.762ZM29.5575 913.551L48.2552 945.932L85.2584 945.932L76.6623 931.045L66.56 913.551L46.3574 913.551L29.5575 913.551L29.5575 913.551Z" fill="#314218"/>
<path fill-rule="evenodd" clip-rule="evenodd" d="M0.667374 859.979L11.0633 877.983L20.6318 894.554C22.6307 898.035 22.6914 898.358 27.475 898.358L46.358 898.358L65.8088 898.358C70.7855 898.358 70.2439 897.849 71.9837 894.727L81.652 877.983L90.4113 862.812C93.6579 857.191 93.4393 857.778 91.0658 853.537L81.652 837.233L72.2963 821.031C69.5985 816.358 68.908 816.976 64.6818 816.858L46.3573 816.858C40.0695 816.858 33.7817 816.858 27.4945 816.858C23.4569 817.194 22.8956 817.518 20.7453 820.463L11.0627 837.233L0.83444 854.947C-0.328497 856.764 -0.173178 858.525 0.666721 859.978L0.667374 859.979ZM42.2982 844.117L42.2825 844.091L48.2551 854.434L84.9307 854.434L76.6616 840.114L66.5599 822.62L46.3567 822.62L29.8837 822.62L34.2692 830.215L49.3893 830.215C53.5425 830.215 53.1953 830.245 54.7283 832.834L58.9943 840.181C61.4246 844.368 61.1283 844.068 57.0763 844.117L42.2975 844.117L42.2982 844.117ZM11.0588 866.454L16.0531 875.103L5.95149 857.609L16.0531 840.115L24.6825 825.171L29.7897 834.016L11.0594 866.455L11.0588 866.454ZM19.1034 880.385L37.6184 847.574L43.249 857.325L24.5187 889.764L19.104 880.385L19.1034 880.385ZM29.5574 892.598L48.2551 860.215L85.2583 860.215L76.6622 875.102L66.5606 892.597L46.3573 892.597L29.5574 892.597L29.5574 892.598Z" fill="#314218"/>
<path fill-rule="evenodd" clip-rule="evenodd" d="M0.667374 765.057L11.0633 747.053L20.6318 730.482C22.6307 727.001 22.6914 726.678 27.475 726.678L46.358 726.678L65.8088 726.678C70.7855 726.678 70.2439 727.187 71.9837 730.309L81.652 747.053L90.4113 762.222C93.6579 767.845 93.4393 767.259 91.0658 771.499L81.652 787.803L72.2963 804.005C69.5985 808.678 68.908 808.059 64.6818 808.177L46.3573 808.177C40.0695 808.177 33.7817 808.177 27.4945 808.177C23.4569 807.842 22.8957 807.518 20.746 804.573L11.0627 787.803L0.83444 770.088C-0.328497 768.27 -0.173178 766.511 0.666721 765.058L0.667374 765.057ZM42.2982 780.919L42.2825 780.944L48.2551 770.601L84.9307 770.601L76.6616 784.921L66.5599 802.416L46.3567 802.416L29.8837 802.416L34.2692 794.82L49.3893 794.82C53.5425 794.82 53.1953 794.791 54.7283 792.201L58.9943 784.854C61.4246 780.669 61.1283 780.967 57.0763 780.919L42.2975 780.919L42.2982 780.919ZM11.0588 758.582L16.0531 749.933L5.95149 767.427L16.0531 784.921L24.6825 799.865L29.7897 791.019L11.0594 758.581L11.0588 758.582ZM19.1034 744.65L37.6184 777.461L43.249 767.71L24.5187 735.272L19.104 744.65L19.1034 744.65ZM29.5574 732.438L48.2551 764.821L85.2583 764.821L76.6622 749.933L66.5606 732.439L46.3573 732.439L29.5574 732.439L29.5574 732.438Z" fill="#314218"/>
<path fill-rule="evenodd" clip-rule="evenodd" d="M0.667374 678.867L11.0633 696.871L20.6318 713.442C22.6307 716.923 22.6914 717.246 27.475 717.246L46.358 717.246L65.8088 717.246C70.7855 717.246 70.2439 716.737 71.9837 713.614L81.652 696.871L90.4113 681.7C93.6579 676.078 93.4393 676.666 91.0658 672.424L81.652 656.12L72.2963 639.919C69.5985 635.246 68.908 635.863 64.6818 635.745L46.3573 635.745C40.0695 635.745 33.7824 635.745 27.4945 635.745C23.4569 636.081 22.8956 636.405 20.746 639.351L11.0627 656.12L0.83444 673.834C-0.328497 675.652 -0.173178 677.413 0.666721 678.866L0.667374 678.867ZM42.2982 663.006L42.2831 662.979L48.2551 673.322L84.9307 673.322L76.6616 659.001L66.5599 641.509L46.3567 641.509L29.8837 641.509L34.2692 649.103L49.3893 649.103C53.5425 649.103 53.1953 649.133 54.7283 651.722L58.9943 659.069C61.4246 663.255 61.1283 662.956 57.0763 663.006L42.2975 663.006L42.2982 663.006ZM11.0588 685.342L16.0531 693.992L5.95149 676.497L16.0531 659.002L24.6825 644.059L29.7897 652.904L11.0594 685.343L11.0588 685.342ZM19.1034 699.274L37.619 666.463L43.249 676.213L24.5187 708.652L19.104 699.274L19.1034 699.274ZM29.5574 711.485L48.2551 679.103L85.2583 679.103L76.6622 693.991L66.5606 711.484L46.3573 711.484L29.5574 711.484L29.5574 711.485Z" fill="#314218"/>
<path fill-rule="evenodd" clip-rule="evenodd" d="M0.667372 583.946L11.0633 565.941L20.6318 549.37C22.6307 545.889 22.6914 545.566 27.475 545.566L46.358 545.566L65.8088 545.566C70.7855 545.566 70.2439 546.075 71.9837 549.198L81.652 565.941L90.4112 581.111C93.6579 586.734 93.4393 586.146 91.0658 590.388L81.652 606.692L72.2963 622.893C69.5984 627.566 68.908 626.949 64.6818 627.067L46.3573 627.067C40.0695 627.067 33.7824 627.067 27.4945 627.067C23.4575 626.731 22.8956 626.407 20.746 623.462L11.0627 606.692L0.834439 588.978C-0.328498 587.159 -0.172526 585.399 0.66672 583.946L0.667372 583.946ZM42.2982 599.806L42.2831 599.833L48.2551 589.489L84.9307 589.489L76.6616 603.811L66.5599 621.304L46.3567 621.304L29.8837 621.304L34.2699 613.709L49.3893 613.709C53.5425 613.709 53.1953 613.679 54.7283 611.089L58.9943 603.743C61.4246 599.557 61.1283 599.856 57.0763 599.806L42.2975 599.806L42.2982 599.806ZM11.0588 577.47L16.0531 568.821L5.95149 586.316L16.0531 603.81L24.6825 618.754L29.7897 609.908L11.0594 577.469L11.0588 577.47ZM19.1034 563.538L37.619 596.35L43.249 586.599L24.5187 554.16L19.104 563.538L19.1034 563.538ZM29.5574 551.327L48.2551 583.709L85.2583 583.709L76.6622 568.821L66.5606 551.328L46.3573 551.328L29.5574 551.328L29.5574 551.327Z" fill="#314218"/>
<path fill-rule="evenodd" clip-rule="evenodd" d="M0.666804 498.747L11.0628 516.751L20.6312 533.322C22.6308 536.804 22.6915 537.127 27.4744 537.127L46.3574 537.127L65.8089 537.127C70.7856 537.127 70.244 536.617 71.9838 533.495L81.6514 516.751L90.4113 501.581C93.658 495.959 93.4394 496.546 91.0659 492.306L81.6514 476.001L72.2957 459.799C69.5979 455.126 68.9081 455.745 64.6818 455.627L46.3568 455.627C40.0696 455.627 33.7818 455.627 27.4946 455.627C23.457 455.962 22.8957 456.287 20.7454 459.231L11.0621 476.001L0.834522 493.716C-0.328415 495.534 -0.173095 497.294 0.666151 498.746L0.666804 498.747ZM42.2982 482.886L42.2826 482.86L48.2552 493.203L84.9301 493.203L76.6616 478.883L66.5594 461.388L46.3561 461.388L29.8838 461.388L34.2693 468.984L49.3888 468.984C53.5419 468.984 53.1954 469.013 54.7283 471.603L58.9938 478.95C61.4247 483.136 61.1278 482.837 57.0758 482.886L42.2976 482.886L42.2982 482.886ZM11.0588 505.222L16.0525 513.872L5.95092 496.377L16.0525 478.884L24.6819 463.939L29.7898 472.785L11.0595 505.224L11.0588 505.222ZM19.1035 519.154L37.6184 486.343L43.2491 496.094L24.5188 528.532L19.1041 519.154L19.1035 519.154ZM29.5575 531.366L48.2552 498.983L85.2584 498.983L76.6623 513.871L66.56 531.365L46.3568 531.365L29.5575 531.365L29.5575 531.366Z" fill="#314218"/>
<path fill-rule="evenodd" clip-rule="evenodd" d="M0.666803 403.826L11.0634 385.822L20.6312 369.251C22.6308 365.77 22.6915 365.447 27.475 365.447L46.3574 365.447L65.8089 365.447C70.7856 365.447 70.244 365.956 71.9838 369.078L81.6514 385.822L90.4113 400.992C93.658 406.614 93.4394 406.027 91.0659 410.268L81.6514 426.572L72.2964 442.774C69.5979 447.447 68.9081 446.829 64.6818 446.947L46.3568 446.947C40.0696 446.947 33.7818 446.947 27.4946 446.947C23.457 446.611 22.8957 446.287 20.7454 443.342L11.0628 426.572L0.834522 408.858C-0.328415 407.041 -0.173095 405.279 0.666151 403.826L0.666803 403.826ZM42.2982 419.687L42.2826 419.713L48.2552 409.371L84.9301 409.371L76.6616 423.691L66.5594 441.185L46.3568 441.185L29.8838 441.185L34.2693 433.589L49.3888 433.589C53.5432 433.589 53.1954 433.56 54.7284 430.97L58.9944 423.623C61.4247 419.437 61.1278 419.736 57.0758 419.687L42.2976 419.687L42.2982 419.687ZM11.0588 397.351L16.0525 388.702L5.95092 406.196L16.0525 423.69L24.6819 438.634L29.7898 429.788L11.0595 397.349L11.0588 397.351ZM19.1035 383.42L37.6184 416.231L43.2491 406.479L24.5187 374.04L19.1041 383.42L19.1035 383.42ZM29.5575 371.207L48.2552 403.59L85.2584 403.59L76.6623 388.703L66.56 371.207L46.3574 371.207L29.5575 371.207L29.5575 371.207Z" fill="#314218"/>
<path fill-rule="evenodd" clip-rule="evenodd" d="M0.667374 317.636L11.0633 335.641L20.6318 352.211C22.6307 355.692 22.6914 356.015 27.475 356.015L46.358 356.015L65.8088 356.015C70.7855 356.015 70.2439 355.506 71.9837 352.383L81.652 335.641L90.4113 320.469C93.6579 314.847 93.4393 315.435 91.0658 311.194L81.652 294.89L72.2963 278.688C69.5985 274.016 68.908 274.633 64.6818 274.514L46.3573 274.514C40.0695 274.514 33.7817 274.514 27.4945 274.514C23.4569 274.85 22.8956 275.175 20.7453 278.12L11.0627 294.89L0.83444 312.603C-0.328497 314.421 -0.173178 316.182 0.666721 317.635L0.667374 317.636ZM42.2982 301.775L42.2825 301.748L48.2551 312.092L84.9307 312.092L76.6616 297.771L66.5599 280.277L46.3567 280.277L29.8837 280.277L34.2692 287.872L49.3893 287.872C53.5425 287.872 53.1953 287.902 54.7283 290.491L58.9943 297.838C61.4246 302.025 61.1283 301.725 57.0763 301.775L42.2975 301.775L42.2982 301.775ZM11.0588 324.111L16.0531 332.76L5.95149 315.266L16.0531 297.772L24.6825 282.827L29.7897 291.673L11.0594 324.113L11.0588 324.111ZM19.1034 338.043L37.6184 305.231L43.249 314.982L24.5187 347.422L19.104 338.043L19.1034 338.043ZM29.5574 350.254L48.2551 317.872L85.2583 317.872L76.6622 332.759L66.5606 350.254L46.3573 350.254L29.5574 350.254L29.5574 350.254Z" fill="#314218"/>
<path fill-rule="evenodd" clip-rule="evenodd" d="M0.667374 222.714L11.0633 204.71L20.6318 188.138C22.6307 184.658 22.6914 184.334 27.475 184.334L46.358 184.334L65.8088 184.334C70.7855 184.334 70.2439 184.843 71.9837 187.966L81.652 204.71L90.4113 219.879C93.6579 225.503 93.4393 224.915 91.0658 229.156L81.652 245.46L72.2963 261.661C69.5985 266.335 68.908 265.717 64.6818 265.834L46.3573 265.834C40.0695 265.834 33.7817 265.834 27.4945 265.834C23.4569 265.499 22.8957 265.174 20.746 262.23L11.0627 245.46L0.83444 227.747C-0.328497 225.928 -0.173178 224.168 0.666721 222.715L0.667374 222.714ZM42.2982 238.575L42.2825 238.602L48.2551 228.258L84.9307 228.258L76.6616 242.578L66.5599 260.072L46.3567 260.072L29.8837 260.072L34.2692 252.477L49.3893 252.477C53.5425 252.477 53.1953 252.448 54.7283 249.858L58.9943 242.512C61.4246 238.325 61.1283 238.624 57.0763 238.575L42.2975 238.575L42.2982 238.575ZM11.0588 216.239L16.0531 207.589L5.95149 225.084L16.0531 242.577L24.6825 257.522L29.7897 248.676L11.0594 216.238L11.0588 216.239ZM19.1034 202.307L37.6184 235.118L43.249 225.368L24.5187 192.929L19.104 202.307L19.1034 202.307ZM29.5574 190.095L48.2551 222.478L85.2583 222.478L76.6622 207.59L66.5606 190.096L46.3573 190.096L29.5574 190.096L29.5574 190.095Z" fill="#314218"/>
<path fill-rule="evenodd" clip-rule="evenodd" d="M0.667374 136.524L11.0633 154.529L20.6318 171.1C22.6307 174.581 22.6914 174.904 27.475 174.904L46.358 174.904L65.8088 174.904C70.7855 174.904 70.2439 174.395 71.9837 171.272L81.652 154.529L90.4113 139.359C93.6579 133.735 93.4393 134.323 91.0658 130.082L81.652 113.778L72.2963 97.5766C69.5985 92.9039 68.908 93.5211 64.6818 93.403L46.3573 93.403C40.0695 93.403 33.7824 93.403 27.4945 93.403C23.4569 93.7384 22.8956 94.064 20.746 97.0082L11.0627 113.778L0.83444 131.492C-0.328497 133.311 -0.173178 135.07 0.666721 136.524L0.667374 136.524ZM42.2982 120.664L42.2831 120.636L48.2551 130.98L84.9307 130.98L76.6616 116.659L66.5599 99.1662L46.3567 99.1662L29.8837 99.1662L34.2692 106.76L49.3893 106.76C53.5425 106.76 53.1953 106.79 54.7283 109.38L58.9943 116.726C61.4246 120.913 61.1283 120.613 57.0763 120.664L42.2975 120.664L42.2982 120.664ZM11.0588 142.999L16.0531 151.649L5.95149 134.154L16.0531 116.66L24.6825 101.716L29.7897 110.561L11.0594 143.001L11.0588 142.999ZM19.1034 156.931L37.619 124.12L43.249 133.87L24.5187 166.31L19.104 156.931L19.1034 156.931ZM29.5574 169.143L48.2551 136.761L85.2583 136.761L76.6622 151.649L66.5606 169.142L46.3573 169.142L29.5574 169.142L29.5574 169.143Z" fill="#314218"/>
<path fill-rule="evenodd" clip-rule="evenodd" d="M170.332 1901.23L159.936 1919.24L150.368 1935.81C148.369 1939.29 148.308 1939.61 143.525 1939.61L124.642 1939.61L105.191 1939.61C100.214 1939.61 100.755 1939.1 99.0159 1935.98L89.3476 1919.24L80.5877 1904.07C77.3417 1898.44 77.5603 1899.03 79.9331 1894.79L89.3476 1878.49L98.7033 1862.28C101.401 1857.61 102.092 1858.23 106.317 1858.11L124.642 1858.11C130.93 1858.11 137.217 1858.11 143.505 1858.11C147.542 1858.45 148.104 1858.77 150.254 1861.72L159.937 1878.49L170.165 1896.2C171.328 1898.02 171.172 1899.78 170.333 1901.23L170.332 1901.23ZM128.701 1885.37L128.716 1885.34L122.744 1895.69L86.0689 1895.69L94.338 1881.37L104.44 1863.87L124.643 1863.87L141.116 1863.87L136.73 1871.47L121.61 1871.47C117.457 1871.47 117.804 1871.5 116.271 1874.09L112.005 1881.43C109.575 1885.62 109.871 1885.32 113.923 1885.37L128.702 1885.37L128.701 1885.37ZM159.941 1907.71L154.946 1916.36L165.048 1898.86L154.946 1881.37L146.317 1866.42L141.21 1875.27L159.94 1907.71L159.941 1907.71ZM151.896 1921.64L133.381 1888.83L127.751 1898.58L146.481 1931.02L151.896 1921.64L151.896 1921.64ZM141.442 1933.85L122.744 1901.47L85.7413 1901.47L94.3374 1916.36L104.439 1933.85L124.642 1933.85L141.442 1933.85L141.442 1933.85Z" fill="#314218"/>
<path fill-rule="evenodd" clip-rule="evenodd" d="M170.332 1806.31L159.936 1788.31L150.368 1771.74C148.369 1768.26 148.308 1767.93 143.525 1767.93L124.642 1767.93L105.191 1767.93C100.214 1767.93 100.755 1768.44 99.016 1771.56L89.3477 1788.31L80.5885 1803.48C77.3418 1809.1 77.5604 1808.51 79.9333 1812.75L89.3477 1829.06L98.7034 1845.26C101.401 1849.93 102.092 1849.31 106.317 1849.43L124.642 1849.43C130.93 1849.43 137.217 1849.43 143.505 1849.43C147.542 1849.1 148.104 1848.77 150.254 1845.83L159.937 1829.06L170.165 1811.34C171.328 1809.53 171.172 1807.77 170.333 1806.31L170.332 1806.31ZM128.702 1822.17L128.717 1822.2L122.745 1811.85L86.0691 1811.85L94.3382 1826.18L104.44 1843.67L124.643 1843.67L141.116 1843.67L136.73 1836.07L121.61 1836.07C117.457 1836.07 117.804 1836.05 116.271 1833.46L112.005 1826.11C109.575 1821.92 109.871 1822.22 113.923 1822.17L128.702 1822.17L128.702 1822.17ZM159.941 1799.84L154.947 1791.19L165.048 1808.68L154.947 1826.17L146.317 1841.12L141.21 1832.27L159.94 1799.84L159.941 1799.84ZM151.896 1785.9L133.381 1818.72L127.751 1808.97L146.481 1776.53L151.896 1785.9L151.896 1785.9ZM141.442 1773.69L122.745 1806.08L85.7415 1806.08L94.3375 1791.19L104.439 1773.69L124.642 1773.69L141.442 1773.69L141.442 1773.69Z" fill="#314218"/>
<path fill-rule="evenodd" clip-rule="evenodd" d="M170.332 1720.12L159.936 1738.13L150.368 1754.7C148.369 1758.18 148.308 1758.5 143.525 1758.5L124.642 1758.5L105.191 1758.5C100.214 1758.5 100.756 1757.99 99.016 1754.87L89.3477 1738.13L80.5884 1722.96C77.3417 1717.33 77.5604 1717.92 79.9339 1713.68L89.3476 1697.37L98.7034 1681.17C101.401 1676.5 102.092 1677.12 106.318 1677L124.642 1677C130.93 1677 137.217 1677 143.505 1677C147.543 1677.33 148.104 1677.66 150.254 1680.6L159.937 1697.37L170.165 1715.09C171.328 1716.91 171.173 1718.67 170.333 1720.12L170.332 1720.12ZM128.702 1704.26L128.717 1704.23L122.745 1714.58L86.069 1714.58L94.3381 1700.26L104.44 1682.76L124.643 1682.76L141.116 1682.76L136.73 1690.36L121.61 1690.36C117.457 1690.36 117.804 1690.39 116.271 1692.98L112.005 1700.32C109.575 1704.51 109.871 1704.21 113.923 1704.26L128.702 1704.26L128.702 1704.26ZM159.941 1726.6L154.947 1735.25L165.048 1717.75L154.947 1700.26L146.317 1685.31L141.21 1694.16L159.94 1726.6L159.941 1726.6ZM151.896 1740.53L133.381 1707.72L127.751 1717.47L146.481 1749.91L151.896 1740.53L151.896 1740.53ZM141.442 1752.74L122.745 1720.36L85.7414 1720.36L94.3375 1735.25L104.439 1752.74L124.642 1752.74L141.442 1752.74L141.442 1752.74Z" fill="#314218"/>
<path fill-rule="evenodd" clip-rule="evenodd" d="M170.332 1625.2L159.936 1607.19L150.368 1590.62C148.369 1587.14 148.308 1586.82 143.525 1586.82L124.642 1586.82L105.191 1586.82C100.214 1586.82 100.756 1587.33 99.0159 1590.45L89.3476 1607.19L80.5884 1622.37C77.3417 1627.99 77.5604 1627.4 79.9339 1631.64L89.3477 1647.94L98.7034 1664.15C101.401 1668.82 102.092 1668.2 106.318 1668.32L124.642 1668.32C130.93 1668.32 137.217 1668.32 143.505 1668.32C147.543 1667.98 148.104 1667.66 150.254 1664.71L159.937 1647.94L170.165 1630.23C171.328 1628.41 171.173 1626.65 170.333 1625.2L170.332 1625.2ZM128.702 1641.06L128.717 1641.09L122.745 1630.74L86.069 1630.74L94.3381 1645.06L104.44 1662.56L124.643 1662.56L141.116 1662.56L136.73 1654.96L121.61 1654.96C117.457 1654.96 117.804 1654.93 116.271 1652.34L112.005 1645C109.575 1640.81 109.871 1641.11 113.923 1641.06L128.702 1641.06L128.702 1641.06ZM159.941 1618.72L154.947 1610.07L165.048 1627.57L154.947 1645.06L146.317 1660.01L141.21 1651.16L159.94 1618.72L159.941 1618.72ZM151.896 1604.79L133.381 1637.6L127.751 1627.85L146.481 1595.41L151.896 1604.79L151.896 1604.79ZM141.442 1592.58L122.745 1624.96L85.7414 1624.96L94.3374 1610.07L104.439 1592.58L124.642 1592.58L141.442 1592.58L141.442 1592.58Z" fill="#314218"/>
<path fill-rule="evenodd" clip-rule="evenodd" d="M170.332 1539.01L159.936 1557.01L150.368 1573.58C148.369 1577.07 148.308 1577.39 143.525 1577.39L124.642 1577.39L105.191 1577.39C100.214 1577.39 100.756 1576.88 99.016 1573.76L89.3477 1557.01L80.5884 1541.84C77.3417 1536.22 77.5604 1536.81 79.9339 1532.57L89.3476 1516.26L98.7034 1500.06C101.402 1495.39 102.092 1496.01 106.318 1495.89L124.642 1495.89C130.93 1495.89 137.218 1495.89 143.505 1495.89C147.543 1496.22 148.104 1496.55 150.254 1499.49L159.937 1516.26L170.165 1533.98C171.328 1535.79 171.173 1537.56 170.333 1539.01L170.332 1539.01ZM128.702 1523.15L128.717 1523.12L122.745 1533.46L86.069 1533.46L94.3381 1519.14L104.44 1501.65L124.643 1501.65L141.116 1501.65L136.73 1509.25L121.61 1509.25C117.457 1509.25 117.804 1509.27 116.271 1511.86L112.005 1519.21C109.575 1523.4 109.872 1523.1 113.924 1523.15L128.702 1523.15L128.702 1523.15ZM159.941 1545.48L154.947 1554.13L165.048 1536.64L154.947 1519.15L146.317 1504.2L141.21 1513.05L159.94 1545.49L159.941 1545.48ZM151.896 1559.42L133.381 1526.6L127.751 1536.36L146.481 1568.79L151.896 1559.42L151.896 1559.42ZM141.442 1571.63L122.745 1539.24L85.7414 1539.24L94.3375 1554.13L104.439 1571.63L124.642 1571.63L141.442 1571.63L141.442 1571.63Z" fill="#314218"/>
<path fill-rule="evenodd" clip-rule="evenodd" d="M170.333 1444.09L159.936 1426.08L150.369 1409.51C148.369 1406.03 148.308 1405.71 143.525 1405.71L124.642 1405.71L105.191 1405.71C100.214 1405.71 100.756 1406.22 99.0159 1409.34L89.3483 1426.08L80.5884 1441.25C77.3417 1446.88 77.5604 1446.29 79.9339 1450.53L89.3483 1466.83L98.7033 1483.04C101.402 1487.71 102.092 1487.09 106.318 1487.21L124.643 1487.21C130.93 1487.21 137.218 1487.21 143.505 1487.21C147.543 1486.87 148.104 1486.55 150.254 1483.6L159.937 1466.83L170.165 1449.12C171.328 1447.3 171.173 1445.54 170.334 1444.09L170.333 1444.09ZM128.702 1459.95L128.717 1459.98L122.745 1449.63L86.0696 1449.63L94.3381 1463.95L104.44 1481.45L124.643 1481.45L141.116 1481.45L136.73 1473.85L121.61 1473.85C117.457 1473.85 117.804 1473.82 116.271 1471.23L112.005 1463.89C109.575 1459.7 109.872 1460 113.924 1459.95L128.702 1459.95L128.702 1459.95ZM159.941 1437.61L154.947 1428.96L165.049 1446.46L154.947 1463.95L146.317 1478.9L141.21 1470.05L159.94 1437.61L159.941 1437.61ZM151.896 1423.68L133.381 1456.49L127.751 1446.74L146.481 1414.3L151.896 1423.68L151.896 1423.68ZM141.442 1411.47L122.745 1443.85L85.7414 1443.85L94.3374 1428.96L104.439 1411.47L124.642 1411.47L141.442 1411.47L141.442 1411.47Z" fill="#314218"/>
<path fill-rule="evenodd" clip-rule="evenodd" d="M170.332 1357.9L159.936 1375.9L150.368 1392.47C148.368 1395.95 148.308 1396.28 143.525 1396.28L124.642 1396.28L105.19 1396.28C100.213 1396.28 100.755 1395.77 99.0152 1392.65L89.3476 1375.9L80.5877 1360.73C77.341 1355.11 77.5596 1355.7 79.9331 1351.46L89.3476 1335.15L98.7033 1318.95C101.401 1314.28 102.091 1314.89 106.317 1314.78L124.642 1314.78C130.929 1314.78 137.217 1314.78 143.505 1314.78C147.542 1315.11 148.103 1315.44 150.254 1318.38L159.937 1335.15L170.164 1352.86C171.327 1354.68 171.172 1356.44 170.333 1357.9L170.332 1357.9ZM128.701 1342.04L128.716 1342.01L122.744 1352.35L86.0689 1352.35L94.3374 1338.03L104.44 1320.54L124.643 1320.54L141.115 1320.54L136.73 1328.13L121.61 1328.13C117.457 1328.13 117.804 1328.16 116.271 1330.75L112.005 1338.1C109.574 1342.29 109.871 1341.99 113.923 1342.04L128.701 1342.04L128.701 1342.04ZM159.94 1364.37L154.946 1373.02L165.048 1355.53L154.946 1338.03L146.317 1323.09L141.209 1331.93L159.94 1364.37L159.94 1364.37ZM151.896 1378.3L133.381 1345.49L127.75 1355.24L146.48 1387.68L151.895 1378.3L151.896 1378.3ZM141.442 1390.52L122.744 1358.13L85.7406 1358.13L94.3367 1373.02L104.439 1390.52L124.642 1390.52L141.442 1390.52L141.442 1390.52Z" fill="#314218"/>
<path fill-rule="evenodd" clip-rule="evenodd" d="M170.332 1262.98L159.936 1244.97L150.368 1228.4C148.368 1224.92 148.308 1224.6 143.525 1224.6L124.642 1224.6L105.19 1224.6C100.213 1224.6 100.755 1225.11 99.0152 1228.23L89.3476 1244.97L80.5877 1260.14C77.341 1265.76 77.5596 1265.18 79.9331 1269.42L89.3476 1285.72L98.7033 1301.92C101.401 1306.6 102.091 1305.98 106.317 1306.1L124.642 1306.1C130.929 1306.1 137.217 1306.1 143.505 1306.1C147.542 1305.76 148.103 1305.44 150.254 1302.49L159.937 1285.72L170.164 1268.01C171.327 1266.19 171.172 1264.43 170.333 1262.98L170.332 1262.98ZM128.701 1278.84L128.716 1278.86L122.744 1268.52L86.0689 1268.52L94.338 1282.84L104.44 1300.33L124.643 1300.33L141.115 1300.33L136.73 1292.74L121.61 1292.74C117.457 1292.74 117.804 1292.71 116.271 1290.12L112.005 1282.77C109.574 1278.59 109.871 1278.89 113.923 1278.84L128.701 1278.84L128.701 1278.84ZM159.94 1256.5L154.946 1247.85L165.048 1265.35L154.946 1282.84L146.317 1297.78L141.209 1288.94L159.94 1256.5L159.94 1256.5ZM151.896 1242.57L133.381 1275.38L127.75 1265.63L146.48 1233.19L151.895 1242.57L151.896 1242.57ZM141.442 1230.36L122.744 1262.74L85.7406 1262.74L94.3374 1247.85L104.439 1230.36L124.642 1230.36L141.442 1230.36L141.442 1230.36Z" fill="#314218"/>
<path fill-rule="evenodd" clip-rule="evenodd" d="M170.332 1177.44L159.936 1195.45L150.368 1212.02C148.369 1215.5 148.308 1215.82 143.525 1215.82L124.642 1215.82L105.191 1215.82C100.214 1215.82 100.755 1215.31 99.0159 1212.19L89.3476 1195.45L80.5877 1180.28C77.3417 1174.66 77.5603 1175.24 79.9331 1171L89.3476 1154.7L98.7033 1138.5C101.401 1133.82 102.092 1134.44 106.317 1134.32L124.642 1134.32C130.93 1134.32 137.217 1134.32 143.505 1134.32C147.542 1134.66 148.104 1134.98 150.254 1137.93L159.937 1154.7L170.165 1172.41C171.328 1174.23 171.172 1175.99 170.333 1177.44L170.332 1177.44ZM128.701 1161.58L128.716 1161.56L122.744 1171.9L86.0689 1171.9L94.338 1157.58L104.44 1140.09L124.643 1140.09L141.116 1140.09L136.73 1147.68L121.61 1147.68C117.457 1147.68 117.804 1147.71 116.271 1150.3L112.005 1157.65C109.575 1161.83 109.871 1161.53 113.923 1161.58L128.702 1161.58L128.701 1161.58ZM159.941 1183.92L154.946 1192.57L165.048 1175.07L154.946 1157.58L146.317 1142.64L141.21 1151.48L159.94 1183.92L159.941 1183.92ZM151.896 1197.85L133.381 1165.04L127.751 1174.79L146.481 1207.23L151.896 1197.85L151.896 1197.85ZM141.442 1210.06L122.744 1177.68L85.7413 1177.68L94.3374 1192.57L104.439 1210.06L124.642 1210.06L141.442 1210.06L141.442 1210.06Z" fill="#314218"/>
<path fill-rule="evenodd" clip-rule="evenodd" d="M170.332 1082.52L159.936 1064.52L150.368 1047.95C148.369 1044.47 148.308 1044.14 143.525 1044.14L124.642 1044.14L105.191 1044.14C100.214 1044.14 100.755 1044.65 99.016 1047.77L89.3477 1064.52L80.5885 1079.69C77.3418 1085.31 77.5604 1084.72 79.9333 1088.96L89.3477 1105.27L98.7034 1121.47C101.401 1126.14 102.092 1125.52 106.317 1125.64L124.642 1125.64C130.93 1125.64 137.217 1125.64 143.505 1125.64C147.542 1125.31 148.104 1124.98 150.254 1122.04L159.937 1105.27L170.165 1087.55C171.328 1085.74 171.172 1083.98 170.333 1082.52L170.332 1082.52ZM128.702 1098.38L128.717 1098.41L122.745 1088.07L86.0691 1088.07L94.3382 1102.39L104.44 1119.88L124.643 1119.88L141.116 1119.88L136.73 1112.29L121.61 1112.29C117.457 1112.29 117.804 1112.26 116.271 1109.67L112.005 1102.32C109.575 1098.13 109.871 1098.43 113.923 1098.38L128.702 1098.38L128.702 1098.38ZM159.941 1076.05L154.947 1067.4L165.048 1084.89L154.947 1102.39L146.317 1117.33L141.21 1108.48L159.94 1076.05L159.941 1076.05ZM151.896 1062.12L133.381 1094.93L127.751 1085.18L146.481 1052.74L151.896 1062.12L151.896 1062.12ZM141.442 1049.9L122.745 1082.29L85.7415 1082.29L94.3375 1067.4L104.439 1049.9L124.642 1049.9L141.442 1049.9L141.442 1049.9Z" fill="#314218"/>
<path fill-rule="evenodd" clip-rule="evenodd" d="M170.332 996.332L159.936 1014.34L150.368 1030.91C148.369 1034.39 148.308 1034.71 143.525 1034.71L124.642 1034.71L105.191 1034.71C100.214 1034.71 100.756 1034.2 99.016 1031.08L89.3477 1014.34L80.5884 999.166C77.3417 993.543 77.5604 994.132 79.9339 989.889L89.3476 973.585L98.7034 957.384C101.401 952.712 102.092 953.329 106.318 953.211L124.642 953.211C130.93 953.211 137.217 953.211 143.505 953.211C147.543 953.546 148.104 953.87 150.254 956.817L159.937 973.585L170.165 991.3C171.328 993.118 171.173 994.878 170.333 996.331L170.332 996.332ZM128.702 980.471L128.717 980.444L122.745 990.787L86.069 990.787L94.3381 976.467L104.44 958.974L124.643 958.974L141.116 958.974L136.73 966.568L121.61 966.568C117.457 966.568 117.804 966.599 116.271 969.187L112.005 976.534C109.575 980.721 109.871 980.421 113.923 980.471L128.702 980.471L128.702 980.471ZM159.941 1002.81L154.947 1011.46L165.048 993.963L154.947 976.468L146.317 961.524L141.21 970.369L159.94 1002.81L159.941 1002.81ZM151.896 1016.74L133.381 983.928L127.751 993.678L146.481 1026.12L151.896 1016.74L151.896 1016.74ZM141.442 1028.95L122.745 996.569L85.7414 996.569L94.3375 1011.46L104.439 1028.95L124.642 1028.95L141.442 1028.95L141.442 1028.95Z" fill="#314218"/>
<path fill-rule="evenodd" clip-rule="evenodd" d="M170.332 901.411L159.936 883.406L150.368 866.835C148.369 863.354 148.308 863.031 143.525 863.031L124.642 863.031L105.191 863.031C100.214 863.031 100.756 863.54 99.0159 866.663L89.3476 883.406L80.5884 898.576C77.3417 904.2 77.5604 903.612 79.9339 907.853L89.3477 924.157L98.7034 940.359C101.401 945.031 102.092 944.414 106.318 944.532L124.642 944.532C130.93 944.532 137.217 944.532 143.505 944.532C147.543 944.197 148.104 943.872 150.254 940.927L159.937 924.157L170.165 906.443C171.328 904.625 171.173 902.865 170.333 901.412L170.332 901.411ZM128.702 917.271L128.717 917.299L122.745 906.955L86.069 906.955L94.3381 921.276L104.44 938.77L124.643 938.77L141.116 938.77L136.73 931.175L121.61 931.175C117.457 931.175 117.804 931.145 116.271 928.556L112.005 921.209C109.575 917.022 109.871 917.322 113.923 917.271L128.702 917.271L128.702 917.271ZM159.941 894.936L154.947 886.286L165.048 903.781L154.947 921.275L146.317 936.219L141.21 927.374L159.94 894.935L159.941 894.936ZM151.896 881.004L133.381 913.815L127.751 904.065L146.481 871.626L151.896 881.004L151.896 881.004ZM141.442 868.793L122.745 901.174L85.7414 901.174L94.3374 886.287L104.439 868.793L124.642 868.793L141.442 868.793L141.442 868.793Z" fill="#314218"/>
<path fill-rule="evenodd" clip-rule="evenodd" d="M170.332 815.22L159.936 833.225L150.368 849.796C148.369 853.277 148.308 853.601 143.525 853.601L124.642 853.601L105.191 853.601C100.214 853.601 100.756 853.091 99.016 849.969L89.3477 833.225L80.5884 818.055C77.3417 812.432 77.5604 813.019 79.9339 808.779L89.3476 792.474L98.7034 776.273C101.402 771.6 102.092 772.218 106.318 772.1L124.642 772.1C130.93 772.1 137.218 772.1 143.505 772.1C147.543 772.436 148.104 772.76 150.254 775.705L159.937 792.474L170.165 810.189C171.328 812.007 171.173 813.766 170.333 815.219L170.332 815.22ZM128.702 799.359L128.717 799.333L122.745 809.677L86.069 809.677L94.3381 795.356L104.44 777.862L124.643 777.862L141.116 777.862L136.73 785.458L121.61 785.458C117.457 785.458 117.804 785.486 116.271 788.076L112.005 795.424C109.575 799.609 109.872 799.311 113.924 799.359L128.702 799.359L128.702 799.359ZM159.941 821.695L154.947 830.345L165.048 812.851L154.947 795.357L146.317 780.412L141.21 789.259L159.94 821.696L159.941 821.695ZM151.896 835.627L133.381 802.816L127.751 812.567L146.481 845.005L151.896 835.627L151.896 835.627ZM141.442 847.839L122.745 815.456L85.7414 815.456L94.3375 830.344L104.439 847.839L124.642 847.839L141.442 847.839L141.442 847.839Z" fill="#314218"/>
<path fill-rule="evenodd" clip-rule="evenodd" d="M170.333 720.298L159.936 702.294L150.369 685.723C148.369 682.242 148.308 681.92 143.525 681.92L124.642 681.92L105.191 681.92C100.214 681.92 100.756 682.429 99.0159 685.551L89.3483 702.294L80.5884 717.465C77.3417 723.087 77.5604 722.499 79.9339 726.741L89.3483 743.044L98.7033 759.247C101.402 763.919 102.092 763.301 106.318 763.42L124.643 763.42C130.93 763.42 137.218 763.42 143.505 763.42C147.543 763.084 148.104 762.76 150.254 759.814L159.937 743.044L170.165 725.331C171.328 723.513 171.173 721.752 170.334 720.299L170.333 720.298ZM128.702 736.159L128.717 736.186L122.745 725.844L86.0696 725.844L94.3381 740.163L104.44 757.658L124.643 757.658L141.116 757.658L136.73 750.063L121.61 750.063C117.457 750.063 117.804 750.032 116.271 747.444L112.005 740.097C109.575 735.909 109.872 736.21 113.924 736.159L128.702 736.159L128.702 736.159ZM159.941 713.823L154.947 705.175L165.049 722.668L154.947 740.163L146.317 755.107L141.21 746.261L159.94 713.822L159.941 713.823ZM151.896 699.892L133.381 732.703L127.751 722.952L146.481 690.513L151.896 699.892L151.896 699.892ZM141.442 687.68L122.745 720.062L85.7414 720.062L94.3374 705.175L104.439 687.681L124.642 687.681L141.442 687.681L141.442 687.68Z" fill="#314218"/>
<path fill-rule="evenodd" clip-rule="evenodd" d="M170.332 634.109L159.936 652.113L150.368 668.684C148.368 672.164 148.308 672.487 143.525 672.487L124.642 672.487L105.19 672.487C100.213 672.487 100.755 671.978 99.0152 668.857L89.3476 652.113L80.5877 636.942C77.341 631.321 77.5596 631.908 79.9331 627.666L89.3476 611.363L98.7033 595.161C101.401 590.488 102.091 591.106 106.317 590.988L124.642 590.988C130.929 590.988 137.217 590.988 143.505 590.988C147.542 591.324 148.103 591.647 150.254 594.592L159.937 611.363L170.164 629.076C171.327 630.894 171.172 632.655 170.333 634.108L170.332 634.109ZM128.701 618.247L128.716 618.221L122.744 628.564L86.0689 628.564L94.3374 614.244L104.44 596.749L124.643 596.749L141.115 596.749L136.73 604.345L121.61 604.345C117.457 604.345 117.804 604.374 116.271 606.964L112.005 614.311C109.574 618.498 109.871 618.198 113.923 618.247L128.701 618.247L128.701 618.247ZM159.94 640.584L154.946 649.232L165.048 631.739L154.946 614.245L146.317 599.301L141.209 608.146L159.94 640.585L159.94 640.584ZM151.896 654.515L133.381 621.703L127.75 631.455L146.48 663.894L151.895 654.515L151.896 654.515ZM141.442 666.727L122.744 634.344L85.7406 634.344L94.3367 649.232L104.439 666.727L124.642 666.727L141.442 666.727L141.442 666.727Z" fill="#314218"/>
<path fill-rule="evenodd" clip-rule="evenodd" d="M170.332 539.188L159.936 521.183L150.368 504.612C148.368 501.132 148.308 500.808 143.525 500.808L124.642 500.808L105.19 500.808C100.213 500.808 100.755 501.318 99.0152 504.439L89.3476 521.183L80.5877 536.353C77.341 541.975 77.5596 541.389 79.9331 545.629L89.3476 561.933L98.7033 578.135C101.401 582.808 102.091 582.19 106.317 582.308L124.642 582.308C130.929 582.308 137.217 582.308 143.505 582.308C147.542 581.972 148.103 581.648 150.254 578.704L159.937 561.933L170.164 544.219C171.327 542.401 171.172 540.642 170.333 539.188L170.332 539.188ZM128.701 555.049L128.716 555.074L122.744 544.732L86.0689 544.732L94.338 559.052L104.44 576.546L124.643 576.546L141.115 576.546L136.73 568.95L121.61 568.95C117.457 568.95 117.804 568.922 116.271 566.332L112.005 558.985C109.574 554.799 109.871 555.097 113.923 555.049L128.701 555.049L128.701 555.049ZM159.94 532.712L154.946 524.063L165.048 541.557L154.946 559.051L146.317 573.995L141.209 565.149L159.94 532.711L159.94 532.712ZM151.896 518.781L133.381 551.592L127.75 541.841L146.48 509.402L151.895 518.781L151.896 518.781ZM141.442 506.568L122.744 538.952L85.7406 538.952L94.3374 524.063L104.439 506.569L124.642 506.569L141.442 506.569L141.442 506.568Z" fill="#314218"/>
<path fill-rule="evenodd" clip-rule="evenodd" d="M170.332 453.989L159.936 471.994L150.368 488.564C148.369 492.045 148.308 492.369 143.525 492.369L124.642 492.369L105.191 492.369C100.214 492.369 100.756 491.86 99.016 488.737L89.3477 471.994L80.5884 456.823C77.3417 451.2 77.5604 451.788 79.9339 447.546L89.3476 431.243L98.7034 415.041C101.401 410.368 102.092 410.986 106.318 410.868L124.642 410.868C130.93 410.868 137.217 410.868 143.505 410.868C147.543 411.203 148.104 411.529 150.254 414.473L159.937 431.243L170.165 448.956C171.328 450.775 171.173 452.535 170.333 453.988L170.332 453.989ZM128.702 438.128L128.717 438.101L122.745 448.445L86.069 448.445L94.3381 434.124L104.44 416.631L124.643 416.631L141.116 416.631L136.73 424.225L121.61 424.225C117.457 424.225 117.804 424.255 116.271 426.844L112.005 434.191C109.575 438.378 109.871 438.078 113.923 438.128L128.702 438.128L128.702 438.128ZM159.941 460.464L154.947 469.114L165.048 451.619L154.947 434.125L146.317 419.181L141.21 428.026L159.94 460.465L159.941 460.464ZM151.896 474.396L133.381 441.585L127.751 451.335L146.481 483.774L151.896 474.396L151.896 474.396ZM141.442 486.608L122.745 454.226L85.7414 454.226L94.3375 469.113L104.439 486.607L124.642 486.607L141.442 486.607L141.442 486.608Z" fill="#314218"/>
<path fill-rule="evenodd" clip-rule="evenodd" d="M170.332 359.068L159.936 341.063L150.368 324.492C148.369 321.011 148.308 320.688 143.525 320.688L124.642 320.688L105.191 320.688C100.214 320.688 100.756 321.198 99.0159 324.32L89.3476 341.063L80.5884 356.234C77.3417 361.857 77.5604 361.268 79.9339 365.51L89.3477 381.814L98.7034 398.015C101.401 402.688 102.092 402.071 106.318 402.189L124.642 402.189C130.93 402.189 137.217 402.189 143.505 402.189C147.543 401.854 148.104 401.529 150.254 398.583L159.937 381.814L170.165 364.1C171.328 362.282 171.173 360.522 170.333 359.068L170.332 359.068ZM128.702 374.928L128.717 374.956L122.745 364.612L86.069 364.612L94.3381 378.933L104.44 396.426L124.643 396.426L141.116 396.426L136.73 388.832L121.61 388.832C117.457 388.832 117.804 388.801 116.271 386.213L112.005 378.866C109.575 374.679 109.871 374.978 113.923 374.928L128.702 374.928L128.702 374.928ZM159.941 352.593L154.947 343.943L165.048 361.437L154.947 378.932L146.317 393.876L141.21 385.031L159.94 352.591L159.941 352.593ZM151.896 338.661L133.381 371.472L127.751 361.722L146.481 329.282L151.896 338.661L151.896 338.661ZM141.442 326.45L122.745 358.831L85.7414 358.831L94.3374 343.943L104.439 326.45L124.642 326.45L141.442 326.45L141.442 326.45Z" fill="#314218"/>
<path fill-rule="evenodd" clip-rule="evenodd" d="M170.332 272.877L159.936 290.882L150.368 307.453C148.369 310.934 148.308 311.257 143.525 311.257L124.642 311.257L105.191 311.257C100.214 311.257 100.756 310.747 99.016 307.626L89.3477 290.882L80.5884 275.712C77.3417 270.09 77.5604 270.676 79.9339 266.436L89.3476 250.132L98.7034 233.93C101.402 229.257 102.092 229.875 106.318 229.757L124.642 229.757C130.93 229.757 137.218 229.757 143.505 229.757C147.543 230.093 148.104 230.417 150.254 233.362L159.937 250.132L170.165 267.846C171.328 269.664 171.173 271.425 170.333 272.876L170.332 272.877ZM128.702 257.017L128.717 256.991L122.745 267.334L86.069 267.334L94.3381 253.013L104.44 235.518L124.643 235.518L141.116 235.518L136.73 243.115L121.61 243.115C117.457 243.115 117.804 243.143 116.271 245.733L112.005 253.081C109.575 257.266 109.872 256.968 113.924 257.017L128.702 257.017L128.702 257.017ZM159.941 279.353L154.947 288.002L165.048 270.508L154.947 253.014L146.317 238.07L141.21 246.916L159.94 279.355L159.941 279.353ZM151.896 293.284L133.381 260.473L127.751 270.225L146.481 302.663L151.896 293.284L151.896 293.284ZM141.442 305.496L122.745 273.113L85.7414 273.113L94.3375 288.002L104.439 305.496L124.642 305.496L141.442 305.496L141.442 305.496Z" fill="#314218"/>
<path fill-rule="evenodd" clip-rule="evenodd" d="M170.333 177.955L159.936 159.951L150.369 143.381C148.369 139.899 148.308 139.577 143.525 139.577L124.642 139.577L105.191 139.577C100.214 139.577 100.756 140.086 99.0159 143.207L89.3483 159.951L80.5884 175.122C77.3417 180.744 77.5604 180.156 79.9339 184.398L89.3483 200.701L98.7033 216.904C101.402 221.577 102.092 220.958 106.318 221.077L124.643 221.077C130.93 221.077 137.218 221.077 143.505 221.077C147.543 220.741 148.104 220.417 150.254 217.471L159.937 200.701L170.165 182.988C171.328 181.17 171.173 179.409 170.334 177.956L170.333 177.955ZM128.702 193.817L128.717 193.843L122.745 183.501L86.0696 183.501L94.3381 197.82L104.44 215.315L124.643 215.315L141.116 215.315L136.73 207.719L121.61 207.719C117.457 207.719 117.804 207.689 116.271 205.1L112.005 197.753C109.575 193.568 109.872 193.866 113.924 193.817L128.702 193.817L128.702 193.817ZM159.941 171.48L154.947 162.832L165.049 180.325L154.947 197.82L146.317 212.763L141.21 203.918L159.94 171.479L159.941 171.48ZM151.896 157.549L133.381 190.361L127.751 180.609L146.481 148.171L151.896 157.549L151.896 157.549ZM141.442 145.337L122.745 177.72L85.7414 177.72L94.3374 162.832L104.439 145.337L124.642 145.337L141.442 145.337L141.442 145.337Z" fill="#314218"/>
<path fill-rule="evenodd" clip-rule="evenodd" d="M170.332 91.7666L159.936 109.771L150.368 126.342C148.368 129.823 148.308 130.145 143.525 130.145L124.642 130.145L105.19 130.145C100.213 130.145 100.755 129.636 99.0152 126.514L89.3476 109.771L80.5877 94.6006C77.341 88.9784 77.5596 89.5658 79.9331 85.3243L89.3476 69.0207L98.7033 52.8185C101.401 48.1464 102.091 48.7636 106.317 48.6448L124.642 48.6448C130.929 48.6448 137.217 48.6448 143.505 48.6448C147.542 48.9815 148.103 49.3052 150.254 52.2507L159.937 69.0207L170.164 86.7344C171.327 88.5517 171.172 90.3128 170.333 91.766L170.332 91.7666ZM128.701 75.9056L128.716 75.8789L122.744 86.2222L86.0689 86.2222L94.3374 71.9017L104.44 54.4074L124.643 54.4074L141.115 54.4074L136.73 62.0028L121.61 62.0028C117.457 62.0028 117.804 62.0328 116.271 64.6214L112.005 71.9688C109.574 76.1555 109.871 75.8553 113.923 75.9056L128.701 75.9056L128.701 75.9056ZM159.94 98.2417L154.946 106.89L165.048 89.3974L154.946 71.9023L146.317 56.9587L141.209 65.8038L159.94 98.243L159.94 98.2417ZM151.896 112.173L133.381 79.3614L127.75 89.1128L146.48 121.552L151.895 112.173L151.896 112.173ZM141.442 124.385L122.744 92.0029L85.7406 92.0029L94.3367 106.89L104.439 124.384L124.642 124.384L141.442 124.384L141.442 124.385Z" fill="#314218"/>
<path fill-rule="evenodd" clip-rule="evenodd" d="M0.667372 41.6025L11.0633 23.5978L20.6318 7.02687C22.6307 3.54562 22.6914 3.22256 27.475 3.22256L46.358 3.22256L65.8088 3.22256C70.7855 3.22256 70.2439 3.7322 71.9837 6.85456L81.652 23.5978L90.4112 38.7685C93.6579 44.3914 93.4393 43.8028 91.0658 48.0449L81.652 64.349L72.2963 80.5501C69.5984 85.2229 68.908 84.6055 64.6818 84.7236L46.3573 84.7236C40.0695 84.7236 33.7824 84.7236 27.4945 84.7236C23.4575 84.3882 22.8956 84.0639 20.746 81.1178L11.0627 64.349L0.834439 46.6348C-0.328498 44.8169 -0.172526 43.0563 0.66672 41.6031L0.667372 41.6025ZM42.2982 57.4629L42.2831 57.4903L48.2551 47.147L84.9307 47.147L76.6616 61.4674L66.5599 78.9611L46.3567 78.9611L29.8837 78.9611L34.2699 71.3664L49.3893 71.3664C53.5425 71.3664 53.1953 71.3357 54.7283 68.7471L58.9943 61.4003C61.4246 57.2136 61.1283 57.5131 57.0763 57.4629L42.2975 57.4629L42.2982 57.4629ZM11.0588 35.1274L16.0531 26.4775L5.95149 43.9718L16.0531 61.4668L24.6825 76.4104L29.7897 67.5654L11.0594 35.1261L11.0588 35.1274ZM19.1034 21.1952L37.619 54.0064L43.249 44.2563L24.5187 11.8171L19.104 21.1952L19.1034 21.1952ZM29.5574 8.98446L48.2551 41.3663L85.2583 41.3663L76.6622 26.4781L66.5606 8.9851L46.3573 8.9851L29.5574 8.9851L29.5574 8.98446Z" fill="#314218"/>
</g>
<defs>
<clipPath id="clip0_55_1124">
<rect width="1940" height="171" fill="white" transform="translate(0 1940) rotate(-90)"/>
</clipPath>
</defs>
</svg>
