<svg width="430" height="450" viewBox="0 0 430 450" fill="none" xmlns="http://www.w3.org/2000/svg">
<path opacity="0.02" fill-rule="evenodd" clip-rule="evenodd" d="M75.0916 291.498L85.2581 274.419L96.6058 256.338L82.0591 247.227L75.0002 242.538L68.0679 237.728L60.3481 232.136L60.8825 239.378L61.227 242.777L61.6137 246.028L62.0355 249.138L62.4925 252.114L62.9847 254.956L63.5049 257.671L64.0533 260.266L64.6228 262.748L65.811 267.381L67.0484 271.605L68.2999 275.469L69.8467 279.799L70.6341 281.83L71.4427 283.804L72.2864 285.737L73.1652 287.648L74.0933 289.566L75.0776 291.505L75.0916 291.498ZM278.449 118.815L276.502 110.254L288.046 98.8796L295.625 91.7714L309.842 79.05L313.413 84.8113L316.458 90.079L319.038 94.9165L320.17 97.1871L321.21 99.3661L323.045 103.484L324.606 107.328L325.956 110.938L327.158 114.379L322.455 115.296L317.547 116.128L312.457 116.869L307.198 117.503L301.784 118.025L296.23 118.427L290.549 118.695L284.756 118.829L278.449 118.815ZM281.592 194.008L282.64 183.12L283.35 171.971L283.631 163.932L283.645 159.694L283.533 155.223L283.272 150.456L282.829 145.322L282.176 139.758L281.283 133.694L287.758 134.04L294.086 134.251L301.841 134.364L305.771 134.322L309.792 134.174L313.948 133.906L318.279 133.49L322.827 132.904L327.636 132.121L332.656 131.134L334.639 137.805L335.518 141.014L336.312 144.145L337.008 147.156L337.627 150.11L338.689 155.893L339.561 161.591L341.248 174.947L342.043 182.943L333.859 185.419L329.746 186.547L325.619 187.598L321.478 188.578L317.315 189.473L313.139 190.298L308.942 191.046L302.361 192.054L295.661 192.879L288.763 193.528L281.606 194.001L281.592 194.008ZM255.388 250.725L235.126 246.783L217.162 242.777L199.888 238.455L179.358 232.693L193.476 211.785L205.822 194.339L211.657 196.172L217.598 197.907L223.602 199.529L229.621 201.038L235.597 202.42L241.489 203.668L247.24 204.776L252.801 205.735L260.479 206.856L267.763 207.674L266.975 211.439L266.04 215.501L264.922 219.937L263.593 224.838L260.134 236.353L255.388 250.711V250.725ZM268.627 118.441L273.261 118.667L273.064 116.234L272.825 114.034L268.627 118.441ZM235.238 319.916L231.765 324.655L228.489 328.851L225.374 332.567L222.407 335.875L219.567 338.836L216.832 341.53L211.587 346.361L206.37 350.93L203.733 353.144L201.02 355.337L198.2 357.523L195.233 359.716L192.09 361.938L188.73 364.201L194.657 365.231L200.113 366.077L210.04 367.368L221.479 368.517L232.159 369.279L242.213 369.744L251.775 369.998L269.752 370.076L278.154 369.857L286.148 369.434L293.678 368.792L300.61 368.016L311.972 366.486L319.396 365.4L320.767 365.146L321.4 365.012L321.998 364.878L322.567 364.73L323.116 364.575L323.643 364.406L324.156 364.23L324.655 364.039L325.148 363.835L325.633 363.609L326.118 363.362L326.603 363.101L327.095 362.812L327.601 362.502L328.122 362.163L328.663 361.797L329.225 361.402L330.435 360.506L333.31 358.271L336.348 355.824L338.021 354.414L339.772 352.876L341.564 351.219L343.364 349.435L344.264 348.497L345.157 347.524L346.036 346.523L346.901 345.493L341.614 345L334.506 344.167L326.99 343.081L318.968 341.713L310.334 340.035L309.406 341.058L308.407 342.115L307.339 343.208L306.207 344.323L303.781 346.593L301.201 348.857L299.872 349.964L298.529 351.05L297.172 352.101L295.815 353.109L294.465 354.068L293.13 354.964L291.815 355.796L291.168 356.184L290.528 356.55L294.908 351.84L298.86 347.348L302.389 343.074L303.992 341.022L305.49 339.02L287.308 334.767L262.489 328.16L249.054 324.225L235.238 319.916ZM270.026 194.395L270.835 188.324L271.503 182.429L272.508 170.955L273.366 156.013L273.732 139.914L273.725 133.081L267.341 132.326L264.05 131.846L260.683 131.296L257.378 130.697L246.438 143.193L235.273 156.45L222.857 171.788L209.246 189.65L216.6 190.968L223.877 192.033L231.048 192.872L238.086 193.507L244.962 193.958L251.655 194.247L264.36 194.445L270.026 194.395ZM358.677 176.914L357.686 169.503L356.519 162.451L355.246 156.041L353.826 149.92L352.265 144.032L350.557 138.327L348.715 132.763L346.781 127.404L351.506 125.817L356.35 123.998L358.811 123.004L361.3 121.946L363.81 120.818L366.341 119.626L369.104 123.229L371.776 126.896L374.363 130.676L376.88 134.618L378.588 137.481L380.262 140.435L381.9 143.475L383.496 146.592L385.05 149.772L386.554 153.009L388.003 156.295L389.402 159.623L384.937 162.656L380.698 165.392L376.662 167.846L372.802 170.053L369.097 172.034L365.525 173.818L362.066 175.426L358.691 176.886L358.677 176.914ZM396.657 259.751L392.587 260.188L388.312 260.569L379.095 261.154L373.224 261.387L366.995 261.514L360.393 261.528L353.397 261.422L355.436 251.67L357.152 242.488L358.523 233.808L359.071 229.64L359.528 225.571L359.879 221.735L360.147 217.984L360.336 214.31L360.449 210.713L360.484 203.732L360.301 197.005L364.674 195.354L369.069 193.592L372.289 192.238L375.537 190.799L378.827 189.241L382.16 187.541L383.84 186.624L385.535 185.665L387.243 184.65L388.959 183.585L390.688 182.464L392.439 181.279L394.197 180.031L395.975 178.719L396.693 181.547L397.353 184.467L397.958 187.485L398.499 190.616L398.978 193.881L399.385 197.294L399.716 200.862L399.976 204.599L400.215 210.41L400.285 216.587L400.173 223.103L399.87 229.936L399.378 237.044L398.689 244.406L397.796 251.987L396.693 259.765L396.657 259.751ZM337.697 260.773L326.258 259.984L312.745 258.757L298.424 257.163L283.561 255.217L268.43 252.939L273.95 233.667L276.284 224.471L277.331 219.902L278.295 215.311L279.553 208.464L283.301 208.569L287.034 208.605L294.529 208.499L299.584 208.301L304.681 208.012L309.792 207.625L314.883 207.145L319.931 206.567L324.909 205.89L329.781 205.114L334.527 204.24L338.78 203.344L342.921 202.364L342.9 207.3L342.781 212.462L342.549 217.878L342.197 223.576L341.529 231.551L340.587 240.26L339.329 249.928L337.697 260.773ZM148.795 284.665L139.543 304.621L132.779 320.431L130.142 327.074L127.9 333.033L124.307 343.356L122.163 350.027L120.363 356.099L122.296 357.855L124.23 359.54L126.177 361.155L128.125 362.714L130.072 364.208L132.02 365.647L135.908 368.369L139.775 370.915L143.613 373.298L151.143 377.705L159.932 382.585L164.242 384.849L168.53 387L172.826 389.023L177.15 390.928L181.53 392.705L185.995 394.348L190.565 395.857L195.226 397.232L199.965 398.48L204.774 399.594L209.632 400.574L214.526 401.421L219.433 402.133L224.348 402.718L229.248 403.169L234.127 403.487L238.972 403.677L243.774 403.741L248.519 403.684L253.202 403.508L257.807 403.212L262.328 402.803L266.757 402.281L271.109 401.646L275.398 400.906L279.63 400.06L283.835 399.108L288.018 398.057L292.201 396.9L296.399 395.645L300.617 394.298L304.843 392.86L309.054 391.329L313.23 389.715L317.357 388.008L321.407 386.224L325.358 384.355L329.197 382.416L332.91 380.399L336.502 378.312L339.997 376.147L343.406 373.912L346.76 371.599L350.072 369.215L356.645 364.223L362.523 359.526L368.141 354.801L370.756 352.495L373.189 350.267L375.403 348.138L376.416 347.115L377.365 346.128L369.012 346.325L364.696 346.318L360.266 346.234L358.255 348.074L356.273 349.816L354.318 351.473L352.392 353.046L350.493 354.548L348.616 355.972L344.946 358.623L341.375 361.035L337.894 363.249L334.513 365.287L331.215 367.198L324.346 370.985L320.936 372.741L317.477 374.426L313.919 376.048L310.214 377.628L306.312 379.172L302.157 380.702L297.721 382.219L293.01 383.699L288.053 385.124L282.879 386.464L277.507 387.698L271.974 388.791L266.293 389.722L263.411 390.117L260.5 390.462L273.373 386.668L279.729 384.673L285.768 382.656L291.294 380.646L293.797 379.652L296.096 378.672L297.165 378.185L298.171 377.705L299.113 377.233L299.984 376.761L300.793 376.302L301.166 376.069L301.517 375.837L301.855 375.611L302.171 375.385L302.473 375.167L302.755 374.948L297.594 375.794L292.553 376.507L287.631 377.092L282.829 377.564L278.147 377.924L273.584 378.178L269.141 378.34L264.81 378.411L260.605 378.404L256.513 378.319L248.695 377.966L241.348 377.416L234.479 376.718L228.067 375.928L222.034 375.061L216.276 374.102L210.694 373.058L199.656 370.717L175.505 364.942L168.938 363.228L162.322 361.374L155.748 359.364L149.301 357.185L146.159 356.028L143.079 354.823L140.077 353.56L137.166 352.249L166.077 359.441L177.488 361.966L187.303 363.919L190.755 360.951L193.729 358.207L196.386 355.591L198.875 352.996L201.582 350.049L204.394 346.861L210.834 339.196L214.322 334.866L216.171 332.433L218.069 329.796L219.996 326.933L220.966 325.41L221.936 323.823L222.906 322.173L223.877 320.452L224.84 318.654L225.796 316.778L207.207 310.157L191.943 304.17L177.101 297.873L162.709 291.336L148.795 284.644V284.665ZM115.111 399.495L121.017 403.134L127.049 406.568L133.194 409.791L139.444 412.795L145.8 415.58L152.247 418.14L158.779 420.481L165.388 422.59L172.067 424.466L178.802 426.109L185.594 427.519L192.428 428.69L199.297 429.62L206.194 430.312L213.112 430.763L220.045 430.974L226.977 430.946L233.909 430.671L240.821 430.156L247.711 429.402L254.573 428.408L261.4 427.173L268.177 425.7L274.899 423.993L281.557 422.054L288.145 419.882L294.655 417.484L301.074 414.861L307.402 412.019L313.624 408.959L319.741 405.68L325.738 402.189L331.616 398.494L337.36 394.601L342.964 390.504L348.426 386.217L353.735 381.739L358.888 377.078L363.873 372.247L368.689 367.241L373.329 362.072L377.787 356.741L382.055 351.261L386.132 345.634L389.725 345.331L393.247 344.943L396.7 344.457L398.401 344.174L400.081 343.864L401.748 343.519L403.393 343.138L405.017 342.722L406.627 342.263L408.209 341.77L409.777 341.234L411.324 340.649L412.849 340.021L410.698 340.338L408.532 340.606L406.353 340.832L404.159 341.015L399.723 341.269L395.216 341.382L390.611 341.375L385.893 341.262L376.071 340.768L365.652 340.014L354.606 338.935L342.928 337.447L330.625 335.466L317.695 332.913L304.168 329.768L290.085 326.03L275.496 321.686L260.479 316.771L245.306 311.419L215.805 300.073L188.856 288.684L163.517 276.95L150.996 270.773L138.593 264.363L126.444 257.727L114.682 250.873L103.412 243.814L92.6615 236.621L82.4388 229.372L72.7504 222.144L63.6034 215.008L55.068 207.984L47.2006 201.095L43.5376 197.71L40.0714 194.367L36.8021 191.067L33.7297 187.816L30.8471 184.622L28.1473 181.477L25.6232 178.395L23.2679 175.37L21.0813 172.408L19.0495 169.517L17.1722 166.696L15.4567 163.946L14.6623 162.599L13.91 161.273L13.1999 159.962L12.5319 158.664L11.9132 157.388L11.3437 156.133L10.8164 154.899L10.3384 153.679L9.90948 152.48L9.53684 151.302L9.36811 150.717L9.21343 150.139L9.07281 149.567L8.93923 149.003L8.82674 148.439L8.72128 147.882L8.62988 147.332L8.55254 146.782L8.48926 146.239L8.44005 145.696L8.40489 145.16L8.37677 144.624L8.36271 144.095V143.566L8.36974 143.045L8.39083 142.523L8.42599 142.001L8.46817 141.479L8.52442 140.964L8.59472 140.45L8.67909 139.935L8.77049 139.427L8.87595 138.912L8.98844 138.405L9.115 137.897L9.24858 137.389L9.39623 136.881L9.55091 136.381L9.71964 135.873L9.89541 135.372L10.2821 134.357L10.711 133.341L11.175 132.326L11.6812 131.303L11.9484 130.789L12.2296 130.274L12.5249 129.759L12.8343 129.244L13.1577 128.73L13.5022 128.215L13.8608 127.7L14.2334 127.185L14.6271 126.67L15.0419 126.163L15.4778 125.655L15.9348 125.147L16.42 124.64L16.9262 124.139L17.4605 123.638L18.023 123.138L18.6065 122.644L19.2182 122.15L19.865 121.664L20.54 121.177L21.2431 120.698L21.9813 120.218L22.7547 119.746L23.5562 119.273L24.3999 118.808L25.2717 118.349L26.1857 117.898L27.1348 117.447L28.1262 117.003L29.1597 116.565L28.9839 116.544L28.7941 116.523L28.5972 116.509L28.3933 116.495L27.9574 116.481H27.4864L26.9872 116.502L26.4599 116.53L25.9045 116.572L25.3209 116.636L24.0835 116.798L22.7547 117.01L21.3555 117.27L19.9002 117.581L18.3956 117.933L16.8559 118.328L15.3021 118.765L13.7412 119.245L12.1874 119.76L10.6547 120.303L9.15718 120.881L7.70885 121.487L6.31676 122.122L4.98794 122.778L3.71538 123.462L3.1037 123.815L2.50609 124.167L1.92253 124.534L1.35304 124.9L0.797611 125.274L0.256243 125.648L-0.271063 126.036L-0.784307 126.424L-1.28349 126.819L-1.76861 127.213L-2.23968 127.615L-2.69668 128.024L-3.13961 128.433L-3.56849 128.849L-3.9833 129.266L-4.39109 129.689L-4.77778 130.119L-5.15744 130.549L-5.52304 130.986L-5.87458 131.423L-6.21909 131.861L-6.54953 132.305L-6.85888 132.749L-7.16121 133.2L-7.44947 133.652L-7.7307 134.11L-7.99787 134.568L-8.25097 135.027L-8.49002 135.492L-8.72203 135.958L-8.93999 136.423L-9.15091 136.895L-9.34777 137.368L-9.5376 137.84L-9.70634 138.32L-9.86805 138.799L-10.0157 139.286L-10.1563 139.773L-10.2829 140.266L-10.3954 140.76L-10.5008 141.253L-10.5992 141.754L-10.6836 142.255L-10.7539 142.763L-10.8172 143.27L-10.8734 143.785L-10.9156 144.3L-10.9508 144.822L-10.9789 145.343L-10.993 145.872L-11 146.401L-10.993 146.937L-10.9508 148.023L-10.8734 149.123L-10.761 150.237L-10.6133 151.366L-10.4235 152.515L-10.1985 153.679L-9.93836 154.856L-9.63603 156.055L-9.29153 157.268L-8.91186 158.502L-8.49002 159.75L-8.02599 161.012L-7.51977 162.296L-6.97138 163.593L-6.38079 164.905L-5.74802 166.238L-5.06604 167.585L-4.34187 168.953L-3.56849 170.335L-2.74589 171.731L-1.87408 173.148L-0.938985 174.594L0.052352 176.068L1.114 177.57L2.25298 179.114L3.4693 180.701L4.76999 182.33L6.16911 184.008L7.65963 185.743L10.9641 189.382L14.7185 193.281L18.9792 197.477L24.8498 202.977L24.0202 209.782L23.4226 216.615L23.057 223.463L22.9234 230.324L23.0289 237.178L23.3663 244.033L23.9358 250.866L24.7373 257.678L25.7779 264.462L27.0505 271.203L28.548 277.895L30.2776 284.531L32.2321 291.103L34.4046 297.605L36.7951 304.029L39.4105 310.368L42.2439 316.616L45.2812 322.758L48.5294 328.795L51.9815 334.718L48.0654 342.997L44.6203 350.655L41.1401 358.913L38.2575 366.373L37.0271 369.836L35.9233 373.136L34.946 376.281L34.0883 379.278L33.343 382.148L32.7032 384.898L32.1618 387.536L31.7119 390.081L31.3533 392.542L31.0721 394.926L30.8682 397.246L30.7276 399.517L30.6502 401.745L30.6291 403.931L30.6643 406.075L30.7557 408.176L30.8963 410.221L31.0861 412.217L31.3181 414.163L31.5853 416.053L31.8947 417.886L32.2392 419.663L32.6118 421.384L33.0196 423.041L33.4485 424.635L33.8984 426.165L34.3695 427.625L34.8616 429.021L35.3679 430.34L35.8881 431.595L36.4295 432.787L36.7107 433.358L36.992 433.915L37.2802 434.458L37.5685 434.98L37.8638 435.495L38.1661 435.988L38.4754 436.475L38.7918 436.947L39.1152 437.406L39.4457 437.85L39.7761 438.287L40.1206 438.71L40.4722 439.119L40.8307 439.521L41.1964 439.909L41.569 440.29L41.9486 440.663L42.3353 441.023L42.7291 441.376L43.1368 441.721L43.5517 442.06L43.9735 442.384L44.4094 442.701L44.8523 443.012L45.3023 443.315L45.7663 443.618L46.2374 443.907L46.7155 444.196L47.2076 444.478L47.7068 444.754L48.7404 445.282L49.809 445.79L50.9199 446.27L52.0659 446.721L53.2541 447.144L54.4704 447.539L55.7289 447.906L57.0226 448.251L58.3514 448.561L59.7154 448.844L61.1145 449.097L62.5417 449.323L64.0112 449.52L65.5087 449.683L67.0344 449.817L68.5882 449.915L70.156 449.979L71.7309 450L73.2988 449.979L74.8596 449.908L76.3994 449.796L77.1587 449.718L77.911 449.626L78.6562 449.52L79.3874 449.401L80.1116 449.267L80.8217 449.118L81.5177 448.949L82.1997 448.773L82.8677 448.576L83.5215 448.364L84.1543 448.131L84.4636 448.011L84.766 447.884L85.0683 447.75L85.3636 447.617L85.6518 447.482L86.2143 447.186L86.4885 447.031L86.7557 446.876L87.0158 446.714L87.2689 446.545L87.515 446.375L87.7611 446.199L87.9931 446.016L87.0721 446.058L86.1651 446.079L85.2792 446.086L84.4144 446.079L83.5707 446.051L82.7411 446.009L81.9326 445.945L81.1381 445.875L80.3647 445.783L79.6054 445.677L78.8601 445.564L78.1289 445.437L77.4188 445.289L76.7228 445.134L76.0408 444.965L75.3729 444.789L74.719 444.598L74.0862 444.401L73.4605 444.189L72.8488 443.971L72.2512 443.745L71.6677 443.512L71.0982 443.273L70.5427 443.019L69.9943 442.758L69.46 442.49L68.4265 441.947L67.4351 441.383L66.486 440.797L65.572 440.198L64.7002 439.585L63.8635 438.957L63.4557 438.633L63.062 438.308L62.6753 437.977L62.2957 437.645L61.923 437.307L61.5574 436.961L61.2059 436.609L60.8614 436.256L60.5239 435.896L60.1935 435.53L59.87 435.156L59.5537 434.775L59.2443 434.387L58.942 433.993L58.6467 433.591L58.3655 433.182L58.0842 432.766L57.8171 432.349L57.5499 431.919L57.2898 431.482L57.0367 431.038L56.7906 430.587L56.5515 430.128L56.3195 429.656L55.8695 428.697L55.4407 427.702L55.0329 426.666L54.6532 425.601L54.2947 424.508L53.9572 423.38L53.6478 422.223L53.3596 421.046L53.0924 419.84L52.8533 418.606L52.6354 417.35L52.4385 416.074L52.2698 414.776L52.1221 413.465L51.9956 412.132L51.8972 410.785L51.8269 409.424L51.7776 408.049L51.7495 406.66L51.7706 403.853L51.8901 401.004L52.1081 398.106L52.4174 395.173L52.8252 392.204L53.3244 389.207L53.922 386.182L54.6181 383.128L55.4055 380.026L56.2984 376.859L57.2827 373.608L59.5537 366.775L62.2253 359.357L65.34 351.205L69.01 342.186L73.4043 332.179L78.6703 321.059L84.6746 309.282L91.9162 296.152L100.698 281.428L111.335 264.871L130.712 275.399L137.11 278.727L120.363 313.774L114.738 326.298L112.425 331.777L110.372 336.918L108.502 341.946L106.828 346.762L105.338 351.381L104.016 355.81L102.849 360.048L101.816 364.11L100.079 371.711L98.7009 378.7L98.1385 382.021L97.6533 385.258L97.2456 388.438L96.9221 391.59L96.6761 394.743L96.5073 397.916L96.4159 401.131L96.4089 404.368L96.5003 407.598L96.5847 409.206L96.6972 410.799L96.8378 412.372L97.0135 413.93L97.2245 415.468L97.4635 416.977L97.7377 418.458L98.0471 419.91L98.3916 421.321L98.7783 422.696L98.9892 423.366L99.2071 424.028L99.4391 424.677L99.6782 425.319L99.9243 425.946L100.177 426.567L100.438 427.173L100.705 427.773L100.986 428.365L101.274 428.944L101.569 429.515L101.872 430.072L102.181 430.622L102.498 431.158L102.821 431.687L103.151 432.208L103.489 432.716L103.833 433.217L104.543 434.19L105.275 435.121L106.027 436.016L106.8 436.877L107.595 437.695L108.403 438.477L109.226 439.225L110.063 439.937L110.906 440.621L111.771 441.27L112.643 441.883L113.529 442.469L114.422 443.019L115.329 443.541L116.25 444.034L117.178 444.5L118.12 444.937L119.069 445.353L120.032 445.741L121.01 446.107L121.994 446.446L122.992 446.77L123.998 447.066L125.01 447.341L126.037 447.602L127.07 447.842L128.111 448.061L129.151 448.258L130.199 448.434L131.246 448.59L132.294 448.731L133.341 448.851L134.389 448.949L135.43 449.034L136.47 449.097L137.504 449.14L138.53 449.161H139.543L140.548 449.147L141.546 449.111L142.531 449.055L143.515 448.984L144.492 448.893L145.477 448.78L146.461 448.653L148.458 448.343L150.511 447.955L152.648 447.49L157.267 446.333L159.784 445.642L162.407 444.866L165.085 443.999L166.428 443.526L167.764 443.026L169.086 442.497L170.387 441.933L171.659 441.34L172.904 440.713L173.508 440.388L174.099 440.057L174.682 439.711L175.252 439.359L175.807 438.999L176.349 438.626L176.876 438.245L177.389 437.857L170.815 439.274L167.827 439.838L165.029 440.318L162.407 440.713L159.946 441.023L157.64 441.256L155.474 441.418L153.442 441.51L151.53 441.531L150.616 441.517L149.73 441.489L148.865 441.446L148.029 441.39L147.213 441.319L146.419 441.235L145.645 441.136L144.886 441.023L144.148 440.896L143.424 440.762L142.713 440.614L142.017 440.459L141.328 440.29L140.653 440.113L139.986 439.923L139.332 439.726L138.692 439.514L138.066 439.295L137.447 439.07L136.843 438.83L136.245 438.583L135.662 438.329L135.085 438.061L134.516 437.786L133.96 437.504L133.412 437.215L132.877 436.912L132.35 436.602L131.83 436.284L131.324 435.96L130.824 435.628L130.332 435.283L129.854 434.938L129.383 434.585L128.926 434.218L128.476 433.844L128.033 433.471L127.597 433.083L127.175 432.688L126.761 432.286L126.353 431.884L125.565 431.052L125.179 430.629L124.441 429.761L123.73 428.873L123.055 427.963L122.409 427.04L121.797 426.102L121.213 425.157L120.665 424.205L120.145 423.246L119.653 422.287L119.189 421.328L118.753 420.376L118.345 419.424L117.972 418.486L117.628 417.562L117.304 416.652L117.016 415.764L116.749 414.896L116.51 414.043L116.299 413.197L116.109 412.358L115.94 411.519L115.793 410.672L115.659 409.819L115.547 408.945L115.455 408.049L115.371 407.125L115.244 405.172L115.097 400.694L115.076 399.474L115.111 399.495ZM339.715 111.178L336.98 106.009L333.767 100.304L330.772 95.2267L328.972 92.406L326.898 89.3667L325.745 87.766L324.501 86.1088L323.158 84.3882L321.71 82.6041L320.156 80.7566L318.482 78.8385L316.683 76.8499L314.756 74.7908L316.654 73.1618L324.501 78.8244L331.215 83.9016L336.917 88.4571L341.733 92.5541L343.849 94.451L345.797 96.2563L347.59 97.9769L349.242 99.627L352.188 102.73L354.768 105.621L350.831 107.243L347.034 108.703L343.336 110.007L339.715 111.178ZM461.122 199.388L462.332 202.124L462.866 203.429L463.358 204.691L463.808 205.911L464.216 207.089L464.582 208.224L464.905 209.331L465.193 210.396L465.446 211.425L465.664 212.427L465.847 213.386L466.002 214.317L466.121 215.219L466.213 216.087L466.276 216.933L466.318 217.744L466.325 218.534L466.318 219.295L466.29 220.036L466.234 220.748L466.164 221.439L466.072 222.109L465.967 222.758L465.84 223.392L465.699 224.006L465.552 224.598L465.39 225.183L465.221 225.747L465.046 226.298L464.666 227.362L464.265 228.392L463.85 229.379L463.414 230.331L462.957 231.248L462.718 231.692L462.472 232.129L462.219 232.559L461.959 232.983L461.699 233.399L461.432 233.808L461.151 234.21L460.862 234.604L460.574 234.992L460.272 235.38L459.962 235.761L459.646 236.135L459.323 236.501L458.992 236.868L458.648 237.228L458.296 237.58L457.938 237.933L457.565 238.278L456.799 238.962L455.99 239.632L455.139 240.295L454.246 240.944L453.311 241.593L452.341 242.227L451.329 242.855L450.288 243.476L449.212 244.082L446.97 245.281L444.614 246.444L442.168 247.58L439.65 248.68L437.07 249.752L433.259 251.24L429.308 252.657L425.174 253.997L420.801 255.252L421.532 248.355L422.024 241.438L422.277 234.513L422.284 227.581L422.06 220.649L421.596 213.731L420.892 206.835L419.95 199.966L418.776 193.133L417.363 186.349L415.718 179.615L413.841 172.944L411.738 166.344L409.404 159.821L406.845 153.382L404.068 147.036L401.073 140.788L397.867 134.646L394.45 128.624L390.829 122.721L387.004 116.946L382.983 111.312L378.771 105.818L374.37 100.473L369.786 95.2831L365.026 90.2553L360.097 85.3966L355 80.7072L349.748 76.2011L338.464 69.2129L333.219 66.1524L328.234 63.367L337.079 56.1319L345.319 49.7501L351.295 45.3568L357.489 41.0129L363.803 36.8242L366.974 34.8215L370.137 32.9034L376.43 29.307L396.13 18.7435L391.216 20.4501L386.681 22.1707L382.476 23.9054L378.546 25.6613L374.834 27.4383L371.297 29.2436L364.506 32.9598L357.827 36.8383L351.218 40.8507L344.721 44.969L338.365 49.1577L332.164 53.4029L326.033 57.7679L319.867 62.3304L306.98 72.4073L300.02 78.1615L292.539 84.5927L284.404 91.856L275.489 100.114L265.681 109.591L254.868 120.521L242.937 133.137L229.564 148.044L221.957 156.986L213.506 167.338L193.314 193.5L167.525 228.998L155.418 224.894L143.156 220.374L173.29 184.727L198.088 157.042L219.665 134.484L238.711 115.917L256.52 99.5565L273.486 84.8325L289.727 71.5258L297.559 65.4261L305.173 59.7283L312.605 54.4042L320.078 49.3128L327.868 44.2779L336.249 39.116L345.375 33.7214L354.958 28.2916L364.597 23.1015L373.885 18.4333L378.279 16.3741L382.497 14.5054L386.561 12.813L390.477 11.2898L394.267 9.92885L397.944 8.72301L401.523 7.65819L405.017 6.72736L408.448 5.91641L410.142 5.56383L411.837 5.23945L413.524 4.95032L415.212 4.69646L416.899 4.47786L418.593 4.30156L420.295 4.16053L422.003 4.0618L423.726 3.99834L425.469 3.97718L427.234 3.99834L429.02 4.0618L430.834 4.16758L432.676 4.32272L431.86 3.97013L431.052 3.6387L430.243 3.32137L429.435 3.01815L428.633 2.73608L427.832 2.47516L427.037 2.22835L426.25 1.99564L424.682 1.57959L423.128 1.227L421.596 0.93083L420.084 0.676967L418.593 0.472467L417.117 0.317328L415.669 0.190397L414.241 0.0987244L411.457 0.00705174L408.771 0L406.191 0.0493622L403.667 0.16219L402.416 0.246811L401.164 0.352587L399.899 0.48657L398.626 0.64876L397.332 0.839157L396.018 1.05776L394.668 1.31162L393.283 1.59369L391.855 1.91807L390.386 2.27771L387.278 3.11687L383.918 4.13232L380.297 5.32407L376.423 6.69916L372.289 8.26464L363.233 11.9457L353.13 16.3953L347.674 18.9269L341.909 21.7476L335.785 24.942L329.261 28.6089L322.279 32.84L314.798 37.7268L306.769 43.3612L298.149 49.8347L294.367 48.6218L290.781 47.5852L287.371 46.7108L284.123 45.9703L281.023 45.3427L278.042 44.8138L272.396 43.9394L266.448 43.1355L260.774 42.4938L255.283 42.0213L249.876 41.7393L247.169 41.6688L244.442 41.6476L241.685 41.6829L238.887 41.7745L236.026 41.9226L233.101 42.1271L226.991 42.7124L223.778 43.1003L220.446 43.5657L216.986 44.1228L213.387 44.7856L209.639 45.5754L205.737 46.4992L201.659 47.5781L197.406 48.8192L192.955 50.2507L188.308 51.8797L183.45 53.7202L178.366 55.7864L173.051 58.0993L167.49 60.6732L161.675 63.5221L155.601 66.6601L167.588 62.2387L178.191 58.6917L183.021 57.2178L187.556 55.9203L191.809 54.7921L195.803 53.8189L199.55 52.9939L203.066 52.2957L206.37 51.7104L209.478 51.2309L212.402 50.8431L215.165 50.5328L220.263 50.1026L224.896 49.8488L229.143 49.7359L233.087 49.7641L236.813 49.9122L240.392 50.1661L243.907 50.5187L251.072 51.4566L258.215 52.5849L262.032 53.2971L266.019 54.1503L270.181 55.1728L274.533 56.3928L276.783 57.0909L279.082 57.8455L281.43 58.6705L283.828 59.559L266.202 73.6484L250.593 86.7576L236.258 99.4014L222.442 112.095L217.767 110.896L213.169 109.577L203.396 106.474L194.46 103.4L189.348 101.453L183.724 99.1123L177.509 96.2845L170.64 92.8856L163.046 88.8167L154.659 83.9933L160.775 88.993L166.527 93.3792L169.269 95.3607L171.926 97.2083L177.002 100.551L181.776 103.463L186.262 106.009L190.487 108.258L194.474 110.268L199.817 112.842L204.886 115.127L209.871 117.2L214.947 119.125L199.466 134.195L181.052 153.34L157.773 179.135L127.696 214.161L120.264 210.995L102.392 203.006L85.3354 194.924L77.9039 191.222L71.6255 187.943L69.0241 186.512L66.8235 185.242L65.8884 184.678L65.0728 184.156L64.3768 183.684L64.0744 183.465L63.8073 183.268L64.201 180.941L64.6931 178.458L65.2767 175.828L65.9517 173.071L67.5406 167.253L69.4178 161.132L71.5481 154.849L73.8823 148.545L76.3783 142.346L78.9937 136.402L80.3295 133.56L81.6865 130.817L83.0575 128.158L84.4496 125.585L85.8628 123.088L87.29 120.669L88.7313 118.321L90.1867 116.043L93.1466 111.678L96.1628 107.532L99.2353 103.583L102.35 99.7892L105.514 96.1223L108.727 92.5753L112.01 89.1411L115.371 85.8056L118.823 82.5689L122.381 79.4167L126.051 76.3492L129.847 73.3522L133.777 70.4258L137.806 67.5839L141.884 64.8337L145.976 62.1964L154.019 57.3095L161.584 53.0362L165.106 51.1604L168.516 49.4468L171.926 47.8602L173.656 47.1057L175.428 46.3723L177.242 45.66L179.119 44.969L183.105 43.615L187.478 42.2823L192.344 40.9495L197.806 39.6026L200.809 38.9397L204.022 38.291L207.46 37.6704L211.144 37.0922L215.095 36.5562L219.335 36.0767L223.884 35.6536L228.756 35.3081L233.98 35.0401L239.569 34.8638L245.545 34.7792L251.929 34.8004L265.998 35.2023L259.262 33.8202L252.485 32.6707L245.672 31.754L238.838 31.077L231.983 30.6398L225.114 30.4353L218.245 30.4635L211.376 30.7315L204.528 31.2392L197.694 31.9797L190.895 32.9598L184.132 34.1728L177.41 35.6184L170.745 37.2896L164.143 39.1936L157.605 41.3232L151.15 43.6785L144.773 46.2524L138.495 49.0449L132.315 52.056L126.24 55.2786L120.278 58.7058L114.443 62.3374L108.727 66.1665L103.151 70.1931L97.7166 74.41L92.4295 78.8103L87.297 83.3939L82.3263 88.1538L77.5172 93.076L72.884 98.1603L68.4265 103.407L64.1518 108.801L60.0599 114.344L56.1648 120.021L52.4667 125.824L48.9724 131.755L45.682 137.805L42.6025 143.968L39.734 150.23L37.0834 156.584L34.6507 163.029L38.8481 167.944L43.0876 172.577L47.3553 176.935L51.6581 181.039L55.9891 184.897L60.3411 188.528L64.7142 191.941L69.0944 195.157L73.4886 198.189L77.8899 201.052L82.2841 203.753L86.6783 206.313L91.0655 208.746L95.4386 211.066L104.136 215.431L112.741 219.5L121.227 223.301L137.764 230.176L153.569 236.17L168.481 241.388L182.437 245.951L195.768 249.998L208.908 253.686L222.302 257.163L236.286 260.548L250.825 263.778L265.794 266.767L281.065 269.419L296.511 271.661L312 273.474L327.404 274.849L342.584 275.78L357.412 276.266L371.747 276.316L385.45 275.942L392.024 275.596L398.387 275.152L404.525 274.609L410.431 273.967L416.097 273.234L421.525 272.416L426.7 271.513L431.621 270.533L436.283 269.482L440.684 268.368L444.818 267.184L448.685 265.942L450.52 265.294L452.292 264.638L454 263.961L455.645 263.27L457.22 262.565L458.739 261.845L460.194 261.112L461.586 260.364L462.915 259.603L464.188 258.827L465.397 258.037L466.55 257.234L467.647 256.423L468.688 255.598L469.672 254.758L470.143 254.335L470.6 253.905L471.043 253.475L471.472 253.045L471.894 252.608L472.301 252.17L472.695 251.733L473.082 251.296L473.454 250.852L473.813 250.4L474.157 249.949L474.495 249.498L474.818 249.046L475.128 248.588L475.43 248.13L475.718 247.671L476 247.213L476.274 246.748L476.534 246.282L476.787 245.817L477.265 244.879L477.701 243.941L478.109 242.996L478.481 242.044L478.65 241.565L478.812 241.085L478.966 240.605L479.114 240.119L479.248 239.625L479.374 239.132L479.487 238.631L479.585 238.13L479.677 237.623L479.761 237.108L479.831 236.586L479.887 236.064L479.937 235.528L479.972 234.992L479.993 234.442L480 233.892L479.993 233.328L479.979 232.757L479.951 232.179L479.909 231.586L479.852 230.987L479.782 230.373L479.698 229.753L479.599 229.118L479.487 228.469L479.36 227.814L479.22 227.144L479.065 226.467L478.699 225.071L478.27 223.618L477.778 222.116L477.209 220.571L476.899 219.789L476.569 218.992L476.217 218.188L475.845 217.377L475.451 216.566L475.036 215.741L474.593 214.916L474.129 214.084L473.637 213.252L473.124 212.42L472.583 211.581L472.02 210.748L471.43 209.916L470.818 209.084L470.171 208.252L469.503 207.42L468.807 206.595L468.076 205.77L467.316 204.952L466.529 204.141L465.714 203.337L464.863 202.54L463.984 201.75L463.07 200.968L462.121 200.199L461.144 199.437L461.122 199.388Z" fill="white"/>
</svg>
