<svg width="1920" height="323" viewBox="0 0 1920 323" fill="none" xmlns="http://www.w3.org/2000/svg">
<g opacity="0.03" clip-path="url(#clip0_2001_112)">
<path fill-rule="evenodd" clip-rule="evenodd" d="M-19.998 243.319L-19.5491 243.066L-3.24498 233.652L12.9561 224.296C17.6295 221.598 17.0122 220.908 17.1296 216.681V198.358C17.1296 192.07 17.1296 185.782 17.1296 179.494C16.7949 175.457 16.4699 174.895 13.5251 172.746L-3.24498 163.062L-19.9974 153.389V160.042L-6.12459 168.053L8.81901 176.681L-0.0266972 181.789L-19.9974 170.257V186L-13.5856 189.619L-19.9974 193.321V199.997L-10.1018 194.283L-10.1292 194.298V209.077C-10.0802 213.129 -10.3778 213.425 -6.19311 210.995L1.15569 206.729C3.74428 205.195 3.77364 205.543 3.77364 201.39V186.27L11.3691 181.884V198.358V218.559L-6.12459 228.662L-19.9974 236.672V243.319H-19.998Z" fill="#314218"/>
<path fill-rule="evenodd" clip-rule="evenodd" d="M68.9307 152.667L86.9354 163.063L103.506 172.631C106.988 174.631 107.31 174.691 107.31 179.474V198.357V217.808C107.31 222.786 106.802 222.244 103.679 223.984L86.9354 233.651L71.7647 242.411C66.1418 245.658 66.7304 245.439 62.4883 243.066L46.1848 233.651L29.9825 224.296C25.3104 221.598 25.9283 220.908 25.8096 216.682V198.357C25.8096 192.07 25.8096 185.782 25.8096 179.494C26.145 175.457 26.4693 174.896 29.4155 172.745L46.1848 163.062L63.8984 152.835C65.7164 151.672 67.4776 151.827 68.9301 152.666L68.9307 152.667ZM53.0703 194.298L53.0436 194.283L63.3862 200.255V236.93L49.0658 228.661L31.5714 218.559V198.356V181.884L39.1669 186.269V201.389C39.1669 205.542 39.1975 205.195 41.7861 206.728L49.133 210.994C53.3196 213.425 53.0201 213.128 53.0703 209.076V194.298V194.298ZM75.4058 163.059L84.0558 168.053L66.5614 157.951L49.0664 168.053L34.1228 176.682L42.9679 181.79L75.4071 163.059L75.4058 163.059ZM89.338 171.103L56.5268 189.618L66.2769 195.249L98.7162 176.519L89.338 171.104V171.103ZM101.549 181.557L69.1676 200.255V237.258L84.0551 228.662L101.548 218.56V198.357V181.557H101.549Z" fill="#314218"/>
<path fill-rule="evenodd" clip-rule="evenodd" d="M155.122 152.667L137.117 163.063L120.546 172.631C117.065 174.631 116.742 174.691 116.742 179.474V198.357V217.809C116.742 222.786 117.251 222.244 120.373 223.984L137.117 233.651L152.287 242.411C157.909 245.658 157.323 245.439 161.563 243.066L177.867 233.651L194.069 224.296C198.742 221.598 198.123 220.908 198.241 216.682V198.357C198.241 192.07 198.241 185.782 198.241 179.495C197.906 175.457 197.582 174.896 194.637 172.745L177.867 163.062L160.153 152.835C158.335 151.672 156.574 151.827 155.122 152.666L155.122 152.667ZM170.983 194.298L171.008 194.283L160.665 200.255V236.93L174.985 228.662L192.48 218.559V198.356V181.884L184.884 186.269V201.389C184.884 205.542 184.855 205.195 182.266 206.728L174.918 210.994C170.733 213.425 171.031 213.128 170.983 209.076V194.298V194.298ZM148.646 163.059L139.997 168.053L157.49 157.951L174.985 168.053L189.929 176.682L181.083 181.79L148.645 163.059L148.646 163.059ZM134.714 171.103L167.526 189.618L157.774 195.249L125.336 176.519L134.714 171.104V171.103ZM122.502 181.557L154.885 200.255V237.258L139.998 228.662L122.503 218.56V198.357V181.557H122.502Z" fill="#314218"/>
<path fill-rule="evenodd" clip-rule="evenodd" d="M250.043 152.667L268.047 163.063L284.618 172.631C288.099 174.631 288.422 174.691 288.422 179.475V198.357V217.809C288.422 222.786 287.913 222.244 284.791 223.984L268.047 233.651L252.876 242.411C247.255 245.658 247.841 245.439 243.601 243.066L227.297 233.651L211.095 224.296C206.422 221.598 207.04 220.908 206.922 216.682V198.357C206.922 192.07 206.922 185.782 206.922 179.495C207.258 175.457 207.582 174.896 210.526 172.745L227.297 163.063L245.011 152.835C246.829 151.672 248.589 151.827 250.042 152.666L250.043 152.667ZM234.181 194.298L234.155 194.283L244.498 200.255V236.93L230.178 228.662L212.684 218.559V198.357V181.884L220.279 186.269V201.389C220.279 205.543 220.309 205.195 222.898 206.728L230.245 210.994C234.432 213.425 234.132 213.128 234.181 209.076V194.298V194.298ZM256.518 163.059L265.167 168.053L247.672 157.951L230.179 168.053L215.235 176.682L224.08 181.79L256.519 163.059L256.518 163.059ZM270.449 171.103L237.638 189.618L247.389 195.249L279.827 176.519L270.449 171.104V171.103ZM282.662 181.557L250.279 200.255V237.258L265.166 228.662L282.661 218.56V198.357V181.557H282.662Z" fill="#314218"/>
<path fill-rule="evenodd" clip-rule="evenodd" d="M336.233 152.668L318.228 163.064L301.657 172.632C298.176 174.631 297.854 174.692 297.854 179.475V198.358V217.809C297.854 222.786 298.362 222.244 301.485 223.984L318.228 233.652L333.399 242.411C339.022 245.658 338.434 245.44 342.675 243.066L358.978 233.652L375.18 224.297C379.853 221.599 379.236 220.908 379.354 216.682V198.358C379.354 192.07 379.354 185.782 379.354 179.495C379.018 175.457 378.694 174.896 375.749 172.746L358.978 163.063L341.266 152.835C339.448 151.672 337.686 151.827 336.233 152.667L336.233 152.668ZM352.094 194.298L352.12 194.283L341.777 200.255V236.931L356.098 228.662L373.591 218.56V198.357V181.884L365.996 186.269V201.39C365.996 205.543 365.966 205.196 363.378 206.729L356.031 210.995C351.844 213.425 352.144 213.129 352.094 209.077V194.298V194.298ZM329.758 163.059L321.109 168.053L338.603 157.952L356.097 168.053L371.041 176.683L362.195 181.79L329.756 163.06L329.758 163.059ZM315.826 171.104L348.637 189.619L338.886 195.249L306.447 176.519L315.826 171.104V171.104ZM303.615 181.558L335.996 200.255V237.259L321.11 228.662L303.615 218.561V198.358V181.558H303.615Z" fill="#314218"/>
<path fill-rule="evenodd" clip-rule="evenodd" d="M431.154 152.668L449.159 163.064L465.73 172.632C469.21 174.631 469.533 174.692 469.533 179.475V198.358V217.809C469.533 222.786 469.024 222.244 465.902 223.984L449.159 233.652L433.989 242.411C428.365 245.658 428.953 245.44 424.712 243.066L408.408 233.652L392.207 224.297C387.534 221.599 388.15 220.908 388.034 216.682V198.358C388.034 192.07 388.034 185.782 388.034 179.495C388.368 175.457 388.693 174.896 391.638 172.746L408.408 163.063L426.121 152.835C427.94 151.672 429.7 151.827 431.153 152.667L431.154 152.668ZM415.293 194.298L415.266 194.283L425.61 200.255V236.931L411.29 228.662L393.796 218.56V198.357V181.884L401.391 186.269V201.39C401.391 205.543 401.42 205.196 404.01 206.729L411.356 210.995C415.542 213.425 415.244 213.129 415.293 209.077V194.298V194.298ZM437.629 163.059L446.279 168.053L428.784 157.952L411.291 168.053L396.346 176.683L405.192 181.79L437.63 163.06L437.629 163.059ZM451.561 171.104L418.75 189.619L428.5 195.249L460.939 176.519L451.561 171.104V171.104ZM463.772 181.558L431.39 200.255V237.259L446.278 228.662L463.772 218.561V198.358V181.558H463.772Z" fill="#314218"/>
<path fill-rule="evenodd" clip-rule="evenodd" d="M517.345 152.668L499.34 163.064L482.769 172.632C479.288 174.631 478.965 174.692 478.965 179.475V198.358V217.809C478.965 222.786 479.474 222.244 482.596 223.984L499.34 233.652L514.51 242.411C520.134 245.658 519.546 245.44 523.787 243.066L540.091 233.652L556.292 224.297C560.965 221.599 560.348 220.908 560.466 216.682V198.358C560.466 192.07 560.466 185.783 560.466 179.495C560.131 175.457 559.805 174.896 556.861 172.746L540.091 163.063L522.377 152.835C520.558 151.672 518.799 151.827 517.346 152.667L517.345 152.668ZM533.206 194.298L533.233 194.283L522.889 200.255V236.931L537.21 228.662L554.703 218.56V198.357V181.884L547.109 186.269V201.39C547.109 205.543 547.079 205.196 544.489 206.729L537.143 210.995C532.957 213.425 533.255 213.129 533.206 209.077V194.298V194.298ZM510.87 163.059L502.22 168.053L519.715 157.952L537.209 168.053L552.153 176.683L543.307 181.79L510.868 163.06L510.87 163.059ZM496.938 171.104L529.749 189.619L519.999 195.249L487.559 176.519L496.938 171.104V171.104ZM484.726 181.558L517.109 200.255V237.259L502.22 228.662L484.727 218.561V198.358V181.558H484.726Z" fill="#314218"/>
<path fill-rule="evenodd" clip-rule="evenodd" d="M612.266 152.668L630.27 163.064L646.841 172.632C650.323 174.631 650.646 174.692 650.646 179.475V198.358V217.809C650.646 222.786 650.136 222.244 647.014 223.984L630.27 233.652L615.1 242.411C609.477 245.658 610.065 245.44 605.823 243.066L589.52 233.652L573.318 224.297C568.645 221.599 569.263 220.908 569.145 216.682V198.358C569.145 192.07 569.145 185.783 569.145 179.495C569.48 175.458 569.804 174.896 572.75 172.746L589.52 163.063L607.233 152.835C609.051 151.672 610.812 151.828 612.265 152.667L612.266 152.668ZM596.405 194.298L596.378 194.283L606.721 200.255V236.931L592.401 228.662L574.907 218.56V198.357V181.884L582.502 186.27V201.39C582.502 205.543 582.533 205.196 585.12 206.729L592.468 210.995C596.655 213.425 596.355 213.129 596.405 209.077V194.298V194.298ZM618.741 163.059L627.391 168.053L609.896 157.952L592.401 168.053L577.458 176.683L586.303 181.79L618.742 163.06L618.741 163.059ZM632.673 171.104L599.862 189.619L609.612 195.249L642.051 176.519L632.673 171.104V171.104ZM644.884 181.558L612.502 200.255V237.259L627.39 228.662L644.883 218.561V198.358V181.558H644.884Z" fill="#314218"/>
<path fill-rule="evenodd" clip-rule="evenodd" d="M697.798 152.667L679.793 163.063L663.222 172.631C659.741 174.631 659.418 174.692 659.418 179.474V198.358V217.808C659.418 222.786 659.928 222.244 663.05 223.984L679.793 233.652L694.963 242.411C700.587 245.657 699.998 245.439 704.24 243.066L720.544 233.652L736.745 224.296C741.418 221.598 740.801 220.908 740.919 216.682V198.357C740.919 192.069 740.919 185.782 740.919 179.494C740.584 175.457 740.259 174.896 737.313 172.745L720.544 163.062L702.83 152.834C701.012 151.672 699.252 151.827 697.799 152.666L697.798 152.667ZM713.658 194.298L713.686 194.283L703.342 200.255V236.93L717.663 228.661L735.157 218.559V198.356V181.884L727.562 186.269V201.389C727.562 205.542 727.531 205.195 724.942 206.728L717.596 210.994C713.409 213.425 713.709 213.128 713.658 209.076V194.298V194.298ZM691.323 163.059L682.673 168.053L700.167 157.951L717.662 168.053L732.606 176.682L723.761 181.789L691.322 163.06L691.323 163.059ZM677.391 171.103L710.202 189.619L700.452 195.249L668.013 176.519L677.391 171.104V171.103ZM665.18 181.557L697.562 200.255V237.258L682.674 228.662L665.181 218.56V198.357V181.557H665.18Z" fill="#314218"/>
<path fill-rule="evenodd" clip-rule="evenodd" d="M792.72 152.667L810.724 163.063L827.295 172.631C830.777 174.631 831.1 174.691 831.1 179.474V198.357V217.808C831.1 222.786 830.591 222.244 827.468 223.984L810.724 233.651L795.554 242.411C789.931 245.658 790.519 245.439 786.277 243.066L769.974 233.651L753.772 224.296C749.099 221.598 749.717 220.908 749.599 216.682V198.357C749.599 192.07 749.599 185.782 749.599 179.494C749.934 175.457 750.26 174.896 753.205 172.745L769.974 163.062L787.687 152.835C789.506 151.672 791.266 151.827 792.719 152.666L792.72 152.667ZM776.859 194.298L776.832 194.283L787.176 200.255V236.93L772.855 228.661L755.362 218.559V198.356V181.884L762.956 186.269V201.389C762.956 205.542 762.987 205.195 765.575 206.728L772.922 210.994C777.109 213.425 776.809 213.128 776.859 209.076V194.298V194.298ZM799.195 163.059L807.845 168.053L790.35 157.951L772.855 168.053L757.912 176.682L766.757 181.79L799.196 163.059L799.195 163.059ZM813.127 171.103L780.316 189.618L790.066 195.249L822.505 176.519L813.127 171.104V171.103ZM825.339 181.557L792.957 200.255V237.258L807.844 228.662L825.338 218.56V198.357V181.557H825.339Z" fill="#314218"/>
<path fill-rule="evenodd" clip-rule="evenodd" d="M878.911 152.667L860.906 163.063L844.334 172.631C840.854 174.631 840.531 174.691 840.531 179.474V198.357V217.809C840.531 222.786 841.04 222.244 844.162 223.984L860.906 233.651L876.075 242.411C881.698 245.658 881.112 245.439 885.352 243.066L901.657 233.651L917.858 224.296C922.531 221.598 921.913 220.908 922.031 216.682V198.357C922.031 192.07 922.031 185.782 922.031 179.495C921.695 175.457 921.371 174.896 918.427 172.745L901.657 163.062L883.942 152.835C882.124 151.672 880.365 151.827 878.911 152.666L878.911 152.667ZM894.772 194.298L894.797 194.283L884.454 200.255V236.93L898.774 228.662L916.269 218.559V198.356V181.884L908.673 186.269V201.389C908.673 205.542 908.645 205.195 906.055 206.728L898.708 210.994C894.522 213.425 894.82 213.128 894.772 209.076V194.298V194.298ZM872.436 163.059L863.786 168.053L881.28 157.951L898.774 168.053L913.718 176.682L904.872 181.79L872.434 163.059L872.436 163.059ZM858.503 171.103L891.315 189.618L881.565 195.249L849.125 176.519L858.503 171.104V171.103ZM846.291 181.557L878.674 200.255V237.258L863.786 228.662L846.292 218.56V198.357V181.557H846.291Z" fill="#314218"/>
<path fill-rule="evenodd" clip-rule="evenodd" d="M973.831 152.667L991.836 163.063L1008.41 172.631C1011.89 174.631 1012.21 174.691 1012.21 179.475V198.357V217.809C1012.21 222.786 1011.7 222.244 1008.58 223.984L991.836 233.651L976.665 242.411C971.043 245.658 971.63 245.439 967.389 243.066L951.085 233.651L934.883 224.296C930.211 221.598 930.828 220.908 930.709 216.682V198.357C930.709 192.07 930.709 185.782 930.709 179.495C931.046 175.457 931.37 174.896 934.315 172.745L951.085 163.063L968.799 152.835C970.616 151.672 972.377 151.827 973.831 152.666L973.831 152.667ZM957.97 194.298L957.944 194.283L968.287 200.255V236.93L953.966 228.662L936.472 218.559V198.357V181.884L944.067 186.269V201.389C944.067 205.543 944.097 205.195 946.686 206.728L954.034 210.994C958.22 213.425 957.92 213.128 957.97 209.076V194.298V194.298ZM980.306 163.059L988.955 168.053L971.461 157.951L953.967 168.053L939.023 176.682L947.868 181.79L980.308 163.059L980.306 163.059ZM994.238 171.103L961.426 189.618L971.177 195.249L1003.62 176.519L994.238 171.104V171.103ZM1006.45 181.557L974.068 200.255V237.258L988.954 228.662L1006.45 218.56V198.357V181.557H1006.45Z" fill="#314218"/>
<path fill-rule="evenodd" clip-rule="evenodd" d="M1060.02 152.668L1042.02 163.064L1025.45 172.632C1021.97 174.631 1021.64 174.692 1021.64 179.475V198.358V217.809C1021.64 222.786 1022.15 222.244 1025.27 223.984L1042.02 233.652L1057.19 242.411C1062.81 245.658 1062.22 245.44 1066.46 243.066L1082.77 233.652L1098.97 224.297C1103.64 221.599 1103.02 220.908 1103.14 216.682V198.358C1103.14 192.07 1103.14 185.782 1103.14 179.495C1102.81 175.457 1102.48 174.896 1099.54 172.746L1082.77 163.063L1065.05 152.835C1063.24 151.672 1061.48 151.827 1060.02 152.667L1060.02 152.668ZM1075.88 194.298L1075.91 194.283L1065.57 200.255V236.931L1079.89 228.662L1097.38 218.56V198.357V181.884L1089.78 186.269V201.39C1089.78 205.543 1089.76 205.196 1087.17 206.729L1079.82 210.995C1075.63 213.425 1075.93 213.129 1075.88 209.077V194.298V194.298ZM1053.55 163.059L1044.9 168.053L1062.39 157.952L1079.89 168.053L1094.83 176.683L1085.98 181.79L1053.54 163.06L1053.55 163.059ZM1039.62 171.104L1072.43 189.619L1062.68 195.249L1030.24 176.519L1039.62 171.104V171.104ZM1027.4 181.558L1059.79 200.255V237.259L1044.9 228.662L1027.4 218.561V198.358V181.558H1027.4Z" fill="#314218"/>
<path fill-rule="evenodd" clip-rule="evenodd" d="M1154.94 152.668L1172.95 163.064L1189.52 172.632C1193 174.631 1193.32 174.692 1193.32 179.475V198.358V217.809C1193.32 222.786 1192.81 222.244 1189.69 223.984L1172.95 233.652L1157.78 242.411C1152.15 245.658 1152.74 245.44 1148.5 243.066L1132.2 233.652L1115.99 224.297C1111.32 221.599 1111.94 220.908 1111.82 216.682V198.358C1111.82 192.07 1111.82 185.782 1111.82 179.495C1112.16 175.457 1112.48 174.896 1115.43 172.746L1132.2 163.063L1149.91 152.835C1151.73 151.672 1153.49 151.827 1154.94 152.667L1154.94 152.668ZM1139.08 194.298L1139.06 194.283L1149.4 200.255V236.931L1135.08 228.662L1117.58 218.56V198.357V181.884L1125.18 186.269V201.39C1125.18 205.543 1125.21 205.196 1127.8 206.729L1135.15 210.995C1139.33 213.425 1139.03 213.129 1139.08 209.077V194.298V194.298ZM1161.42 163.059L1170.07 168.053L1152.57 157.952L1135.08 168.053L1120.14 176.683L1128.98 181.79L1161.42 163.06L1161.42 163.059ZM1175.35 171.104L1142.54 189.619L1152.29 195.249L1184.73 176.519L1175.35 171.104V171.104ZM1187.56 181.558L1155.18 200.255V237.259L1170.07 228.662L1187.56 218.561V198.358V181.558H1187.56Z" fill="#314218"/>
<path fill-rule="evenodd" clip-rule="evenodd" d="M1241.13 152.668L1223.13 163.064L1206.56 172.632C1203.08 174.631 1202.75 174.692 1202.75 179.475V198.358V217.809C1202.75 222.786 1203.26 222.244 1206.39 223.984L1223.13 233.652L1238.3 242.411C1243.92 245.658 1243.33 245.44 1247.58 243.066L1263.88 233.652L1280.08 224.297C1284.75 221.599 1284.14 220.908 1284.25 216.682V198.358C1284.25 192.07 1284.25 185.783 1284.25 179.495C1283.92 175.457 1283.59 174.896 1280.65 172.746L1263.88 163.063L1246.17 152.835C1244.35 151.672 1242.59 151.827 1241.13 152.667L1241.13 152.668ZM1256.99 194.298L1257.02 194.283L1246.68 200.255V236.931L1261 228.662L1278.49 218.56V198.357V181.884L1270.9 186.269V201.39C1270.9 205.543 1270.87 205.196 1268.28 206.729L1260.93 210.995C1256.74 213.425 1257.04 213.129 1256.99 209.077V194.298V194.298ZM1234.66 163.059L1226.01 168.053L1243.5 157.952L1261 168.053L1275.94 176.683L1267.1 181.79L1234.66 163.06L1234.66 163.059ZM1220.73 171.104L1253.54 189.619L1243.79 195.249L1211.35 176.519L1220.73 171.104V171.104ZM1208.52 181.558L1240.9 200.255V237.259L1226.01 228.662L1208.52 218.561V198.358V181.558H1208.52Z" fill="#314218"/>
<path fill-rule="evenodd" clip-rule="evenodd" d="M1336.05 152.668L1354.06 163.064L1370.63 172.632C1374.11 174.631 1374.43 174.692 1374.43 179.475V198.358V217.809C1374.43 222.786 1373.93 222.244 1370.8 223.984L1354.06 233.652L1338.89 242.411C1333.27 245.658 1333.85 245.44 1329.61 243.066L1313.31 233.652L1297.11 224.297C1292.43 221.599 1293.05 220.908 1292.93 216.682V198.358C1292.93 192.07 1292.93 185.783 1292.93 179.495C1293.27 175.458 1293.59 174.896 1296.54 172.746L1313.31 163.063L1331.02 152.835C1332.84 151.672 1334.6 151.828 1336.05 152.667L1336.05 152.668ZM1320.19 194.298L1320.17 194.283L1330.51 200.255V236.931L1316.19 228.662L1298.7 218.56V198.357V181.884L1306.29 186.27V201.39C1306.29 205.543 1306.32 205.196 1308.91 206.729L1316.26 210.995C1320.44 213.425 1320.14 213.129 1320.19 209.077V194.298V194.298ZM1342.53 163.059L1351.18 168.053L1333.68 157.952L1316.19 168.053L1301.25 176.683L1310.09 181.79L1342.53 163.06L1342.53 163.059ZM1356.46 171.104L1323.65 189.619L1333.4 195.249L1365.84 176.519L1356.46 171.104V171.104ZM1368.67 181.558L1336.29 200.255V237.259L1351.18 228.662L1368.67 218.561V198.358V181.558H1368.67Z" fill="#314218"/>
<path fill-rule="evenodd" clip-rule="evenodd" d="M1421.25 152.667L1403.25 163.063L1386.68 172.631C1383.2 174.631 1382.87 174.691 1382.87 179.474V198.357V217.809C1382.87 222.786 1383.38 222.244 1386.5 223.984L1403.25 233.651L1418.42 242.411C1424.04 245.658 1423.45 245.439 1427.69 243.066L1444 233.651L1460.2 224.296C1464.87 221.598 1464.26 220.908 1464.37 216.682V198.357C1464.37 192.07 1464.37 185.782 1464.37 179.495C1464.04 175.457 1463.71 174.896 1460.77 172.745L1444 163.062L1426.28 152.835C1424.47 151.672 1422.71 151.827 1421.25 152.666L1421.25 152.667ZM1437.11 194.298L1437.14 194.283L1426.8 200.255V236.93L1441.12 228.662L1458.61 218.559V198.356V181.884L1451.02 186.269V201.389C1451.02 205.542 1450.99 205.195 1448.4 206.728L1441.05 210.994C1436.86 213.425 1437.16 213.128 1437.11 209.076V194.298V194.298ZM1414.78 163.059L1406.13 168.053L1423.62 157.951L1441.12 168.053L1456.06 176.682L1447.22 181.79L1414.78 163.059L1414.78 163.059ZM1400.85 171.103L1433.66 189.618L1423.91 195.249L1391.47 176.519L1400.85 171.104V171.103ZM1388.63 181.557L1421.02 200.255V237.258L1406.13 228.662L1388.63 218.56V198.357V181.557H1388.63Z" fill="#314218"/>
<path fill-rule="evenodd" clip-rule="evenodd" d="M1516.17 152.667L1534.18 163.063L1550.75 172.631C1554.23 174.631 1554.55 174.691 1554.55 179.475V198.357V217.809C1554.55 222.786 1554.04 222.244 1550.92 223.984L1534.18 233.651L1519.01 242.411C1513.39 245.658 1513.97 245.439 1509.73 243.066L1493.43 233.651L1477.23 224.296C1472.55 221.598 1473.17 220.908 1473.05 216.682V198.357C1473.05 192.07 1473.05 185.782 1473.05 179.495C1473.39 175.457 1473.71 174.896 1476.66 172.745L1493.43 163.063L1511.14 152.835C1512.96 151.672 1514.72 151.827 1516.17 152.666L1516.17 152.667ZM1500.31 194.298L1500.29 194.283L1510.63 200.255V236.93L1496.31 228.662L1478.82 218.559V198.357V181.884L1486.41 186.269V201.389C1486.41 205.543 1486.44 205.195 1489.03 206.728L1496.38 210.994C1500.56 213.425 1500.26 213.128 1500.31 209.076V194.298V194.298ZM1522.65 163.059L1531.3 168.053L1513.8 157.951L1496.31 168.053L1481.37 176.682L1490.21 181.79L1522.65 163.059L1522.65 163.059ZM1536.58 171.103L1503.77 189.618L1513.52 195.249L1545.96 176.519L1536.58 171.104V171.103ZM1548.79 181.557L1516.41 200.255V237.258L1531.3 228.662L1548.79 218.56V198.357V181.557H1548.79Z" fill="#314218"/>
<path fill-rule="evenodd" clip-rule="evenodd" d="M1602.36 152.668L1584.36 163.064L1567.79 172.632C1564.31 174.631 1563.99 174.692 1563.99 179.475V198.358V217.809C1563.99 222.786 1564.49 222.244 1567.62 223.984L1584.36 233.652L1599.53 242.411C1605.15 245.658 1604.56 245.44 1608.81 243.066L1625.11 233.652L1641.31 224.297C1645.98 221.599 1645.37 220.908 1645.49 216.682V198.358C1645.49 192.07 1645.49 185.782 1645.49 179.495C1645.15 175.457 1644.83 174.896 1641.88 172.746L1625.11 163.063L1607.4 152.835C1605.58 151.672 1603.82 151.827 1602.36 152.667L1602.36 152.668ZM1618.22 194.298L1618.25 194.283L1607.91 200.255V236.931L1622.23 228.662L1639.72 218.56V198.357V181.884L1632.13 186.269V201.39C1632.13 205.543 1632.1 205.196 1629.51 206.729L1622.16 210.995C1617.97 213.425 1618.28 213.129 1618.22 209.077V194.298V194.298ZM1595.89 163.059L1587.24 168.053L1604.73 157.952L1622.23 168.053L1637.17 176.683L1628.33 181.79L1595.89 163.06L1595.89 163.059ZM1581.96 171.104L1614.77 189.619L1605.02 195.249L1572.58 176.519L1581.96 171.104V171.104ZM1569.75 181.558L1602.13 200.255V237.259L1587.24 228.662L1569.75 218.561V198.358V181.558H1569.75Z" fill="#314218"/>
<path fill-rule="evenodd" clip-rule="evenodd" d="M1697.29 152.668L1715.29 163.064L1731.86 172.632C1735.34 174.631 1735.67 174.692 1735.67 179.475V198.358V217.809C1735.67 222.786 1735.16 222.244 1732.03 223.984L1715.29 233.652L1700.12 242.411C1694.5 245.658 1695.08 245.44 1690.84 243.066L1674.54 233.652L1658.34 224.297C1653.67 221.599 1654.28 220.908 1654.17 216.682V198.358C1654.17 192.07 1654.17 185.782 1654.17 179.495C1654.5 175.457 1654.83 174.896 1657.77 172.746L1674.54 163.063L1692.25 152.835C1694.07 151.672 1695.83 151.827 1697.29 152.667L1697.29 152.668ZM1681.42 194.298L1681.4 194.283L1691.74 200.255V236.931L1677.42 228.662L1659.93 218.56V198.357V181.884L1667.52 186.269V201.39C1667.52 205.543 1667.55 205.196 1670.14 206.729L1677.49 210.995C1681.67 213.425 1681.38 213.129 1681.42 209.077V194.298V194.298ZM1703.76 163.059L1712.41 168.053L1694.92 157.952L1677.42 168.053L1662.48 176.683L1671.32 181.79L1703.76 163.06L1703.76 163.059ZM1717.69 171.104L1684.88 189.619L1694.63 195.249L1727.07 176.519L1717.69 171.104V171.104ZM1729.91 181.558L1697.52 200.255V237.259L1712.41 228.662L1729.9 218.561V198.358V181.558H1729.91Z" fill="#314218"/>
<path fill-rule="evenodd" clip-rule="evenodd" d="M1783.48 152.668L1765.47 163.064L1748.9 172.632C1745.42 174.631 1745.1 174.692 1745.1 179.475V198.358V217.809C1745.1 222.786 1745.6 222.244 1748.73 223.984L1765.47 233.652L1780.64 242.411C1786.26 245.658 1785.68 245.44 1789.92 243.066L1806.22 233.652L1822.42 224.297C1827.1 221.599 1826.48 220.908 1826.6 216.682V198.358C1826.6 192.07 1826.6 185.783 1826.6 179.495C1826.26 175.457 1825.94 174.896 1822.99 172.746L1806.22 163.063L1788.51 152.835C1786.69 151.672 1784.93 151.827 1783.48 152.667L1783.48 152.668ZM1799.34 194.298L1799.36 194.283L1789.02 200.255V236.931L1803.34 228.662L1820.83 218.56V198.357V181.884L1813.24 186.269V201.39C1813.24 205.543 1813.21 205.196 1810.62 206.729L1803.27 210.995C1799.09 213.425 1799.39 213.129 1799.34 209.077V194.298V194.298ZM1777 163.059L1768.35 168.053L1785.85 157.952L1803.34 168.053L1818.28 176.683L1809.44 181.79L1777 163.06L1777 163.059ZM1763.07 171.104L1795.88 189.619L1786.13 195.249L1753.69 176.519L1763.07 171.104V171.104ZM1750.86 181.558L1783.24 200.255V237.259L1768.35 228.662L1750.86 218.561V198.358V181.558H1750.86Z" fill="#314218"/>
<path fill-rule="evenodd" clip-rule="evenodd" d="M18.7675 322.332L0.76288 311.936L-15.8081 302.368C-19.2887 300.369 -19.6111 300.308 -19.6111 295.525V276.642V257.191C-19.6111 252.214 -19.1028 252.755 -15.9798 251.016L0.76288 241.348L15.9336 232.588C21.5564 229.342 20.9685 229.56 25.2099 231.933L41.5141 241.348L57.7151 250.703C62.3879 253.401 61.7706 254.092 61.8893 258.317V276.642C61.8893 282.93 61.8893 289.217 61.8893 295.505C61.5533 299.542 61.229 300.104 58.2835 302.254L41.5141 311.937L23.8005 322.165C21.9825 323.328 20.2213 323.172 18.7682 322.333L18.7675 322.332ZM34.6286 280.701L34.6553 280.716L24.3121 274.744V238.069L38.6325 246.338L56.1262 256.44V276.643V293.116L48.5314 288.73V273.61C48.5314 269.457 48.5014 269.804 45.9128 268.271L38.5659 264.005C34.3786 261.575 34.6788 261.871 34.6286 265.923V280.702V280.701ZM12.2924 311.941L3.6438 306.946L21.1375 317.048L38.6318 306.946L53.5761 298.317L44.7304 293.21L12.2911 311.94L12.2924 311.941ZM-1.63908 303.896L31.1721 285.381L21.4213 279.751L-11.0179 298.481L-1.63908 303.896V303.896ZM-13.8505 293.442L18.5313 274.744V237.741L3.64446 246.337L-13.8499 256.439V276.642V293.442H-13.8505Z" fill="#314218"/>
<path fill-rule="evenodd" clip-rule="evenodd" d="M113.688 322.332L131.694 311.936L148.265 302.368C151.745 300.369 152.068 300.308 152.068 295.525V276.642V257.191C152.068 252.214 151.559 252.755 148.436 251.016L131.694 241.348L116.524 232.589C110.9 229.342 111.487 229.56 107.247 231.933L90.9426 241.348L74.7415 250.703C70.0688 253.401 70.6854 254.092 70.5686 258.317V276.642C70.5686 282.93 70.5686 289.217 70.5686 295.505C70.9034 299.542 71.2283 300.104 74.1725 302.254L90.9426 311.937L108.656 322.165C110.475 323.328 112.235 323.172 113.688 322.333L113.688 322.332ZM97.8274 280.702L97.8013 280.717L108.145 274.745V238.069L93.8248 246.338L76.3304 256.44V276.643V293.116L83.9259 288.73V273.61C83.9259 269.457 83.9546 269.804 86.5445 268.271L93.8907 264.005C98.0773 261.575 97.7791 261.871 97.8274 265.923V280.702V280.702ZM120.164 311.941L128.813 306.947L111.319 317.048L93.8254 306.947L78.8805 298.317L87.7269 293.21L120.165 311.94L120.164 311.941ZM134.096 303.896L101.285 285.381L111.035 279.751L143.474 298.481L134.096 303.896V303.896ZM146.307 293.442L113.925 274.745V237.741L128.813 246.338L146.307 256.439V276.642V293.442H146.307Z" fill="#314218"/>
<path fill-rule="evenodd" clip-rule="evenodd" d="M199.88 322.332L181.875 311.936L165.304 302.368C161.823 300.369 161.5 300.308 161.5 295.525V276.642V257.191C161.5 252.214 162.008 252.756 165.131 251.016L181.875 241.348L197.045 232.588C202.668 229.342 202.08 229.56 206.322 231.934L222.625 241.348L238.827 250.703C243.5 253.401 242.882 254.092 243.001 258.318V276.642C243.001 282.93 243.001 289.217 243.001 295.505C242.665 299.543 242.34 300.104 239.395 302.254L222.625 311.937L204.912 322.165C203.093 323.328 201.333 323.173 199.881 322.333L199.88 322.332ZM215.74 280.702L215.767 280.717L205.423 274.745V238.069L219.744 246.338L237.237 256.44V276.643V293.116L229.643 288.73V273.61C229.643 269.457 229.613 269.804 227.023 268.271L219.677 264.005C215.491 261.575 215.79 261.871 215.74 265.923V280.702V280.702ZM193.404 311.941L184.754 306.947L202.249 317.048L219.744 306.947L234.687 298.317L225.842 293.21L193.403 311.94L193.404 311.941ZM179.473 303.896L212.283 285.381L202.533 279.751L170.095 298.481L179.473 303.896V303.896ZM167.261 293.442L199.643 274.745V237.741L184.755 246.337L167.261 256.439V276.642V293.442H167.261Z" fill="#314218"/>
<path fill-rule="evenodd" clip-rule="evenodd" d="M294.801 322.332L312.805 311.936L329.376 302.368C332.858 300.369 333.18 300.308 333.18 295.525V276.642V257.191C333.18 252.214 332.671 252.756 329.549 251.016L312.805 241.348L297.635 232.588C292.012 229.342 292.6 229.56 288.358 231.934L272.055 241.348L255.853 250.703C251.18 253.401 251.798 254.092 251.68 258.318V276.642C251.68 282.93 251.68 289.217 251.68 295.505C252.015 299.543 252.339 300.104 255.286 302.254L272.055 311.937L289.769 322.165C291.586 323.328 293.347 323.173 294.8 322.333L294.801 322.332ZM278.94 280.702L278.913 280.717L289.256 274.745V238.069L274.936 246.338L257.442 256.44V276.643V293.116L265.037 288.73V273.61C265.037 269.457 265.068 269.804 267.656 268.271L275.003 264.005C279.19 261.575 278.89 261.871 278.94 265.923V280.702V280.702ZM301.276 311.941L309.926 306.947L292.432 317.048L274.937 306.947L259.993 298.317L268.838 293.21L301.277 311.94L301.276 311.941ZM315.208 303.896L282.397 285.381L292.147 279.751L324.586 298.481L315.208 303.896V303.896ZM327.419 293.442L295.037 274.745V237.741L309.925 246.337L327.418 256.439V276.642V293.442H327.419Z" fill="#314218"/>
<path fill-rule="evenodd" clip-rule="evenodd" d="M380.992 322.332L362.987 311.936L346.416 302.368C342.935 300.369 342.612 300.308 342.612 295.525V276.642V257.191C342.612 252.214 343.121 252.756 346.243 251.016L362.987 241.348L378.157 232.588C383.779 229.342 383.193 229.56 387.433 231.934L403.737 241.348L419.939 250.703C424.612 253.402 423.993 254.092 424.112 258.318V276.642C424.112 282.93 424.112 289.218 424.112 295.505C423.776 299.543 423.452 300.104 420.507 302.254L403.737 311.937L386.023 322.165C384.205 323.328 382.444 323.173 380.992 322.333L380.992 322.332ZM396.852 280.702L396.878 280.717L386.536 274.745V238.069L400.855 246.338L418.35 256.44V276.643V293.116L410.754 288.73V273.61C410.754 269.457 410.726 269.804 408.136 268.271L400.788 264.005C396.603 261.575 396.901 261.872 396.852 265.924V280.702V280.702ZM374.515 311.941L365.867 306.947L383.361 317.048L400.855 306.947L415.799 298.317L406.953 293.21L374.514 311.94L374.515 311.941ZM360.584 303.896L393.396 285.381L383.644 279.751L351.206 298.481L360.584 303.896V303.896ZM348.372 293.442L380.755 274.745V237.741L365.867 246.337L348.373 256.439V276.642V293.442H348.372Z" fill="#314218"/>
<path fill-rule="evenodd" clip-rule="evenodd" d="M475.911 322.333L493.917 311.936L510.487 302.369C513.968 300.369 514.291 300.308 514.291 295.525V276.642V257.191C514.291 252.214 513.782 252.756 510.661 251.016L493.917 241.348L478.746 232.588C473.124 229.342 473.711 229.56 469.47 231.934L453.167 241.348L436.964 250.703C432.291 253.402 432.91 254.092 432.792 258.318V276.643C432.792 282.93 432.792 289.218 432.792 295.505C433.127 299.543 433.451 300.104 436.396 302.254L453.167 311.937L470.88 322.165C472.698 323.328 474.459 323.173 475.911 322.334L475.911 322.333ZM460.051 280.702L460.025 280.717L470.367 274.745V238.07L456.048 246.338L438.553 256.44V276.643V293.116L446.149 288.73V273.61C446.149 269.457 446.178 269.804 448.768 268.271L456.115 264.005C460.3 261.575 460.002 261.872 460.051 265.924V280.702V280.702ZM482.388 311.941L491.036 306.947L473.542 317.049L456.048 306.947L441.105 298.317L449.95 293.21L482.389 311.94L482.388 311.941ZM496.319 303.896L463.507 285.381L473.259 279.751L505.697 298.481L496.319 303.896V303.896ZM508.531 293.442L476.148 274.745V237.741L491.036 246.337L508.531 256.439V276.642V293.442H508.531Z" fill="#314218"/>
<path fill-rule="evenodd" clip-rule="evenodd" d="M562.102 322.332L544.098 311.936L527.527 302.368C524.046 300.368 523.724 300.308 523.724 295.525V276.642V257.19C523.724 252.213 524.232 252.755 527.355 251.015L544.098 241.348L559.268 232.588C564.891 229.341 564.303 229.56 568.545 231.933L584.848 241.348L601.05 250.703C605.723 253.401 605.105 254.091 605.224 258.317V276.642C605.224 282.929 605.224 289.217 605.224 295.505C604.888 299.542 604.564 300.103 601.618 302.254L584.848 311.937L567.135 322.164C565.317 323.327 563.556 323.172 562.103 322.333L562.102 322.332ZM577.963 280.701L577.99 280.716L567.647 274.744V238.069L581.967 246.337L599.462 256.44V276.643V293.115L591.866 288.73V273.61C591.866 269.457 591.836 269.804 589.248 268.271L581.901 264.005C577.713 261.574 578.013 261.871 577.963 265.923V280.701V280.701ZM555.627 311.94L546.979 306.946L564.472 317.048L581.967 306.946L596.911 298.317L588.065 293.209L555.626 311.94L555.627 311.94ZM541.696 303.896L574.507 285.381L564.756 279.75L532.317 298.48L541.696 303.895V303.896ZM529.484 293.442L561.866 274.744V237.741L546.979 246.337L529.485 256.439V276.642V293.442H529.484Z" fill="#314218"/>
<path fill-rule="evenodd" clip-rule="evenodd" d="M657.024 322.332L675.028 311.936L691.6 302.368C695.08 300.368 695.404 300.308 695.404 295.525V276.642V257.19C695.404 252.213 694.895 252.755 691.772 251.015L675.028 241.348L659.859 232.588C654.236 229.341 654.823 229.56 650.583 231.933L634.278 241.348L618.077 250.703C613.403 253.401 614.021 254.091 613.903 258.317V276.642C613.903 282.929 613.903 289.217 613.903 295.505C614.239 299.542 614.564 300.103 617.508 302.254L634.278 311.937L651.992 322.164C653.81 323.327 655.57 323.172 657.023 322.333L657.024 322.332ZM641.163 280.701L641.136 280.716L651.481 274.744V238.069L637.16 246.338L619.666 256.44V276.643V293.115L627.261 288.73V273.61C627.261 269.457 627.29 269.804 629.88 268.271L637.226 264.005C641.413 261.574 641.114 261.871 641.163 265.923V280.701V280.701ZM663.499 311.94L672.149 306.946L654.654 317.048L637.161 306.946L622.216 298.317L631.062 293.209L663.5 311.94L663.499 311.94ZM677.43 303.896L644.62 285.381L654.37 279.75L686.809 298.48L677.43 303.895V303.896ZM689.643 293.442L657.26 274.744V237.741L672.148 246.337L689.642 256.439V276.642V293.442H689.643Z" fill="#314218"/>
<path fill-rule="evenodd" clip-rule="evenodd" d="M742.556 322.332L724.552 311.936L707.981 302.368C704.5 300.369 704.177 300.308 704.177 295.525V276.642V257.191C704.177 252.214 704.686 252.755 707.808 251.016L724.552 241.348L739.723 232.588C745.344 229.342 744.757 229.56 748.998 231.933L765.302 241.348L781.504 250.703C786.177 253.401 785.559 254.092 785.677 258.317V276.642C785.677 282.93 785.677 289.217 785.677 295.505C785.341 299.542 785.017 300.104 782.072 302.254L765.302 311.937L747.588 322.165C745.771 323.328 744.01 323.172 742.556 322.333L742.556 322.332ZM758.417 280.701L758.444 280.716L748.101 274.744V238.069L762.421 246.338L779.915 256.44V276.643V293.116L772.32 288.73V273.61C772.32 269.457 772.29 269.804 769.701 268.271L762.354 264.005C758.167 261.575 758.466 261.871 758.417 265.923V280.702V280.701ZM736.081 311.941L727.432 306.946L744.926 317.048L762.42 306.946L777.364 298.317L768.519 293.21L736.079 311.94L736.081 311.941ZM722.15 303.896L754.961 285.381L745.21 279.751L712.77 298.481L722.15 303.896V303.896ZM709.937 293.442L742.32 274.744V237.741L727.433 246.337L709.938 256.439V276.642V293.442H709.937Z" fill="#314218"/>
<path fill-rule="evenodd" clip-rule="evenodd" d="M837.477 322.332L855.482 311.936L872.053 302.368C875.534 300.369 875.857 300.308 875.857 295.525V276.642V257.191C875.857 252.214 875.348 252.755 872.226 251.016L855.482 241.348L840.313 232.589C834.69 229.342 835.276 229.56 831.036 231.933L814.732 241.348L798.53 250.703C793.857 253.401 794.476 254.092 794.357 258.317V276.642C794.357 282.93 794.357 289.217 794.357 295.505C794.693 299.542 795.017 300.104 797.962 302.254L814.732 311.937L832.446 322.165C834.264 323.328 836.023 323.172 837.477 322.333L837.477 322.332ZM821.616 280.702L821.591 280.717L831.934 274.745V238.069L817.614 246.338L800.119 256.44V276.643V293.116L807.715 288.73V273.61C807.715 269.457 807.743 269.804 810.333 268.271L817.681 264.005C821.866 261.575 821.568 261.871 821.616 265.923V280.702V280.702ZM843.952 311.941L852.602 306.947L835.108 317.048L817.614 306.947L802.67 298.317L811.516 293.21L843.954 311.94L843.952 311.941ZM857.885 303.896L825.073 285.381L834.825 279.751L867.263 298.481L857.885 303.896V303.896ZM870.097 293.442L837.713 274.745V237.741L852.602 246.338L870.096 256.439V276.642V293.442H870.097Z" fill="#314218"/>
<path fill-rule="evenodd" clip-rule="evenodd" d="M923.668 322.332L905.663 311.936L889.092 302.368C885.611 300.369 885.288 300.308 885.288 295.525V276.642V257.191C885.288 252.214 885.797 252.756 888.92 251.016L905.663 241.348L920.834 232.588C926.457 229.342 925.868 229.56 930.11 231.934L946.415 241.348L962.616 250.703C967.288 253.401 966.671 254.092 966.789 258.318V276.642C966.789 282.93 966.789 289.217 966.789 295.505C966.454 299.543 966.129 300.104 963.183 302.254L946.415 311.937L928.7 322.165C926.882 323.328 925.122 323.173 923.669 322.333L923.668 322.332ZM939.528 280.702L939.556 280.717L929.213 274.745V238.069L943.533 246.338L961.026 256.44V276.643V293.116L953.432 288.73V273.61C953.432 269.457 953.401 269.804 950.813 268.271L943.466 264.005C939.279 261.575 939.579 261.871 939.528 265.923V280.702V280.702ZM917.193 311.941L908.543 306.947L926.037 317.048L943.532 306.947L958.476 298.317L949.631 293.21L917.192 311.94L917.193 311.941ZM903.261 303.896L936.072 285.381L926.322 279.751L893.883 298.481L903.261 303.896V303.896ZM891.05 293.442L923.431 274.745V237.741L908.544 246.337L891.051 256.439V276.642V293.442H891.05Z" fill="#314218"/>
<path fill-rule="evenodd" clip-rule="evenodd" d="M1018.59 322.332L1036.59 311.936L1053.16 302.368C1056.65 300.369 1056.97 300.308 1056.97 295.525V276.642V257.191C1056.97 252.214 1056.46 252.756 1053.34 251.016L1036.59 241.348L1021.42 232.588C1015.8 229.342 1016.39 229.56 1012.15 231.934L995.842 241.348L979.641 250.703C974.969 253.401 975.586 254.092 975.468 258.318V276.642C975.468 282.93 975.468 289.217 975.468 295.505C975.803 299.543 976.127 300.104 979.073 302.254L995.842 311.937L1013.56 322.165C1015.38 323.328 1017.14 323.173 1018.59 322.333L1018.59 322.332ZM1002.73 280.702L1002.7 280.717L1013.05 274.745V238.069L998.724 246.338L981.23 256.44V276.643V293.116L988.825 288.73V273.61C988.825 269.457 988.855 269.804 991.444 268.271L998.791 264.005C1002.98 261.575 1002.68 261.871 1002.73 265.923V280.702V280.702ZM1025.06 311.941L1033.71 306.947L1016.22 317.048L998.725 306.947L983.781 298.317L992.626 293.21L1025.07 311.94L1025.06 311.941ZM1039 303.896L1006.19 285.381L1015.94 279.751L1048.37 298.481L1039 303.896V303.896ZM1051.21 293.442L1018.83 274.745V237.741L1033.71 246.337L1051.21 256.439V276.642V293.442H1051.21Z" fill="#314218"/>
<path fill-rule="evenodd" clip-rule="evenodd" d="M1104.78 322.332L1086.78 311.936L1070.2 302.368C1066.72 300.369 1066.4 300.308 1066.4 295.525V276.642V257.191C1066.4 252.214 1066.91 252.756 1070.03 251.016L1086.78 241.348L1101.94 232.588C1107.57 229.342 1106.98 229.56 1111.22 231.934L1127.53 241.348L1143.73 250.703C1148.4 253.402 1147.78 254.092 1147.9 258.318V276.642C1147.9 282.93 1147.9 289.218 1147.9 295.505C1147.56 299.543 1147.24 300.104 1144.3 302.254L1127.53 311.937L1109.81 322.165C1107.99 323.328 1106.23 323.173 1104.78 322.333L1104.78 322.332ZM1120.64 280.702L1120.67 280.717L1110.32 274.745V238.069L1124.64 246.338L1142.14 256.44V276.643V293.116L1134.54 288.73V273.61C1134.54 269.457 1134.51 269.804 1131.92 268.271L1124.58 264.005C1120.39 261.575 1120.69 261.872 1120.64 265.924V280.702V280.702ZM1098.3 311.941L1089.65 306.947L1107.15 317.048L1124.64 306.947L1139.59 298.317L1130.74 293.21L1098.3 311.94L1098.3 311.941ZM1084.37 303.896L1117.18 285.381L1107.43 279.751L1074.99 298.481L1084.37 303.896V303.896ZM1072.16 293.442L1104.54 274.745V237.741L1089.66 246.337L1072.16 256.439V276.642V293.442H1072.16Z" fill="#314218"/>
<path fill-rule="evenodd" clip-rule="evenodd" d="M1199.7 322.333L1217.71 311.936L1234.28 302.369C1237.76 300.369 1238.08 300.308 1238.08 295.525V276.642V257.191C1238.08 252.214 1237.57 252.756 1234.45 251.016L1217.71 241.348L1202.54 232.588C1196.91 229.342 1197.5 229.56 1193.26 231.934L1176.96 241.348L1160.75 250.703C1156.08 253.402 1156.7 254.092 1156.58 258.318V276.643C1156.58 282.93 1156.58 289.218 1156.58 295.505C1156.92 299.543 1157.24 300.104 1160.19 302.254L1176.96 311.937L1194.67 322.165C1196.49 323.328 1198.25 323.173 1199.7 322.334L1199.7 322.333ZM1183.84 280.702L1183.81 280.717L1194.16 274.745V238.07L1179.84 246.338L1162.34 256.44V276.643V293.116L1169.94 288.73V273.61C1169.94 269.457 1169.97 269.804 1172.56 268.271L1179.9 264.005C1184.09 261.575 1183.79 261.872 1183.84 265.924V280.702V280.702ZM1206.18 311.941L1214.83 306.947L1197.33 317.049L1179.84 306.947L1164.89 298.317L1173.74 293.21L1206.18 311.94L1206.18 311.941ZM1220.11 303.896L1187.3 285.381L1197.05 279.751L1229.49 298.481L1220.11 303.896V303.896ZM1232.32 293.442L1199.94 274.745V237.741L1214.82 246.337L1232.32 256.439V276.642V293.442H1232.32Z" fill="#314218"/>
<path fill-rule="evenodd" clip-rule="evenodd" d="M1285.89 322.332L1267.89 311.936L1251.32 302.368C1247.84 300.368 1247.51 300.308 1247.51 295.525V276.642V257.19C1247.51 252.213 1248.02 252.755 1251.14 251.015L1267.89 241.348L1283.06 232.588C1288.68 229.341 1288.09 229.56 1292.33 231.933L1308.64 241.348L1324.84 250.703C1329.51 253.401 1328.89 254.091 1329.01 258.317V276.642C1329.01 282.929 1329.01 289.217 1329.01 295.505C1328.68 299.542 1328.35 300.103 1325.41 302.254L1308.64 311.937L1290.92 322.164C1289.11 323.327 1287.35 323.172 1285.89 322.333L1285.89 322.332ZM1301.75 280.701L1301.78 280.716L1291.44 274.744V238.069L1305.76 246.337L1323.25 256.44V276.643V293.115L1315.66 288.73V273.61C1315.66 269.457 1315.63 269.804 1313.04 268.271L1305.69 264.005C1301.5 261.574 1301.8 261.871 1301.75 265.923V280.701V280.701ZM1279.42 311.94L1270.77 306.946L1288.26 317.048L1305.76 306.946L1320.7 298.317L1311.85 293.209L1279.41 311.94L1279.42 311.94ZM1265.49 303.896L1298.3 285.381L1288.55 279.75L1256.11 298.48L1265.49 303.895V303.896ZM1253.27 293.442L1285.66 274.744V237.741L1270.77 246.337L1253.27 256.439V276.642V293.442H1253.27Z" fill="#314218"/>
<path fill-rule="evenodd" clip-rule="evenodd" d="M1380.81 322.332L1398.82 311.936L1415.39 302.368C1418.87 300.368 1419.19 300.308 1419.19 295.525V276.642V257.19C1419.19 252.213 1418.68 252.755 1415.56 251.015L1398.82 241.348L1383.65 232.588C1378.02 229.341 1378.61 229.56 1374.37 231.933L1358.07 241.348L1341.86 250.703C1337.19 253.401 1337.81 254.091 1337.69 258.317V276.642C1337.69 282.929 1337.69 289.217 1337.69 295.505C1338.03 299.542 1338.35 300.103 1341.3 302.254L1358.07 311.937L1375.78 322.164C1377.6 323.327 1379.36 323.172 1380.81 322.333L1380.81 322.332ZM1364.95 280.701L1364.93 280.716L1375.27 274.744V238.069L1360.95 246.338L1343.45 256.44V276.643V293.115L1351.05 288.73V273.61C1351.05 269.457 1351.08 269.804 1353.67 268.271L1361.02 264.005C1365.2 261.574 1364.9 261.871 1364.95 265.923V280.701V280.701ZM1387.29 311.94L1395.94 306.946L1378.44 317.048L1360.95 306.946L1346.01 298.317L1354.85 293.209L1387.29 311.94L1387.29 311.94ZM1401.22 303.896L1368.41 285.381L1378.16 279.75L1410.6 298.48L1401.22 303.895V303.896ZM1413.43 293.442L1381.05 274.744V237.741L1395.94 246.337L1413.43 256.439V276.642V293.442H1413.43Z" fill="#314218"/>
<path fill-rule="evenodd" clip-rule="evenodd" d="M1466.01 322.332L1448.01 311.936L1431.44 302.368C1427.96 300.369 1427.63 300.308 1427.63 295.525V276.642V257.191C1427.63 252.214 1428.14 252.756 1431.26 251.016L1448.01 241.348L1463.18 232.588C1468.8 229.342 1468.21 229.56 1472.45 231.934L1488.76 241.348L1504.96 250.703C1509.63 253.401 1509.01 254.092 1509.13 258.318V276.642C1509.13 282.93 1509.13 289.217 1509.13 295.505C1508.8 299.543 1508.47 300.104 1505.53 302.254L1488.76 311.937L1471.04 322.165C1469.23 323.328 1467.47 323.173 1466.01 322.333L1466.01 322.332ZM1481.87 280.702L1481.9 280.717L1471.56 274.745V238.069L1485.88 246.338L1503.37 256.44V276.643V293.116L1495.78 288.73V273.61C1495.78 269.457 1495.75 269.804 1493.16 268.271L1485.81 264.005C1481.62 261.575 1481.92 261.871 1481.87 265.923V280.702V280.702ZM1459.54 311.941L1450.89 306.947L1468.38 317.048L1485.88 306.947L1500.82 298.317L1491.97 293.21L1459.53 311.94L1459.54 311.941ZM1445.6 303.896L1478.42 285.381L1468.67 279.751L1436.23 298.481L1445.6 303.896V303.896ZM1433.39 293.442L1465.77 274.745V237.741L1450.89 246.337L1433.39 256.439V276.642V293.442H1433.39Z" fill="#314218"/>
<path fill-rule="evenodd" clip-rule="evenodd" d="M1560.93 322.332L1578.94 311.936L1595.51 302.368C1598.99 300.369 1599.31 300.308 1599.31 295.525V276.642V257.191C1599.31 252.214 1598.8 252.756 1595.68 251.016L1578.94 241.348L1563.77 232.588C1558.14 229.342 1558.73 229.56 1554.49 231.934L1538.19 241.348L1521.98 250.703C1517.31 253.401 1517.93 254.092 1517.81 258.318V276.642C1517.81 282.93 1517.81 289.217 1517.81 295.505C1518.15 299.543 1518.47 300.104 1521.42 302.254L1538.19 311.937L1555.9 322.165C1557.72 323.328 1559.48 323.173 1560.93 322.333L1560.93 322.332ZM1545.07 280.702L1545.04 280.717L1555.39 274.745V238.069L1541.07 246.338L1523.57 256.44V276.643V293.116L1531.17 288.73V273.61C1531.17 269.457 1531.2 269.804 1533.79 268.271L1541.13 264.005C1545.32 261.575 1545.02 261.871 1545.07 265.923V280.702V280.702ZM1567.41 311.941L1576.06 306.947L1558.56 317.048L1541.07 306.947L1526.12 298.317L1534.97 293.21L1567.41 311.94L1567.41 311.941ZM1581.34 303.896L1548.53 285.381L1558.28 279.751L1590.72 298.481L1581.34 303.896V303.896ZM1593.55 293.442L1561.17 274.745V237.741L1576.06 246.337L1593.55 256.439V276.642V293.442H1593.55Z" fill="#314218"/>
<path fill-rule="evenodd" clip-rule="evenodd" d="M1647.12 322.332L1629.12 311.936L1612.55 302.368C1609.07 300.369 1608.74 300.308 1608.74 295.525V276.642V257.191C1608.74 252.214 1609.25 252.756 1612.37 251.016L1629.12 241.348L1644.29 232.588C1649.91 229.342 1649.32 229.56 1653.56 231.934L1669.87 241.348L1686.07 250.703C1690.74 253.402 1690.12 254.092 1690.24 258.318V276.642C1690.24 282.93 1690.24 289.218 1690.24 295.505C1689.91 299.543 1689.58 300.104 1686.64 302.254L1669.87 311.937L1652.15 322.165C1650.34 323.328 1648.58 323.173 1647.12 322.333L1647.12 322.332ZM1662.98 280.702L1663.01 280.717L1652.67 274.745V238.069L1666.99 246.338L1684.48 256.44V276.643V293.116L1676.89 288.73V273.61C1676.89 269.457 1676.86 269.804 1674.27 268.271L1666.92 264.005C1662.73 261.575 1663.03 261.872 1662.98 265.924V280.702V280.702ZM1640.65 311.941L1632 306.947L1649.49 317.048L1666.99 306.947L1681.93 298.317L1673.08 293.21L1640.65 311.94L1640.65 311.941ZM1626.72 303.896L1659.53 285.381L1649.78 279.751L1617.34 298.481L1626.72 303.896V303.896ZM1614.5 293.442L1646.89 274.745V237.741L1632 246.337L1614.5 256.439V276.642V293.442H1614.5Z" fill="#314218"/>
<path fill-rule="evenodd" clip-rule="evenodd" d="M1742.04 322.333L1760.05 311.936L1776.62 302.369C1780.1 300.369 1780.42 300.308 1780.42 295.525V276.642V257.191C1780.42 252.214 1779.91 252.756 1776.79 251.016L1760.05 241.348L1744.88 232.588C1739.26 229.342 1739.84 229.56 1735.6 231.934L1719.3 241.348L1703.1 250.703C1698.42 253.402 1699.04 254.092 1698.92 258.318V276.643C1698.92 282.93 1698.92 289.218 1698.92 295.505C1699.26 299.543 1699.58 300.104 1702.53 302.254L1719.3 311.937L1737.01 322.165C1738.83 323.328 1740.59 323.173 1742.04 322.334L1742.04 322.333ZM1726.18 280.702L1726.16 280.717L1736.5 274.745V238.07L1722.18 246.338L1704.69 256.44V276.643V293.116L1712.28 288.73V273.61C1712.28 269.457 1712.31 269.804 1714.9 268.271L1722.25 264.005C1726.43 261.575 1726.13 261.872 1726.18 265.924V280.702V280.702ZM1748.52 311.941L1757.17 306.947L1739.67 317.049L1722.18 306.947L1707.24 298.317L1716.08 293.21L1748.52 311.94L1748.52 311.941ZM1762.45 303.896L1729.64 285.381L1739.39 279.751L1771.83 298.481L1762.45 303.896V303.896ZM1774.66 293.442L1742.28 274.745V237.741L1757.17 246.337L1774.66 256.439V276.642V293.442H1774.66Z" fill="#314218"/>
<path fill-rule="evenodd" clip-rule="evenodd" d="M1828.23 322.332L1810.23 311.936L1793.66 302.368C1790.18 300.368 1789.85 300.308 1789.85 295.525V276.642V257.19C1789.85 252.213 1790.36 252.755 1793.49 251.015L1810.23 241.348L1825.4 232.588C1831.02 229.341 1830.43 229.56 1834.68 231.933L1850.98 241.348L1867.18 250.703C1871.85 253.401 1871.24 254.091 1871.35 258.317V276.642C1871.35 282.929 1871.35 289.217 1871.35 295.505C1871.02 299.542 1870.69 300.103 1867.75 302.254L1850.98 311.937L1833.27 322.164C1831.45 323.327 1829.69 323.172 1828.23 322.333L1828.23 322.332ZM1844.09 280.701L1844.12 280.716L1833.78 274.744V238.069L1848.1 246.337L1865.59 256.44V276.643V293.115L1858 288.73V273.61C1858 269.457 1857.97 269.804 1855.38 268.271L1848.03 264.005C1843.84 261.574 1844.14 261.871 1844.09 265.923V280.701V280.701ZM1821.76 311.94L1813.11 306.946L1830.6 317.048L1848.1 306.946L1863.04 298.317L1854.2 293.209L1821.76 311.94L1821.76 311.94ZM1807.83 303.896L1840.64 285.381L1830.89 279.75L1798.45 298.48L1807.83 303.895V303.896ZM1795.61 293.442L1828 274.744V237.741L1813.11 246.337L1795.62 256.439V276.642V293.442H1795.61Z" fill="#314218"/>
<path fill-rule="evenodd" clip-rule="evenodd" d="M1920 230.25C1919.19 230.472 1918.28 231.055 1916.71 231.934L1900.41 241.348L1884.21 250.703C1879.54 253.401 1880.15 254.091 1880.04 258.317V276.642C1880.04 282.93 1880.04 289.217 1880.04 295.505C1880.37 299.542 1880.7 300.104 1883.64 302.254L1900.41 311.936L1918.12 322.165C1918.76 322.571 1919.39 322.817 1920 322.928V316.594L1903.29 306.947L1888.35 298.318L1897.19 293.21L1920 306.379V290.6L1910.75 285.381L1920 280.042V230.252L1920 230.25ZM1907.29 280.7L1907.27 280.716L1917.61 274.743V238.068L1903.29 246.338L1885.8 256.439V276.642V293.115L1893.39 288.729V273.609C1893.39 269.456 1893.42 269.804 1896.01 268.27L1903.36 264.005C1907.54 261.574 1907.25 261.871 1907.29 265.923V280.701V280.7Z" fill="#314218"/>
<path fill-rule="evenodd" clip-rule="evenodd" d="M1878.4 152.668L1896.4 163.064L1912.97 172.632C1916.45 174.631 1916.78 174.692 1916.78 179.475V198.358V217.809C1916.78 222.786 1916.27 222.244 1913.15 223.984L1896.4 233.652L1881.23 242.411C1875.61 245.658 1876.2 245.44 1871.96 243.066L1855.65 233.652L1839.45 224.297C1834.78 221.599 1835.39 220.908 1835.28 216.682V198.358C1835.28 192.07 1835.28 185.783 1835.28 179.495C1835.61 175.458 1835.94 174.896 1838.88 172.746L1855.65 163.063L1873.37 152.835C1875.18 151.672 1876.94 151.828 1878.4 152.667L1878.4 152.668ZM1862.54 194.298L1862.51 194.283L1872.85 200.255V236.931L1858.53 228.662L1841.04 218.56V198.357V181.884L1848.63 186.27V201.39C1848.63 205.543 1848.66 205.196 1851.25 206.729L1858.6 210.995C1862.79 213.425 1862.49 213.129 1862.54 209.077V194.298V194.298ZM1884.87 163.059L1893.52 168.053L1876.03 157.952L1858.53 168.053L1843.59 176.683L1852.43 181.79L1884.87 163.06L1884.87 163.059ZM1898.8 171.104L1865.99 189.619L1875.74 195.249L1908.18 176.519L1898.8 171.104V171.104ZM1911.02 181.558L1878.63 200.255V237.259L1893.52 228.662L1911.01 218.561V198.358V181.558H1911.02Z" fill="#314218"/>
</g>
<g opacity="0.03" clip-path="url(#clip1_2001_112)">
<path fill-rule="evenodd" clip-rule="evenodd" d="M-19.998 91.3192L-19.5491 91.066L-3.24498 81.6515L12.9561 72.2958C17.6295 69.598 17.0122 68.9075 17.1296 64.6813V46.3575C17.1296 40.0697 17.1296 33.7819 17.1296 27.4941C16.7949 23.4571 16.4699 22.8952 13.5251 20.7462L-3.24498 11.0622L-19.9974 1.38867V8.04195L-6.12459 16.0526L8.81901 24.6813L-0.0266972 29.7886L-19.9974 18.2571V33.9998L-13.5856 37.6185L-19.9974 41.3207V47.9969L-10.1018 42.2827L-10.1292 42.2977V57.0765C-10.0802 61.1285 -10.3778 61.4248 -6.19311 58.9945L1.15569 54.7291C3.74428 53.1955 3.77364 53.5427 3.77364 49.3895V34.27L11.3691 29.8839V46.3575V66.5595L-6.12459 76.6624L-19.9974 84.6724V91.3192H-19.998Z" fill="#314218"/>
<path fill-rule="evenodd" clip-rule="evenodd" d="M68.9307 0.666805L86.9354 11.0628L103.506 20.6312C106.988 22.6308 107.31 22.6915 107.31 27.4744V46.3574V65.8082C107.31 70.7856 106.802 70.244 103.679 71.9838L86.9354 81.6514L71.7647 90.4113C66.1418 93.658 66.7304 93.4394 62.4883 91.0659L46.1848 81.6514L29.9825 72.2957C25.3104 69.5979 25.9283 68.9081 25.8096 64.6818V46.3568C25.8096 40.0696 25.8096 33.7818 25.8096 27.494C26.145 23.457 26.4693 22.8957 29.4155 20.7454L46.1848 11.0621L63.8984 0.834524C65.7164 -0.328413 67.4776 -0.173093 68.9301 0.666153L68.9307 0.666805ZM53.0703 42.2982L53.0436 42.2826L63.3862 48.2545V84.9301L49.0658 76.661L31.5714 66.5594V46.3561V29.8838L39.1669 34.2693V49.3888C39.1669 53.5419 39.1975 53.1954 41.7861 54.7284L49.133 58.9938C53.3196 61.4247 53.0201 61.1278 53.0703 57.0758V42.2976V42.2982ZM75.4058 11.0588L84.0558 16.0525L66.5614 5.95092L49.0664 16.0525L34.1228 24.6819L42.9679 29.7898L75.4071 11.0595L75.4058 11.0588ZM89.338 19.1035L56.5268 37.6184L66.2769 43.2491L98.7162 24.5188L89.338 19.1041V19.1035ZM101.549 29.5568L69.1676 48.2545V85.2584L84.0551 76.6616L101.548 66.56V46.3568V29.5568H101.549Z" fill="#314218"/>
<path fill-rule="evenodd" clip-rule="evenodd" d="M155.122 0.666805L137.117 11.0628L120.546 20.6312C117.065 22.6308 116.742 22.6915 116.742 27.4744V46.3574V65.8089C116.742 70.7856 117.251 70.244 120.373 71.9838L137.117 81.6514L152.287 90.4113C157.909 93.658 157.323 93.4394 161.563 91.0659L177.867 81.6514L194.069 72.2957C198.742 69.5979 198.123 68.9081 198.241 64.6818V46.3568C198.241 40.0696 198.241 33.7818 198.241 27.4946C197.906 23.457 197.582 22.8957 194.637 20.7454L177.867 11.0621L160.153 0.834524C158.335 -0.328413 156.574 -0.173093 155.122 0.666153L155.122 0.666805ZM170.983 42.2982L171.008 42.2826L160.665 48.2552V84.9301L174.985 76.6616L192.48 66.5594V46.3561V29.8838L184.884 34.2693V49.3888C184.884 53.5419 184.855 53.1954 182.266 54.7284L174.918 58.9938C170.733 61.4247 171.031 61.1278 170.983 57.0758V42.2976V42.2982ZM148.646 11.0588L139.997 16.0525L157.49 5.95092L174.985 16.0525L189.929 24.6819L181.083 29.7898L148.645 11.0595L148.646 11.0588ZM134.714 19.1035L167.526 37.6184L157.774 43.2491L125.336 24.5188L134.714 19.1041V19.1035ZM122.502 29.5575L154.885 48.2552V85.2584L139.998 76.6623L122.503 66.56V46.3568V29.5575H122.502Z" fill="#314218"/>
<path fill-rule="evenodd" clip-rule="evenodd" d="M250.043 0.666805L268.047 11.0634L284.618 20.6312C288.099 22.6308 288.422 22.6915 288.422 27.475V46.3574V65.8089C288.422 70.7856 287.913 70.244 284.791 71.9838L268.047 81.6514L252.876 90.4113C247.255 93.658 247.841 93.4394 243.601 91.0659L227.297 81.6514L211.095 72.2964C206.422 69.5979 207.04 68.9081 206.922 64.6818V46.3568C206.922 40.0696 206.922 33.7818 206.922 27.4946C207.258 23.457 207.582 22.8957 210.526 20.7454L227.297 11.0628L245.011 0.834524C246.829 -0.328413 248.589 -0.173093 250.042 0.666153L250.043 0.666805ZM234.181 42.2982L234.155 42.2826L244.498 48.2552V84.9301L230.178 76.6616L212.684 66.5594V46.3568V29.8838L220.279 34.2693V49.3888C220.279 53.5432 220.309 53.1954 222.898 54.7284L230.245 58.9944C234.432 61.4247 234.132 61.1278 234.181 57.0758V42.2976V42.2982ZM256.518 11.0588L265.167 16.0525L247.672 5.95092L230.179 16.0525L215.235 24.6819L224.08 29.7898L256.519 11.0595L256.518 11.0588ZM270.449 19.1035L237.638 37.6184L247.389 43.2491L279.827 24.5188L270.449 19.1041V19.1035ZM282.662 29.5575L250.279 48.2552V85.2584L265.166 76.6623L282.661 66.56V46.3574V29.5575H282.662Z" fill="#314218"/>
<path fill-rule="evenodd" clip-rule="evenodd" d="M336.233 0.66762L318.228 11.0636L301.657 20.632C298.176 22.6309 297.854 22.6916 297.854 27.4752V46.3582V65.809C297.854 70.7858 298.362 70.2441 301.485 71.984L318.228 81.6523L333.399 90.4115C339.022 93.6582 338.434 93.4396 342.675 91.0661L358.978 81.6523L375.18 72.2966C379.853 69.5987 379.236 68.9083 379.354 64.682V46.3576C379.354 40.0698 379.354 33.7819 379.354 27.4948C379.018 23.4571 378.694 22.8959 375.749 20.7456L358.978 11.0629L341.266 0.834686C339.448 -0.328251 337.686 -0.172932 336.233 0.666967L336.233 0.66762ZM352.094 42.2984L352.12 42.2827L341.777 48.2554V84.9309L356.098 76.6618L373.591 66.5602V46.3569V29.884L365.996 34.2694V49.3896C365.996 53.5427 365.966 53.1956 363.378 54.7285L356.031 58.9946C351.844 61.4249 352.144 61.1286 352.094 57.0766V42.2978V42.2984ZM329.758 11.059L321.109 16.0534L338.603 5.95174L356.097 16.0534L371.041 24.6827L362.195 29.79L329.756 11.0597L329.758 11.059ZM315.826 19.1036L348.637 37.6186L338.886 43.2492L306.447 24.5189L315.826 19.1043V19.1036ZM303.615 29.5577L335.996 48.2554V85.2585L321.11 76.6625L303.615 66.5608V46.3576V29.5577H303.615Z" fill="#314218"/>
<path fill-rule="evenodd" clip-rule="evenodd" d="M431.154 0.66762L449.159 11.0636L465.73 20.632C469.21 22.6309 469.533 22.6916 469.533 27.4752V46.3582V65.809C469.533 70.7858 469.024 70.2441 465.902 71.984L449.159 81.6523L433.989 90.4115C428.365 93.6582 428.953 93.4396 424.712 91.0661L408.408 81.6523L392.207 72.2966C387.534 69.5987 388.15 68.9083 388.034 64.682V46.3576C388.034 40.0698 388.034 33.7819 388.034 27.4948C388.368 23.4571 388.693 22.8959 391.638 20.7462L408.408 11.0629L426.121 0.834686C427.94 -0.328251 429.7 -0.172932 431.153 0.666967L431.154 0.66762ZM415.293 42.2984L415.266 42.2827L425.61 48.2554V84.9309L411.29 76.6618L393.796 66.5602V46.3569V29.884L401.391 34.2694V49.3896C401.391 53.5427 401.42 53.1956 404.01 54.7285L411.356 58.9946C415.542 61.4249 415.244 61.1286 415.293 57.0766V42.2978V42.2984ZM437.629 11.059L446.279 16.0534L428.784 5.95174L411.291 16.0534L396.346 24.6827L405.192 29.79L437.63 11.0597L437.629 11.059ZM451.561 19.1036L418.75 37.6186L428.5 43.2492L460.939 24.5189L451.561 19.1043V19.1036ZM463.772 29.5577L431.39 48.2554V85.2585L446.278 76.6625L463.772 66.5608V46.3576V29.5577H463.772Z" fill="#314218"/>
<path fill-rule="evenodd" clip-rule="evenodd" d="M517.345 0.66762L499.34 11.0636L482.769 20.632C479.288 22.6309 478.965 22.6916 478.965 27.4752V46.3582V65.809C478.965 70.7858 479.474 70.2441 482.596 71.984L499.34 81.6523L514.51 90.4115C520.134 93.6582 519.546 93.4396 523.787 91.0661L540.091 81.6523L556.292 72.2966C560.965 69.5987 560.348 68.9083 560.466 64.682V46.3576C560.466 40.0698 560.466 33.7826 560.466 27.4948C560.131 23.4571 559.805 22.8959 556.861 20.7462L540.091 11.0629L522.377 0.834686C520.558 -0.328251 518.799 -0.172932 517.346 0.666967L517.345 0.66762ZM533.206 42.2984L533.233 42.2834L522.889 48.2554V84.9309L537.21 76.6618L554.703 66.5602V46.3569V29.884L547.109 34.2694V49.3896C547.109 53.5427 547.079 53.1956 544.489 54.7285L537.143 58.9946C532.957 61.4249 533.255 61.1286 533.206 57.0766V42.2978V42.2984ZM510.87 11.059L502.22 16.0534L519.715 5.95174L537.209 16.0534L552.153 24.6827L543.307 29.79L510.868 11.0597L510.87 11.059ZM496.938 19.1036L529.749 37.6193L519.999 43.2492L487.559 24.5189L496.938 19.1043V19.1036ZM484.726 29.5577L517.109 48.2554V85.2585L502.22 76.6625L484.727 66.5608V46.3576V29.5577H484.726Z" fill="#314218"/>
<path fill-rule="evenodd" clip-rule="evenodd" d="M612.266 0.667618L630.27 11.0636L646.841 20.632C650.323 22.6309 650.646 22.6916 650.646 27.4752V46.3582V65.809C650.646 70.7858 650.136 70.2441 647.014 71.984L630.27 81.6523L615.1 90.4115C609.477 93.6582 610.065 93.4396 605.823 91.066L589.52 81.6523L573.318 72.2966C568.645 69.5987 569.263 68.9082 569.145 64.682V46.3576C569.145 40.0698 569.145 33.7826 569.145 27.4948C569.48 23.4578 569.804 22.8959 572.75 20.7462L589.52 11.0629L607.233 0.834684C609.051 -0.328252 610.812 -0.17228 612.265 0.666966L612.266 0.667618ZM596.405 42.2984L596.378 42.2834L606.721 48.2554V84.9309L592.401 76.6618L574.907 66.5602V46.3569V29.884L582.502 34.2701V49.3896C582.502 53.5427 582.533 53.1955 585.12 54.7285L592.468 58.9946C596.655 61.4249 596.355 61.1286 596.405 57.0766V42.2978V42.2984ZM618.741 11.059L627.391 16.0534L609.896 5.95174L592.401 16.0534L577.458 24.6827L586.303 29.79L618.742 11.0597L618.741 11.059ZM632.673 19.1036L599.862 37.6192L609.612 43.2492L642.051 24.5189L632.673 19.1043V19.1036ZM644.884 29.5577L612.502 48.2554V85.2585L627.39 76.6625L644.883 66.5608V46.3576V29.5577H644.884Z" fill="#314218"/>
<path fill-rule="evenodd" clip-rule="evenodd" d="M697.798 0.666886L679.793 11.0628L663.222 20.6313C659.741 22.6309 659.418 22.6916 659.418 27.4745V46.3575V65.8083C659.418 70.7857 659.928 70.244 663.05 71.9839L679.793 81.6515L694.963 90.4114C700.587 93.6575 699.998 93.4395 704.24 91.066L720.544 81.6515L736.745 72.2958C741.418 69.598 740.801 68.9075 740.919 64.6819V46.3569C740.919 40.069 740.919 33.7819 740.919 27.494C740.584 23.4571 740.259 22.8958 737.313 20.7455L720.544 11.0622L702.83 0.833952C701.012 -0.328332 699.252 -0.173013 697.799 0.666233L697.798 0.666886ZM713.658 42.2983L713.686 42.2827L703.342 48.2546V84.9302L717.663 76.6611L735.157 66.5595V46.3562V29.8839L727.562 34.2694V49.3888C727.562 53.542 727.531 53.1955 724.942 54.7284L717.596 58.9938C713.409 61.4248 713.709 61.1279 713.658 57.0758V42.2977V42.2983ZM691.323 11.0589L682.673 16.0526L700.167 5.951L717.662 16.0526L732.606 24.682L723.761 29.7892L691.322 11.0596L691.323 11.0589ZM677.391 19.1029L710.202 37.6185L700.452 43.2485L668.013 24.5188L677.391 19.1035V19.1029ZM665.18 29.5569L697.562 48.2546V85.2578L682.674 76.6617L665.181 66.5601V46.3569V29.5569H665.18Z" fill="#314218"/>
<path fill-rule="evenodd" clip-rule="evenodd" d="M792.72 0.666805L810.724 11.0628L827.295 20.6312C830.777 22.6308 831.1 22.6915 831.1 27.4744V46.3574V65.8082C831.1 70.7856 830.591 70.244 827.468 71.9838L810.724 81.6514L795.554 90.4113C789.931 93.658 790.519 93.4394 786.277 91.0659L769.974 81.6514L753.772 72.2957C749.099 69.5979 749.717 68.9081 749.599 64.6818V46.3568C749.599 40.0696 749.599 33.7818 749.599 27.494C749.934 23.457 750.26 22.8957 753.205 20.7454L769.974 11.0621L787.687 0.834524C789.506 -0.328413 791.266 -0.173093 792.719 0.666153L792.72 0.666805ZM776.859 42.2982L776.832 42.2826L787.176 48.2545V84.9301L772.855 76.661L755.362 66.5594V46.3561V29.8838L762.956 34.2693V49.3888C762.956 53.5419 762.987 53.1954 765.575 54.7284L772.922 58.9938C777.109 61.4247 776.809 61.1278 776.859 57.0758V42.2976V42.2982ZM799.195 11.0588L807.845 16.0525L790.35 5.95092L772.855 16.0525L757.912 24.6819L766.757 29.7898L799.196 11.0595L799.195 11.0588ZM813.127 19.1035L780.316 37.6184L790.066 43.2491L822.505 24.5188L813.127 19.1041V19.1035ZM825.339 29.5568L792.957 48.2545V85.2584L807.844 76.6616L825.338 66.56V46.3568V29.5568H825.339Z" fill="#314218"/>
<path fill-rule="evenodd" clip-rule="evenodd" d="M878.911 0.666805L860.906 11.0628L844.334 20.6312C840.854 22.6308 840.531 22.6915 840.531 27.4744V46.3574V65.8089C840.531 70.7856 841.04 70.244 844.162 71.9838L860.906 81.6514L876.075 90.4113C881.698 93.658 881.112 93.4394 885.352 91.0659L901.657 81.6514L917.858 72.2957C922.531 69.5979 921.913 68.9081 922.031 64.6818V46.3568C922.031 40.0696 922.031 33.7818 922.031 27.4946C921.695 23.457 921.371 22.8957 918.427 20.7454L901.657 11.0621L883.942 0.834524C882.124 -0.328413 880.365 -0.173093 878.911 0.666153L878.911 0.666805ZM894.772 42.2982L894.797 42.2826L884.454 48.2552V84.9301L898.774 76.6616L916.269 66.5594V46.3561V29.8838L908.673 34.2693V49.3888C908.673 53.5419 908.645 53.1954 906.055 54.7284L898.708 58.9938C894.522 61.4247 894.82 61.1278 894.772 57.0758V42.2976V42.2982ZM872.436 11.0588L863.786 16.0525L881.28 5.95092L898.774 16.0525L913.718 24.6819L904.872 29.7898L872.434 11.0595L872.436 11.0588ZM858.503 19.1035L891.315 37.6184L881.565 43.2491L849.125 24.5188L858.503 19.1041V19.1035ZM846.291 29.5575L878.674 48.2552V85.2584L863.786 76.6623L846.292 66.56V46.3568V29.5575H846.291Z" fill="#314218"/>
<path fill-rule="evenodd" clip-rule="evenodd" d="M973.831 0.666805L991.836 11.0634L1008.41 20.6312C1011.89 22.6308 1012.21 22.6915 1012.21 27.475V46.3574V65.8089C1012.21 70.7856 1011.7 70.244 1008.58 71.9838L991.836 81.6514L976.665 90.4113C971.043 93.658 971.63 93.4394 967.389 91.0659L951.085 81.6514L934.883 72.2964C930.211 69.5979 930.828 68.9081 930.709 64.6818V46.3568C930.709 40.0696 930.709 33.7818 930.709 27.4946C931.046 23.457 931.37 22.8957 934.315 20.7454L951.085 11.0628L968.799 0.834524C970.616 -0.328413 972.377 -0.173093 973.831 0.666153L973.831 0.666805ZM957.97 42.2982L957.944 42.2826L968.287 48.2552V84.9301L953.966 76.6616L936.472 66.5594V46.3568V29.8838L944.067 34.2693V49.3888C944.067 53.5432 944.097 53.1954 946.686 54.7284L954.034 58.9944C958.22 61.4247 957.92 61.1278 957.97 57.0758V42.2976V42.2982ZM980.306 11.0588L988.955 16.0525L971.461 5.95092L953.967 16.0525L939.023 24.6819L947.868 29.7898L980.308 11.0595L980.306 11.0588ZM994.238 19.1035L961.426 37.6184L971.177 43.2491L1003.62 24.5188L994.238 19.1041V19.1035ZM1006.45 29.5575L974.068 48.2552V85.2584L988.954 76.6623L1006.45 66.56V46.3574V29.5575H1006.45Z" fill="#314218"/>
<path fill-rule="evenodd" clip-rule="evenodd" d="M1060.02 0.66762L1042.02 11.0636L1025.45 20.632C1021.97 22.6309 1021.64 22.6916 1021.64 27.4752V46.3582V65.809C1021.64 70.7858 1022.15 70.2441 1025.27 71.984L1042.02 81.6523L1057.19 90.4115C1062.81 93.6582 1062.22 93.4396 1066.46 91.0661L1082.77 81.6523L1098.97 72.2966C1103.64 69.5987 1103.02 68.9083 1103.14 64.682V46.3576C1103.14 40.0698 1103.14 33.7819 1103.14 27.4948C1102.81 23.4571 1102.48 22.8959 1099.54 20.7456L1082.77 11.0629L1065.05 0.834686C1063.24 -0.328251 1061.48 -0.172932 1060.02 0.666967L1060.02 0.66762ZM1075.88 42.2984L1075.91 42.2827L1065.57 48.2554V84.9309L1079.89 76.6618L1097.38 66.5602V46.3569V29.884L1089.78 34.2694V49.3896C1089.78 53.5427 1089.76 53.1956 1087.17 54.7285L1079.82 58.9946C1075.63 61.4249 1075.93 61.1286 1075.88 57.0766V42.2978V42.2984ZM1053.55 11.059L1044.9 16.0534L1062.39 5.95174L1079.89 16.0534L1094.83 24.6827L1085.98 29.79L1053.54 11.0597L1053.55 11.059ZM1039.62 19.1036L1072.43 37.6186L1062.68 43.2492L1030.24 24.5189L1039.62 19.1043V19.1036ZM1027.4 29.5577L1059.79 48.2554V85.2585L1044.9 76.6625L1027.4 66.5608V46.3576V29.5577H1027.4Z" fill="#314218"/>
<path fill-rule="evenodd" clip-rule="evenodd" d="M1154.94 0.66762L1172.95 11.0636L1189.52 20.632C1193 22.6309 1193.32 22.6916 1193.32 27.4752V46.3582V65.809C1193.32 70.7858 1192.81 70.2441 1189.69 71.984L1172.95 81.6523L1157.78 90.4115C1152.15 93.6582 1152.74 93.4396 1148.5 91.0661L1132.2 81.6523L1115.99 72.2966C1111.32 69.5987 1111.94 68.9083 1111.82 64.682V46.3576C1111.82 40.0698 1111.82 33.7819 1111.82 27.4948C1112.16 23.4571 1112.48 22.8959 1115.43 20.7462L1132.2 11.0629L1149.91 0.834686C1151.73 -0.328251 1153.49 -0.172932 1154.94 0.666967L1154.94 0.66762ZM1139.08 42.2984L1139.06 42.2827L1149.4 48.2554V84.9309L1135.08 76.6618L1117.58 66.5602V46.3569V29.884L1125.18 34.2694V49.3896C1125.18 53.5427 1125.21 53.1956 1127.8 54.7285L1135.15 58.9946C1139.33 61.4249 1139.03 61.1286 1139.08 57.0766V42.2978V42.2984ZM1161.42 11.059L1170.07 16.0534L1152.57 5.95174L1135.08 16.0534L1120.14 24.6827L1128.98 29.79L1161.42 11.0597L1161.42 11.059ZM1175.35 19.1036L1142.54 37.6186L1152.29 43.2492L1184.73 24.5189L1175.35 19.1043V19.1036ZM1187.56 29.5577L1155.18 48.2554V85.2585L1170.07 76.6625L1187.56 66.5608V46.3576V29.5577H1187.56Z" fill="#314218"/>
<path fill-rule="evenodd" clip-rule="evenodd" d="M1241.13 0.66762L1223.13 11.0636L1206.56 20.632C1203.08 22.6309 1202.75 22.6916 1202.75 27.4752V46.3582V65.809C1202.75 70.7858 1203.26 70.2441 1206.39 71.984L1223.13 81.6523L1238.3 90.4115C1243.92 93.6582 1243.33 93.4396 1247.58 91.0661L1263.88 81.6523L1280.08 72.2966C1284.75 69.5987 1284.14 68.9083 1284.25 64.682V46.3576C1284.25 40.0698 1284.25 33.7826 1284.25 27.4948C1283.92 23.4571 1283.59 22.8959 1280.65 20.7462L1263.88 11.0629L1246.17 0.834686C1244.35 -0.328251 1242.59 -0.172932 1241.13 0.666967L1241.13 0.66762ZM1256.99 42.2984L1257.02 42.2834L1246.68 48.2554V84.9309L1261 76.6618L1278.49 66.5602V46.3569V29.884L1270.9 34.2694V49.3896C1270.9 53.5427 1270.87 53.1956 1268.28 54.7285L1260.93 58.9946C1256.74 61.4249 1257.04 61.1286 1256.99 57.0766V42.2978V42.2984ZM1234.66 11.059L1226.01 16.0534L1243.5 5.95174L1261 16.0534L1275.94 24.6827L1267.1 29.79L1234.66 11.0597L1234.66 11.059ZM1220.73 19.1036L1253.54 37.6193L1243.79 43.2492L1211.35 24.5189L1220.73 19.1043V19.1036ZM1208.52 29.5577L1240.9 48.2554V85.2585L1226.01 76.6625L1208.52 66.5608V46.3576V29.5577H1208.52Z" fill="#314218"/>
<path fill-rule="evenodd" clip-rule="evenodd" d="M1336.05 0.667618L1354.06 11.0636L1370.63 20.632C1374.11 22.6309 1374.43 22.6916 1374.43 27.4752V46.3582V65.809C1374.43 70.7858 1373.93 70.2441 1370.8 71.984L1354.06 81.6523L1338.89 90.4115C1333.27 93.6582 1333.85 93.4396 1329.61 91.066L1313.31 81.6523L1297.11 72.2966C1292.43 69.5987 1293.05 68.9082 1292.93 64.682V46.3576C1292.93 40.0698 1292.93 33.7826 1292.93 27.4948C1293.27 23.4578 1293.59 22.8959 1296.54 20.7462L1313.31 11.0629L1331.02 0.834684C1332.84 -0.328252 1334.6 -0.17228 1336.05 0.666966L1336.05 0.667618ZM1320.19 42.2984L1320.17 42.2834L1330.51 48.2554V84.9309L1316.19 76.6618L1298.7 66.5602V46.3569V29.884L1306.29 34.2701V49.3896C1306.29 53.5427 1306.32 53.1955 1308.91 54.7285L1316.26 58.9946C1320.44 61.4249 1320.14 61.1286 1320.19 57.0766V42.2978V42.2984ZM1342.53 11.059L1351.18 16.0534L1333.68 5.95174L1316.19 16.0534L1301.25 24.6827L1310.09 29.79L1342.53 11.0597L1342.53 11.059ZM1356.46 19.1036L1323.65 37.6192L1333.4 43.2492L1365.84 24.5189L1356.46 19.1043V19.1036ZM1368.67 29.5577L1336.29 48.2554V85.2585L1351.18 76.6625L1368.67 66.5608V46.3576V29.5577H1368.67Z" fill="#314218"/>
<path fill-rule="evenodd" clip-rule="evenodd" d="M1421.25 0.666805L1403.25 11.0628L1386.68 20.6312C1383.2 22.6308 1382.87 22.6915 1382.87 27.4744V46.3574V65.8089C1382.87 70.7856 1383.38 70.244 1386.5 71.9838L1403.25 81.6514L1418.42 90.4113C1424.04 93.658 1423.45 93.4394 1427.69 91.0659L1444 81.6514L1460.2 72.2957C1464.87 69.5979 1464.26 68.9081 1464.37 64.6818V46.3568C1464.37 40.0696 1464.37 33.7818 1464.37 27.4946C1464.04 23.457 1463.71 22.8957 1460.77 20.7454L1444 11.0621L1426.28 0.834524C1424.47 -0.328413 1422.71 -0.173093 1421.25 0.666153L1421.25 0.666805ZM1437.11 42.2982L1437.14 42.2826L1426.8 48.2552V84.9301L1441.12 76.6616L1458.61 66.5594V46.3561V29.8838L1451.02 34.2693V49.3888C1451.02 53.5419 1450.99 53.1954 1448.4 54.7284L1441.05 58.9938C1436.86 61.4247 1437.16 61.1278 1437.11 57.0758V42.2976V42.2982ZM1414.78 11.0588L1406.13 16.0525L1423.62 5.95092L1441.12 16.0525L1456.06 24.6819L1447.22 29.7898L1414.78 11.0595L1414.78 11.0588ZM1400.85 19.1035L1433.66 37.6184L1423.91 43.2491L1391.47 24.5188L1400.85 19.1041V19.1035ZM1388.63 29.5575L1421.02 48.2552V85.2584L1406.13 76.6623L1388.63 66.56V46.3568V29.5575H1388.63Z" fill="#314218"/>
<path fill-rule="evenodd" clip-rule="evenodd" d="M1516.17 0.666805L1534.18 11.0634L1550.75 20.6312C1554.23 22.6308 1554.55 22.6915 1554.55 27.475V46.3574V65.8089C1554.55 70.7856 1554.04 70.244 1550.92 71.9838L1534.18 81.6514L1519.01 90.4113C1513.39 93.658 1513.97 93.4394 1509.73 91.0659L1493.43 81.6514L1477.23 72.2964C1472.55 69.5979 1473.17 68.9081 1473.05 64.6818V46.3568C1473.05 40.0696 1473.05 33.7818 1473.05 27.4946C1473.39 23.457 1473.71 22.8957 1476.66 20.7454L1493.43 11.0628L1511.14 0.834524C1512.96 -0.328413 1514.72 -0.173093 1516.17 0.666153L1516.17 0.666805ZM1500.31 42.2982L1500.29 42.2826L1510.63 48.2552V84.9301L1496.31 76.6616L1478.82 66.5594V46.3568V29.8838L1486.41 34.2693V49.3888C1486.41 53.5432 1486.44 53.1954 1489.03 54.7284L1496.38 58.9944C1500.56 61.4247 1500.26 61.1278 1500.31 57.0758V42.2976V42.2982ZM1522.65 11.0588L1531.3 16.0525L1513.8 5.95092L1496.31 16.0525L1481.37 24.6819L1490.21 29.7898L1522.65 11.0595L1522.65 11.0588ZM1536.58 19.1035L1503.77 37.6184L1513.52 43.2491L1545.96 24.5188L1536.58 19.1041V19.1035ZM1548.79 29.5575L1516.41 48.2552V85.2584L1531.3 76.6623L1548.79 66.56V46.3574V29.5575H1548.79Z" fill="#314218"/>
<path fill-rule="evenodd" clip-rule="evenodd" d="M1602.36 0.66762L1584.36 11.0636L1567.79 20.632C1564.31 22.6309 1563.99 22.6916 1563.99 27.4752V46.3582V65.809C1563.99 70.7858 1564.49 70.2441 1567.62 71.984L1584.36 81.6523L1599.53 90.4115C1605.15 93.6582 1604.56 93.4396 1608.81 91.0661L1625.11 81.6523L1641.31 72.2966C1645.98 69.5987 1645.37 68.9083 1645.49 64.682V46.3576C1645.49 40.0698 1645.49 33.7819 1645.49 27.4948C1645.15 23.4571 1644.83 22.8959 1641.88 20.7456L1625.11 11.0629L1607.4 0.834686C1605.58 -0.328251 1603.82 -0.172932 1602.36 0.666967L1602.36 0.66762ZM1618.22 42.2984L1618.25 42.2827L1607.91 48.2554V84.9309L1622.23 76.6618L1639.72 66.5602V46.3569V29.884L1632.13 34.2694V49.3896C1632.13 53.5427 1632.1 53.1956 1629.51 54.7285L1622.16 58.9946C1617.97 61.4249 1618.28 61.1286 1618.22 57.0766V42.2978V42.2984ZM1595.89 11.059L1587.24 16.0534L1604.73 5.95174L1622.23 16.0534L1637.17 24.6827L1628.33 29.79L1595.89 11.0597L1595.89 11.059ZM1581.96 19.1036L1614.77 37.6186L1605.02 43.2492L1572.58 24.5189L1581.96 19.1043V19.1036ZM1569.75 29.5577L1602.13 48.2554V85.2585L1587.24 76.6625L1569.75 66.5608V46.3576V29.5577H1569.75Z" fill="#314218"/>
<path fill-rule="evenodd" clip-rule="evenodd" d="M1697.29 0.66762L1715.29 11.0636L1731.86 20.632C1735.34 22.6309 1735.67 22.6916 1735.67 27.4752V46.3582V65.809C1735.67 70.7858 1735.16 70.2441 1732.03 71.984L1715.29 81.6523L1700.12 90.4115C1694.5 93.6582 1695.08 93.4396 1690.84 91.0661L1674.54 81.6523L1658.34 72.2966C1653.67 69.5987 1654.28 68.9083 1654.17 64.682V46.3576C1654.17 40.0698 1654.17 33.7819 1654.17 27.4948C1654.5 23.4571 1654.83 22.8959 1657.77 20.7462L1674.54 11.0629L1692.25 0.834686C1694.07 -0.328251 1695.83 -0.172932 1697.29 0.666967L1697.29 0.66762ZM1681.42 42.2984L1681.4 42.2827L1691.74 48.2554V84.9309L1677.42 76.6618L1659.93 66.5602V46.3569V29.884L1667.52 34.2694V49.3896C1667.52 53.5427 1667.55 53.1956 1670.14 54.7285L1677.49 58.9946C1681.67 61.4249 1681.38 61.1286 1681.42 57.0766V42.2978V42.2984ZM1703.76 11.059L1712.41 16.0534L1694.92 5.95174L1677.42 16.0534L1662.48 24.6827L1671.32 29.79L1703.76 11.0597L1703.76 11.059ZM1717.69 19.1036L1684.88 37.6186L1694.63 43.2492L1727.07 24.5189L1717.69 19.1043V19.1036ZM1729.91 29.5577L1697.52 48.2554V85.2585L1712.41 76.6625L1729.9 66.5608V46.3576V29.5577H1729.91Z" fill="#314218"/>
<path fill-rule="evenodd" clip-rule="evenodd" d="M1783.48 0.66762L1765.47 11.0636L1748.9 20.632C1745.42 22.6309 1745.1 22.6916 1745.1 27.4752V46.3582V65.809C1745.1 70.7858 1745.6 70.2441 1748.73 71.984L1765.47 81.6523L1780.64 90.4115C1786.26 93.6582 1785.68 93.4396 1789.92 91.0661L1806.22 81.6523L1822.42 72.2966C1827.1 69.5987 1826.48 68.9083 1826.6 64.682V46.3576C1826.6 40.0698 1826.6 33.7826 1826.6 27.4948C1826.26 23.4571 1825.94 22.8959 1822.99 20.7462L1806.22 11.0629L1788.51 0.834686C1786.69 -0.328251 1784.93 -0.172932 1783.48 0.666967L1783.48 0.66762ZM1799.34 42.2984L1799.36 42.2834L1789.02 48.2554V84.9309L1803.34 76.6618L1820.83 66.5602V46.3569V29.884L1813.24 34.2694V49.3896C1813.24 53.5427 1813.21 53.1956 1810.62 54.7285L1803.27 58.9946C1799.09 61.4249 1799.39 61.1286 1799.34 57.0766V42.2978V42.2984ZM1777 11.059L1768.35 16.0534L1785.85 5.95174L1803.34 16.0534L1818.28 24.6827L1809.44 29.79L1777 11.0597L1777 11.059ZM1763.07 19.1036L1795.88 37.6193L1786.13 43.2492L1753.69 24.5189L1763.07 19.1043V19.1036ZM1750.86 29.5577L1783.24 48.2554V85.2585L1768.35 76.6625L1750.86 66.5608V46.3576V29.5577H1750.86Z" fill="#314218"/>
<path fill-rule="evenodd" clip-rule="evenodd" d="M18.7675 170.332L0.76288 159.936L-15.8081 150.368C-19.2887 148.369 -19.6111 148.308 -19.6111 143.525V124.642V105.191C-19.6111 100.214 -19.1028 100.755 -15.9798 99.0159L0.76288 89.3476L15.9336 80.5877C21.5564 77.3417 20.9685 77.5603 25.2099 79.9331L41.5141 89.3476L57.7151 98.7033C62.3879 101.401 61.7706 102.092 61.8893 106.317V124.642C61.8893 130.93 61.8893 137.217 61.8893 143.505C61.5533 147.542 61.229 148.104 58.2835 150.254L41.5141 159.937L23.8005 170.165C21.9825 171.328 20.2213 171.172 18.7682 170.333L18.7675 170.332ZM34.6286 128.701L34.6553 128.716L24.3121 122.744V86.0689L38.6325 94.338L56.1262 104.44V124.643V141.116L48.5314 136.73V121.61C48.5314 117.457 48.5014 117.804 45.9128 116.271L38.5659 112.005C34.3786 109.575 34.6788 109.871 34.6286 113.923V128.702V128.701ZM12.2924 159.941L3.6438 154.946L21.1375 165.048L38.6318 154.946L53.5761 146.317L44.7304 141.21L12.2911 159.94L12.2924 159.941ZM-1.63908 151.896L31.1721 133.381L21.4213 127.751L-11.0179 146.481L-1.63908 151.896V151.896ZM-13.8505 141.442L18.5313 122.744V85.7413L3.64446 94.3374L-13.8499 104.439V124.642V141.442H-13.8505Z" fill="#314218"/>
<path fill-rule="evenodd" clip-rule="evenodd" d="M113.688 170.332L131.694 159.936L148.265 150.368C151.745 148.369 152.068 148.308 152.068 143.525V124.642V105.191C152.068 100.214 151.559 100.755 148.436 99.016L131.694 89.3477L116.524 80.5885C110.9 77.3418 111.487 77.5604 107.247 79.9333L90.9426 89.3477L74.7415 98.7034C70.0688 101.401 70.6854 102.092 70.5686 106.317V124.642C70.5686 130.93 70.5686 137.217 70.5686 143.505C70.9034 147.542 71.2283 148.104 74.1725 150.254L90.9426 159.937L108.656 170.165C110.475 171.328 112.235 171.172 113.688 170.333L113.688 170.332ZM97.8274 128.702L97.8013 128.717L108.145 122.745V86.0691L93.8248 94.3382L76.3304 104.44V124.643V141.116L83.9259 136.73V121.61C83.9259 117.457 83.9546 117.804 86.5445 116.271L93.8907 112.005C98.0773 109.575 97.7791 109.871 97.8274 113.923V128.702V128.702ZM120.164 159.941L128.813 154.947L111.319 165.048L93.8254 154.947L78.8805 146.317L87.7269 141.21L120.165 159.94L120.164 159.941ZM134.096 151.896L101.285 133.381L111.035 127.751L143.474 146.481L134.096 151.896V151.896ZM146.307 141.442L113.925 122.745V85.7415L128.813 94.3375L146.307 104.439V124.642V141.442H146.307Z" fill="#314218"/>
<path fill-rule="evenodd" clip-rule="evenodd" d="M199.88 170.332L181.875 159.936L165.304 150.368C161.823 148.369 161.5 148.308 161.5 143.525V124.642V105.191C161.5 100.214 162.008 100.756 165.131 99.016L181.875 89.3477L197.045 80.5884C202.668 77.3417 202.08 77.5604 206.322 79.9339L222.625 89.3477L238.827 98.7034C243.5 101.401 242.882 102.092 243.001 106.318V124.642C243.001 130.93 243.001 137.217 243.001 143.505C242.665 147.543 242.34 148.104 239.395 150.254L222.625 159.937L204.912 170.165C203.093 171.328 201.333 171.173 199.881 170.333L199.88 170.332ZM215.74 128.702L215.767 128.717L205.423 122.745V86.069L219.744 94.3381L237.237 104.44V124.643V141.116L229.643 136.73V121.61C229.643 117.457 229.613 117.804 227.023 116.271L219.677 112.005C215.491 109.575 215.79 109.871 215.74 113.923V128.702V128.702ZM193.404 159.941L184.754 154.947L202.249 165.048L219.744 154.947L234.687 146.317L225.842 141.21L193.403 159.94L193.404 159.941ZM179.473 151.896L212.283 133.381L202.533 127.751L170.095 146.481L179.473 151.896V151.896ZM167.261 141.442L199.643 122.745V85.7414L184.755 94.3375L167.261 104.439V124.642V141.442H167.261Z" fill="#314218"/>
<path fill-rule="evenodd" clip-rule="evenodd" d="M294.801 170.332L312.805 159.936L329.376 150.368C332.858 148.369 333.18 148.308 333.18 143.525V124.642V105.191C333.18 100.214 332.671 100.756 329.549 99.016L312.805 89.3477L297.635 80.5884C292.012 77.3417 292.6 77.5604 288.358 79.9339L272.055 89.3477L255.853 98.7034C251.18 101.401 251.798 102.092 251.68 106.318V124.642C251.68 130.93 251.68 137.217 251.68 143.505C252.015 147.543 252.339 148.104 255.286 150.254L272.055 159.937L289.769 170.165C291.586 171.328 293.347 171.173 294.8 170.333L294.801 170.332ZM278.94 128.702L278.913 128.717L289.256 122.745V86.069L274.936 94.3381L257.442 104.44V124.643V141.116L265.037 136.73V121.61C265.037 117.457 265.068 117.804 267.656 116.271L275.003 112.005C279.19 109.575 278.89 109.871 278.94 113.923V128.702V128.702ZM301.276 159.941L309.926 154.947L292.432 165.048L274.937 154.947L259.993 146.317L268.838 141.21L301.277 159.94L301.276 159.941ZM315.208 151.896L282.397 133.381L292.147 127.751L324.586 146.481L315.208 151.896V151.896ZM327.419 141.442L295.037 122.745V85.7414L309.925 94.3375L327.418 104.439V124.642V141.442H327.419Z" fill="#314218"/>
<path fill-rule="evenodd" clip-rule="evenodd" d="M380.992 170.332L362.987 159.936L346.416 150.368C342.935 148.369 342.612 148.308 342.612 143.525V124.642V105.191C342.612 100.214 343.121 100.756 346.243 99.016L362.987 89.3477L378.157 80.5884C383.779 77.3417 383.193 77.5604 387.433 79.9339L403.737 89.3477L419.939 98.7034C424.612 101.402 423.993 102.092 424.112 106.318V124.642C424.112 130.93 424.112 137.218 424.112 143.505C423.776 147.543 423.452 148.104 420.507 150.254L403.737 159.937L386.023 170.165C384.205 171.328 382.444 171.173 380.992 170.333L380.992 170.332ZM396.852 128.702L396.878 128.717L386.536 122.745V86.069L400.855 94.3381L418.35 104.44V124.643V141.116L410.754 136.73V121.61C410.754 117.457 410.726 117.804 408.136 116.271L400.788 112.005C396.603 109.575 396.901 109.872 396.852 113.924V128.702V128.702ZM374.515 159.941L365.867 154.947L383.361 165.048L400.855 154.947L415.799 146.317L406.953 141.21L374.514 159.94L374.515 159.941ZM360.584 151.896L393.396 133.381L383.644 127.751L351.206 146.481L360.584 151.896V151.896ZM348.372 141.442L380.755 122.745V85.7414L365.867 94.3375L348.373 104.439V124.642V141.442H348.372Z" fill="#314218"/>
<path fill-rule="evenodd" clip-rule="evenodd" d="M475.911 170.333L493.917 159.936L510.487 150.369C513.968 148.369 514.291 148.308 514.291 143.525V124.642V105.191C514.291 100.214 513.782 100.756 510.661 99.0159L493.917 89.3483L478.746 80.5884C473.124 77.3417 473.711 77.5604 469.47 79.9339L453.167 89.3483L436.964 98.7034C432.291 101.402 432.91 102.092 432.792 106.318V124.643C432.792 130.93 432.792 137.218 432.792 143.505C433.127 147.543 433.451 148.104 436.396 150.254L453.167 159.937L470.88 170.165C472.698 171.328 474.459 171.173 475.911 170.334L475.911 170.333ZM460.051 128.702L460.025 128.717L470.367 122.745V86.0696L456.048 94.3381L438.553 104.44V124.643V141.116L446.149 136.73V121.61C446.149 117.457 446.178 117.804 448.768 116.271L456.115 112.005C460.3 109.575 460.002 109.872 460.051 113.924V128.702V128.702ZM482.388 159.941L491.036 154.947L473.542 165.049L456.048 154.947L441.105 146.317L449.95 141.21L482.389 159.94L482.388 159.941ZM496.319 151.896L463.507 133.381L473.259 127.751L505.697 146.481L496.319 151.896V151.896ZM508.531 141.442L476.148 122.745V85.7414L491.036 94.3375L508.531 104.439V124.642V141.442H508.531Z" fill="#314218"/>
<path fill-rule="evenodd" clip-rule="evenodd" d="M562.102 170.332L544.098 159.936L527.527 150.368C524.046 148.368 523.724 148.308 523.724 143.525V124.642V105.19C523.724 100.213 524.232 100.755 527.355 99.0152L544.098 89.3476L559.268 80.5877C564.891 77.341 564.303 77.5596 568.545 79.9331L584.848 89.3476L601.05 98.7033C605.723 101.401 605.105 102.091 605.224 106.317V124.642C605.224 130.929 605.224 137.217 605.224 143.505C604.888 147.542 604.564 148.103 601.618 150.254L584.848 159.937L567.135 170.164C565.317 171.327 563.556 171.172 562.103 170.333L562.102 170.332ZM577.963 128.701L577.99 128.716L567.647 122.744V86.0689L581.967 94.3374L599.462 104.44V124.643V141.115L591.866 136.73V121.61C591.866 117.457 591.836 117.804 589.248 116.271L581.901 112.005C577.713 109.574 578.013 109.871 577.963 113.923V128.701V128.701ZM555.627 159.94L546.979 154.946L564.472 165.048L581.967 154.946L596.911 146.317L588.065 141.209L555.626 159.94L555.627 159.94ZM541.696 151.896L574.507 133.381L564.756 127.75L532.317 146.48L541.696 151.895V151.896ZM529.484 141.442L561.866 122.744V85.7406L546.979 94.3367L529.485 104.439V124.642V141.442H529.484Z" fill="#314218"/>
<path fill-rule="evenodd" clip-rule="evenodd" d="M657.024 170.332L675.028 159.936L691.6 150.368C695.08 148.368 695.404 148.308 695.404 143.525V124.642V105.19C695.404 100.213 694.895 100.755 691.772 99.0152L675.028 89.3476L659.859 80.5877C654.236 77.341 654.823 77.5596 650.583 79.9331L634.278 89.3476L618.077 98.7033C613.403 101.401 614.021 102.091 613.903 106.317V124.642C613.903 130.929 613.903 137.217 613.903 143.505C614.239 147.542 614.564 148.103 617.508 150.254L634.278 159.937L651.992 170.164C653.81 171.327 655.57 171.172 657.023 170.333L657.024 170.332ZM641.163 128.701L641.136 128.716L651.481 122.744V86.0689L637.16 94.338L619.666 104.44V124.643V141.115L627.261 136.73V121.61C627.261 117.457 627.29 117.804 629.88 116.271L637.226 112.005C641.413 109.574 641.114 109.871 641.163 113.923V128.701V128.701ZM663.499 159.94L672.149 154.946L654.654 165.048L637.161 154.946L622.216 146.317L631.062 141.209L663.5 159.94L663.499 159.94ZM677.43 151.896L644.62 133.381L654.37 127.75L686.809 146.48L677.43 151.895V151.896ZM689.643 141.442L657.26 122.744V85.7406L672.148 94.3374L689.642 104.439V124.642V141.442H689.643Z" fill="#314218"/>
<path fill-rule="evenodd" clip-rule="evenodd" d="M742.556 170.332L724.552 159.936L707.981 150.368C704.5 148.369 704.177 148.308 704.177 143.525V124.642V105.191C704.177 100.214 704.686 100.755 707.808 99.0159L724.552 89.3476L739.723 80.5877C745.344 77.3417 744.757 77.5603 748.998 79.9331L765.302 89.3476L781.504 98.7033C786.177 101.401 785.559 102.092 785.677 106.317V124.642C785.677 130.93 785.677 137.217 785.677 143.505C785.341 147.542 785.017 148.104 782.072 150.254L765.302 159.937L747.588 170.165C745.771 171.328 744.01 171.172 742.556 170.333L742.556 170.332ZM758.417 128.701L758.444 128.716L748.101 122.744V86.0689L762.421 94.338L779.915 104.44V124.643V141.116L772.32 136.73V121.61C772.32 117.457 772.29 117.804 769.701 116.271L762.354 112.005C758.167 109.575 758.466 109.871 758.417 113.923V128.702V128.701ZM736.081 159.941L727.432 154.946L744.926 165.048L762.42 154.946L777.364 146.317L768.519 141.21L736.079 159.94L736.081 159.941ZM722.15 151.896L754.961 133.381L745.21 127.751L712.77 146.481L722.15 151.896V151.896ZM709.937 141.442L742.32 122.744V85.7413L727.433 94.3374L709.938 104.439V124.642V141.442H709.937Z" fill="#314218"/>
<path fill-rule="evenodd" clip-rule="evenodd" d="M837.477 170.332L855.482 159.936L872.053 150.368C875.534 148.369 875.857 148.308 875.857 143.525V124.642V105.191C875.857 100.214 875.348 100.755 872.226 99.016L855.482 89.3477L840.313 80.5885C834.69 77.3418 835.276 77.5604 831.036 79.9333L814.732 89.3477L798.53 98.7034C793.857 101.401 794.476 102.092 794.357 106.317V124.642C794.357 130.93 794.357 137.217 794.357 143.505C794.693 147.542 795.017 148.104 797.962 150.254L814.732 159.937L832.446 170.165C834.264 171.328 836.023 171.172 837.477 170.333L837.477 170.332ZM821.616 128.702L821.591 128.717L831.934 122.745V86.0691L817.614 94.3382L800.119 104.44V124.643V141.116L807.715 136.73V121.61C807.715 117.457 807.743 117.804 810.333 116.271L817.681 112.005C821.866 109.575 821.568 109.871 821.616 113.923V128.702V128.702ZM843.952 159.941L852.602 154.947L835.108 165.048L817.614 154.947L802.67 146.317L811.516 141.21L843.954 159.94L843.952 159.941ZM857.885 151.896L825.073 133.381L834.825 127.751L867.263 146.481L857.885 151.896V151.896ZM870.097 141.442L837.713 122.745V85.7415L852.602 94.3375L870.096 104.439V124.642V141.442H870.097Z" fill="#314218"/>
<path fill-rule="evenodd" clip-rule="evenodd" d="M923.668 170.332L905.663 159.936L889.092 150.368C885.611 148.369 885.288 148.308 885.288 143.525V124.642V105.191C885.288 100.214 885.797 100.756 888.92 99.016L905.663 89.3477L920.834 80.5884C926.457 77.3417 925.868 77.5604 930.11 79.9339L946.415 89.3477L962.616 98.7034C967.288 101.401 966.671 102.092 966.789 106.318V124.642C966.789 130.93 966.789 137.217 966.789 143.505C966.454 147.543 966.129 148.104 963.183 150.254L946.415 159.937L928.7 170.165C926.882 171.328 925.122 171.173 923.669 170.333L923.668 170.332ZM939.528 128.702L939.556 128.717L929.213 122.745V86.069L943.533 94.3381L961.026 104.44V124.643V141.116L953.432 136.73V121.61C953.432 117.457 953.401 117.804 950.813 116.271L943.466 112.005C939.279 109.575 939.579 109.871 939.528 113.923V128.702V128.702ZM917.193 159.941L908.543 154.947L926.037 165.048L943.532 154.947L958.476 146.317L949.631 141.21L917.192 159.94L917.193 159.941ZM903.261 151.896L936.072 133.381L926.322 127.751L893.883 146.481L903.261 151.896V151.896ZM891.05 141.442L923.431 122.745V85.7414L908.544 94.3375L891.051 104.439V124.642V141.442H891.05Z" fill="#314218"/>
<path fill-rule="evenodd" clip-rule="evenodd" d="M1018.59 170.332L1036.59 159.936L1053.16 150.368C1056.65 148.369 1056.97 148.308 1056.97 143.525V124.642V105.191C1056.97 100.214 1056.46 100.756 1053.34 99.016L1036.59 89.3477L1021.42 80.5884C1015.8 77.3417 1016.39 77.5604 1012.15 79.9339L995.842 89.3477L979.641 98.7034C974.969 101.401 975.586 102.092 975.468 106.318V124.642C975.468 130.93 975.468 137.217 975.468 143.505C975.803 147.543 976.127 148.104 979.073 150.254L995.842 159.937L1013.56 170.165C1015.38 171.328 1017.14 171.173 1018.59 170.333L1018.59 170.332ZM1002.73 128.702L1002.7 128.717L1013.05 122.745V86.069L998.724 94.3381L981.23 104.44V124.643V141.116L988.825 136.73V121.61C988.825 117.457 988.855 117.804 991.444 116.271L998.791 112.005C1002.98 109.575 1002.68 109.871 1002.73 113.923V128.702V128.702ZM1025.06 159.941L1033.71 154.947L1016.22 165.048L998.725 154.947L983.781 146.317L992.626 141.21L1025.07 159.94L1025.06 159.941ZM1039 151.896L1006.19 133.381L1015.94 127.751L1048.37 146.481L1039 151.896V151.896ZM1051.21 141.442L1018.83 122.745V85.7414L1033.71 94.3375L1051.21 104.439V124.642V141.442H1051.21Z" fill="#314218"/>
<path fill-rule="evenodd" clip-rule="evenodd" d="M1104.78 170.332L1086.78 159.936L1070.2 150.368C1066.72 148.369 1066.4 148.308 1066.4 143.525V124.642V105.191C1066.4 100.214 1066.91 100.756 1070.03 99.016L1086.78 89.3477L1101.94 80.5884C1107.57 77.3417 1106.98 77.5604 1111.22 79.9339L1127.53 89.3477L1143.73 98.7034C1148.4 101.402 1147.78 102.092 1147.9 106.318V124.642C1147.9 130.93 1147.9 137.218 1147.9 143.505C1147.56 147.543 1147.24 148.104 1144.3 150.254L1127.53 159.937L1109.81 170.165C1107.99 171.328 1106.23 171.173 1104.78 170.333L1104.78 170.332ZM1120.64 128.702L1120.67 128.717L1110.32 122.745V86.069L1124.64 94.3381L1142.14 104.44V124.643V141.116L1134.54 136.73V121.61C1134.54 117.457 1134.51 117.804 1131.92 116.271L1124.58 112.005C1120.39 109.575 1120.69 109.872 1120.64 113.924V128.702V128.702ZM1098.3 159.941L1089.65 154.947L1107.15 165.048L1124.64 154.947L1139.59 146.317L1130.74 141.21L1098.3 159.94L1098.3 159.941ZM1084.37 151.896L1117.18 133.381L1107.43 127.751L1074.99 146.481L1084.37 151.896V151.896ZM1072.16 141.442L1104.54 122.745V85.7414L1089.66 94.3375L1072.16 104.439V124.642V141.442H1072.16Z" fill="#314218"/>
<path fill-rule="evenodd" clip-rule="evenodd" d="M1199.7 170.333L1217.71 159.936L1234.28 150.369C1237.76 148.369 1238.08 148.308 1238.08 143.525V124.642V105.191C1238.08 100.214 1237.57 100.756 1234.45 99.0159L1217.71 89.3483L1202.54 80.5884C1196.91 77.3417 1197.5 77.5604 1193.26 79.9339L1176.96 89.3483L1160.75 98.7034C1156.08 101.402 1156.7 102.092 1156.58 106.318V124.643C1156.58 130.93 1156.58 137.218 1156.58 143.505C1156.92 147.543 1157.24 148.104 1160.19 150.254L1176.96 159.937L1194.67 170.165C1196.49 171.328 1198.25 171.173 1199.7 170.334L1199.7 170.333ZM1183.84 128.702L1183.81 128.717L1194.16 122.745V86.0696L1179.84 94.3381L1162.34 104.44V124.643V141.116L1169.94 136.73V121.61C1169.94 117.457 1169.97 117.804 1172.56 116.271L1179.9 112.005C1184.09 109.575 1183.79 109.872 1183.84 113.924V128.702V128.702ZM1206.18 159.941L1214.83 154.947L1197.33 165.049L1179.84 154.947L1164.89 146.317L1173.74 141.21L1206.18 159.94L1206.18 159.941ZM1220.11 151.896L1187.3 133.381L1197.05 127.751L1229.49 146.481L1220.11 151.896V151.896ZM1232.32 141.442L1199.94 122.745V85.7414L1214.82 94.3375L1232.32 104.439V124.642V141.442H1232.32Z" fill="#314218"/>
<path fill-rule="evenodd" clip-rule="evenodd" d="M1285.89 170.332L1267.89 159.936L1251.32 150.368C1247.84 148.368 1247.51 148.308 1247.51 143.525V124.642V105.19C1247.51 100.213 1248.02 100.755 1251.14 99.0152L1267.89 89.3476L1283.06 80.5877C1288.68 77.341 1288.09 77.5596 1292.33 79.9331L1308.64 89.3476L1324.84 98.7033C1329.51 101.401 1328.89 102.091 1329.01 106.317V124.642C1329.01 130.929 1329.01 137.217 1329.01 143.505C1328.68 147.542 1328.35 148.103 1325.41 150.254L1308.64 159.937L1290.92 170.164C1289.11 171.327 1287.35 171.172 1285.89 170.333L1285.89 170.332ZM1301.75 128.701L1301.78 128.716L1291.44 122.744V86.0689L1305.76 94.3374L1323.25 104.44V124.643V141.115L1315.66 136.73V121.61C1315.66 117.457 1315.63 117.804 1313.04 116.271L1305.69 112.005C1301.5 109.574 1301.8 109.871 1301.75 113.923V128.701V128.701ZM1279.42 159.94L1270.77 154.946L1288.26 165.048L1305.76 154.946L1320.7 146.317L1311.85 141.209L1279.41 159.94L1279.42 159.94ZM1265.49 151.896L1298.3 133.381L1288.55 127.75L1256.11 146.48L1265.49 151.895V151.896ZM1253.27 141.442L1285.66 122.744V85.7406L1270.77 94.3367L1253.27 104.439V124.642V141.442H1253.27Z" fill="#314218"/>
<path fill-rule="evenodd" clip-rule="evenodd" d="M1380.81 170.332L1398.82 159.936L1415.39 150.368C1418.87 148.368 1419.19 148.308 1419.19 143.525V124.642V105.19C1419.19 100.213 1418.68 100.755 1415.56 99.0152L1398.82 89.3476L1383.65 80.5877C1378.02 77.341 1378.61 77.5596 1374.37 79.9331L1358.07 89.3476L1341.86 98.7033C1337.19 101.401 1337.81 102.091 1337.69 106.317V124.642C1337.69 130.929 1337.69 137.217 1337.69 143.505C1338.03 147.542 1338.35 148.103 1341.3 150.254L1358.07 159.937L1375.78 170.164C1377.6 171.327 1379.36 171.172 1380.81 170.333L1380.81 170.332ZM1364.95 128.701L1364.93 128.716L1375.27 122.744V86.0689L1360.95 94.338L1343.45 104.44V124.643V141.115L1351.05 136.73V121.61C1351.05 117.457 1351.08 117.804 1353.67 116.271L1361.02 112.005C1365.2 109.574 1364.9 109.871 1364.95 113.923V128.701V128.701ZM1387.29 159.94L1395.94 154.946L1378.44 165.048L1360.95 154.946L1346.01 146.317L1354.85 141.209L1387.29 159.94L1387.29 159.94ZM1401.22 151.896L1368.41 133.381L1378.16 127.75L1410.6 146.48L1401.22 151.895V151.896ZM1413.43 141.442L1381.05 122.744V85.7406L1395.94 94.3374L1413.43 104.439V124.642V141.442H1413.43Z" fill="#314218"/>
<path fill-rule="evenodd" clip-rule="evenodd" d="M1466.01 170.332L1448.01 159.936L1431.44 150.368C1427.96 148.369 1427.63 148.308 1427.63 143.525V124.642V105.191C1427.63 100.214 1428.14 100.756 1431.26 99.016L1448.01 89.3477L1463.18 80.5884C1468.8 77.3417 1468.21 77.5604 1472.45 79.9339L1488.76 89.3477L1504.96 98.7034C1509.63 101.401 1509.01 102.092 1509.13 106.318V124.642C1509.13 130.93 1509.13 137.217 1509.13 143.505C1508.8 147.543 1508.47 148.104 1505.53 150.254L1488.76 159.937L1471.04 170.165C1469.23 171.328 1467.47 171.173 1466.01 170.333L1466.01 170.332ZM1481.87 128.702L1481.9 128.717L1471.56 122.745V86.069L1485.88 94.3381L1503.37 104.44V124.643V141.116L1495.78 136.73V121.61C1495.78 117.457 1495.75 117.804 1493.16 116.271L1485.81 112.005C1481.62 109.575 1481.92 109.871 1481.87 113.923V128.702V128.702ZM1459.54 159.941L1450.89 154.947L1468.38 165.048L1485.88 154.947L1500.82 146.317L1491.97 141.21L1459.53 159.94L1459.54 159.941ZM1445.6 151.896L1478.42 133.381L1468.67 127.751L1436.23 146.481L1445.6 151.896V151.896ZM1433.39 141.442L1465.77 122.745V85.7414L1450.89 94.3375L1433.39 104.439V124.642V141.442H1433.39Z" fill="#314218"/>
<path fill-rule="evenodd" clip-rule="evenodd" d="M1560.93 170.332L1578.94 159.936L1595.51 150.368C1598.99 148.369 1599.31 148.308 1599.31 143.525V124.642V105.191C1599.31 100.214 1598.8 100.756 1595.68 99.016L1578.94 89.3477L1563.77 80.5884C1558.14 77.3417 1558.73 77.5604 1554.49 79.9339L1538.19 89.3477L1521.98 98.7034C1517.31 101.401 1517.93 102.092 1517.81 106.318V124.642C1517.81 130.93 1517.81 137.217 1517.81 143.505C1518.15 147.543 1518.47 148.104 1521.42 150.254L1538.19 159.937L1555.9 170.165C1557.72 171.328 1559.48 171.173 1560.93 170.333L1560.93 170.332ZM1545.07 128.702L1545.04 128.717L1555.39 122.745V86.069L1541.07 94.3381L1523.57 104.44V124.643V141.116L1531.17 136.73V121.61C1531.17 117.457 1531.2 117.804 1533.79 116.271L1541.13 112.005C1545.32 109.575 1545.02 109.871 1545.07 113.923V128.702V128.702ZM1567.41 159.941L1576.06 154.947L1558.56 165.048L1541.07 154.947L1526.12 146.317L1534.97 141.21L1567.41 159.94L1567.41 159.941ZM1581.34 151.896L1548.53 133.381L1558.28 127.751L1590.72 146.481L1581.34 151.896V151.896ZM1593.55 141.442L1561.17 122.745V85.7414L1576.06 94.3375L1593.55 104.439V124.642V141.442H1593.55Z" fill="#314218"/>
<path fill-rule="evenodd" clip-rule="evenodd" d="M1647.12 170.332L1629.12 159.936L1612.55 150.368C1609.07 148.369 1608.74 148.308 1608.74 143.525V124.642V105.191C1608.74 100.214 1609.25 100.756 1612.37 99.016L1629.12 89.3477L1644.29 80.5884C1649.91 77.3417 1649.32 77.5604 1653.56 79.9339L1669.87 89.3477L1686.07 98.7034C1690.74 101.402 1690.12 102.092 1690.24 106.318V124.642C1690.24 130.93 1690.24 137.218 1690.24 143.505C1689.91 147.543 1689.58 148.104 1686.64 150.254L1669.87 159.937L1652.15 170.165C1650.34 171.328 1648.58 171.173 1647.12 170.333L1647.12 170.332ZM1662.98 128.702L1663.01 128.717L1652.67 122.745V86.069L1666.99 94.3381L1684.48 104.44V124.643V141.116L1676.89 136.73V121.61C1676.89 117.457 1676.86 117.804 1674.27 116.271L1666.92 112.005C1662.73 109.575 1663.03 109.872 1662.98 113.924V128.702V128.702ZM1640.65 159.941L1632 154.947L1649.49 165.048L1666.99 154.947L1681.93 146.317L1673.08 141.21L1640.65 159.94L1640.65 159.941ZM1626.72 151.896L1659.53 133.381L1649.78 127.751L1617.34 146.481L1626.72 151.896V151.896ZM1614.5 141.442L1646.89 122.745V85.7414L1632 94.3375L1614.5 104.439V124.642V141.442H1614.5Z" fill="#314218"/>
<path fill-rule="evenodd" clip-rule="evenodd" d="M1742.04 170.333L1760.05 159.936L1776.62 150.369C1780.1 148.369 1780.42 148.308 1780.42 143.525V124.642V105.191C1780.42 100.214 1779.91 100.756 1776.79 99.0159L1760.05 89.3483L1744.88 80.5884C1739.26 77.3417 1739.84 77.5604 1735.6 79.9339L1719.3 89.3483L1703.1 98.7034C1698.42 101.402 1699.04 102.092 1698.92 106.318V124.643C1698.92 130.93 1698.92 137.218 1698.92 143.505C1699.26 147.543 1699.58 148.104 1702.53 150.254L1719.3 159.937L1737.01 170.165C1738.83 171.328 1740.59 171.173 1742.04 170.334L1742.04 170.333ZM1726.18 128.702L1726.16 128.717L1736.5 122.745V86.0696L1722.18 94.3381L1704.69 104.44V124.643V141.116L1712.28 136.73V121.61C1712.28 117.457 1712.31 117.804 1714.9 116.271L1722.25 112.005C1726.43 109.575 1726.13 109.872 1726.18 113.924V128.702V128.702ZM1748.52 159.941L1757.17 154.947L1739.67 165.049L1722.18 154.947L1707.24 146.317L1716.08 141.21L1748.52 159.94L1748.52 159.941ZM1762.45 151.896L1729.64 133.381L1739.39 127.751L1771.83 146.481L1762.45 151.896V151.896ZM1774.66 141.442L1742.28 122.745V85.7414L1757.17 94.3375L1774.66 104.439V124.642V141.442H1774.66Z" fill="#314218"/>
<path fill-rule="evenodd" clip-rule="evenodd" d="M1828.23 170.332L1810.23 159.936L1793.66 150.368C1790.18 148.368 1789.85 148.308 1789.85 143.525V124.642V105.19C1789.85 100.213 1790.36 100.755 1793.49 99.0152L1810.23 89.3476L1825.4 80.5877C1831.02 77.341 1830.43 77.5596 1834.68 79.9331L1850.98 89.3476L1867.18 98.7033C1871.85 101.401 1871.24 102.091 1871.35 106.317V124.642C1871.35 130.929 1871.35 137.217 1871.35 143.505C1871.02 147.542 1870.69 148.103 1867.75 150.254L1850.98 159.937L1833.27 170.164C1831.45 171.327 1829.69 171.172 1828.23 170.333L1828.23 170.332ZM1844.09 128.701L1844.12 128.716L1833.78 122.744V86.0689L1848.1 94.3374L1865.59 104.44V124.643V141.115L1858 136.73V121.61C1858 117.457 1857.97 117.804 1855.38 116.271L1848.03 112.005C1843.84 109.574 1844.14 109.871 1844.09 113.923V128.701V128.701ZM1821.76 159.94L1813.11 154.946L1830.6 165.048L1848.1 154.946L1863.04 146.317L1854.2 141.209L1821.76 159.94L1821.76 159.94ZM1807.83 151.896L1840.64 133.381L1830.89 127.75L1798.45 146.48L1807.83 151.895V151.896ZM1795.61 141.442L1828 122.744V85.7406L1813.11 94.3367L1795.62 104.439V124.642V141.442H1795.61Z" fill="#314218"/>
<path fill-rule="evenodd" clip-rule="evenodd" d="M1920 78.2502C1919.19 78.4721 1918.28 79.0549 1916.71 79.934L1900.41 89.3477L1884.21 98.7034C1879.54 101.401 1880.15 102.091 1880.04 106.317V124.642C1880.04 130.93 1880.04 137.217 1880.04 143.505C1880.37 147.542 1880.7 148.104 1883.64 150.254L1900.41 159.936L1918.12 170.165C1918.76 170.571 1919.39 170.817 1920 170.928V164.594L1903.29 154.947L1888.35 146.318L1897.19 141.21L1920 154.379V138.6L1910.75 133.381L1920 128.042V78.2515L1920 78.2502ZM1907.29 128.7L1907.27 128.716L1917.61 122.743V86.0684L1903.29 94.3375L1885.8 104.439V124.642V141.115L1893.39 136.729V121.609C1893.39 117.456 1893.42 117.804 1896.01 116.27L1903.36 112.005C1907.54 109.574 1907.25 109.871 1907.29 113.923V128.701V128.7Z" fill="#314218"/>
<path fill-rule="evenodd" clip-rule="evenodd" d="M1878.4 0.667618L1896.4 11.0636L1912.97 20.632C1916.45 22.6309 1916.78 22.6916 1916.78 27.4752V46.3582V65.809C1916.78 70.7858 1916.27 70.2441 1913.15 71.984L1896.4 81.6523L1881.23 90.4115C1875.61 93.6582 1876.2 93.4396 1871.96 91.066L1855.65 81.6523L1839.45 72.2966C1834.78 69.5987 1835.39 68.9082 1835.28 64.682V46.3576C1835.28 40.0698 1835.28 33.7826 1835.28 27.4948C1835.61 23.4578 1835.94 22.8959 1838.88 20.7462L1855.65 11.0629L1873.37 0.834684C1875.18 -0.328252 1876.94 -0.17228 1878.4 0.666966L1878.4 0.667618ZM1862.54 42.2984L1862.51 42.2834L1872.85 48.2554V84.9309L1858.53 76.6618L1841.04 66.5602V46.3569V29.884L1848.63 34.2701V49.3896C1848.63 53.5427 1848.66 53.1955 1851.25 54.7285L1858.6 58.9946C1862.79 61.4249 1862.49 61.1286 1862.54 57.0766V42.2978V42.2984ZM1884.87 11.059L1893.52 16.0534L1876.03 5.95174L1858.53 16.0534L1843.59 24.6827L1852.43 29.79L1884.87 11.0597L1884.87 11.059ZM1898.8 19.1036L1865.99 37.6192L1875.74 43.2492L1908.18 24.5189L1898.8 19.1043V19.1036ZM1911.02 29.5577L1878.63 48.2554V85.2585L1893.52 76.6625L1911.01 66.5608V46.3576V29.5577H1911.02Z" fill="#314218"/>
</g>
<defs>
<clipPath id="clip0_2001_112">
<rect width="1940" height="171" fill="white" transform="translate(-20 152)"/>
</clipPath>
<clipPath id="clip1_2001_112">
<rect width="1940" height="171" fill="white" transform="translate(-20)"/>
</clipPath>
</defs>
</svg>
