<svg width="692" height="636" viewBox="0 0 692 636" fill="none" xmlns="http://www.w3.org/2000/svg">
<path opacity="0.05" fill-rule="evenodd" clip-rule="evenodd" d="M121.335 411.984L135.663 387.845L151.656 362.291L131.155 349.414L121.206 342.787L111.436 335.989L100.556 328.086L101.309 338.322L101.794 343.125L102.339 347.72L102.934 352.115L103.578 356.321L104.272 360.338L105.005 364.175L105.778 367.842L106.58 371.351L108.255 377.898L109.999 383.868L111.763 389.33L113.943 395.449L115.053 398.32L116.192 401.11L117.381 403.841L118.62 406.542L119.928 409.253L121.315 411.994L121.335 411.984ZM407.941 167.925L405.196 155.826L421.466 139.75L432.148 129.704L452.184 111.724L457.218 119.867L461.508 127.312L465.145 134.149L466.74 137.358L468.207 140.437L470.793 146.258L472.993 151.69L474.895 156.792L476.59 161.656L469.961 162.952L463.044 164.128L455.87 165.174L448.458 166.071L440.828 166.809L433 167.377L424.994 167.756L416.829 167.945L407.941 167.925ZM412.37 274.197L413.846 258.809L414.847 243.052L415.244 231.69L415.263 225.701L415.105 219.382L414.738 212.645L414.114 205.389L413.192 197.525L411.934 188.954L421.06 189.443L429.978 189.742L440.908 189.901L446.447 189.841L452.115 189.632L457.971 189.253L464.075 188.665L470.486 187.838L477.264 186.732L484.339 185.336L487.133 194.765L488.372 199.299L489.491 203.725L490.472 207.98L491.344 212.156L492.84 220.329L494.069 228.382L496.447 247.258L497.567 258.56L486.033 262.058L480.236 263.653L474.42 265.138L468.583 266.523L462.717 267.789L456.831 268.955L450.916 270.012L441.641 271.437L432.198 272.603L422.477 273.52L412.39 274.187L412.37 274.197ZM375.439 354.358L346.882 348.786L321.565 343.125L297.218 337.016L268.284 328.873L288.181 299.323L305.582 274.666L313.806 277.257L322.179 279.709L330.641 282.001L339.123 284.134L347.546 286.087L355.849 287.851L363.955 289.416L371.793 290.772L382.614 292.356L392.879 293.512L391.769 298.834L390.452 304.575L388.876 310.844L387.003 317.771L382.128 334.046L375.439 354.338V354.358ZM394.098 167.397L400.628 167.716L400.35 164.277L400.014 161.168L394.098 167.397ZM347.04 452.149L342.145 458.846L337.528 464.776L333.138 470.028L328.957 474.703L324.953 478.889L321.099 482.696L313.707 489.523L306.354 495.981L302.639 499.111L298.814 502.21L294.84 505.3L290.659 508.399L286.229 511.539L281.493 514.738L289.846 516.193L297.535 517.389L311.527 519.213L327.649 520.838L342.7 521.914L356.87 522.572L370.346 522.93L395.683 523.04L407.525 522.731L418.791 522.133L429.403 521.226L439.174 520.13L455.187 517.967L465.65 516.432L467.583 516.074L468.474 515.884L469.317 515.695L470.119 515.486L470.892 515.266L471.635 515.027L472.359 514.778L473.062 514.509L473.756 514.22L474.44 513.901L475.123 513.552L475.807 513.183L476.501 512.775L477.214 512.336L477.947 511.858L478.71 511.339L479.503 510.781L481.207 509.516L485.26 506.356L489.541 502.898L491.899 500.905L494.366 498.732L496.893 496.39L499.43 493.868L500.698 492.543L501.957 491.167L503.195 489.752L504.414 488.297L496.963 487.599L486.945 486.423L476.352 484.888L465.046 482.955L452.878 480.583L451.57 482.028L450.163 483.523L448.657 485.068L447.061 486.643L443.643 489.852L440.006 493.051L438.133 494.616L436.241 496.151L434.328 497.636L432.416 499.061L430.513 500.416L428.631 501.682L426.778 502.858L425.866 503.406L424.964 503.924L431.138 497.267L436.706 490.918L441.681 484.879L443.94 481.978L446.051 479.148L420.426 473.138L385.447 463.799L366.512 458.238L347.04 452.149ZM396.07 274.746L397.209 266.164L398.151 257.832L399.568 241.617L400.777 220.498L401.292 197.745L401.282 188.087L392.285 187.021L387.647 186.343L382.901 185.566L378.244 184.718L362.825 202.379L347.09 221.116L329.591 242.793L310.407 268.038L320.772 269.902L331.028 271.407L341.135 272.593L351.054 273.49L360.745 274.128L370.178 274.536L388.083 274.815L396.07 274.746ZM521.012 250.039L519.614 239.564L517.969 229.597L516.176 220.538L514.174 211.887L511.975 203.565L509.567 195.502L506.971 187.639L504.246 180.064L510.904 177.822L517.732 175.25L521.2 173.845L524.708 172.35L528.245 170.755L531.812 169.071L535.706 174.164L539.472 179.347L543.118 184.689L546.666 190.26L549.074 194.306L551.432 198.482L553.741 202.778L555.99 207.183L558.18 211.678L560.3 216.252L562.342 220.897L564.314 225.601L558.021 229.886L552.046 233.753L546.359 237.222L540.919 240.341L535.697 243.142L530.663 245.663L525.788 247.936L521.031 249.999L521.012 250.039ZM574.539 367.115L568.802 367.733L562.778 368.271L549.787 369.098L541.513 369.427L532.734 369.606L523.429 369.626L513.57 369.477L516.443 355.693L518.861 342.717L520.793 330.448L521.566 324.558L522.21 318.807L522.706 313.386L523.082 308.083L523.35 302.891L523.509 297.808L523.558 287.941L523.3 278.433L529.464 276.101L535.657 273.609L540.195 271.696L544.773 269.663L549.41 267.46L554.107 265.058L556.476 263.763L558.864 262.407L561.271 260.972L563.689 259.467L566.127 257.882L568.594 256.208L571.071 254.444L573.578 252.59L574.589 256.587L575.521 260.713L576.373 264.978L577.136 269.404L577.81 274.018L578.384 278.842L578.85 283.885L579.217 289.167L579.553 297.379L579.653 306.11L579.494 315.319L579.068 324.977L578.374 335.023L577.403 345.428L576.145 356.142L574.589 367.135L574.539 367.115ZM491.443 368.56L475.321 367.444L456.276 365.709L436.092 363.457L415.145 360.706L393.82 357.487L401.599 330.249L404.889 317.253L406.365 310.794L407.723 304.306L409.496 294.629L414.778 294.778L420.04 294.828L430.602 294.678L437.727 294.399L444.911 293.991L452.115 293.443L459.289 292.765L466.403 291.948L473.419 290.991L480.286 289.895L486.974 288.659L492.969 287.393L498.806 286.008L498.776 292.984L498.607 300.28L498.28 307.934L497.785 315.987L496.844 327.259L495.516 339.567L493.742 353.231L491.443 368.56ZM225.21 402.326L212.17 430.531L202.638 452.876L198.922 462.265L195.761 470.686L190.697 485.277L187.675 494.705L185.138 503.287L187.863 505.768L190.588 508.15L193.333 510.432L196.078 512.635L198.823 514.748L201.567 516.781L207.047 520.628L212.497 524.226L217.907 527.595L228.52 533.824L240.906 540.721L246.98 543.92L253.025 546.96L259.079 549.82L265.173 552.511L271.346 555.023L277.638 557.345L284.079 559.477L290.649 561.421L297.327 563.185L304.105 564.76L310.952 566.145L317.849 567.341L324.765 568.348L331.692 569.175L338.598 569.813L345.475 570.261L352.302 570.53L359.07 570.62L365.758 570.54L372.358 570.291L378.848 569.873L385.22 569.294L391.462 568.557L397.596 567.66L403.64 566.613L409.605 565.417L415.531 564.072L421.427 562.587L427.323 560.953L433.238 559.178L439.184 557.275L445.139 555.242L451.074 553.079L456.96 550.797L462.777 548.385L468.484 545.863L474.053 543.222L479.463 540.481L484.695 537.631L489.759 534.681L494.684 531.621L499.489 528.462L504.216 525.193L508.883 521.824L518.148 514.768L526.432 508.13L534.349 501.453L538.035 498.194L541.464 495.044L544.585 492.034L546.012 490.589L547.349 489.194L535.578 489.473L529.494 489.463L523.251 489.343L520.417 491.945L517.623 494.406L514.868 496.749L512.153 498.971L509.478 501.094L506.832 503.107L501.659 506.855L496.626 510.263L491.721 513.393L486.955 516.273L482.307 518.974L472.626 524.326L467.82 526.807L462.945 529.189L457.931 531.482L452.709 533.714L447.21 535.897L441.354 538.06L435.101 540.202L428.462 542.295L421.476 544.309L414.183 546.202L406.613 547.946L398.815 549.491L390.808 550.807L386.746 551.365L382.643 551.853L400.786 546.491L409.744 543.671L418.256 540.82L426.044 537.98L429.572 536.575L432.812 535.189L434.318 534.502L435.735 533.824L437.063 533.156L438.292 532.488L439.431 531.84L439.956 531.512L440.452 531.183L440.928 530.864L441.373 530.545L441.8 530.236L442.196 529.927L434.923 531.123L427.818 532.129L420.882 532.957L414.114 533.624L407.515 534.133L401.084 534.492L394.821 534.721L388.717 534.82L382.792 534.81L377.025 534.691L366.006 534.193L355.651 533.415L345.97 532.428L336.933 531.312L328.431 530.086L320.316 528.731L312.448 527.256L296.891 523.947L262.854 515.784L253.599 513.363L244.275 510.742L235.01 507.901L225.924 504.821L221.494 503.187L217.154 501.483L212.923 499.699L208.821 497.845L249.566 508.011L265.648 511.579L279.481 514.339L284.347 510.143L288.538 506.267L292.284 502.569L295.791 498.901L299.606 494.735L303.57 490.23L312.647 479.397L317.561 473.278L320.167 469.839L322.843 466.112L325.558 462.065L326.925 459.913L328.293 457.67L329.66 455.338L331.028 452.906L332.385 450.365L333.733 447.714L307.534 438.355L286.021 429.893L265.104 420.993L244.82 411.755L225.21 402.296V402.326ZM177.736 564.62L186.06 569.763L194.562 574.617L203.222 579.171L212.031 583.417L220.989 587.354L230.075 590.972L239.281 594.28L248.595 597.26L258.009 599.911L267.501 602.234L277.074 604.227L286.705 605.881L296.386 607.197L306.107 608.174L315.857 608.811L325.627 609.11L335.397 609.071L345.168 608.682L354.908 607.954L364.619 606.888L374.29 605.483L383.912 603.739L393.464 601.656L402.937 599.244L412.32 596.503L421.605 593.433L430.781 590.045L439.828 586.337L448.746 582.321L457.515 577.995L466.136 573.361L474.588 568.427L482.872 563.205L490.968 557.703L498.865 551.913L506.564 545.853L514.046 539.525L521.309 532.937L528.334 526.11L535.122 519.034L541.662 511.728L547.944 504.194L553.959 496.45L559.706 488.496L564.769 488.068L569.734 487.52L574.599 486.832L576.997 486.433L579.365 485.995L581.714 485.506L584.032 484.968L586.321 484.38L588.59 483.732L590.82 483.035L593.03 482.277L595.21 481.45L597.36 480.563L594.328 481.012L591.276 481.39L588.204 481.709L585.112 481.968L578.86 482.327L572.508 482.487L566.018 482.477L559.369 482.317L545.526 481.619L530.841 480.553L515.274 479.028L498.816 476.925L481.475 474.125L463.252 470.517L444.188 466.072L424.34 460.79L403.779 454.65L382.614 447.704L361.23 440.139L319.652 424.103L281.671 408.007L245.959 391.423L228.312 382.692L210.832 373.633L193.71 364.254L177.132 354.567L161.248 344.591L146.097 334.425L131.69 324.179L118.035 313.964L105.144 303.878L93.1142 293.951L82.0261 284.214L76.8636 279.43L71.9785 274.706L67.3708 270.041L63.0406 265.447L58.978 260.932L55.1729 256.487L51.6156 252.132L48.2961 247.856L45.2144 243.67L42.3508 239.584L39.7051 235.597L37.2873 231.71L36.1676 229.807L35.1073 227.933L34.1065 226.079L33.1652 224.245L32.2932 222.442L31.4906 220.667L30.7474 218.923L30.0736 217.199L29.4692 215.505L28.944 213.84L28.7062 213.013L28.4882 212.196L28.29 211.389L28.1017 210.591L27.9432 209.794L27.7945 209.007L27.6657 208.229L27.5567 207.452L27.4676 206.685L27.3982 205.917L27.3486 205.16L27.309 204.402L27.2892 203.655V202.907L27.2991 202.17L27.3288 201.432L27.3784 200.695L27.4378 199.957L27.5171 199.23L27.6162 198.502L27.7351 197.775L27.8639 197.057L28.0125 196.329L28.1711 195.612L28.3494 194.894L28.5377 194.177L28.7458 193.459L28.9638 192.751L29.2016 192.034L29.4493 191.326L29.9943 189.891L30.5988 188.456L31.2528 187.021L31.9662 185.576L32.3427 184.848L32.7391 184.12L33.1553 183.393L33.5913 182.665L34.0471 181.938L34.5326 181.21L35.038 180.483L35.5631 179.755L36.118 179.028L36.7027 178.31L37.317 177.592L37.9611 176.875L38.6448 176.157L39.3583 175.45L40.1114 174.742L40.9041 174.034L41.7265 173.337L42.5886 172.639L43.5002 171.951L44.4515 171.264L45.4424 170.586L46.4828 169.908L47.5728 169.241L48.7024 168.573L49.8915 167.915L51.1202 167.267L52.4083 166.629L53.746 165.991L55.1432 165.364L56.5998 164.746L56.3521 164.716L56.0845 164.686L55.8071 164.666L55.5197 164.646L54.9054 164.626H54.2415L53.538 164.656L52.7948 164.696L52.012 164.756L51.1895 164.845L49.4456 165.075L47.5728 165.374L45.6009 165.742L43.5497 166.181L41.4292 166.679L39.2592 167.237L37.0693 167.855L34.8695 168.533L32.6796 169.26L30.5195 170.028L28.4089 170.845L26.3677 171.702L24.4057 172.599L22.5329 173.526L20.7394 174.493L19.8773 174.991L19.0351 175.49L18.2126 176.008L17.41 176.526L16.6272 177.054L15.8642 177.582L15.121 178.131L14.3977 178.679L13.6941 179.237L13.0104 179.795L12.3465 180.363L11.7024 180.941L11.0782 181.519L10.4737 182.107L9.88911 182.695L9.31439 183.293L8.7694 183.901L8.23432 184.509L7.71906 185.127L7.22361 185.745L6.73807 186.363L6.27235 186.991L5.83636 187.619L5.41028 188.257L5.00401 188.894L4.60765 189.542L4.23111 190.19L3.87439 190.838L3.53749 191.496L3.21049 192.153L2.90332 192.811L2.60605 193.479L2.3286 194.147L2.06106 194.814L1.82324 195.492L1.59534 196.17L1.38725 196.858L1.18907 197.545L1.01071 198.243L0.852168 198.941L0.703534 199.638L0.564809 200.346L0.445902 201.053L0.346813 201.771L0.257632 202.489L0.178361 203.216L0.118907 203.944L0.0693625 204.681L0.0297268 205.419L0.00990893 206.166L0 206.914L0.00990893 207.671L0.0693625 209.206L0.178361 210.761L0.336904 212.336L0.544991 213.93L0.812532 215.555L1.12962 217.199L1.49625 218.864L1.92233 220.558L2.40787 222.272L2.94295 224.016L3.53749 225.78L4.19148 227.564L4.90492 229.378L5.67782 231.212L6.51017 233.066L7.40197 234.949L8.36314 236.853L9.38376 238.787L10.4737 240.74L11.6331 242.713L12.8618 244.717L14.1797 246.76L15.5768 248.843L17.0731 250.966L18.6783 253.148L20.3926 255.391L22.2257 257.693L24.1976 260.065L26.2983 262.517L30.9555 267.659L36.2469 273.171L42.2517 279.101L50.5256 286.875L49.3564 296.492L48.5141 306.15L47.9989 315.827L47.8106 325.525L47.9592 335.212L48.4348 344.9L49.2375 354.557L50.3671 364.185L51.8336 373.772L53.6271 383.3L55.7377 392.758L58.1753 402.137L60.93 411.426L63.9919 420.615L67.3609 429.694L71.047 438.654L75.0403 447.484L79.321 456.165L83.8989 464.696L88.7642 473.068L83.2449 484.769L78.3895 495.592L73.4846 507.263L69.422 517.808L67.6879 522.701L66.1322 527.366L64.7549 531.811L63.546 536.046L62.4956 540.103L61.5939 543.99L60.8309 547.717L60.1967 551.315L59.6914 554.793L59.295 558.162L59.0077 561.441L58.8095 564.65L58.7005 567.799L58.6708 570.889L58.7203 573.919L58.8491 576.889L59.0473 579.779L59.3149 582.6L59.6419 585.35L60.0184 588.021L60.4544 590.613L60.9399 593.124L61.4651 595.556L62.0398 597.898L62.6443 600.151L63.2784 602.313L63.9423 604.376L64.636 606.35L65.3494 608.214L66.0827 609.988L66.8456 611.672L67.242 612.479L67.6384 613.267L68.0446 614.034L68.4509 614.771L68.8671 615.499L69.2931 616.197L69.7291 616.884L70.175 617.552L70.6309 618.2L71.0966 618.828L71.5623 619.446L72.0478 620.044L72.5433 620.622L73.0486 621.19L73.5639 621.738L74.0891 622.276L74.6242 622.804L75.1691 623.313L75.724 623.811L76.2988 624.299L76.8834 624.778L77.4779 625.236L78.0923 625.685L78.7165 626.123L79.3507 626.552L80.0047 626.98L80.6686 627.389L81.3424 627.798L82.036 628.196L82.7396 628.585L84.1962 629.332L85.7023 630.05L87.2679 630.728L88.8831 631.366L90.5577 631.964L92.272 632.522L94.0457 633.04L95.8689 633.528L97.7417 633.967L99.664 634.365L101.636 634.724L103.647 635.043L105.718 635.322L107.829 635.552L109.979 635.741L112.169 635.88L114.379 635.97L116.598 636L118.808 635.97L121.008 635.87L123.178 635.711L124.248 635.601L125.308 635.472L126.359 635.322L127.389 635.153L128.41 634.964L129.411 634.754L130.392 634.515L131.353 634.266L132.294 633.987L133.216 633.688L134.107 633.359L134.543 633.189L134.97 633.01L135.396 632.821L135.812 632.631L136.218 632.442L137.011 632.023L137.397 631.804L137.774 631.585L138.14 631.356L138.497 631.116L138.844 630.877L139.191 630.628L139.518 630.369L138.22 630.429L136.941 630.459L135.693 630.469L134.474 630.459L133.285 630.419L132.116 630.359L130.976 630.269L129.857 630.17L128.767 630.04L127.696 629.891L126.646 629.731L125.616 629.552L124.615 629.342L123.634 629.123L122.673 628.884L121.731 628.635L120.81 628.366L119.918 628.087L119.036 627.788L118.174 627.479L117.332 627.16L116.509 626.831L115.707 626.492L114.924 626.133L114.151 625.764L113.398 625.386L111.941 624.618L110.544 623.821L109.206 622.994L107.918 622.147L106.689 621.28L105.51 620.393L104.936 619.934L104.381 619.476L103.836 619.007L103.301 618.539L102.775 618.06L102.26 617.572L101.765 617.074L101.279 616.575L100.804 616.067L100.338 615.549L99.882 615.021L99.4361 614.482L99.0001 613.934L98.574 613.376L98.1579 612.808L97.7615 612.23L97.3651 611.642L96.9886 611.054L96.6121 610.446L96.2454 609.828L95.8887 609.2L95.5419 608.562L95.205 607.914L94.878 607.247L94.2438 605.891L93.6394 604.486L93.0647 603.021L92.5296 601.516L92.0242 599.971L91.5486 598.377L91.1126 596.742L90.7063 595.078L90.3298 593.373L89.9929 591.629L89.6857 589.855L89.4083 588.051L89.1705 586.218L88.9624 584.364L88.784 582.48L88.6453 580.576L88.5462 578.653L88.4768 576.71L88.4372 574.746L88.4669 570.779L88.6354 566.753L88.9426 562.657L89.3786 558.511L89.9533 554.315L90.6568 550.079L91.4991 545.804L92.48 541.488L93.5898 537.103L94.8483 532.628L96.2355 528.033L99.4361 518.376L103.202 507.891L107.591 496.37L112.764 483.623L118.957 469.48L126.378 453.763L134.841 437.119L145.047 418.562L157.423 397.752L172.415 374.35L199.724 389.23L208.742 393.935L185.138 443.468L177.211 461.168L173.951 468.912L171.058 476.178L168.422 483.284L166.064 490.091L163.963 496.619L162.1 502.878L160.455 508.868L158.999 514.608L156.551 525.352L154.609 535.229L153.816 539.923L153.133 544.498L152.558 548.993L152.102 553.448L151.755 557.903L151.517 562.388L151.389 566.932L151.379 571.507L151.508 576.072L151.626 578.344L151.785 580.596L151.983 582.819L152.231 585.022L152.528 587.194L152.865 589.327L153.252 591.42L153.688 593.473L154.173 595.466L154.718 597.41L155.015 598.357L155.322 599.293L155.649 600.21L155.986 601.117L156.333 602.004L156.69 602.881L157.057 603.739L157.433 604.586L157.829 605.423L158.236 606.24L158.652 607.047L159.078 607.835L159.514 608.612L159.96 609.37L160.416 610.117L160.881 610.855L161.357 611.572L161.843 612.28L162.843 613.655L163.874 614.971L164.934 616.237L166.024 617.452L167.144 618.609L168.283 619.715L169.443 620.771L170.622 621.778L171.811 622.745L173.03 623.661L174.258 624.529L175.507 625.356L176.765 626.133L178.044 626.871L179.342 627.568L180.65 628.226L181.978 628.844L183.315 629.432L184.673 629.98L186.05 630.499L187.437 630.977L188.844 631.435L190.261 631.854L191.688 632.243L193.135 632.611L194.592 632.95L196.058 633.259L197.525 633.538L199.001 633.787L200.477 634.007L201.954 634.206L203.43 634.375L204.907 634.515L206.373 634.635L207.84 634.724L209.296 634.784L210.743 634.814H212.17L213.587 634.794L214.994 634.744L216.381 634.664L217.769 634.565L219.146 634.435L220.533 634.276L221.92 634.096L224.735 633.658L227.628 633.11L230.64 632.452L237.15 630.817L240.698 629.841L244.394 628.744L248.169 627.518L250.062 626.851L251.944 626.143L253.807 625.396L255.64 624.598L257.434 623.761L259.188 622.874L260.04 622.416L260.872 621.947L261.695 621.459L262.497 620.961L263.28 620.452L264.043 619.924L264.786 619.386L265.51 618.838L256.245 620.841L252.034 621.638L248.09 622.316L244.394 622.874L240.926 623.313L237.676 623.642L234.624 623.871L231.76 624L229.065 624.03L227.777 624.01L226.528 623.971L225.309 623.911L224.13 623.831L222.981 623.731L221.861 623.612L220.771 623.472L219.701 623.313L218.66 623.133L217.64 622.944L216.639 622.735L215.658 622.515L214.687 622.276L213.736 622.027L212.794 621.758L211.873 621.479L210.971 621.18L210.089 620.871L209.217 620.552L208.365 620.213L207.523 619.864L206.7 619.506L205.888 619.127L205.085 618.738L204.302 618.339L203.529 617.931L202.776 617.502L202.033 617.064L201.3 616.615L200.586 616.157L199.883 615.688L199.189 615.2L198.516 614.712L197.852 614.213L197.208 613.695L196.573 613.167L195.949 612.639L195.335 612.09L194.74 611.532L194.156 610.964L193.581 610.396L192.471 609.22L191.926 608.622L190.886 607.396L189.885 606.14L188.934 604.855L188.022 603.549L187.16 602.224L186.337 600.888L185.565 599.543L184.831 598.187L184.138 596.832L183.484 595.476L182.869 594.131L182.295 592.785L181.769 591.46L181.284 590.154L180.828 588.869L180.422 587.613L180.045 586.387L179.708 585.181L179.411 583.985L179.144 582.799L178.906 581.613L178.698 580.417L178.509 579.211L178.351 577.975L178.222 576.71L178.103 575.404L177.925 572.643L177.717 566.315L177.687 564.59L177.736 564.62ZM494.287 157.131L490.433 149.826L485.904 141.763L481.683 134.587L479.146 130.601L476.223 126.305L474.598 124.043L472.844 121.701L470.952 119.269L468.91 116.747L466.721 114.136L464.362 111.425L461.826 108.615L459.11 105.704L461.786 103.402L472.844 111.405L482.307 118.581L490.343 125.019L497.131 130.81L500.114 133.491L502.858 136.042L505.385 138.474L507.714 140.806L511.866 145.191L515.502 149.278L509.953 151.57L504.602 153.633L499.39 155.477L494.287 157.131ZM665.394 281.802L667.099 285.669L667.852 287.513L668.546 289.297L669.18 291.021L669.754 292.685L670.27 294.29L670.726 295.855L671.132 297.359L671.488 298.815L671.796 300.23L672.053 301.585L672.271 302.901L672.44 304.177L672.569 305.402L672.658 306.598L672.717 307.745L672.727 308.861L672.717 309.937L672.678 310.984L672.598 311.99L672.499 312.967L672.37 313.914L672.222 314.831L672.043 315.728L671.845 316.595L671.637 317.432L671.409 318.259L671.171 319.056L670.924 319.834L670.389 321.339L669.824 322.794L669.239 324.189L668.625 325.535L667.981 326.83L667.644 327.458L667.297 328.076L666.94 328.684L666.574 329.282L666.207 329.87L665.831 330.448L665.434 331.016L665.028 331.574L664.622 332.122L664.196 332.671L663.76 333.209L663.314 333.737L662.858 334.255L662.392 334.774L661.907 335.282L661.411 335.78L660.906 336.278L660.381 336.767L659.301 337.734L658.161 338.68L656.962 339.617L655.704 340.534L654.386 341.451L653.018 342.348L651.591 343.235L650.125 344.112L648.609 344.969L645.448 346.664L642.128 348.308L638.68 349.913L635.133 351.467L631.496 352.982L626.125 355.085L620.557 357.088L614.73 358.982L608.567 360.756L609.597 351.009L610.291 341.232L610.648 331.445L610.658 321.648L610.341 311.851L609.687 302.074L608.696 292.326L607.368 282.619L605.713 272.962L603.721 263.374L601.403 253.856L598.757 244.428L595.794 235.099L592.504 225.88L588.898 216.781L584.984 207.811L580.762 198.98L576.244 190.3L571.428 181.788L566.325 173.446L560.935 165.284L555.267 157.321L549.331 149.557L543.128 142.002L536.668 134.667L529.959 127.561L523.013 120.694L515.829 114.066L508.427 107.698L492.523 97.8209L485.131 93.4954L478.106 89.5587L490.571 79.3331L502.185 70.3134L510.607 64.1043L519.337 57.965L528.235 52.0449L532.704 49.2144L537.163 46.5035L546.032 41.4206L573.796 26.4909L566.87 28.9027L560.479 31.3346L554.553 33.7863L549.014 36.268L543.782 38.7795L538.798 41.3309L529.226 46.5833L519.812 52.0648L510.498 57.7357L501.342 63.5561L492.385 69.4762L483.645 75.476L475.004 81.6453L466.314 88.0936L448.151 102.336L438.341 110.468L427.798 119.558L416.334 129.823L403.769 141.494L389.946 154.889L374.706 170.337L357.891 188.167L339.044 209.236L328.322 221.873L316.412 236.504L287.953 273.48L251.608 323.651L234.544 317.851L217.263 311.462L259.733 261.082L294.682 221.953L325.092 190.07L351.935 163.829L377.035 140.707L400.945 119.897L423.835 101.09L434.873 92.4689L445.605 84.416L456.078 76.8913L466.611 69.6955L477.591 62.5794L489.402 55.284L502.264 47.6596L515.77 39.9855L529.355 32.6501L542.445 26.0523L548.638 23.1421L554.583 20.501L560.31 18.1091L565.83 15.9563L571.171 14.0328L576.353 12.3285L581.397 10.8236L586.321 9.50801L591.157 8.36186L593.545 7.86354L595.933 7.40508L598.311 6.99646L600.689 6.63767L603.067 6.32871L605.455 6.07954L607.853 5.88021L610.261 5.74068L612.689 5.65099L615.146 5.62109L617.633 5.65099L620.15 5.74068L622.707 5.89018L625.303 6.10944L624.154 5.61112L623.014 5.1427L621.875 4.69421L620.735 4.26565L619.605 3.86699L618.476 3.49823L617.356 3.1494L616.246 2.82051L614.037 2.23249L611.847 1.73416L609.687 1.31557L607.556 0.956781L605.455 0.667753L603.375 0.448491L601.333 0.269095L599.322 0.139531L595.398 0.00996646L591.613 0L587.976 0.0697653L584.419 0.229229L582.655 0.348826L580.891 0.498323L579.108 0.687686L577.314 0.916915L575.491 1.18601L573.638 1.49497L571.735 1.85376L569.783 2.25242L567.772 2.71088L565.701 3.21917L561.321 4.40518L556.585 5.84035L551.481 7.52468L546.022 9.46814L540.195 11.6807L527.432 16.8832L513.193 23.172L505.504 26.75L497.379 30.7366L488.748 35.2514L479.553 40.4339L469.713 46.4138L459.17 53.3206L447.854 61.2838L435.706 70.433L430.375 68.7188L425.321 67.2537L420.515 66.0179L415.937 64.9714L411.567 64.0844L407.366 63.3369L399.409 62.101L391.026 60.9649L383.03 60.0579L375.291 59.3902L367.671 58.9915L363.856 58.8918L360.011 58.8619L356.127 58.9118L352.183 59.0413L348.15 59.2506L344.028 59.5397L335.417 60.3669L330.889 60.915L326.192 61.5728L321.317 62.3602L316.243 63.297L310.962 64.4133L305.463 65.7189L299.715 67.2437L293.721 68.9978L287.448 71.021L280.898 73.3233L274.051 75.9245L266.887 78.8447L259.396 82.1137L251.558 85.7515L243.363 89.7779L234.802 94.213L251.697 87.964L266.639 82.9509L273.447 80.8679L279.838 79.0341L285.833 77.4394L291.461 76.0641L296.743 74.898L301.697 73.9113L306.354 73.0841L310.734 72.4064L314.856 71.8582L318.75 71.4197L325.934 70.8117L332.464 70.4529L338.449 70.2935L344.008 70.3333L349.26 70.5426L354.304 70.9014L359.258 71.3998L369.355 72.7253L379.423 74.3199L384.803 75.3265L390.422 76.5325L396.288 77.9776L402.421 79.7018L405.592 80.6885L408.833 81.7549L412.142 82.921L415.521 84.1768L390.679 104.09L368.682 122.617L348.477 140.487L329.006 158.427L322.417 156.733L315.936 154.869L302.163 150.484L289.569 146.138L282.365 143.388L274.438 140.079L265.678 136.082L255.997 131.278L245.296 125.528L233.474 118.711L242.095 125.777L250.2 131.976L254.065 134.777L257.811 137.388L264.965 142.112L271.693 146.228L278.015 149.826L283.97 153.005L289.588 155.846L297.119 159.483L304.264 162.712L311.289 165.643L318.443 168.363L296.624 189.662L270.672 216.721L237.864 253.178L195.473 302.682L185 298.207L159.811 286.915L135.772 275.493L125.298 270.261L116.45 265.626L112.783 263.603L109.682 261.809L108.364 261.012L107.215 260.274L106.234 259.607L105.808 259.298L105.431 259.018L105.986 255.73L106.68 252.221L107.502 248.504L108.453 244.607L110.693 236.385L113.338 227.734L116.341 218.854L119.631 209.944L123.148 201.183L126.834 192.781L128.717 188.765L130.629 184.888L132.562 181.131L134.524 177.493L136.515 173.965L138.527 170.546L140.558 167.227L142.609 164.008L146.781 157.839L151.032 151.979L155.362 146.397L159.752 141.035L164.211 135.853L168.739 130.84L173.367 125.986L178.103 121.272L182.968 116.697L187.982 112.242L193.155 107.907L198.506 103.671L204.045 99.5351L209.723 95.5186L215.47 91.6317L221.237 87.9042L232.573 80.9975L243.235 74.9578L248.199 72.3067L253.005 69.8849L257.811 67.6424L260.248 66.576L262.745 65.5395L265.302 64.5329L267.947 63.5561L273.566 61.6426L279.729 59.7589L286.586 57.8753L294.285 55.9717L298.516 55.0348L303.045 54.1179L307.89 53.2409L313.083 52.4236L318.651 51.6662L324.626 50.9884L331.038 50.3904L337.904 49.9021L345.267 49.5234L353.144 49.2742L361.567 49.1546L370.564 49.1845L390.392 49.7526L380.899 47.7992L371.347 46.1746L361.745 44.879L352.114 43.9222L342.453 43.3043L332.772 43.0153L323.091 43.0551L313.41 43.4339L303.758 44.1514L294.127 45.1979L284.545 46.5833L275.012 48.2975L265.54 50.3406L256.146 52.7027L246.841 55.3936L237.626 58.4035L228.53 61.7323L219.542 65.37L210.694 69.3168L201.984 73.5724L193.422 78.1271L185.02 82.9708L176.795 88.1036L168.739 93.5154L160.881 99.2062L153.222 105.166L145.77 111.385L138.537 117.863L131.531 124.591L124.753 131.547L118.223 138.733L111.941 146.148L105.917 153.773L100.15 161.606L94.66 169.629L89.4479 177.832L84.5232 186.213L79.8858 194.765L75.5457 203.475L71.5028 212.326L67.7672 221.305L64.3387 230.415L70.2543 237.361L76.2294 243.909L82.2441 250.069L88.3084 255.869L94.4123 261.321L100.546 266.453L106.709 271.277L112.883 275.822L119.076 280.108L125.279 284.154L131.472 287.971L137.665 291.589L143.848 295.027L150.011 298.306L162.269 304.476L174.397 310.226L186.357 315.598L209.663 325.315L231.938 333.787L252.955 341.162L272.624 347.61L291.412 353.331L309.932 358.544L328.808 363.457L348.517 368.241L369.009 372.806L390.105 377.031L411.627 380.779L433.397 383.948L455.226 386.509L476.937 388.453L498.33 389.769L519.228 390.456L539.432 390.526L558.745 389.998L568.01 389.509L576.977 388.882L585.628 388.114L593.951 387.207L601.938 386.171L609.587 385.015L616.88 383.739L623.817 382.353L630.386 380.868L636.589 379.294L642.416 377.619L647.866 375.865L650.452 374.948L652.949 374.022L655.357 373.065L657.675 372.088L659.895 371.091L662.035 370.075L664.086 369.038L666.049 367.982L667.921 366.905L669.715 365.809L671.419 364.693L673.044 363.557L674.59 362.411L676.057 361.245L677.444 360.059L678.108 359.46L678.752 358.853L679.376 358.245L679.98 357.637L680.575 357.019L681.15 356.401L681.705 355.783L682.25 355.165L682.775 354.537L683.28 353.899L683.766 353.261L684.241 352.623L684.697 351.986L685.133 351.338L685.559 350.69L685.965 350.042L686.362 349.394L686.748 348.737L687.115 348.079L687.472 347.421L688.145 346.095L688.76 344.77L689.335 343.434L689.86 342.089L690.097 341.411L690.325 340.734L690.543 340.056L690.751 339.368L690.94 338.67L691.118 337.973L691.277 337.265L691.415 336.558L691.544 335.84L691.663 335.112L691.762 334.375L691.841 333.637L691.911 332.88L691.96 332.122L691.99 331.345L692 330.568L691.99 329.77L691.97 328.963L691.931 328.146L691.871 327.309L691.792 326.462L691.693 325.594L691.574 324.717L691.435 323.82L691.277 322.904L691.098 321.977L690.9 321.03L690.682 320.073L690.167 318.1L689.562 316.047L688.869 313.924L688.066 311.741L687.63 310.635L687.164 309.509L686.669 308.372L686.144 307.226L685.589 306.08L685.004 304.914L684.38 303.748L683.726 302.572L683.032 301.396L682.309 300.22L681.546 299.034L680.753 297.858L679.921 296.682L679.059 295.506L678.147 294.33L677.206 293.154L676.225 291.988L675.194 290.821L674.124 289.665L673.015 288.519L671.865 287.383L670.666 286.257L669.427 285.141L668.139 284.034L666.802 282.948L665.424 281.872L665.394 281.802Z" fill="#00679F"/>
</svg>
